<svg id="Слой_1" xmlns="http://www.w3.org/2000/svg" viewBox="0 0 100 1000"><style>.st0{fill:#D6D6D6;stroke:#2F2F2F;stroke-width:2;stroke-linejoin:round;stroke-miterlimit:10;} .st1{fill:#F7F7F7;stroke:#2F2F2F;stroke-width:2;stroke-linejoin:round;stroke-miterlimit:10;} .st2{fill:none;stroke:#2F2F2F;stroke-width:2;stroke-linecap:round;stroke-miterlimit:10;} .st3{fill:none;stroke:#336699;stroke-width:2;stroke-linecap:round;stroke-miterlimit:10;} .st4{fill:#D6D6D6;stroke:#336699;stroke-width:2;stroke-miterlimit:10;} .st5{fill:none;stroke:#2F2F2F;stroke-width:2;stroke-linejoin:round;stroke-miterlimit:10;} .st6{fill:none;stroke:#2F2F2F;stroke-width:2;stroke-miterlimit:10;} .st7{fill:#C5C5C5;stroke:#2F2F2F;stroke-width:2;stroke-linecap:round;stroke-miterlimit:10;} .st8{fill:#969696;stroke:#2F2F2F;stroke-width:2;stroke-linecap:round;stroke-miterlimit:10;} .st9{fill:#D6D6D6;stroke:#2F2F2F;stroke-width:2;stroke-linecap:round;stroke-miterlimit:10;} .st10{fill:#B9B9B9;stroke:#2F2F2F;stroke-width:2;stroke-linecap:round;stroke-miterlimit:10;} .st11{fill:#C5C5C5;stroke:#336699;stroke-width:2;stroke-linecap:round;stroke-miterlimit:10;} .st12{fill:#D6D6D6;stroke:#2F2F2F;stroke-width:2;stroke-linecap:square;stroke-miterlimit:10;} .st13{fill:#336699;stroke:#336699;stroke-linecap:square;stroke-miterlimit:10;} .st14{fill:#D6D6D6;stroke:#2F2F2F;stroke-width:2;stroke-miterlimit:10;} .st15{fill:#F7F7F7;stroke:#336699;stroke-width:2;stroke-miterlimit:10;} .st16{fill:none;stroke:#336699;stroke-width:2;stroke-miterlimit:10;} .st17{fill:#D6D6D6;stroke:#2F2F2F;stroke-width:2;stroke-linecap:round;stroke-linejoin:round;stroke-miterlimit:10;} .st18{fill:#F7F7F7;stroke:#2F2F2F;stroke-width:2;stroke-miterlimit:10;} .st19{fill:#F7F7F7;stroke:#2F2F2F;stroke-width:2;stroke-linecap:round;stroke-linejoin:round;stroke-miterlimit:10;} .st20{fill:#C5C5C5;stroke:#336699;stroke-width:2;stroke-linecap:round;stroke-linejoin:round;stroke-miterlimit:10;} .st21{fill:none;stroke:#2F2F2F;stroke-width:5;stroke-miterlimit:10;} .st22{fill:none;stroke:#2F2F2F;stroke-width:2;stroke-linecap:round;stroke-linejoin:round;stroke-miterlimit:10;} .st23{fill:#2F2F2F;stroke:#2F2F2F;stroke-width:0.1;stroke-miterlimit:10;} .st24{fill:#2F2F2F;stroke:#2F2F2F;stroke-width:5.000000e-02;stroke-miterlimit:10;} .st25{fill:none;stroke:#336699;stroke-width:2;stroke-linecap:round;stroke-linejoin:round;stroke-miterlimit:10;}</style><path class="st0" d="M67.2 33.9V75H31.8V25h25.5z"/><path class="st1" d="M67.2 33.9v1.4H56.9V25h.4z"/><path class="st2" d="M36.7 32.4h12.8M36.7 37.8h12.8"/><path class="st3" d="M36.7 43.8H63M36.7 50.2H63M36.7 56.2H63"/><path class="st2" d="M36.7 62.6h25.2M36.7 67.9h25.2"/><path class="st4" d="M47 260.8c.2 0 .3-.2.3-.3V259c0-.9-.5-1.7-1.3-2.1l-5.7-3.5c-.2-.1-.2-.3-.2-.4 0-.2.1-.3.3-.4 1.7-.9 2.8-2.6 2.9-4.4l.2-4.5c0-2.6-2.2-4.8-4.9-4.8h-1.2c-2.7 0-4.9 2.1-4.9 4.8l.2 4.4c.1 1.9 1.2 3.6 2.9 4.4.2.1.3.2.3.4s-.1.4-.2.4l-5.7 3.5c-.9.4-1.4 1.2-1.4 2.1v1.4c0 .2.2.3.3.3H47z"/><path class="st2" d="M23.3 229.7h50"/><path class="st5" d="M23.4 235.7H73v28.7H23.4z"/><path class="st2" d="M52.8 244.3h14.3M52.8 250h14.3M52.8 255.7h14.3"/><path class="st4" d="M44.8 337.5h-.2c-.7.3-1.8.9-2.7 1.6-.4.3-.5.4-.9.8l-.1.1c-.6.9-.3 5.4.2 7.2.4 1.6 1.7 3.9 2 4.4.3.7.5 1.5.6 2.3l1.9 18.6c0 .3.3.5.6.5h3.3c.3 0 .5-.2.6-.5l1.9-18.6c.1-.8.3-1.6.6-2.3v-.1c.2-.4 1.5-2.8 2-4.4.5-1.9.7-6.3.2-7.2l-.1-.1c-.4-.3-.5-.5-.9-.8-.7-.5-1.6-1.1-2.7-1.6h-.2c-.1 0-.2.1-.3.1l-2.3 3.2c-.1.2-.3.2-.5.2s-.4-.1-.5-.2l-2.3-3.2c0 .1-.1 0-.2 0z"/><path class="st2" d="M38.5 339.9l-1.2-.6h-.2c-.1 0-.2.1-.3.1l-2.3 3.2c-.1.2-.3.2-.5.2s-.4-.1-.5-.2l-2.3-3.2c-.1-.1-.2-.1-.3-.1h-.2c-.7.3-1.8.9-2.7 1.6-.4.3-.5.4-.9.8l-.1.1c-.6.9-.3 5.4.2 7.2.4 1.6 1.7 3.9 2 4.4.3.7.5 1.5.6 2.3l1.9 18.6c0 .3.3.5.6.5h3.3c.3 0 .5-.2.6-.5l1.9-18.6c.1-.8.3-1.6.6-2.3v-.1c.1-.1.4-.6.7-1.3M56.1 351.8c.4.7.7 1.3.8 1.5.3.7.5 1.5.6 2.3l1.9 18.6c0 .3.3.5.6.5h3.3c.3 0 .5-.2.6-.5l1.9-18.6c.1-.8.3-1.6.6-2.3v-.1c.2-.4 1.5-2.8 2-4.4.5-1.9.7-6.3.2-7.2l-.1-.1c-.4-.3-.5-.5-.9-.8-.7-.5-1.6-1.1-2.7-1.6h-.2c-.1 0-.2.1-.3.1l-2.3 3.2c-.1.2-.3.2-.5.2s-.4-.1-.5-.2l-2.3-3.2c-.1-.1-.2-.1-.3-.1h-.2c-.3.2-.7.4-1.2.6"/><path class="st4" d="M44.2 328.7c0 .3-.3 3.4 1.2 5 .6.7 1.4 1 2.5 1 1 0 1.9-.3 2.5-1 1.4-1.6 1.2-4.7 1.2-5-.2-3.5-2.8-3.8-3.6-3.8h-.2c-.8-.1-3.5.2-3.6 3.8z"/><path class="st6" d="M58 330.9c0 .3-.3 3.4 1.2 5 .6.7 1.4 1 2.5 1 1 0 1.9-.3 2.5-1 1.4-1.6 1.2-4.7 1.2-5-.2-3.5-2.8-3.8-3.6-3.8h-.2c-.8-.1-3.4.2-3.6 3.8zM30.7 330.9c0 .3-.3 3.4 1.2 5 .6.7 1.4 1 2.5 1 1 0 1.9-.3 2.5-1 1.4-1.6 1.2-4.7 1.2-5-.2-3.5-2.8-3.8-3.6-3.8h-.2c-.8-.1-3.4.2-3.6 3.8z"/><path class="st2" d="M27.4 471.8h39.2M32.9 466h27.6v5.8H32.9z"/><path class="st7" d="M33.8 441.1v12.2H61.9"/><path class="st8" d="M70.8 460.7v2c0 1.8-1.4 3.2-3.2 3.2H26.2c-1.8 0-3.2-1.4-3.2-3.2v-2h47.8z"/><path class="st9" d="M70.8 457.1v3.6H23v-19.2c0-1.8 1.4-3.2 3.2-3.2h1.2v18.8h43.4z"/><path class="st2" d="M27.4 438.3v-9.1H73v27.9h-2.2M61.9 453.3H33.8v-12.2"/><path class="st10" d="M27.4 429.2H73v2.8H27.4z"/><path class="st11" d="M33.8 441.1h6.4v12.2h-6.4z"/><path class="st11" d="M40.1 436.7h6.4v16.6h-6.4zM46.5 445.8h6.4v7.5h-6.4z"/><path class="st11" d="M52.8 438.1h6.4v15.2h-6.4zM59.2 439.5h6.4v13.8h-6.4z"/><path class="st6" d="M69.4 453.3H30.7"/><path class="st12" d="M67.4 539.7h-7.5c-2.1 0-3.9-1.7-3.9-3.9v-7.5c0-2.1 1.7-3.9 3.9-3.9h7.5c2.1 0 3.9 1.7 3.9 3.9v7.5c-.1 2.1-1.8 3.9-3.9 3.9z"/><path class="st13" d="M69.8 529l-8.1 8-4-4 1.8-1.8 2.2 2.2 6.3-6.2z"/><path class="st12" d="M68.1 574.5h-8.9c-1.7 0-3.1-1.4-3.1-3.1v-8.9c0-1.7 1.4-3.1 3.1-3.1h8.9c1.7 0 3.1 1.4 3.1 3.1v8.9c0 1.7-1.4 3.1-3.1 3.1z"/><path class="st13" d="M69.8 563.8l-8.1 8.1-4-4.1 1.8-1.7 2.2 2.2L68 562z"/><path class="st12" d="M68.2 557.1h-9.1c-1.7 0-3-1.4-3-3V545c0-1.7 1.4-3 3-3h9.1c1.7 0 3 1.4 3 3v9.1c0 1.6-1.3 3-3 3z"/><path class="st6" d="M68.2 554.1l-9.2-9.2M59 554.1l9.2-9.2"/><path class="st2" d="M41.8 529h6.9M28.8 529h11.3M44.8 534.6h3.9M34.4 534.6H43M28.8 534.6h4M28.8 545.8h19.9M36.9 550.9h11.8M28.8 550.9h6.5M35.5 562.7h13.2M28.8 562.7h5M28.8 568.6h19.9"/><path class="st14" d="M65.9 625h5.5v49.8h-5.5z"/><path class="st6" d="M65.7 630l-35.1.3M65.7 625l-34.3 5.3M23.2 675h54.6"/><path class="st14" d="M25.3 639.9h31.9v34.8H25.3z"/><path class="st6" d="M40.6 634.9h10.6v5H40.6zM45.9 630.3v4.6M26.7 636.7h8.2v3.2h-8.2z"/><path class="st15" d="M30.6 645.6h7.8v8.5h-7.8zM43.1 645.6h7.8v8.5h-7.8zM43.1 659h7.8v8.5h-7.8zM30.6 659h7.8v8.5h-7.8z"/><path class="st2" d="M73.5 625h-2.1M48.3 724.7c.3-.9 1.2-1.6 2.2-1.6h20.4c1.3 0 2.3 1 2.3 2.3v45c0 1.3-1 2.3-2.3 2.3H53.8"/><circle class="st16" cx="67.4" cy="731.2" r="2.5"/><path class="st3" d="M54.1 733.7h.3c1.4 0 2.5-1.1 2.5-2.5s-1.1-2.5-2.5-2.5c-1.1 0-2.1.7-2.4 1.8"/><circle class="st16" cx="67.4" cy="742.2" r="2.5"/><path class="st3" d="M53.8 744.6c.2 0 .3.1.5.1 1.4 0 2.5-1.1 2.5-2.5s-1.1-2.5-2.5-2.5h-.5"/><circle class="st16" cx="67.4" cy="753.1" r="2.5"/><path class="st3" d="M53.8 755.5c.2 0 .3.1.5.1 1.4 0 2.5-1.1 2.5-2.5s-1.1-2.5-2.5-2.5c-.2 0-.3 0-.5.1"/><circle class="st16" cx="67.4" cy="763.7" r="2.5"/><path class="st3" d="M53.8 766.1c.2 0 .3.1.5.1 1.4 0 2.5-1.1 2.5-2.5s-1.1-2.5-2.5-2.5c-.2 0-.3 0-.5.1"/><path class="st2" d="M60.7 759.9v9.5M60.7 726.3v28.8"/><path class="st9" d="M27.5 736.2h-1.1c-1.7 0-3.1 1.4-3.1 3.1v30.5c0 1.7 1.4 3.1 3.1 3.1h22.3c.4 0 .8-.1 1.2-.2 1.1-.5 1.9-1.6 1.9-2.9V739.2c0-1.7-1.4-3.1-3.1-3.1h-1.5"/><path class="st14" d="M47.3 736.2v-3H27.5v3"/><path class="st17" d="M49.7 733c.2-.3.4-.7.4-1.1v-2c0-1-.8-1.8-1.8-1.8H27.2c-1 0-1.8.8-1.8 1.8v2c0 .4.1.8.4 1.1"/><path class="st9" d="M23.3 733h28.6"/><path class="st18" d="M23.3 747.8h28.6v17.7H23.3z"/><path class="st9" d="M34.3 736.2H30M44.5 736.2h-7.1"/><path class="st16" d="M42.9 760.2H32.4c-2 0-3.5-1.6-3.5-3.5 0-2 1.6-3.5 3.5-3.5h10.4c2 0 3.5 1.6 3.5 3.5.1 1.9-1.5 3.5-3.4 3.5zM37.6 753.1v7.1"/><path class="st17" d="M30.3 728.7v1.5M35.3 728.7v1.5M40.2 728.7v1.5M45.5 728.7v1.5M66.2 945c-1.4 5-5.5 8.9-10.6 10H38.9c-6.3-1.3-11.1-7-11.1-13.7V937c0-7.5 6.1-13.6 13.6-13.6h10.4c.3 0 .5.1.7.4.2.2.2.5.1.8l-4.9 14v.1h.3v3.9c0 1.4 1.1 2.5 2.5 2.5h15.7z"/><path class="st19" d="M66.8 966.1c0 4-3.2 7.2-7.2 7.2s-7.2-3.2-7.2-7.2c0-.6.1-1.1.2-1.7h-11c.1.5.2 1.1.2 1.7 0 4-3.2 7.2-7.2 7.2s-7.2-3.2-7.2-7.2 3.2-7.2 7.2-7.2c1.8 0 3.5.7 4.7 1.8L47 955l8 5.6c1.3-1.1 2.9-1.7 4.6-1.7 4 0 7.2 3.3 7.2 7.2z"/><path class="st20" d="M58.8 969.2c-1.4-.4-2.4-1.7-2.4-3.1 0-.2 0-.5.1-.7.2-.7.5-1.3 1.1-1.7.4-.4 1.1-.8 2.1-.7 1.4 0 2.7 1.1 3 2.5.5 2.3-1.6 4.3-3.9 3.7zM33.8 969.2c-1.4-.4-2.4-1.7-2.4-3.1 0-.2 0-.5.1-.7.2-.7.5-1.3 1.1-1.7.4-.4 1.1-.8 2.1-.7 1.4 0 2.7 1.1 3 2.5.5 2.3-1.6 4.3-3.9 3.7z"/><path class="st6" d="M43.2 864l1.9 1.9c.6.6 1.3.8 2 .8s1.5-.3 2-.8.8-1.2.8-1.9M59.7 869.7c1.2-.3 2.1-1.4 2.1-2.7"/><path class="st2" d="M38.3 852.1c.7 0 1.5.3 2 .8l8.8 8.8c.6.6.9 1.4.8 2.2 0 .7-.3 1.4-.8 1.9-.6.6-1.3.8-2 .8s-1.5-.3-2-.8l-6.7-6.7"/><path class="st21" d="M37.7 869.5s-.1 0-.1-.1"/><path class="st22" d="M23 858.3v-7.4h6.9v11h-3.4"/><path class="st2" d="M23.1 861.9v-.1"/><path class="st6" d="M38.3 852.1h-8.4v9.8l3.9 3.9 3 3 .1.1c.1.1.3.2.4.3 0 0 .1 0 .1.1 0 0 .1 0 .1.1 0 0 .1 0 .1.1h.1c.1 0 .2.1.3.1h20.6c.3 0 .5 0 .8-.1"/><path class="st2" d="M50.1 864c0 .7-.3 1.4-.8 1.9-.6.6-1.3.8-2 .8s-1.5-.3-2-.8l-1.9-1.9-4.1-4.1M61.8 866.9c0-1.7-1.3-3-2.9-3h-6.5"/><path class="st6" d="M57.8 835l-1.9-1.9c-.6-.6-1.3-.8-2-.8s-1.5.3-2 .8-.8 1.2-.8 1.9M41.3 829.3c-1.2.3-2.1 1.4-2.1 2.7"/><path class="st2" d="M62.7 846.9c-.7 0-1.5-.3-2-.8l-8.8-8.8c-.6-.6-.9-1.4-.8-2.2 0-.7.3-1.4.8-1.9.6-.6 1.3-.8 2-.8s1.5.3 2 .8l6.7 6.7"/><path class="st6" d="M63.3 829.5s.1 0 .1.1"/><path class="st22" d="M78 840.7v7.4h-6.9v-11h3.4"/><path class="st2" d="M77.9 837.1v.1"/><path class="st6" d="M62.7 846.9h8.4v-9.8l-3.9-3.9-3-3-.1-.1c-.1-.1-.3-.2-.4-.3 0 0-.1 0-.1-.1 0 0-.1 0-.1-.1 0 0-.1 0-.1-.1h-.1c-.1 0-.2-.1-.3-.1h-.2-20.7c-.3 0-.5 0-.8.1"/><path class="st2" d="M50.9 835c0-.7.3-1.4.8-1.9.6-.6 1.3-.8 2-.8s1.5.3 2 .8l1.9 1.9 4.1 4.1M39.2 832.1c0 1.7 1.3 3 2.9 3h6.5"/><path class="st4" d="M56 851.8l-.3.3-5.2 5.2-5.2-5.2-.3-.3c-.7-.7-1.1-1.7-1.1-2.6s.4-1.9 1.1-2.6c.7-.7 1.7-1.1 2.6-1.1s1.9.4 2.6 1.1l.3.3.3-.3c1.4-1.4 3.7-1.4 5.2 0 .7.7 1.1 1.7 1.1 2.6s-.4 1.9-1.1 2.6z"/><circle class="st23" cx="61.2" cy="849.2" r=".9"/><circle class="st23" cx="50.5" cy="839.4" r=".9"/><circle class="st23" cx="46.4" cy="840.2" r=".9"/><circle class="st23" cx="43.3" cy="842.3" r=".9"/><circle class="st23" cx="40.9" cy="845.2" r=".9"/><circle class="st23" cx="39.8" cy="848.6" r=".9"/><circle class="st23" cx="60.9" cy="852.7" r=".9"/><circle class="st23" cx="59.5" cy="855.9" r=".9"/><circle class="st23" cx="57.2" cy="858.5" r=".9"/><circle class="st23" cx="54.3" cy="860.2" r=".9"/><path class="st24" d="M50 860.5c.1-.3.4-.6.8-.6.5 0 .9.4.9.9 0 .4-.3.8-.7.8"/><path class="st2" d="M33.2 154.4h-2.8c-2.4 0-4.4-2-4.4-4.4v-19.6c0-2.4 2-4.4 4.4-4.4h27.8c2.4 0 4.4 2 4.4 4.4v5.6"/><path class="st17" d="M76 142.7v19.6c0 2.4-2 4.4-4.4 4.4h-2.8l-.1 8.2-3.9-3.6-4.6-4.5H43.8c-2.4 0-4.4-2-4.4-4.4v-19.6c0-2.4 2-4.4 4.4-4.4h27.8c2.4-.1 4.4 1.8 4.4 4.3z"/><path class="st22" d="M33.2 154.4l.1 8.5 3.6-3.6M30.8 130.5h26.9M44.3 142.3h26.9M57.4 147h13.8M44.3 147h7.9"/><path class="st25" d="M44.3 151.7h26.9M64.3 156.4h6.9M44.3 156.4h16.3"/><path class="st22" d="M64.7 161.1h6.5M53.3 161.1h8.3M44.3 161.1h5.5"/><path class="st25" d="M30.8 134.5h26.9M30.8 138.9h5.7"/><path class="st22" d="M30.8 143h5.7M30.8 147h5.7"/><g><path class="st2" d="M0 0h100v100H0zM0 100h100v100H0zM0 200h100v100H0zM0 300h100v100H0zM0 400h100v100H0zM0 500h100v100H0zM0 600h100v100H0zM0 700h100v100H0zM0 800h100v100H0zM0 900v100h100V900H0zm72.3 35.2h-2.4l-3.2 4.6v1.5c0 1.3-.2 2.5-.5 3.7H50.5c-1.4 0-2.5-1.1-2.5-2.5v-3.9h17.3l3.4-4.8c.2-.2.4-.4.7-.4h2.9c.5 0 .9.4.9.9s-.4.9-.9.9z"/></g><path class="st22" d="M27.6 938.6l19.9-.1"/></svg>