<svg xmlns="http://www.w3.org/2000/svg" width="200" height="200" viewBox="0 0 52.916664 52.916667"><g transform="translate(0 -244.083)"><circle r="11.90625" cy="257.3125" cx="13.229167" fill="#fff" fill-rule="evenodd"/><path d="M19.15948042 253.67446112h-1.1404452v-2.95589216c0-.37610886-.30695083-.68212896-.68426712-.68212896H7.29885034c-.3773163 0-.68426712.3060201-.68426712.68212896v13.18782656c0 .37613728.30695083.68212896.68426712.68212896h10.94827392c.3773163 0 .68426712-.30599168.68426712-.68212896v-2.95589216h.68426712c.12596217 0 .22808904-.10180775.22808904-.22737632v-6.36653696c0-.37610886-.30695083-.68212896-.68426712-.68212896zM7.0707613 263.90639552v-13.18782656c0-.12536962.10232645-.22737632.22808904-.22737632H17.3347681c.1257626 0 .22808904.1020067.22808904.22737632v13.18805395c.0000285.07963855.01394194.156037.0392313.22714894H7.29885035c-.1257626 0-.22808904-.1020067-.22808904-.22737632zm11.17636296.22737632c-.1257626 0-.22808904-.1020067-.22808904-.22737632v-9.77718176h.4954094c-.0253179.0711688-.03923132.1476525-.03923132.22737632v9.54980544c0 .12536962-.10232645.22737632-.22808904.22737632zm.68426712-9.77718176c0-.12536962.10232645-.22737632.22808904-.22737632.1257626 0 .22808904.1020067.22808904.22737632v6.13916064h-.45617808z"/><path d="M16.42241194 251.40069792H8.2112065c-.12596217 0-.22808904.10180775-.22808904.22737632s.10212687.22737632.22808904.22737632h8.21120544c.12596217 0 .22808904-.10180775.22808904-.22737632s-.10212687-.22737632-.22808904-.22737632zM15.0538777 252.53757952c0-.12556857-.10212687-.22737632-.22808904-.22737632H9.80782978c-.12596217 0-.22808904.10180775-.22808904.22737632s.10212687.22737632.22808904.22737632h5.01795888c.12596217 0 .22808904-.10180775.22808904-.22737632zM16.42241194 253.67446112H12.7729873c-.12596217 0-.22808904.10180775-.22808904.22737632s.10212687.22737632.22808904.22737632h3.64942464c.12596217 0 .22808904-.10180775.22808904-.22737632s-.10212687-.22737632-.22808904-.22737632zM16.42241194 254.5839664h-.91235616c-.12596217 0-.22808904.10180775-.22808904.22737632s.10212687.22737632.22808904.22737632h.91235616c.12596217 0 .22808904-.10180775.22808904-.22737632s-.10212687-.22737632-.22808904-.22737632zM14.82578866 254.81134272c0-.12556857-.10212687-.22737632-.22808904-.22737632H12.7729873c-.12596217 0-.22808904.10180775-.22808904.22737632s.10212687.22737632.22808904.22737632h1.82471232c.12596217 0 .22808904-.10180775.22808904-.22737632zM16.42241194 256.40297696h-.91235616c-.12596217 0-.22808904.10180775-.22808904.22737632s.10212687.22737632.22808904.22737632h.91235616c.12596217 0 .22808904-.10180775.22808904-.22737632s-.10212687-.22737632-.22808904-.22737632zM12.54489826 256.63035328c0 .12556857.10212687.22737632.22808904.22737632h1.82471232c.12596217 0 .22808904-.10180775.22808904-.22737632s-.10212687-.22737632-.22808904-.22737632H12.7729873c-.12596217 0-.22808904.10180775-.22808904.22737632zM16.42241194 255.49347168h-2.2808904c-.12596217 0-.22808904.10180775-.22808904.22737632s.10212687.22737632.22808904.22737632h2.2808904c.12596217 0 .22808904-.10180775.22808904-.22737632s-.10212687-.22737632-.22808904-.22737632zM13.22916538 255.49347168h-.45617808c-.12596217 0-.22808904.10180775-.22808904.22737632s.10212687.22737632.22808904.22737632h.45617808c.12596217 0 .22808904-.10180775.22808904-.22737632s-.10212687-.22737632-.22808904-.22737632zM16.42241194 257.31248224H12.7729873c-.12596217 0-.22808904.10180775-.22808904.22737632s.10212687.22737632.22808904.22737632h3.64942464c.12596217 0 .22808904-.10180775.22808904-.22737632s-.10212687-.22737632-.22808904-.22737632zM11.86063114 259.1314928H8.2112065c-.12596217 0-.22808904.10180775-.22808904.22737632s.10212687.22737632.22808904.22737632h3.64942464c.12596217 0 .22808904-.10180775.22808904-.22737632s-.10212687-.22737632-.22808904-.22737632zM16.42241194 258.22198752H8.2112065c-.12596217 0-.22808904.10180775-.22808904.22737632s.10212687.22737632.22808904.22737632h8.21120544c.12596217 0 .22808904-.10180775.22808904-.22737632s-.10212687-.22737632-.22808904-.22737632zM11.86063114 260.04099808h-.91235616c-.12596217 0-.22808904.10180775-.22808904.22737632s.10212687.22737632.22808904.22737632h.91235616c.12596217 0 .22808904-.10180775.22808904-.22737632s-.10212687-.22737632-.22808904-.22737632zM8.2112065 260.49575072h1.82471232c.12596217 0 .22808904-.10180775.22808904-.22737632s-.10212687-.22737632-.22808904-.22737632H8.2112065c-.12596217 0-.22808904.10180775-.22808904.22737632s.10212687.22737632.22808904.22737632zM11.86063114 261.86000864h-.91235616c-.12596217 0-.22808904.10180775-.22808904.22737632s.10212687.22737632.22808904.22737632h.91235616c.12596217 0 .22808904-.10180775.22808904-.22737632s-.10212687-.22737632-.22808904-.22737632zM8.2112065 262.31476128h1.82471232c.12596217 0 .22808904-.10180775.22808904-.22737632s-.10212687-.22737632-.22808904-.22737632H8.2112065c-.12596217 0-.22808904.10180775-.22808904.22737632s.10212687.22737632.22808904.22737632zM11.86063114 260.95050336h-2.2808904c-.12596217 0-.22808904.10180775-.22808904.22737632s.10212687.22737632.22808904.22737632h2.2808904c.12596217 0 .22808904-.10180775.22808904-.22737632s-.10212687-.22737632-.22808904-.22737632zM8.2112065 261.405256h.45617808c.12596217 0 .22808904-.10180775.22808904-.22737632s-.10212687-.22737632-.22808904-.22737632H8.2112065c-.12596217 0-.22808904.10180775-.22808904.22737632s.10212687.22737632.22808904.22737632zM11.86063114 262.76951392H8.2112065c-.12596217 0-.22808904.10180775-.22808904.22737632s.10212687.22737632.22808904.22737632h3.64942464c.12596217 0 .22808904-.10180775.22808904-.22737632s-.10212687-.22737632-.22808904-.22737632zM8.2112065 257.76723488h3.19324656c.12596217 0 .22808904-.10180775.22808904-.22737632v-3.63802112c0-.12556857-.10212687-.22737632-.22808904-.22737632H8.2112065c-.12596217 0-.22808904.10180775-.22808904.22737632v3.63802112c0 .12556857.10212687.22737632.22808904.22737632zm.22808904-3.63802112h2.73706848v3.18326848H8.43929554zM16.42241194 259.1314928h-3.19324656c-.12596217 0-.22808904.10180775-.22808904.22737632v3.63802112c0 .12556857.10212687.22737632.22808904.22737632h3.19324656c.12596217 0 .22808904-.10180775.22808904-.22737632v-3.63802112c0-.12556857-.10212687-.22737632-.22808904-.22737632zm-.22808904 3.63802112h-2.73706848v-3.18326848h2.73706848z"/></g><g transform="translate(0 -244.083)"><circle r="11.90625" cy="283.77081" cx="13.229167" fill="#fff" fill-rule="evenodd"/><path d="M13.90578605 280.97813693l-2.96560775 1.21352068H9.14284286c-.17690613 0-.32039222.14343142-.32039222.32036924v2.51761156c0 .17690923.1434861.32034064.32039222.32034064h1.79733544l2.96560775 1.2134349c.03893765.0160099.08024815.0238719.12124417.0238719.06266617 0 .12498927-.01838278.17865004-.05431926.08853883-.05952246.14174218-.15926976.14174218-.26607857v-4.99222514c0-.1067802-.05320335-.20649892-.14174218-.26604997-.08868178-.05960825-.20134937-.07087234-.2998942-.03047597zm-4.44255097 1.85428773h1.21958882v1.87681592H9.46323508zm4.24340293 2.95716866l-2.38302967-.97503057v-2.0874031l2.38302968-.9751735zM15.31311608 286.2752646c.0625804.06255292.14457245.09382938.2265645.09382938.08193487 0 .16406986-.03127646.22650732-.09382937 1.3810857-1.38090973 1.3810857-3.62792565 0-5.00889257-.1249607-.125163-.32808255-.125163-.45304323 0-.1251894.12507723-.1251894.32797393 0 .45307974 1.1310214 1.13112695 1.1310214 2.97154898 0 4.1027331-.1251894.12507723-.1251894.32800252-.0000286.45307974z"/><path d="M16.8947221 280.13816117c-.12501787-.12519158-.32805396-.12519158-.45307182 0-.1251608.12504863-.1251608.32794533 0 .45305115 1.75322325 1.75322533 1.75322325 4.60604386 0 6.3592692-.1251608.1250772-.1251608.3280311 0 .45310832.0625518.0625529.14457245.09382936.2265359.09382936.08196346 0 .16409845-.03127646.2265359-.09382936 2.00303028-2.00315107 2.00303028-5.26239196 0-7.26542867z"/><path d="M17.91579182 279.11684487c-.1251608-.1251344-.32805396-.1251344-.45304323 0-.1251608.12507723-.1251608.32797393 0 .45307974 1.12210175 1.1220928 1.74021544 2.61398537 1.74021544 4.20082225 0 1.58695124-.6181137 3.0788152-1.74021545 4.2009366-.1251608.12507722-.1251608.3280025 0 .45305114.0625804.0625529.14454385.09382936.2265359.09382936.08196346 0 .16392692-.03130505.22650732-.09382937 1.24323158-1.2430818 1.92795665-2.89590227 1.92795665-4.65398775 0-1.7579997-.68472507-3.4108202-1.92795665-4.65390198zM15.3674058 289.3507349c-.68160893.26141854-1.40106913.39390034-2.1383686.39390034-3.29386184 0-5.97364098-2.67974024-5.97364098-5.97374544s2.67977914-5.9738598 5.97364097-5.9738598c.7577689 0 1.49584026.1398006 2.19385903.41551368.1644415.06529746.35061034-.0156668.41570654-.18022556.06501043-.16458733-.01572372-.35070224-.18027958-.4157424-.77326393-.3055029-1.5906686-.46034136-2.4293146-.46034136-3.64721668 0-6.6144254 2.9672892-6.6144254 6.61465544 0 3.64730906 2.96720872 6.6145125 6.6144254 6.6145125.81597525 0 1.6127104-.14680494 2.36784914-.43652667.16515623-.0633248.24763428-.24852487.1842248-.41385552-.06323793-.16513052-.248349-.24786732-.41367674-.1842852z"/></g><g fill="none" stroke="#000" stroke-width=".26458332" stroke-linecap="round" stroke-linejoin="round"><path d="M-97.19657534-42.654611h26.458332v26.458332h-26.458332zM-70.738243-42.654611h26.458332v26.458332h-26.458332z"/><path d="M-97.1965752-16.196281h26.458332v26.458332h-26.458332zM-70.738243-16.196281h26.458332v26.458332h-26.458332z"/></g><g transform="translate(0 -244.083)"><circle r="11.90625" cy="257.3125" cx="39.6875" fill="red" fill-rule="evenodd"/><g fill="#fff"><path d="M45.61781232 253.67445112h-1.1404452v-2.95589216c0-.37610886-.30695083-.68212896-.68426712-.68212896H33.75718224c-.3773163 0-.68426712.3060201-.68426712.68212896v13.18782656c0 .37613728.30695083.68212896.68426712.68212896h10.94827392c.3773163 0 .68426712-.30599168.68426712-.68212896v-2.95589216h.68426712c.12596217 0 .22808904-.10180775.22808904-.22737632v-6.36653696c0-.37610886-.30695083-.68212896-.68426712-.68212896zm-12.08871912 10.2319344v-13.18782656c0-.12536962.10232645-.22737632.22808904-.22737632H43.7931c.1257626 0 .22808904.1020067.22808904.22737632v13.18805395c.0000285.07963855.01394194.156037.0392313.22714894h-10.3032381c-.1257626 0-.22808904-.1020067-.22808904-.22737632zm11.17636296.22737632c-.1257626 0-.22808904-.1020067-.22808904-.22737632v-9.77718176h.4954094c-.0253179.0711688-.03923132.1476525-.03923132.22737632v9.54980544c0 .12536962-.10232645.22737632-.22808904.22737632zm.68426712-9.77718176c0-.12536962.10232645-.22737632.22808904-.22737632.1257626 0 .22808904.1020067.22808904.22737632v6.13916064h-.45617808z"/><path d="M42.88074384 251.40068792H34.6695384c-.12596217 0-.22808904.10180775-.22808904.22737632s.10212687.22737632.22808904.22737632h8.21120544c.12596217 0 .22808904-.10180775.22808904-.22737632s-.10212687-.22737632-.22808904-.22737632zM41.5122096 252.53756952c0-.12556857-.10212687-.22737632-.22808904-.22737632h-5.01795888c-.12596217 0-.22808904.10180775-.22808904.22737632s.10212687.22737632.22808904.22737632h5.01795888c.12596217 0 .22808904-.10180775.22808904-.22737632zM42.88074384 253.67445112H39.2313192c-.12596217 0-.22808904.10180775-.22808904.22737632s.10212687.22737632.22808904.22737632h3.64942464c.12596217 0 .22808904-.10180775.22808904-.22737632s-.10212687-.22737632-.22808904-.22737632zM42.88074384 254.5839564h-.91235616c-.12596217 0-.22808904.10180775-.22808904.22737632s.10212687.22737632.22808904.22737632h.91235616c.12596217 0 .22808904-.10180775.22808904-.22737632s-.10212687-.22737632-.22808904-.22737632zM41.28412056 254.81133272c0-.12556857-.10212687-.22737632-.22808904-.22737632H39.2313192c-.12596217 0-.22808904.10180775-.22808904.22737632s.10212687.22737632.22808904.22737632h1.82471232c.12596217 0 .22808904-.10180775.22808904-.22737632zM42.88074384 256.40296696h-.91235616c-.12596217 0-.22808904.10180775-.22808904.22737632s.10212687.22737632.22808904.22737632h.91235616c.12596217 0 .22808904-.10180775.22808904-.22737632s-.10212687-.22737632-.22808904-.22737632zM39.00323016 256.63034328c0 .12556857.10212687.22737632.22808904.22737632h1.82471232c.12596217 0 .22808904-.10180775.22808904-.22737632s-.10212687-.22737632-.22808904-.22737632H39.2313192c-.12596217 0-.22808904.10180775-.22808904.22737632zM42.88074384 255.49346168h-2.2808904c-.12596217 0-.22808904.10180775-.22808904.22737632s.10212687.22737632.22808904.22737632h2.2808904c.12596217 0 .22808904-.10180775.22808904-.22737632s-.10212687-.22737632-.22808904-.22737632zM39.68749728 255.49346168h-.45617808c-.12596217 0-.22808904.10180775-.22808904.22737632s.10212687.22737632.22808904.22737632h.45617808c.12596217 0 .22808904-.10180775.22808904-.22737632s-.10212687-.22737632-.22808904-.22737632zM42.88074384 257.31247224H39.2313192c-.12596217 0-.22808904.10180775-.22808904.22737632s.10212687.22737632.22808904.22737632h3.64942464c.12596217 0 .22808904-.10180775.22808904-.22737632s-.10212687-.22737632-.22808904-.22737632zM38.31896304 259.1314828H34.6695384c-.12596217 0-.22808904.10180775-.22808904.22737632s.10212687.22737632.22808904.22737632h3.64942464c.12596217 0 .22808904-.10180775.22808904-.22737632s-.10212687-.22737632-.22808904-.22737632zM42.88074384 258.22197752H34.6695384c-.12596217 0-.22808904.10180775-.22808904.22737632s.10212687.22737632.22808904.22737632h8.21120544c.12596217 0 .22808904-.10180775.22808904-.22737632s-.10212687-.22737632-.22808904-.22737632zM38.31896304 260.04098808h-.91235616c-.12596217 0-.22808904.10180775-.22808904.22737632s.10212687.22737632.22808904.22737632h.91235616c.12596217 0 .22808904-.10180775.22808904-.22737632s-.10212687-.22737632-.22808904-.22737632zM34.6695384 260.49574072h1.82471232c.12596217 0 .22808904-.10180775.22808904-.22737632s-.10212687-.22737632-.22808904-.22737632H34.6695384c-.12596217 0-.22808904.10180775-.22808904.22737632s.10212687.22737632.22808904.22737632zM38.31896304 261.85999864h-.91235616c-.12596217 0-.22808904.10180775-.22808904.22737632s.10212687.22737632.22808904.22737632h.91235616c.12596217 0 .22808904-.10180775.22808904-.22737632s-.10212687-.22737632-.22808904-.22737632zM34.6695384 262.31475128h1.82471232c.12596217 0 .22808904-.10180775.22808904-.22737632s-.10212687-.22737632-.22808904-.22737632H34.6695384c-.12596217 0-.22808904.10180775-.22808904.22737632s.10212687.22737632.22808904.22737632zM38.31896304 260.95049336h-2.2808904c-.12596217 0-.22808904.10180775-.22808904.22737632s.10212687.22737632.22808904.22737632h2.2808904c.12596217 0 .22808904-.10180775.22808904-.22737632s-.10212687-.22737632-.22808904-.22737632zM34.6695384 261.405246h.45617808c.12596217 0 .22808904-.10180775.22808904-.22737632s-.10212687-.22737632-.22808904-.22737632h-.45617808c-.12596217 0-.22808904.10180775-.22808904.22737632s.10212687.22737632.22808904.22737632zM38.31896304 262.76950392H34.6695384c-.12596217 0-.22808904.10180775-.22808904.22737632s.10212687.22737632.22808904.22737632h3.64942464c.12596217 0 .22808904-.10180775.22808904-.22737632s-.10212687-.22737632-.22808904-.22737632zM34.6695384 257.76722488h3.19324656c.12596217 0 .22808904-.10180775.22808904-.22737632v-3.63802112c0-.12556857-.10212687-.22737632-.22808904-.22737632H34.6695384c-.12596217 0-.22808904.10180775-.22808904.22737632v3.63802112c0 .12556857.10212687.22737632.22808904.22737632zm.22808904-3.63802112h2.73706848v3.18326848h-2.73706848zM42.88074384 259.1314828h-3.19324656c-.12596217 0-.22808904.10180775-.22808904.22737632v3.63802112c0 .12556857.10212687.22737632.22808904.22737632h3.19324656c.12596217 0 .22808904-.10180775.22808904-.22737632v-3.63802112c0-.12556857-.10212687-.22737632-.22808904-.22737632zm-.22808904 3.63802112h-2.73706848v-3.18326848h2.73706848z"/></g></g><g transform="translate(0 -244.083)"><circle r="11.90625" cy="283.77081" cx="39.6875" fill="red" fill-rule="evenodd"/><g fill="#fff" fill-opacity=".99572646"><path d="M40.36411885 280.97813693l-2.96560775 1.21352068h-1.79733544c-.17690613 0-.32039222.14343142-.32039222.32036924v2.51761156c0 .17690923.1434861.32034064.32039222.32034064h1.79733544l2.96560775 1.2134349c.03893765.0160099.08024815.0238719.12124417.0238719.06266617 0 .12498927-.01838278.17865004-.05431926.08853883-.05952246.14174218-.15926976.14174218-.26607857v-4.99222514c0-.1067802-.05320335-.20649892-.14174218-.26604997-.08868178-.05960825-.20134937-.07087234-.2998942-.03047597zm-4.44255097 1.85428773h1.21958882v1.87681592h-1.21958882zm4.24340293 2.95716866l-2.38302967-.97503057v-2.0874031l2.38302968-.9751735zM41.77144888 286.2752646c.0625804.06255292.14457245.09382938.2265645.09382938.08193487 0 .16406986-.03127646.22650732-.09382937 1.3810857-1.38090973 1.3810857-3.62792565 0-5.00889257-.1249607-.125163-.32808255-.125163-.45304323 0-.1251894.12507723-.1251894.32797393 0 .45307974 1.1310214 1.13112695 1.1310214 2.97154898 0 4.1027331-.1251894.12507723-.1251894.32800252-.0000286.45307974z"/><path d="M43.3530549 280.13816117c-.12501787-.12519158-.32805396-.12519158-.45307182 0-.1251608.12504863-.1251608.32794533 0 .45305115 1.75322325 1.75322533 1.75322325 4.60604386 0 6.3592692-.1251608.1250772-.1251608.3280311 0 .45310832.0625518.0625529.14457245.09382936.2265359.09382936.08196346 0 .16409845-.03127646.2265359-.09382936 2.00303028-2.00315107 2.00303028-5.26239196 0-7.26542867z"/><path d="M44.37412462 279.11684487c-.1251608-.1251344-.32805396-.1251344-.45304323 0-.1251608.12507723-.1251608.32797393 0 .45307974 1.12210175 1.1220928 1.74021544 2.61398537 1.74021544 4.20082225 0 1.58695124-.6181137 3.0788152-1.74021545 4.2009366-.1251608.12507722-.1251608.3280025 0 .45305114.0625804.0625529.14454385.09382936.2265359.09382936.08196346 0 .16392692-.03130505.22650732-.09382937 1.24323158-1.2430818 1.92795665-2.89590227 1.92795665-4.65398775 0-1.7579997-.68472507-3.4108202-1.92795665-4.65390198zM41.8257386 289.3507349c-.68160893.26141854-1.40106913.39390034-2.1383686.39390034-3.29386184 0-5.97364098-2.67974024-5.97364098-5.97374544S36.39350816 277.79703 39.68737 277.79703c.7577689 0 1.49584026.1398006 2.19385903.41551368.1644415.06529746.35061034-.0156668.41570654-.18022556.06501043-.16458733-.01572372-.35070224-.18027958-.4157424-.77326393-.3055029-1.5906686-.46034136-2.4293146-.46034136-3.64721668 0-6.6144254 2.9672892-6.6144254 6.61465544 0 3.64730906 2.96720872 6.6145125 6.6144254 6.6145125.81597525 0 1.6127104-.14680494 2.36784914-.43652667.16515623-.0633248.24763428-.24852487.1842248-.41385552-.06323793-.16513052-.248349-.24786732-.41367674-.1842852z"/></g></g></svg>