<svg xmlns="http://www.w3.org/2000/svg" id="Слой_1" viewBox="0 0 100 1000" width="100" height="1000"><style id="style2">.st0{fill:none;stroke:#060606;stroke-width:0.1;stroke-miterlimit:10;} .st1{fill:#D6D6D6;stroke:#2F2F2F;stroke-width:5;stroke-linejoin:round;stroke-miterlimit:10;} .st2{fill:#F7F7F7;stroke:#2F2F2F;stroke-width:5;stroke-linejoin:round;stroke-miterlimit:10;} .st3{fill:none;stroke:#2F2F2F;stroke-width:5;stroke-linecap:round;stroke-miterlimit:10;} .st4{fill:none;stroke:#336699;stroke-width:5;stroke-linecap:round;stroke-miterlimit:10;} .st5{fill:#D6D6D6;stroke:#336699;stroke-width:5;stroke-miterlimit:10;} .st6{fill:none;stroke:#2F2F2F;stroke-width:5;stroke-linejoin:round;stroke-miterlimit:10;} .st7{fill:#D6D6D6;stroke:#2F2F2F;stroke-width:5;stroke-miterlimit:10;} .st8{fill:#336699;} .st9{fill:none;stroke:#2F2F2F;stroke-width:5;stroke-linecap:round;stroke-linejoin:round;stroke-miterlimit:10;} .st10{fill:none;stroke:#2F2F2F;stroke-width:5;stroke-miterlimit:10;} .st11{fill:#969696;stroke:#2F2F2F;stroke-width:5;stroke-miterlimit:10;} .st12{fill:#D6D6D6;stroke:#2F2F2F;stroke-width:5;stroke-linecap:round;stroke-linejoin:round;stroke-miterlimit:10;} .st13{fill:none;} .st14{fill:#2F2F2F;} .st15{fill:#C5C5C5;stroke:#2F2F2F;stroke-width:5;stroke-linecap:round;stroke-miterlimit:10;} .st16{fill:#969696;stroke:#2F2F2F;stroke-width:5;stroke-linecap:round;stroke-miterlimit:10;} .st17{fill:#D6D6D6;stroke:#2F2F2F;stroke-width:5;stroke-linecap:round;stroke-miterlimit:10;} .st18{fill:#B9B9B9;stroke:#2F2F2F;stroke-width:5;stroke-linecap:round;stroke-miterlimit:10;} .st19{fill:#C5C5C5;stroke:#336699;stroke-width:5;stroke-linecap:round;stroke-miterlimit:10;} .st20{fill:#D6D6D6;stroke:#2F2F2F;stroke-width:5;stroke-linecap:square;stroke-miterlimit:10;} .st21{fill:#336699;stroke:#336699;stroke-linecap:square;stroke-miterlimit:10;} .st22{fill:#F7F7F7;stroke:#2F2F2F;stroke-width:5;stroke-linecap:square;stroke-miterlimit:10;} .st23{fill:none;stroke:#2F2F2F;stroke-width:11;stroke-miterlimit:10;} .st24{fill:#F7F7F7;stroke:#336699;stroke-width:5;stroke-miterlimit:10;} .st25{fill:none;stroke:#336699;stroke-width:5;stroke-miterlimit:10;} .st26{fill:#F7F7F7;stroke:#2F2F2F;stroke-width:5;stroke-miterlimit:10;} .st27{fill:none;stroke:#000000;stroke-width:5;stroke-linecap:round;stroke-miterlimit:10;} .st28{fill:none;stroke:#000000;stroke-width:4;stroke-miterlimit:10;} .st29{fill:none;stroke:#000000;stroke-width:4;stroke-linejoin:round;stroke-miterlimit:10;} .st30{fill:#2F2F2F;stroke:#2F2F2F;stroke-miterlimit:10;} .st31{fill:#2F2F2F;stroke:#2F2F2F;stroke-width:5.000000e-02;stroke-miterlimit:10;} .st32{fill:#1F1F1F;} .st33{fill:#F7F7F7;} .st34{fill:#D6D6D6;} .st35{fill:#C5C5C5;} .st36{fill:#969696;} .st37{fill:#7F7F7F;} .st38{fill:none;stroke:#336699;stroke-width:5;stroke-linecap:round;stroke-linejoin:round;stroke-miterlimit:10;} .st39{fill:#D6D6D6;stroke:#336699;stroke-width:5;stroke-linecap:round;stroke-linejoin:round;stroke-miterlimit:10;} .st40{fill:#F7F7F7;stroke:#2F2F2F;stroke-width:5;stroke-linecap:round;stroke-linejoin:round;stroke-miterlimit:10;} .st41{fill:#C5C5C5;stroke:#336699;stroke-width:5;stroke-linecap:round;stroke-linejoin:round;stroke-miterlimit:10;}</style><g id="g5759" stroke-width="5" stroke-miterlimit="10"><path id="polygon600" class="st1" fill="#d6d6d6" stroke="#2f2f2f" stroke-linejoin="round" d="M33.25089938 24.85616487h24.657534l9.589041 8.56164375v39.726027h-34.246575z" stroke-width="1.71235"/><path id="polygon602" class="st2" fill="#f7f7f7" stroke="#2f2f2f" stroke-linejoin="round" d="M57.56596762 24.85616487h.34246575l9.589041 8.56164375v1.369863h-9.93150675z" stroke-width="1.71235"/><path id="line604" class="st3" fill="none" stroke="#2f2f2f" stroke-linecap="round" d="M38.04541988 32.04794562h12.328767" stroke-width="1.71235"/><path id="line606" class="st3" fill="none" stroke="#2f2f2f" stroke-linecap="round" d="M38.04541988 37.18493187h12.328767" stroke-width="1.71235"/><path id="line608" class="st4" fill="none" stroke="#369" stroke-linecap="round" d="M38.04541988 43.00684963h25.3424655" stroke-width="1.71235"/><path id="line610" class="st4" fill="none" stroke="#369" stroke-linecap="round" d="M38.04541988 49.17123313h25.3424655" stroke-width="1.71235"/><path id="line612" class="st4" fill="none" stroke="#369" stroke-linecap="round" d="M38.04541988 54.99315087h25.3424655" stroke-width="1.71235"/><path id="line614" class="st3" fill="none" stroke="#2f2f2f" stroke-linecap="round" d="M38.04541988 61.15753437h24.31506825" stroke-width="1.71235"/><path id="line616" class="st3" fill="none" stroke="#2f2f2f" stroke-linecap="round" d="M38.04541988 66.29452063h24.31506825" stroke-width="1.71235"/></g><g id="g5965" stroke-width="5" stroke-miterlimit="10"><path id="path677" d="M48.4203403 261.17413076c.19490874 0 .33412927-.13922053.33412927-.33412928v-1.39220535c0-.86316732-.50119393-1.67064642-1.30867303-2.06046392 0 0-.0278441 0-.0278441-.0278441l-5.5688214-3.39698105c-.13922054-.08353232-.25059697-.25059696-.22275286-.4455057 0-.16706465.11137643-.3341293.27844107-.41766162 1.67064642-.8353232 2.72872248-2.47812552 2.8122548-4.31583658l.16706465-4.3436807c0-2.56165784-2.11615213-4.62212176-4.7334982-4.62212176h-1.14160838c-2.61734606 0-4.7334982 2.08830802-4.7334982 4.64996586l.16706465 4.3158366c.05568822 1.80986694 1.1416084 3.48051336 2.8122548 4.31583657.16706465.08353232.25059697.22275286.27844108.4176616 0 .16706465-.08353232.3341293-.22275286.44550572l-5.5409773 3.39698105c-.8353232.4176616-1.36436124 1.1972966-1.36436124 2.08830803v1.39220535c0 .19490875.13922053.33412928.33412928.33412928z" class="st5" fill="#d6d6d6" stroke="#369" stroke-width="1.3922"/><path id="line694" class="st3" fill="none" stroke="#2f2f2f" stroke-linecap="round" d="M25.3654197 230.90758646h48.5879667" stroke-width="1.3922"/><path id="rect696" class="st6" fill="none" stroke="#2f2f2f" stroke-linejoin="round" d="M25.50464023 236.75484892h48.1703051v27.844107h-48.1703051z" stroke-width="1.3922"/><path id="line698" class="st3" fill="none" stroke="#2f2f2f" stroke-linecap="round" d="M54.0448499 245.10808102h13.9220535" stroke-width="1.3922"/><path id="line700" class="st3" fill="none" stroke="#2f2f2f" stroke-linecap="round" d="M54.0448499 250.67690242h13.9220535" stroke-width="1.3922"/><path id="line704" class="st3" fill="none" stroke="#2f2f2f" stroke-linecap="round" d="M54.0448499 256.24572382h13.9220535" stroke-width="1.3922"/></g><g id="g6180"><path id="path702" d="M412.6912 210.18886c5.7-6.9 9.1-15.7 9.1-25.3 0-22.1-17.9-40-40-40s-40 17.9-40 40 17.9 40 40 40c8.3 0 16.1-2.6 22.5-6.9" class="st7" fill="#d6d6d6" stroke="#2f2f2f" stroke-width="5" stroke-miterlimit="10"/><g id="g12125"><g id="g12123"><path id="path706" d="M402.4912 199.88886c-1.3-4.3-4.2-8.2-7.9-11-1.7-1.3-3.7-2.3-5.7-3 2.5-2.1 4.1-5.3 4.1-8.8v-8.2c0-1.4-.2-2.7-.7-4-1.6-4.4-5.9-7.5-10.8-7.5-6.4 0-11.5 5.2-11.5 11.5v8.2c0 3.5 1.6 6.7 4.1 8.8-2 .7-3.9 1.8-5.7 3-2.9 2.1-5.2 4.9-6.7 7.9l-.9 2.7s-.2.9-.3 1.5c.2.4.5.8.7 1.3 0 .1.1.1.1.2 5.4 4.5 12.3 7.2 19.9 7.2 4.5 0 8.9-1 13-2.8 2.7-1.2 5.3-2.8 7.6-4.8.7-.5.9-1.4.7-2.2zm-21-38.4c4.1 0 7.5 3.3 7.5 7.5v1.7c-2.6-1-3.7-3.8-3.7-3.9-.3-.7-1-1.3-1.8-1.3-.8-.1-1.5.4-1.9 1.1 0 0-2 3.7-7.5 4.4v-1.9c-.1-4.3 3.3-7.6 7.4-7.6zm-7.5 15.6v-2.2c4.4-.5 7.3-2.4 9-4 1.2 1.6 3.1 3.3 5.9 3.9v2.3c0 4-3.2 7.3-7.2 7.5h-.3-.4c-3.8-.2-7-3.5-7-7.5zm9.3 11.6l-.7 1.4h-2.1l-.7-1.4h3.4.1zm-8.5 16.1c-3.6-.9-7-2.6-10-4.9 1.9-4.7 6-8.4 10.8-10.2l1.4 2.8-2.5 10.8c-.1.5 0 1 .3 1.5zm6.7.6l-2.7-2.5 2-8.8h1.3l2 8.8zm15.8-4.9c-.1.1-.2.1-.3.2-1.3.9-2.6 1.7-4 2.3-1.6.7-3.2 1.3-4.9 1.7.3-.5.4-1 .3-1.5l-2.5-10.8 1.4-2.8c4.8 1.8 8.9 5.5 10.8 10.2-.2.3-.5.5-.8.7z" class="st8" fill="#369"/></g></g><path id="path725" d="M409.7912 195.68886c-4.3 11.3-15.2 19.2-28 19.2-16.6 0-30-13.4-30-30 0-1.9.2-3.7.5-5.5" class="st9" fill="none" stroke="#2f2f2f" stroke-width="5" stroke-linecap="round" stroke-linejoin="round" stroke-miterlimit="10"/><path id="path727" d="M354.6912 170.98886c4.8-10.1 15.1-17.1 27.1-17.1 16.6 0 30 13.4 30 30 0 1 0 1.9-.1 2.9" class="st3" fill="none" stroke="#2f2f2f" stroke-width="5" stroke-linecap="round" stroke-miterlimit="10"/><g id="g751" fill="none" stroke="#2f2f2f" stroke-width="5" stroke-linecap="round" stroke-linejoin="round" stroke-miterlimit="10"><g id="g737"><g id="g733"><path id="line729" class="st9" d="M331.7912 130.88886h100"/><path id="path731" d="M331.7912 130.88886v71" class="st9"/></g><path id="line735" class="st9" d="M431.7912 130.88886v54"/></g><g id="g749"><path id="line739" class="st9" d="M331.7912 250.88886v-39"/><g id="g747"><path id="line741" class="st9" d="M431.7912 271.88886h-79"/><path id="line743" class="st9" d="M431.7912 271.88886v-20"/><path id="line745" class="st9" d="M431.7912 221.88886v-27"/></g></g></g><path id="line753" class="st4" fill="none" stroke="#369" stroke-width="5" stroke-linecap="round" stroke-miterlimit="10" d="M356.7912 236.88886h50"/><path id="line755" class="st4" fill="none" stroke="#369" stroke-width="5" stroke-linecap="round" stroke-miterlimit="10" d="M365.7912 247.88886h41"/><path id="line757" class="st4" fill="none" stroke="#369" stroke-width="5" stroke-linecap="round" stroke-miterlimit="10" d="M365.7912 258.88886h41"/><path id="path759" d="M409.9912 223.68886l-5.7-5.7c3.2-2.2 6.1-4.8 8.5-7.8l5.4 5.4" class="st10" fill="none" stroke="#2f2f2f" stroke-width="5" stroke-miterlimit="10"/><g id="g767" fill="#969696" stroke="#2f2f2f" stroke-width="5" stroke-miterlimit="10"><path id="polyline763" class="st11" d="M441.8912 261.98886l-35.1-35.1 15-15 35.1 35.1"/><path id="path765" d="M456.2912 246.38886c3.7 3.7 3.3 10.1-.8 14.2s-10.5 4.5-14.2.8" class="st11"/></g><path id="path773" d="M352.7912 250.88886v21l-21-21h21z" class="st12" fill="#d6d6d6" stroke="#2f2f2f" stroke-width="5" stroke-linecap="round" stroke-linejoin="round" stroke-miterlimit="10"/></g><g id="g5975"><path d="M48.51596785 334.9018537c4.18424753-.03516174 3.5864979-5.55555554 3.5864979-5.55555554-.17580873-3.69198312-3.2700422-3.65682138-3.5864979-3.65682138-.3164557 0-3.41068917-.03516174-3.5864979 3.62165963 0 .03516176-.63291138 5.52039382 3.5864979 5.5907173-.03516175 0 0 0 0 0z" class="st13" id="XMLID_2_" fill="none"/><path d="M48.51596785 341.72323204l2.7074543-3.65682137s1.89873416.73839662 3.4458509 1.89873417c.38677918.28129396.59774965.45710268.9493671.80872012.84388184.84388185.4922644 5.76652594 0 7.5597749-.49226443 1.79324893-1.96905768 4.3600563-1.96905768 4.3600563-.28129395.66807315-.4922644 1.37130803-.5625879 2.0745429L51.22342214 372.771052c-.0703235.5625879-.5625879 1.01969057-1.1251758 1.01969057H46.86336587c-.5625879 0-1.09001406-.42194093-1.1251758-1.01969057l-1.86357244-18.00281293c-.0703235-.70323488-.2461322-1.40646976-.5625879-2.0745429 0 0-1.4416315-2.56680738-1.96905767-4.36005632-.4922644-1.79324895-.84388185-6.71589304 0-7.5597749.35161744-.35161743.5625879-.52742615.9493671-.8087201 1.54711673-1.1251758 3.4458509-1.89873418 3.4458509-1.89873418z" class="st13" id="XMLID_1_" fill="none"/><path id="path777" d="M45.49205786 337.82027846c-.03516174 0-.10548523 0-.14064697.03516174-.7032349.3164557-1.7580872.8790436-2.6371308 1.511955-.35161745.2461322-.52742617.42194092-.8790436.73839662-.03516176.03516174-.03516176.03516174-.03516176.0703235-.5625879.8790436-.3164557 5.1687763.14064698 6.9268635.42194093 1.54711673 1.65260197 3.79746834 1.89873418 4.21940927l.03516174.03516173c.3164557.7383967.52742616 1.47679332.59774965 2.2503517l1.86357242 18.0028129c.03516174.28129397.2461322.49226443.5625879.49226443h3.1997187c.28129396 0 .52742617-.21097046.5625879-.49226442l1.86357244-18.00281292c.0703235-.77355837.28129396-1.511955.59774965-2.2503517l.03516176-.07032348-.03516175.03516175c.24613222-.35161745 1.47679326-2.7074543 1.93389593-4.28973278.52742616-1.86357243.70323488-6.1181434.17580872-6.96202524 0-.03516175-.03516174-.03516175-.03516174-.0703235-.35161743-.35161743-.4922644-.4922644-.8790436-.73839662-.70323487-.4922644-1.58227847-1.01969057-2.6371308-1.511955-.03516174-.03516173-.10548522-.03516173-.14064697-.03516173-.10548523 0-.21097046.03516174-.28129395.14064697l-2.25035162 3.05907173c-.10548523.14064698-.28129395.2461322-.45710267.2461322-.17580873 0-.35161745-.10548522-.45710268-.2461322l-2.25035162-3.05907173c-.14064697 0-.2461322-.03516174-.35161744-.03516174z" class="st5" fill="#d6d6d6" stroke="#369" stroke-width="1.7581" stroke-miterlimit="10"/><path id="path779" d="M39.4442379 340.10579182c-.35161744-.21097046-.73839663-.38677918-1.16033756-.5625879-.03516174-.03516175-.10548523-.03516175-.14064697-.03516175-.10548523 0-.21097047.03516175-.28129395.14064698l-2.25035162 3.05907173c-.10548523.14064697-.28129395.2461322-.45710267.2461322-.17580872 0-.35161744-.10548523-.45710267-.2461322l-2.25035162-3.05907173c-.0703235-.10548523-.17580872-.14064698-.28129395-.14064698-.03516176 0-.10548524 0-.140647.03516175-.70323487.3164557-1.7580872.8790436-2.6371308 1.511955-.35161743.2461322-.52742615.42194092-.8790436.7383966-.03516173.03516176-.03516173.03516176-.03516173.0703235-.5625879.8790436-.3164557 5.1687763.14064697 6.9268635.42194093 1.54711673 1.65260197 3.79746842 1.89873418 4.21940935l.03516174.03516174c.3164557.73839664.52742616 1.47679326.59774965 2.25035163l1.86357244 18.00281293c.03516175.28129395.2461322.4922644.5625879.4922644h3.1997187c.28129396 0 .52742617-.21097045.56258792-.4922644l1.86357243-18.00281293c.07032348-.77355837.28129394-1.511955.59774964-2.25035162l.03516174-.07032348-.03516174.03516175c.10548523-.14064698.35161744-.6329114.66807313-1.2306611" class="st3" fill="none" stroke="#2f2f2f" stroke-width="1.7581" stroke-linecap="round" stroke-miterlimit="10"/><path id="path781" d="M56.462522 351.60368204c.35161743.70323495.63291138 1.2306611.73839662 1.44163157l.03516174.03516176c.3164557.73839662.52742616 1.47679324.59774965 2.2503516l1.86357244 18.00281294c.03516174.28129395.2461322.49226442.5625879.49226442h3.1997187c.28129396 0 .52742617-.21097047.5625879-.49226442l1.86357244-18.00281293c.0703235-.77355837.28129396-1.511955.59774965-2.2503516l.03516175-.0703235-.03516175.03516174c.2461322-.35161743 1.47679325-2.70745435 1.93389592-4.28973282.52742616-1.86357244.70323488-6.1181434.17580872-6.96202525 0-.03516174-.03516174-.03516174-.03516174-.0703235-.35161744-.35161743-.49226442-.4922644-.8790436-.7383966-.70323488-.49226443-1.58227848-1.0196906-2.6371308-1.511955-.03516175-.03516175-.10548523-.03516175-.14064698-.03516175-.10548523 0-.21097046.03516175-.28129395.14064698l-2.25035162 3.05907173c-.10548523.14064696-.28129395.2461322-.45710267.2461322-.1758087 0-.35161743-.10548524-.45710266-.2461322l-2.25035162-3.05907174c-.07032348-.10548523-.17580872-.14064698-.28129395-.14064698-.03516174 0-.10548523 0-.14064697.03516175-.3164557.14064697-.73839663.35161744-1.1251758.5625879" class="st3" fill="none" stroke="#2f2f2f" stroke-width="1.7581" stroke-linecap="round" stroke-miterlimit="10"/><path id="path783" d="M44.92946996 329.27597467c-.03516174.28129395-.2461322 3.2700422 1.16033755 4.81715893.56258792.6329114 1.33614628.94936708 2.3909986.98452883h.03516175c1.01969057 0 1.79324894-.3164557 2.3909986-.98452883 1.40646975-1.54711674 1.1954993-4.50070324 1.16033754-4.81715893v-.03516175c-.14064698-3.41068916-2.67229255-3.65682137-3.44585092-3.65682137h-.21097046c-.77355837 0-3.30520394.2461322-3.44585092 3.65682137z" class="st5" fill="#d6d6d6" stroke="#369" stroke-width="1.7581" stroke-miterlimit="10"/><path id="path785" d="M58.29093268 331.3856793c-.03516174.28129396-.2461322 3.2700422 1.16033755 4.81715894.5625879.6329114 1.33614627.94936708 2.3909986.98452883h.03516174c1.01969057 0 1.79324894-.3164557 2.3909986-.98452883 1.40646975-1.54711674 1.1954993-4.50070324 1.16033754-4.81715893v-.03516174c-.14064696-3.41068916-2.67229253-3.65682137-3.4458509-3.65682137h-.21097046c-.77355837 0-3.30520394.2461322-3.44585092 3.65682136z" class="st10" fill="none" stroke="#2f2f2f" stroke-width="1.7581" stroke-miterlimit="10"/><path id="path787" d="M31.91962468 331.3856793c-.03516174.28129396-.2461322 3.2700422 1.16033755 4.81715894.5625879.6329114 1.33614627.94936708 2.3909986.98452883h.03516174c1.01969057 0 1.79324894-.3164557 2.3909986-.98452883 1.40646975-1.54711674 1.1954993-4.50070324 1.16033754-4.81715893v-.03516174c-.14064696-3.41068916-2.67229253-3.65682137-3.4458509-3.65682137h-.21097046c-.77355837 0-3.30520394.2461322-3.44585092 3.65682136z" class="st10" fill="none" stroke="#2f2f2f" stroke-width="1.7581" stroke-miterlimit="10"/></g><g id="g6018" stroke-width="5" stroke-miterlimit="10"><path id="line831" class="st3" fill="none" stroke="#2f2f2f" stroke-linecap="round" d="M29.1178562 471.9991882h38.1720424" stroke-width="1.3441"/><path id="rect833" class="st3" fill="none" stroke="#2f2f2f" stroke-linecap="round" d="M34.4942002 466.354027h26.88172v5.6451612h-26.88172z" stroke-width="1.3441"/><path id="polyline835" class="st15" fill="#c5c5c5" stroke="#2f2f2f" stroke-linecap="round" d="M35.32753352 442.160479h-.02688172v11.8279568h27.33870924" stroke-width="1.3441"/><path id="path837" d="M71.3221566 461.2465002v1.98924728c0 1.72043008-1.39784944 3.11827952-3.11827952 3.11827952H27.93506052c-1.72043008 0-3.11827952-1.39784944-3.11827952-3.11827952v-1.98924728z" class="st16" fill="#969696" stroke="#2f2f2f" stroke-linecap="round" stroke-width="1.3441"/><path id="path839" d="M71.3221566 457.7518766v3.4946236H24.816781v-18.65591368c0-1.72043008 1.39784944-3.11827952 3.11827952-3.11827952h1.18279568v18.2795696z" class="st17" fill="#d6d6d6" stroke="#2f2f2f" stroke-linecap="round" stroke-width="1.3441"/><path id="polyline841" class="st3" fill="none" stroke="#2f2f2f" stroke-linecap="round" d="M29.1178562 439.472307v-8.8709676h44.354838v27.1505372h-2.1505376" stroke-width="1.3441"/><path id="polyline843" class="st3" fill="none" stroke="#2f2f2f" stroke-linecap="round" d="M62.63936104 453.9884358H35.3006518V442.160479h.02688172" stroke-width="1.3441"/><path id="rect845" class="st18" fill="#b9b9b9" stroke="#2f2f2f" stroke-linecap="round" d="M29.1178562 430.6013394h44.354838v2.688172h-44.354838z" stroke-width="1.3441"/><g id="g857" fill="#c5c5c5" stroke="#369" stroke-linecap="round"><path id="rect847" class="st19" d="M35.3006518 442.160479h6.1827956v11.8279568h-6.1827956z" stroke-width="1.3441"/><path id="rect849" class="st19" d="M41.4834474 437.8594038h6.1827956v16.129032h-6.1827956z" stroke-width="1.3441"/><path id="rect851" class="st19" d="M47.666243 446.7303714h6.1827956v7.2580644H47.666243z" stroke-width="1.3441"/><path id="rect853" class="st19" d="M53.8490386 439.2034898h6.1827956v14.784946h-6.1827956z" stroke-width="1.3441"/><path id="rect855" class="st19" d="M60.0318342 440.5475758h6.1827956v13.44086h-6.1827956z" stroke-width="1.3441"/></g><path id="polyline859" class="st10" fill="none" stroke="#2f2f2f" d="M69.9780706 453.9884358h-37.634408" stroke-width="1.3441"/></g><g id="g6041"><path id="path861" d="M64.9099002 539.32615416H54.4396978c-1.17550575 0-2.13231275-.956807-2.13231275-2.13231275v-10.47020236c0-1.17550575.956807-2.13231275 2.13231275-2.13231275H64.9099002c1.17550574 0 2.13231274.956807 2.13231274 2.13231274v10.47020237c0 1.17550576-.956807 2.13231276-2.13231275 2.13231276z" class="st20" fill="#d6d6d6" stroke="#2f2f2f" stroke-width="1.36685" stroke-linecap="square" stroke-miterlimit="10"/><g id="g865"><path id="polygon863" class="st21" fill="#369" stroke="#369" stroke-linecap="square" stroke-miterlimit="10" d="M65.70268314 528.91062648l-7.8731548 7.84581744-3.90924004-3.90924005 1.74958996-1.74958995 2.1596501 2.1596501 6.12356483-6.0962275z" stroke-width=".27337"/></g><path id="path867" d="M64.9099002 573.2244595H54.4396978c-1.17550575 0-2.13231275-.95680702-2.13231275-2.13231277v-10.47020237c0-1.17550575.956807-2.13231275 2.13231275-2.13231275H64.9099002c1.17550574 0 2.13231274.956807 2.13231274 2.13231276v10.47020237c0 1.17550575-.956807 2.13231275-2.13231275 2.13231275z" class="st20" fill="#d6d6d6" stroke="#2f2f2f" stroke-width="1.36685" stroke-linecap="square" stroke-miterlimit="10"/><g id="g871"><path id="polygon869" class="st21" fill="#369" stroke="#369" stroke-linecap="square" stroke-miterlimit="10" d="M65.70268314 562.8089318l-7.8731548 7.84581744-3.90924004-3.90924005 1.74958996-1.74958996 2.1596501 2.1596501 6.12356483-6.0962275z" stroke-width=".27337"/></g><path id="path873" d="M64.9099002 556.27530683H54.4396978c-1.17550575 0-2.13231275-.956807-2.13231275-2.13231276V543.6727917c0-1.17550575.956807-2.13231275 2.13231275-2.13231275H64.9099002c1.17550574 0 2.13231274.956807 2.13231274 2.13231275v10.47020237c0 1.17550575-.956807 2.13231275-2.13231275 2.13231275z" class="st22" fill="#f7f7f7" stroke="#2f2f2f" stroke-width="1.36685" stroke-linecap="square" stroke-miterlimit="10"/><g id="g879" fill="none" stroke="#2f2f2f" stroke-width="11" stroke-miterlimit="10"><path id="line875" class="st23" d="M64.14446005 553.37755393l-8.9939913-8.9939913" stroke-width="3.00707"/><path id="line877" class="st23" d="M55.15046874 553.37755393l8.9939913-8.9939913" stroke-width="3.00707"/></g><path id="line881" class="st3" fill="none" stroke="#2f2f2f" stroke-width="1.36685" stroke-linecap="round" stroke-miterlimit="10" d="M38.3926802 528.93796382h6.77965834"/><path id="line883" class="st3" fill="none" stroke="#2f2f2f" stroke-width="1.36685" stroke-linecap="round" stroke-miterlimit="10" d="M25.762825 528.93796382h11.0169465"/><path id="line885" class="st3" fill="none" stroke="#2f2f2f" stroke-width="1.36685" stroke-linecap="round" stroke-miterlimit="10" d="M41.34511052 534.40543242h3.82722802"/><path id="line887" class="st3" fill="none" stroke="#2f2f2f" stroke-width="1.36685" stroke-linecap="round" stroke-miterlimit="10" d="M31.2302936 534.40543242h8.41989893"/><path id="line889" class="st3" fill="none" stroke="#2f2f2f" stroke-width="1.36685" stroke-linecap="round" stroke-miterlimit="10" d="M25.762825 534.40543242h3.88190545"/><path id="line891" class="st3" fill="none" stroke="#2f2f2f" stroke-width="1.36685" stroke-linecap="round" stroke-miterlimit="10" d="M25.762825 545.34036962h19.40951354"/><path id="line893" class="st3" fill="none" stroke="#2f2f2f" stroke-width="1.36685" stroke-linecap="round" stroke-miterlimit="10" d="M33.69065448 550.26109136h11.48168406"/><path id="line895" class="st3" fill="none" stroke="#2f2f2f" stroke-width="1.36685" stroke-linecap="round" stroke-miterlimit="10" d="M25.762825 550.26109136h6.2875889"/><path id="line897" class="st3" fill="none" stroke="#2f2f2f" stroke-width="1.36685" stroke-linecap="round" stroke-miterlimit="10" d="M32.32378733 561.74277542h12.8485512"/><path id="line899" class="st3" fill="none" stroke="#2f2f2f" stroke-width="1.36685" stroke-linecap="round" stroke-miterlimit="10" d="M25.762825 561.74277542h4.92072175"/><path id="line901" class="st3" fill="none" stroke="#2f2f2f" stroke-width="1.36685" stroke-linecap="round" stroke-miterlimit="10" d="M25.762825 567.48361745h19.40951354"/></g><g id="g6057" stroke-width="5" stroke-miterlimit="10"><g id="g909" fill="#d6d6d6" stroke="#2f2f2f"><path id="rect903" class="st7" d="M65.33389172 624.0275093h4.99999993v45.61688246h-4.99999993z" stroke-width="1.6234000000000002"/><path id="line905" class="st7" d="M65.17155406 628.57296378l-32.14285668.32467532" stroke-width="1.6234000000000002"/><path id="line907" class="st7" d="M65.17155406 624.0275093l-31.49350604 4.8701298" stroke-width="1.6234000000000002"/></g><path id="line911" class="st10" fill="none" stroke="#2f2f2f" d="M26.21051566 669.80672942h49.99999928" stroke-width="1.6234000000000002"/><path id="rect913" class="st7" fill="#d6d6d6" stroke="#2f2f2f" d="M28.15856758 637.66387274h29.2207788v31.81818136h-29.2207788z" stroke-width="1.6234000000000002"/><path id="rect915" class="st10" fill="none" stroke="#2f2f2f" d="M42.11960634 633.11841826h9.7402596v4.54545448h-9.7402596z" stroke-width="1.6234000000000002"/><path id="line917" class="st10" fill="none" stroke="#2f2f2f" d="M46.98973614 628.8976391v4.22077916" stroke-width="1.6234000000000002"/><path id="rect919" class="st10" fill="none" stroke="#2f2f2f" d="M29.45726886 634.74179486h7.46753236v2.92207788h-7.46753236z" stroke-width="1.6234000000000002"/><path id="rect921" class="st24" fill="#f7f7f7" stroke="#369" d="M33.02869738 642.85867786h7.14285704v7.79220768h-7.14285704z" stroke-width="1.6234000000000002"/><path id="rect923" class="st24" fill="#f7f7f7" stroke="#369" d="M44.39233358 642.85867786h7.14285704v7.79220768h-7.14285704z" stroke-width="1.6234000000000002"/><path id="rect925" class="st24" fill="#f7f7f7" stroke="#369" d="M44.39233358 655.19634002h7.14285704v7.79220768h-7.14285704z" stroke-width="1.6234000000000002"/><path id="rect927" class="st24" fill="#f7f7f7" stroke="#369" d="M33.02869738 655.19634002h7.14285704v7.79220768h-7.14285704z" stroke-width="1.6234000000000002"/><path id="line929" class="st3" fill="none" stroke="#2f2f2f" stroke-linecap="round" d="M72.3144111 624.0275093h-1.98051945" stroke-width="1.6234000000000002"/></g><g id="g6085" transform="matrix(.3412 0 0 .3412 -387.603 595.2)" stroke-width="5" stroke-miterlimit="10"><path id="path931" d="M1286.2079 386.04737c.8-2.7 3.4-4.6 6.3-4.6h57.8c3.7 0 6.6 3 6.6 6.6v127.3c0 3.7-3 6.6-6.6 6.6h-48.3" class="st3" fill="none" stroke="#2f2f2f" stroke-linecap="round"/><circle id="circle933" r="7" cy="404.44736" cx="1340.4078" class="st25" fill="none" stroke="#369"/><path id="path935" d="M1302.6079 411.44737h.8c3.9 0 7-3.1 7-7s-3.1-7-7-7c-3.2 0-5.8 2.1-6.7 5" class="st4" fill="none" stroke="#369" stroke-linecap="round"/><circle id="circle937" r="7" cy="435.44736" cx="1340.4078" class="st25" fill="none" stroke="#369"/><path id="path939" d="M1302.0079 442.34737c.5.1.9.1 1.4.1 3.9 0 7-3.1 7-7s-3.1-7-7-7c-.5 0-.9 0-1.4.1" class="st4" fill="none" stroke="#369" stroke-linecap="round"/><circle id="circle941" r="7" cy="466.44736" cx="1340.4078" class="st25" fill="none" stroke="#369"/><path id="path943" d="M1302.0079 473.34737c.5.1.9.1 1.4.1 3.9 0 7-3.1 7-7s-3.1-7-7-7c-.5 0-1 0-1.4.1" class="st4" fill="none" stroke="#369" stroke-linecap="round"/><circle id="circle945" r="7" cy="496.44736" cx="1340.4078" class="st25" fill="none" stroke="#369"/><path id="path947" d="M1302.0079 503.34737c.5.1.9.1 1.4.1 3.9 0 7-3.1 7-7s-3.1-7-7-7c-.5 0-1 0-1.4.1" class="st4" fill="none" stroke="#369" stroke-linecap="round"/><path id="line949" class="st3" fill="none" stroke="#2f2f2f" stroke-linecap="round" d="M1321.4078 485.74734v26.70005"/><path id="line951" class="st3" fill="none" stroke="#2f2f2f" stroke-linecap="round" d="M1321.4078 390.44736v81.5"/><g id="g957" fill="#d6d6d6" stroke="#2f2f2f"><path id="path953" d="M1227.40789 418.447369h-3.1c-4.9 0-8.9 4-8.9 8.9V513.547369c0 4.9 4 8.9 8.9 8.9h63.2c1.2 0 2.4-.2 3.4-.7 3.2-1.3 5.4-4.5 5.4-8.2V427.347369c0-4.9-4-8.9-8.9-8.9h-4.1" class="st17" stroke-linecap="round"/><path id="polyline955" class="st7" d="M1283.40789 418.447369v-8.5h-56v8.5"/></g><path id="path959" d="M1290.3079 409.44737c.7-.9 1.1-1.9 1.1-3.1v-5.8c0-2.8-2.3-5.1-5.1-5.1h-59.8c-2.8 0-5.1 2.3-5.1 5.1v5.8c0 1.2.4 2.3 1.1 3.1" class="st12" fill="#d6d6d6" stroke="#2f2f2f" stroke-linecap="round" stroke-linejoin="round"/><path id="line961" class="st17" fill="#d6d6d6" stroke="#2f2f2f" stroke-linecap="round" d="M1215.4078 409.44736h81"/><path id="rect963" class="st26" fill="#f7f7f7" stroke="#2f2f2f" d="M1215.4078 451.44736h81v50h-81z"/><path id="line965" class="st17" fill="#d6d6d6" stroke="#2f2f2f" stroke-linecap="round" d="M1246.7079 418.44736h-12.3001"/><path id="line967" class="st17" fill="#d6d6d6" stroke="#2f2f2f" stroke-linecap="round" d="M1275.4078 418.44736h-20"/><g id="g973" fill="none" stroke="#369"><path id="path969" d="M1272.40789 486.447369h-32.5c-4.7 0-8.5-3.8-8.5-8.5v-3c0-4.7 3.8-8.5 8.5-8.5h32.5c4.7 0 8.5 3.8 8.5 8.5v3c0 4.7-3.8 8.5-8.5 8.5z" class="st25"/><path id="line971" class="st25" d="M1256.20789 466.447369v20"/></g><path id="line975" class="st12" fill="#d6d6d6" stroke="#2f2f2f" stroke-linecap="round" stroke-linejoin="round" d="M1235.4078 397.44736v4"/><path id="line977" class="st12" fill="#d6d6d6" stroke="#2f2f2f" stroke-linecap="round" stroke-linejoin="round" d="M1249.4078 397.44736v4"/><path id="line979" class="st12" fill="#d6d6d6" stroke="#2f2f2f" stroke-linecap="round" stroke-linejoin="round" d="M1263.4078 397.44736v4"/><path id="line981" class="st12" fill="#d6d6d6" stroke="#2f2f2f" stroke-linecap="round" stroke-linejoin="round" d="M1278.4078 397.44736v4"/></g><g id="g6105" stroke-width="5" stroke-miterlimit="10"><path id="line983" class="st27" fill="none" stroke="#000" stroke-linecap="round" d="M378.533 834.03858"/><path id="path985" d="M382.5331 726.83856c4.1-5.9 10.9-9.8 18.6-9.8h39.8c12.3 0 22.3 9.8 22.6 22v95h-63.3" class="st3" fill="none" stroke="#2f2f2f" stroke-linecap="round"/><path id="path987" d="M463.5331 739.03856v0z" class="st10" fill="none" stroke="#2f2f2f"/><path id="rect989" class="st10" fill="none" stroke="#2f2f2f" d="M397.533 705.03855h45v12h-45z"/><path id="path991" d="M449.5331 705.03856h-60c-3.9 0-7-3.1-7-7v-6c0-3.9 3.1-7 7-7h60c3.9 0 7 3.1 7 7v6c0 3.9-3.1 7-7 7z" class="st10" fill="none" stroke="#2f2f2f"/><path id="rect993" class="st7" fill="#d6d6d6" stroke="#2f2f2f" d="M422.533 745.03855h41v67h-41z"/><path id="line995" class="st7" fill="#d6d6d6" stroke="#2f2f2f" d="M429.033 763.03855h26.5"/><path id="line997" class="st7" fill="#d6d6d6" stroke="#2f2f2f" d="M429.033 778.03855h26.5"/><path id="line999" class="st7" fill="#d6d6d6" stroke="#2f2f2f" d="M450.4331 793.03855h5.0999"/><path id="line1001" class="st7" fill="#d6d6d6" stroke="#2f2f2f" d="M439.533 793.03855h6.2"/><path id="line1003" class="st7" fill="#d6d6d6" stroke="#2f2f2f" d="M429.033 793.03855h5.3001"/><path id="path1005" d="M378.0331 834.03856h-42c-8 0-14.5-6.5-14.5-14.5v-42c0-8 6.5-14.5 14.5-14.5h42c8 0 14.5 6.5 14.5 14.5v42c0 8-6.5 14.5-14.5 14.5z" class="st7" fill="#d6d6d6" stroke="#2f2f2f"/><path id="rect1007" class="st24" fill="#f7f7f7" stroke="#369" d="M321.533 779.03855h49v40h-49z"/><g id="g1013" fill="#d6d6d6" stroke="#369"><path id="line1009" class="st5" d="M333.53309 799.038559h22"/><path id="line1011" class="st5" d="M344.53309 810.038559v-22"/></g><path id="rect1015" class="st7" fill="#d6d6d6" stroke="#2f2f2f" d="M336.533 753.03855h40v10h-40z"/><path id="path1017" d="M378.4331 753.03856h-43.8c-3.4 0-6.1-2.7-6.1-6.1v-6.8c0-3.4 2.7-6.1 6.1-6.1h43.8c3.4 0 6.1 2.7 6.1 6.1v6.8c0 3.4-2.7 6.1-6.1 6.1z" class="st7" fill="#d6d6d6" stroke="#2f2f2f"/></g><g id="g5963"><g id="g5899"><path id="path5881" d="M456.55188716 584.38026977h-26.2995835l-6.77333338-42.84486138c-.1763889-1.1288889-1.1288889-1.9579167-2.27541668-1.99319447h-.05291667c-1.11125 0-2.0813889.77611112-2.31069445 1.86972224l-8.2020834 39.01722246-3.9863889-6.70277782c-.44097223-.72319443-1.23472223-1.16416666-2.06375002-1.14652777-.84666667.0176389-1.62277778.47625-2.02847223 1.21708334l-9.38388895 16.89805566-12.31194452-30.7975002c-.35277778-.88194444-1.19944445-1.46402778-2.13430557-1.48166667-.95250002.0176389-1.81680558.52916667-2.20486114 1.37583334l-11.16541673 24.58861127h-17.35666678c-1.30527778 0-2.36361112 1.05833334-2.36361112 2.36361113 0 1.30527778 1.05833334 2.36361112 2.36361112 2.36361112h18.87361123c.93486112 0 1.7638889-.54680556 2.15194446-1.37583334l9.50736117-20.93736124 12.10027786 30.26833352c.3351389.84666667 1.1288889 1.42875 2.04611113 1.48166668h.15875c.84666666 0 1.64041667-.45861112 2.06375-1.21708334l9.8072223-17.6565279 4.97416668 8.3608334c.4938889.82902778 1.4640278 1.27 2.4165278 1.1288889.9525-.15875 1.72861112-.89958335 1.9226389-1.83444447l6.80861115-32.3673613 5.08000003 32.17333352c.1763889 1.1465278 1.18180557 1.99319446 2.32833335 1.99319446h28.32805575c1.30527778 0 2.36361112-1.05833333 2.36361112-2.3636111-.0176389-1.3229167-1.07597223-2.38125003-2.38125-2.38125003z"/><path id="path5883" d="M359.7849421 633.94554786c6.50875004 0 11.80041674-5.2916667 11.80041674-11.80041674 0-6.50875004-5.2916667-11.80041674-11.80041674-11.80041674-6.50875004 0-11.80041674 5.2916667-11.80041674 11.80041674 0 6.50875004 5.2916667 11.80041674 11.80041674 11.80041674zm0-18.89125012c3.0691667 0 5.66208337 1.97555557 6.64986116 4.72722225h-6.64986116c-1.30527778 0-2.36361112 1.05833333-2.36361112 2.36361112 0 1.3052778 1.05833334 2.36361113 2.36361112 2.36361113h6.64986116c-.9701389 2.7340278-3.58069447 4.72722225-6.64986116 4.72722225-3.89819447 0-7.0731945-3.17500002-7.0731945-7.0731945 0-3.89819446 3.17500003-7.10847226 7.0731945-7.10847226z"/><path id="path5885" d="M418.7870258 633.94554786h33.0376391c1.3052778 0 2.36361113-1.05833334 2.36361113-2.36361113V612.7083255c0-1.30527778-1.05833334-2.36361112-2.36361113-2.36361112h-33.03763909c-1.30527778 0-2.36361112 1.05833334-2.36361112 2.36361112v18.87361123c.0176389 1.3052778 1.05833334 2.36361113 2.36361113 2.36361113zm30.69166687-4.72722225h-16.527639v-14.16402786h16.527639zm-28.32805574-14.16402786h7.0731945v14.16402787h-7.0731945z"/><path id="path5887" d="M392.8402201 633.94554786c3.15736112 0 6.12069447-1.23472223 8.3431945-3.45722224 2.2225-2.22250002 3.45722223-5.18583337 3.45722223-8.3431945 0-3.15736113-1.23472223-6.12069448-3.45722224-8.3431945-2.22250003-2.2225-5.18583338-3.45722224-8.3431945-3.45722224-3.15736114 0-6.1206945 1.23472223-8.3431945 3.45722224-2.22250002 2.22250002-3.45722225 5.18583337-3.45722225 8.3431945 0 3.15736113 1.23472223 6.12069448 3.45722224 8.3431945 2.2225 2.2225 5.18583336 3.45722224 8.3431945 3.45722224zm-5.0094445-16.80986122c.75847224-.75847222 1.65805558-1.30527778 2.64583336-1.64041667v6.64986115c0 1.3052778 1.05833334 2.36361113 2.36361113 2.36361113 1.30527777 0 2.3636111-1.05833334 2.3636111-2.36361113v-6.64986115c.9877778.35277778 1.88736114.88194445 2.64583336 1.64041667 1.34055557 1.34055557 2.0813889 3.10444447 2.0813889 5.00944448 0 1.905-.74083333 3.6688889-2.0813889 5.00944448-2.68111112 2.68111112-7.33777782 2.68111112-10.01888895 0-1.34055555-1.34055557-2.0813889-3.10444447-2.0813889-5.00944448 0-1.905.74083335-3.6688889 2.0813889-5.00944448z"/><path id="path5889" d="M331.47452526 513.57776932V641.01874235h4.72722225v9.4368056h18.87361124v-9.4368056h94.40333393v9.4368056h18.87361123v-9.4368056h4.72722225V513.56013043h-141.6050009zM350.3481365 645.7459646h-9.43680563v-4.72722225h9.43680562zm113.29458403 0h-9.4368056v-4.72722225h9.4368056zm4.70958337-9.4368056H336.2017475v-28.32805575h132.1681953V636.309159zm-132.16819528-33.055278v-84.9665283H468.3523039v84.9665283z"/><path id="path5891" d="M348.98994204 546.12151953l11.50055562 9.84250006c.47625.40569444 1.07597223.59972222 1.65805557.59972222.59972223 0 1.19944445-.21166667 1.71097223-.61736112l11.46527785-9.82486117c2.66347225-2.31069446 4.5155556-5.22111114 5.3093056-8.44902783.52916667-2.15194446.40569445-3.58069447.3351389-4.09222225-.59972223-6.03250004-5.3093056-10.5656945-10.98902785-10.5656945-3.17500002 0-5.90902782 1.65805556-7.83166672 3.8452778-1.9226389-2.18722224-4.6390278-3.8452778-7.83166672-3.8452778-5.67972224 0-10.3893056 4.53319446-10.98902783 10.5656945-.07055556.51152778-.21166667 1.9402778.3351389 4.09222225.81138888 3.2279167 2.64583334 6.13833337 5.32694447 8.44902783zm-.9877778-11.76513896l.0352778-.24694445c.2998611-3.17500002 2.5576389-6.36763893 6.29708336-6.36763893 2.5576389 0 4.72722225 2.27541667 5.66208337 4.37444446l2.15194446 4.85069448 2.15194446-4.85069448c.9348611-2.11666668 3.10444445-4.37444447 5.66208336-4.37444447 3.73944446 0 5.99722226 3.2102778 6.31472226 6.5616667 0 0 .10583333.8113889-.24694445 2.2401389-.56444445 2.27541668-1.88736112 4.35680558-3.81000002 6.01486115l-10.0894445 8.6430556-10.08944452-8.6254167c-1.9226389-1.65805558-3.24555557-3.73944448-3.81000002-6.01486116-.3175-1.41111113-.22930555-2.20486113-.22930555-2.20486113z"/><path id="path5893" d="M449.47869267 530.08776943h9.4368056c1.3052778 0 2.36361114-1.05833334 2.36361114-2.36361113 0-1.30527778-1.05833333-2.36361112-2.36361112-2.36361112h-9.4368056c-1.3052778 0-2.36361114 1.05833334-2.36361114 2.36361112 0 1.3052778 1.05833334 2.36361113 2.36361113 2.36361113z"/><path id="path5895" d="M461.2791094 534.81499168H442.4054982c-1.3052778 0-2.36361113 1.05833334-2.36361113 2.36361113 0 1.3052778 1.05833334 2.36361113 2.36361113 2.36361113h18.87361123c1.3052778 0 2.36361113-1.05833334 2.36361113-2.36361112s-1.05833334-2.36361112-2.36361112-2.36361112z"/><path id="path5897" d="M458.91549828 544.2517973h-9.4368056c-1.3052778 0-2.36361114 1.05833334-2.36361114 2.36361112 0 1.3052778 1.05833334 2.36361113 2.36361113 2.36361113h9.4368056c1.3052778 0 2.36361114-1.05833334 2.36361114-2.36361113 0-1.30527778-1.05833333-2.36361112-2.36361112-2.36361112z"/></g></g><g id="g6139" transform="translate(-520.16 785.688) scale(.2564)"><path id="path1060" d="M2201.4 296.5l6.6 6.6c1.9 2 4.5 2.9 7.1 2.9 2.6 0 5.1-1 7.1-2.9 1.8-1.8 2.8-4.2 2.9-6.6" class="st10" fill="none" stroke="#2f2f2f" stroke-width="5" stroke-miterlimit="10"/><path id="path1062" d="M2258.2 316.1c4.1-1.2 7.2-4.9 7.3-9.4" class="st10" fill="none" stroke="#2f2f2f" stroke-width="5" stroke-miterlimit="10"/><path id="path1066" d="M2184.5 255.5c2.6 0 5.1 1 7.1 2.9l30.5 30.5c2.1 2.1 3.1 4.8 2.9 7.6-.1 2.4-1.1 4.8-2.9 6.6-1.9 1.9-4.5 2.9-7.1 2.9-2.6 0-5.1-1-7.1-2.9l-23.1-23.1" class="st3" fill="none" stroke="#2f2f2f" stroke-width="5" stroke-linecap="round" stroke-miterlimit="10"/><path id="path1068" d="M2182.2 315.5c-.1-.1-.3-.1-.4-.2" class="st10" fill="none" stroke="#2f2f2f" stroke-width="5" stroke-miterlimit="10"/><path id="polyline1070" class="st9" fill="none" stroke="#2f2f2f" stroke-width="5" stroke-linecap="round" stroke-linejoin="round" stroke-miterlimit="10" d="M2131.5 276.9v-25.4h24v38h-12"/><path id="polyline1072" class="st3" fill="none" stroke="#2f2f2f" stroke-width="5" stroke-linecap="round" stroke-miterlimit="10" d="M2132 289.5v-.5"/><path id="path1074" d="M2184.5 255.5h-29v34h-.1l13.6 13.6 10.5 10.5.4.4c0 .1.1.1.2.1s.1.1.2.1c.5.4 1 .8 1.5 1 .1.1.3.2.4.2.1.1.3.1.4.2.1.1.3.1.4.2.2.1.3.1.5.2.3.1.6.2.9.2h.1c.2 0 .5.1.7.1h70.2c.9 0 1.8-.1 2.7-.4" class="st10" fill="none" stroke="#2f2f2f" stroke-width="5" stroke-miterlimit="10"/><path id="path1076" d="M2225 296.5c-.1 2.4-1.1 4.8-2.9 6.6-1.9 2-4.5 2.9-7.1 2.9-2.6 0-5.1-1-7.1-2.9l-6.6-6.6-14.3-14.3" class="st3" fill="none" stroke="#2f2f2f" stroke-width="5" stroke-linecap="round" stroke-miterlimit="10"/><path id="path1078" d="M2265.5 306.8v-.3c0-5.5-4.5-10-10-10H2233" class="st3" fill="none" stroke="#2f2f2f" stroke-width="5" stroke-linecap="round" stroke-miterlimit="10"/><path id="path1080" d="M2251.6 196.5l-6.6-6.6c-1.9-1.9-4.5-2.9-7.1-2.9-2.6 0-5.1 1-7.1 2.9-1.8 1.8-2.8 4.2-2.9 6.6" class="st10" fill="none" stroke="#2f2f2f" stroke-width="5" stroke-miterlimit="10"/><path id="path1082" d="M2194.8 176.9c-4.1 1.1-7.2 4.9-7.3 9.4" class="st10" fill="none" stroke="#2f2f2f" stroke-width="5" stroke-miterlimit="10"/><path id="path1086" d="M2268.5 237.5c-2.6 0-5.1-1-7.1-2.9l-30.5-30.5c-2.1-2.1-3.1-4.8-2.9-7.6.1-2.4 1.1-4.8 2.9-6.6 1.9-1.9 4.5-2.9 7.1-2.9 2.6 0 5.1 1 7.1 2.9l23.1 23.1" class="st3" fill="none" stroke="#2f2f2f" stroke-width="5" stroke-linecap="round" stroke-miterlimit="10"/><path id="path1088" d="M2270.8 177.5c.1.1.3.1.4.2" class="st10" fill="none" stroke="#2f2f2f" stroke-width="5" stroke-miterlimit="10"/><path id="polyline1090" class="st9" fill="none" stroke="#2f2f2f" stroke-width="5" stroke-linecap="round" stroke-linejoin="round" stroke-miterlimit="10" d="M2321.5 216.1v25.4h-24v-38h12"/><path id="polyline1092" class="st3" fill="none" stroke="#2f2f2f" stroke-width="5" stroke-linecap="round" stroke-miterlimit="10" d="M2321 203.5v.5"/><path id="path1094" d="M2268.5 237.5h29v-34h.1l-13.6-13.6-10.5-10.5-.4-.4c0-.1-.1-.1-.2-.1-.1-.1-.1-.1-.2-.1-.5-.4-1-.8-1.5-1-.1-.1-.3-.1-.4-.2-.1-.1-.3-.1-.4-.2-.1-.1-.3-.1-.4-.2-.2-.1-.3-.1-.5-.2-.3-.1-.6-.2-.9-.2h-.1c-.2 0-.5-.1-.7-.1h-70.2c-.9 0-1.8.1-2.7.4" class="st10" fill="none" stroke="#2f2f2f" stroke-width="5" stroke-miterlimit="10"/><path id="path1096" d="M2228 196.5c.1-2.4 1.1-4.8 2.9-6.6 1.9-1.9 4.5-2.9 7.1-2.9 2.6 0 5.1 1 7.1 2.9l6.6 6.6 14.3 14.3" class="st3" fill="none" stroke="#2f2f2f" stroke-width="5" stroke-linecap="round" stroke-miterlimit="10"/><path id="path1098" d="M2187.5 186.2v.3c0 5.5 4.5 10 10 10h22.5" class="st3" fill="none" stroke="#2f2f2f" stroke-width="5" stroke-linecap="round" stroke-miterlimit="10"/><path id="path1116" d="M2245.4 254.6c-.4.4-.7.8-1.1 1.1l-17.9 17.9-17.9-17.9c-.4-.3-.7-.7-1.1-1.1-2.5-2.5-3.7-5.7-3.7-8.9s1.2-6.5 3.7-8.9c2.5-2.4 5.7-3.7 8.9-3.7s6.5 1.2 8.9 3.7c.4.4.7.7 1 1.1 0 0 0 .1.1.1 0 0 0-.1.1-.1.3-.4.6-.8 1-1.1 4.9-4.9 12.9-4.9 17.9 0 2.5 2.5 3.7 5.7 3.7 8.9.1 3.2-1.1 6.4-3.6 8.9z" class="st5" fill="#d6d6d6" stroke="#369" stroke-width="5" stroke-miterlimit="10"/><circle id="circle1118" r="3" cy="245.5" cx="2263.5" class="st30" fill="#2f2f2f" stroke="#2f2f2f" stroke-miterlimit="10"/><circle id="circle1120" r="3" cy="211.5" cx="2226.5" class="st30" fill="#2f2f2f" stroke="#2f2f2f" stroke-miterlimit="10"/><circle id="circle1122" r="3" cy="214.5" cx="2212.5" class="st30" fill="#2f2f2f" stroke="#2f2f2f" stroke-miterlimit="10"/><circle id="circle1124" r="3" cy="221.5" cx="2201.5" class="st30" fill="#2f2f2f" stroke="#2f2f2f" stroke-miterlimit="10"/><circle id="circle1126" r="3" cy="231.5" cx="2193.5" class="st30" fill="#2f2f2f" stroke="#2f2f2f" stroke-miterlimit="10"/><circle id="circle1128" r="3" cy="243.5" cx="2189.5" class="st30" fill="#2f2f2f" stroke="#2f2f2f" stroke-miterlimit="10"/><circle id="circle1130" r="3" cy="257.5" cx="2262.5" class="st30" fill="#2f2f2f" stroke="#2f2f2f" stroke-miterlimit="10"/><circle id="circle1132" r="3" cy="268.5" cx="2257.5" class="st30" fill="#2f2f2f" stroke="#2f2f2f" stroke-miterlimit="10"/><circle id="circle1134" r="3" cy="277.5" cx="2249.5" class="st30" fill="#2f2f2f" stroke="#2f2f2f" stroke-miterlimit="10"/><circle id="circle1136" r="3" cy="283.5" cx="2239.5" class="st30" fill="#2f2f2f" stroke="#2f2f2f" stroke-miterlimit="10"/><path id="path1138" d="M2224.7 284.5c.4-1.2 1.5-2 2.8-2 1.7 0 3 1.3 3 3 0 1.4-1 2.6-2.3 2.9" class="st31"/></g><g id="g1180" stroke-width="5" stroke-linecap="round" stroke-miterlimit="10"><g id="g1166" fill="none" stroke="#2f2f2f"><path class="st3" d="M353.2123-22.23482v-1.1c0-5.5 4.5-10 10-10h7.5" id="path1156"/><path class="st3" d="M474.1123-33.33482h6.6c5.5 0 10 4.5 10 10v83c0 .5 0 .9-.1 1.4" id="path1160"/><path class="st3" id="line1164" d="M490.61232 61.06517"/></g><path class="st12" d="M435.1123-24.83482h30.1v-32.5c0-4.1-3.6-7.5-8-7.5h-78.5c-4.4 0-8 3.4-8 7.5v43.5h45.6" id="path1168" fill="#d6d6d6" stroke="#2f2f2f" stroke-linejoin="round"/><path class="st9" d="M490.6123 61.06518c-.1.6-.2 1.2-.4 1.7-1 3-3.3 5.4-6.3 6.4-1 .3-2.1.5-3.2.5h-134.5c-5 0-9-4-9-9v-65.5c0-5 4-9 9-9h73.5l12-9.8c1-.8 2.2-1.2 3.4-1.2h36.6c3 0 5.5 2.4 5.6 5.5l.3 11.4.1 3.1v65.9s2.7 5.4 6.5 5.1c1.9-.2 3.9-.1 6.4-5.1z" id="path1170" fill="none" stroke="#2f2f2f" stroke-linejoin="round"/><path class="st9" id="line1172" fill="none" stroke="#2f2f2f" stroke-linejoin="round" d="M381.2123-27.83482h35"/><path class="st38" id="line1174" fill="none" stroke="#369" stroke-linejoin="round" d="M381.2123-40.83482h70"/><path class="st9" id="line1176" fill="none" stroke="#2f2f2f" stroke-linejoin="round" d="M381.2123-53.83482h60"/><path class="st38" d="M415.7123 53.06518c-1.6.7-3.5 1.1-5.5 1.1-5.7 0-10.4-3.3-10.4-7.4v-8.2h-8.2c-4.1 0-7.4-4.7-7.4-10.4s3.3-10.4 7.4-10.4h8.2v-8.2c0-4.1 4.7-7.4 10.4-7.4s10.4 3.3 10.4 7.4v8.2h8.2c4.1 0 7.4 4.7 7.4 10.4s-3.3 10.4-7.4 10.4h-8.2v7.2" id="path1178" fill="none" stroke="#369" stroke-linejoin="round"/></g><g id="g5957" stroke-width="5" stroke-linecap="round" stroke-miterlimit="10"><path id="path1182" d="M31.59170627 155.27935986H28.8947366c-2.3333333 0-4.2424242-1.9090909-4.2424242-4.2424242v-19.03030284c0-2.3333333 1.9090909-4.2424242 4.2424242-4.2424242h26.9696967c2.3333333 0 4.2424242 1.9090909 4.2424242 4.2424242v5.4545454" class="st3" fill="none" stroke="#2f2f2f" stroke-width="1.5151500000000002"/><path id="path1184" d="M73.1371604 143.85511755v19.03030284c0 2.3333333-1.9090909 4.2424242-4.2424242 4.2424242h-2.7272727l-.06060606 7.90909082-3.81818178-3.51515148-4.42424238-4.39393935H41.9250395c-2.3333333 0-4.2424242-1.9090909-4.2424242-4.2424242v-19.03030285c0-2.3333333 1.9090909-4.2424242 4.2424242-4.2424242h26.9696967c2.3333333 0 4.2424242 1.9090909 4.2424242 4.2424242z" class="st12" fill="#d6d6d6" stroke="#2f2f2f" stroke-linejoin="round" stroke-width="1.5151500000000002"/><path id="polyline1186" class="st9" fill="none" stroke="#2f2f2f" stroke-linejoin="round" d="M31.59170627 155.27935986l.0909091 8.21212113 3.51515147-3.5151515" stroke-width="1.5151500000000002"/><path id="line1188" class="st9" fill="none" stroke="#2f2f2f" stroke-linejoin="round" d="M29.34928205 132.03693585h26.0606058" stroke-width="1.5151500000000002"/><path id="line1190" class="st9" fill="none" stroke="#2f2f2f" stroke-linejoin="round" d="M42.37958495 143.55208725h26.0606058" stroke-width="1.5151500000000002"/><path id="line1192" class="st9" fill="none" stroke="#2f2f2f" stroke-linejoin="round" d="M55.04624846 148.09754175h13.3939423" stroke-width="1.5151500000000002"/><path id="line1194" class="st9" fill="none" stroke="#2f2f2f" stroke-linejoin="round" d="M42.37958495 148.09754175h7.66666356" stroke-width="1.5151500000000002"/><path id="line1196" class="st38" fill="none" stroke="#369" stroke-linejoin="round" d="M42.37958495 152.64299625h26.0606058" stroke-width="1.5151500000000002"/><path id="line1198" class="st38" fill="none" stroke="#369" stroke-linejoin="round" d="M61.74322718 157.18845075h6.69696357" stroke-width="1.5151500000000002"/><path id="line1200" class="st38" fill="none" stroke="#369" stroke-linejoin="round" d="M42.37958495 157.18845075h15.8181847" stroke-width="1.5151500000000002"/><path id="line1202" class="st9" fill="none" stroke="#2f2f2f" stroke-linejoin="round" d="M62.13716354 161.73390525h6.3030272" stroke-width="1.5151500000000002"/><path id="line1204" class="st9" fill="none" stroke="#2f2f2f" stroke-linejoin="round" d="M51.16746365 161.73390525h8.03030295" stroke-width="1.5151500000000002"/><path id="line1206" class="st9" fill="none" stroke="#2f2f2f" stroke-linejoin="round" d="M42.37958495 161.73390525h5.36363934" stroke-width="1.5151500000000002"/><path id="line1208" class="st38" fill="none" stroke="#369" stroke-linejoin="round" d="M29.34928205 135.97632975h26.0606058" stroke-width="1.5151500000000002"/><path id="line1210" class="st38" fill="none" stroke="#369" stroke-linejoin="round" d="M29.34928205 140.21875395h5.4545454" stroke-width="1.5151500000000002"/><path id="line1212" class="st9" fill="none" stroke="#2f2f2f" stroke-linejoin="round" d="M29.34928205 144.15814785h5.4545454" stroke-width="1.5151500000000002"/><path id="line1214" class="st9" fill="none" stroke="#2f2f2f" stroke-linejoin="round" d="M29.34928205 148.09754175h5.4545454" stroke-width="1.5151500000000002"/></g><g id="g6001"><g id="g12814"><g id="g12812" transform="translate(184.436 -183.243)"><circle r="2.8" cy="550.70001" cx="279.20001" class="st14" id="circle12810" fill="#2f2f2f"/></g></g><g id="g12820"><g id="g12818" transform="translate(184.436 -183.243)"><circle r="2.8" cy="550.70001" cx="154.8" class="st14" id="circle12816" fill="#2f2f2f"/></g></g><path id="line1216" class="st4" fill="none" stroke="#369" stroke-width="5" stroke-linecap="round" stroke-miterlimit="10" d="M400.936 413.257281v-44"/><path id="line1218" class="st3" fill="none" stroke="#2f2f2f" stroke-width="5" stroke-linecap="round" stroke-miterlimit="10" d="M329.936 415.257281h142"/><g id="g1230" fill="#d6d6d6" stroke="#369" stroke-width="5" stroke-linecap="round" stroke-linejoin="round" stroke-miterlimit="10"><path id="path1220" d="M402.836 300.657281c-9 1.1-16.5-6.4-15.4-15.4.8-6.1 5.7-11 11.8-11.8 9-1.1 16.5 6.4 15.4 15.4-.8 6-5.7 11-11.8 11.8z" class="st39"/><g id="g1228"><path id="path1222" d="M386.136 415.057281v-41.9l-2.8-.3c-6.6-.6-11.7-5.9-11.7-12.4v-26.9c0-5.4 1.6-10.6 4.5-15.1 5.4-8.2 14.6-13.2 24.7-13.2s19.3 4.9 24.7 13.2c2.9 4.5 4.5 9.7 4.5 15.1v26.9c0 6.2-4.8 11.5-11.1 12.4l-3 .4v41.9h-29.8z" class="st39"/><path id="line1224" class="st39" d="M385.936 337.757281l.2 38.79999"/><path id="line1226" class="st39" d="M416.03601 375.257281l-.10001-38"/></g></g><path id="path1232" d="M365.636 309.757281c-7 0-12.6-5.7-12.6-12.6 0-7 5.7-12.6 12.6-12.6 6.9 0 12.6 5.7 12.6 12.6.1 7-5.6 12.6-12.6 12.6z" class="st3" fill="none" stroke="#2f2f2f" stroke-width="5" stroke-linecap="round" stroke-miterlimit="10"/><path id="polyline1234" class="st3" fill="none" stroke="#2f2f2f" stroke-width="5" stroke-linecap="round" stroke-miterlimit="10" d="M379.536 383.557281v31.5h-27.5v-38.6"/><path id="path1236" d="M338.736 356.257281v-16.2c0-5 1.4-9.8 4.2-13.9 5-7.6 13.5-12.1 22.7-12.1 2.1 0 4.1.2 6.1.7" class="st3" fill="none" stroke="#2f2f2f" stroke-width="5" stroke-linecap="round" stroke-miterlimit="10"/><path id="line1238" class="st3" fill="none" stroke="#2f2f2f" stroke-width="5" stroke-linecap="round" stroke-miterlimit="10" d="M351.83599 343.857261l.20002 35.70001"/><path id="path1240" d="M436.636 309.757281c-7 0-12.6-5.7-12.6-12.6 0-7 5.7-12.6 12.6-12.6 7 0 12.6 5.7 12.6 12.6.1 7-5.6 12.6-12.6 12.6z" class="st3" fill="none" stroke="#2f2f2f" stroke-width="5" stroke-linecap="round" stroke-miterlimit="10"/><path id="polyline1242" class="st3" fill="none" stroke="#2f2f2f" stroke-width="5" stroke-linecap="round" stroke-miterlimit="10" d="M423.036 384.257281v30.8h27.5"/><path id="path1244" d="M463.436 356.257281v-16.2c0-4.9-1.4-9.8-4.1-13.9-5-7.6-13.5-12.2-22.7-12.2-2.2 0-4.4.3-6.5.8" class="st3" fill="none" stroke="#2f2f2f" stroke-width="5" stroke-linecap="round" stroke-miterlimit="10"/><path id="line1246" class="st3" fill="none" stroke="#2f2f2f" stroke-width="5" stroke-linecap="round" stroke-miterlimit="10" d="M365.936 415.257281v-42"/><path id="line1248" class="st3" fill="none" stroke="#2f2f2f" stroke-width="5" stroke-linecap="round" stroke-miterlimit="10" d="M436.936 415.257281v-42"/><path id="line1250" class="st3" fill="none" stroke="#2f2f2f" stroke-width="5" stroke-linecap="round" stroke-miterlimit="10" d="M450.936 415.257281v-71"/></g><g id="g6149" transform="matrix(.3313 0 0 .3313 -132.632 761.34)" stroke-width="5" stroke-linecap="round" stroke-linejoin="round" stroke-miterlimit="10"><path id="path1252" d="M609.7 558.5c-2.8 17.7-16.5 32.4-34.5 36.2h-.1l-26.7.4-26.9-.4h-.1c-20.3-4.2-35-22.3-35-43.1v-14c0-23.7 19.3-42.9 42.9-42.9h18v57c0 3.8 3.1 6.9 6.9 6.9h55.5z" class="st12" fill="#d6d6d6" stroke="#2f2f2f"/><path id="path1254" d="M610.6 631.9c0 12.2-9.9 22.1-22.1 22.1-12.2 0-22.1-9.9-22.1-22.1 0-1.7.2-3.4.6-5.1l.3-1.4h-38.5l.3 1.4c.4 1.7.6 3.4.6 5.1 0 12.2-9.9 22.1-22.1 22.1-12.2 0-22.1-9.9-22.1-22.1 0-12.2 9.9-22.1 22.1-22.1 5.3 0 10.5 1.9 14.5 5.4l.6.5 25.7-20.6 25.3 20.3.6-.5c4-3.4 9-5.2 14.2-5.2 12.2.1 22.1 10 22.1 22.2z" class="st40" fill="#f7f7f7" stroke="#2f2f2f"/><path id="path1256" d="M631.4 529c0 .9-.8 1.7-1.7 1.7h-8.5l-11 15.6v5.4c0 2.3-.2 4.7-.6 6.9H554c-3.8 0-6.9-3.1-6.9-6.9v-8h.7l-.1.4h59.9l11.3-16c.3-.4.8-.7 1.4-.7h9.4c1-.1 1.7.6 1.7 1.6z" class="st40" fill="#f7f7f7" stroke="#2f2f2f"/><path id="path1258" d="M564.4 496.9L548 543.6h-.7v-49h15.5c.5 0 1.1.3 1.4.7.3.5.4 1.1.2 1.6z" class="st40" fill="#f7f7f7" stroke="#2f2f2f"/><path id="line1260" class="st9" fill="none" stroke="#2f2f2f" d="M547.20001 543.59998h-60.6"/><path id="line1262" class="st9" fill="none" stroke="#2f2f2f" d="M548.40002 543.59998h-.5"/><circle id="circle1264" r="12" cy="631.5" cx="507.5" class="st41" fill="#c5c5c5" stroke="#369"/><circle id="circle1266" r="12" cy="632.5" cx="588.5" class="st41" fill="#c5c5c5" stroke="#369"/></g><path d="M-216.19902 10.363469l99.00989 99.009901V10.363469l-99.00989 99.009901z" id="path6182" fill="none" stroke="#000"/></svg>