<svg xmlns="http://www.w3.org/2000/svg" id="Слой_1" viewBox="0 0 350 500" width="350" height="500"><style id="style2">.st0{fill:none;stroke:#FFFFFF;stroke-width:1.417;stroke-miterlimit:22.9256;} .st1{fill-rule:evenodd;clip-rule:evenodd;fill:#465E9B;} .st2{fill-rule:evenodd;clip-rule:evenodd;fill:#D24A43;} .st3{fill-rule:evenodd;clip-rule:evenodd;fill:#3EB5F1;} .st4{fill-rule:evenodd;clip-rule:evenodd;fill:#FFFFFF;}</style><g id="g66"><path class="st0" d="M71.2421 358.01053h-19.6v5.2h15.5c0 5.8-.6 9.8-2.3 9.8h-13.3v5.2h19.6v11h-34v-41.5h34v10.3z" id="path4" fill="none" stroke="#fff" stroke-width="1.417" stroke-miterlimit="22.9256"/><path class="st1" d="M71.2421 358.01053h-19.6v5.2h15.5c0 5.8-.6 9.8-2.3 9.8h-13.3v5.2h19.6v11h-34v-41.5h34v10.3z" id="path6" clip-rule="evenodd" fill="#465e9b" fill-rule="evenodd"/><path class="st0" d="M97.7421 358.61053c-.6 8.1-2.3 15-4.6 19h9.8v-19zm11.5 36.9v-6.3h-21.3v6.3h-12.7v-17.9s.6 0 2.9-.6c2.9-1.2 5.2-4.6 6.3-9.8 1.7-6.9 2.3-14.4 2.3-19.6h30.5v30.5h5.2v17.3h-13.2z" id="path8" fill="none" stroke="#fff" stroke-width="1.417" stroke-miterlimit="22.9256"/><path class="st1" d="M97.7421 358.61053c-.6 8.1-2.3 15-4.6 19h9.8v-19zm11.5 36.9v-6.3h-21.3v6.3h-12.7v-17.9s.6 0 2.9-.6c2.9-1.2 5.2-4.6 6.3-9.8 1.7-6.9 2.3-14.4 2.3-19.6h30.5v30.5h5.2v17.3h-13.2z" id="path10" clip-rule="evenodd" fill="#465e9b" fill-rule="evenodd"/><path class="st0" d="M157.0421 389.11053v-21.3s-9.2 12.1-11 15.6c-1.2 2.3-3.5 5.8-7.5 5.8h-10.4v-41.5h13.3v24.7s12.1-17.9 15-21.9c1.7-2.3 4.6-2.9 5.8-2.9h8.6v41.5z" id="path12" fill="none" stroke="#fff" stroke-width="1.417" stroke-miterlimit="22.9256"/><path class="st1" d="M157.0421 389.11053v-21.3s-9.2 12.1-11 15.6c-1.2 2.3-3.5 5.8-7.5 5.8h-10.4v-41.5h13.3v24.7s12.1-17.9 15-21.9c1.7-2.3 4.6-2.9 5.8-2.9h8.6v41.5z" id="path14" clip-rule="evenodd" fill="#465e9b" fill-rule="evenodd"/><path class="st0" id="polygon16" fill="none" stroke="#fff" stroke-width="1.417" stroke-miterlimit="22.9256" d="M204.9421 389.11053v-15.5h-12.7v15.5h-14.4v-41.5h14.4v14.4h13.3v-14.4h14.4v41.5z"/><path class="st1" id="polygon18" clip-rule="evenodd" fill="#465e9b" fill-rule="evenodd" d="M204.9421 389.11053v-15.5h-12.7v15.5h-14.4v-41.5h14.4v14.4h13.3v-14.4h14.4v41.5z"/><path class="st0" d="M242.3421 371.81053h8.6l-4-15zm29.4 17.3h-15.6l-2.9-8.6h-12.7l-2.3 8.6h-16.1l15-41.5h19z" id="path20" fill="none" stroke="#fff" stroke-width="1.417" stroke-miterlimit="22.9256"/><path class="st1" d="M242.3421 371.81053h8.6l-4-15zm29.4 17.3h-15.6l-2.9-8.6h-12.7l-2.3 8.6h-16.1l15-41.5h19z" id="path22" clip-rule="evenodd" fill="#465e9b" fill-rule="evenodd"/><path class="st0" d="M293.1421 356.31053c-1.2 0-2.9 0-4 1.2-1.2.6-1.7 1.7-1.7 2.9 0 1.7.6 2.9 1.7 3.5 1.2.6 2.9 1.2 4 1.2h4v-8.7h-4zm3.4 32.8v-16.1c-1.7 0-4 .6-4.6 2.3-.6 1.7-3.5 8.1-4 10.4-1.2 2.9-1.7 3.5-3.5 3.5h-13.8l4-9.2c2.3-5.2 4-6.9 5.8-8.6 1.2-1.2 4-2.3 4-2.3-1.2 0-4.6-.6-6.9-2.3-2.9-2.3-4-4.6-4-8.1 0-2.3.6-4.6 3.5-7.5 2.3-1.7 5.8-3.5 11.5-3.5h22.5v41.5h-14.5z" id="path24" fill="none" stroke="#fff" stroke-width="1.417" stroke-miterlimit="22.9256"/><path class="st1" d="M293.1421 356.31053c-1.2 0-2.9 0-4 1.2-1.2.6-1.7 1.7-1.7 2.9 0 1.7.6 2.9 1.7 3.5 1.2.6 2.9 1.2 4 1.2h4v-8.7h-4zm3.4 32.8v-16.1c-1.7 0-4 .6-4.6 2.3-.6 1.7-3.5 8.1-4 10.4-1.2 2.9-1.7 3.5-3.5 3.5h-13.8l4-9.2c2.3-5.2 4-6.9 5.8-8.6 1.2-1.2 4-2.3 4-2.3-1.2 0-4.6-.6-6.9-2.3-2.9-2.3-4-4.6-4-8.1 0-2.3.6-4.6 3.5-7.5 2.3-1.7 5.8-3.5 11.5-3.5h22.5v41.5h-14.5z" id="path26" clip-rule="evenodd" fill="#465e9b" fill-rule="evenodd"/><path class="st0" d="M249.3421 450.21053V426.01053s-9.8 14.4-12.1 17.9c-2.9 4.6-4.6 6.3-8.6 6.3h-10.9v-45h15v18.4l-.6 6.9s13.8-17.9 16.1-21.9c1.7-3.5 5.2-3.5 6.9-3.5h9.2l-.6 45h-14.4z" id="path28" fill="none" stroke="#fff" stroke-width="1.417" stroke-miterlimit="22.9256"/><path class="st1" d="M249.3421 450.21053V426.01053s-9.8 14.4-12.1 17.9c-2.9 4.6-4.6 6.3-8.6 6.3h-10.9v-45h15v18.4l-.6 6.9s13.8-17.9 16.1-21.9c1.7-3.5 5.2-3.5 6.9-3.5h9.2l-.6 45h-14.4z" id="path30" clip-rule="evenodd" fill="#465e9b" fill-rule="evenodd"/><path class="st0" d="M291.3421 414.51053c-1.2 0-2.9.6-4 1.2-1.2 1.2-1.7 1.7-1.7 3.5 0 1.7.6 2.9 1.2 3.5 1.7 1.2 3.5 1.2 5.2 1.2h4v-9.2h-4.7zm4.1 35.7v-17.3c-1.7 0-4 .6-5.2 2.3-.6 1.7-3.5 8.6-4.6 11.5-1.2 2.9-1.7 3.5-3.5 3.5h-15l4.6-9.8c2.3-6.3 4-7.5 5.8-9.2 1.7-1.7 4.6-2.9 4.6-2.9-1.2 0-4.6-.6-7.5-2.3-3.5-2.3-4.6-5.2-4-8.6 0-2.3 0-5.2 3.5-8.6 2.3-1.7 6.3-3.5 12.1-3.5h24.8v45h-15.6z" id="path32" fill="none" stroke="#fff" stroke-width="1.417" stroke-miterlimit="22.9256"/><path class="st1" d="M291.3421 414.51053c-1.2 0-2.9.6-4 1.2-1.2 1.2-1.7 1.7-1.7 3.5 0 1.7.6 2.9 1.2 3.5 1.7 1.2 3.5 1.2 5.2 1.2h4v-9.2h-4.7zm4.1 35.7v-17.3c-1.7 0-4 .6-5.2 2.3-.6 1.7-3.5 8.6-4.6 11.5-1.2 2.9-1.7 3.5-3.5 3.5h-15l4.6-9.8c2.3-6.3 4-7.5 5.8-9.2 1.7-1.7 4.6-2.9 4.6-2.9-1.2 0-4.6-.6-7.5-2.3-3.5-2.3-4.6-5.2-4-8.6 0-2.3 0-5.2 3.5-8.6 2.3-1.7 6.3-3.5 12.1-3.5h24.8v45h-15.6z" id="path34" clip-rule="evenodd" fill="#465e9b" fill-rule="evenodd"/><path class="st0" d="M52.7421 426.61053h4c4 0 5.2-3.5 5.2-5.2 0-2.3-.6-5.8-5.2-5.8h-4zm2.9-21.3c4.6 0 12.1 0 16.1 4 2.9 2.3 5.2 5.8 5.2 12.1 0 9.2-6.9 16.1-16.1 16.1h-8.1v12.7h-15.6v-45h18.5z" id="path36" fill="none" stroke="#fff" stroke-width="1.417" stroke-miterlimit="22.9256"/><path class="st1" d="M52.7421 426.61053h4c4 0 5.2-3.5 5.2-5.2 0-2.3-.6-5.8-5.2-5.8h-4zm2.9-21.3c4.6 0 12.1 0 16.1 4 2.9 2.3 5.2 5.8 5.2 12.1 0 9.2-6.9 16.1-16.1 16.1h-8.1v12.7h-15.6v-45h18.5z" id="path38" clip-rule="evenodd" fill="#465e9b" fill-rule="evenodd"/><path class="st0" d="M103.4421 416.21053c-6.9 0-7.5 7.5-7.5 11.5s.6 11 7.5 11c6.3 0 7.5-6.3 7.5-10.4-.5-8-4-12.1-7.5-12.1zm17.3-4.6c4 4.6 6.3 10.4 6.3 16.1 0 11-6.3 23.1-24.2 23.1-4 0-10.4-.6-16.1-5.2-4.6-4.6-6.9-11-6.9-17.9-.6-13.8 8.6-23.1 23.6-23.1 6.9 0 13.3 1.7 17.9 6.9h-.6z" id="path40" fill="none" stroke="#fff" stroke-width="1.417" stroke-miterlimit="22.9256"/><path class="st1" d="M103.4421 416.21053c-6.9 0-7.5 7.5-7.5 11.5s.6 11 7.5 11c6.3 0 7.5-6.3 7.5-10.4-.5-8-4-12.1-7.5-12.1zm17.3-4.6c4 4.6 6.3 10.4 6.3 16.1 0 11-6.3 23.1-24.2 23.1-4 0-10.4-.6-16.1-5.2-4.6-4.6-6.9-11-6.9-17.9-.6-13.8 8.6-23.1 23.6-23.1 6.9 0 13.3 1.7 17.9 6.9h-.6z" id="path42" clip-rule="evenodd" fill="#465e9b" fill-rule="evenodd"/><path class="st0" d="M168.6421 418.51053c-1.7-.6-5.8-1.2-9.2-1.2-7.5 0-12.1 4.6-12.1 10.4 0 5.8 2.9 10.4 11.5 10.4 4.6 0 8.6-.6 9.8-.6l1.7 12.1c-7.5 1.2-13.8 1.2-15 1.2-14.4 0-25.4-8.6-25.4-23.1.6-14.4 9.2-23.1 25.9-23.1 6.3 0 12.1.6 15 1.7z" id="path44" fill="none" stroke="#fff" stroke-width="1.417" stroke-miterlimit="22.9256"/><path class="st1" d="M168.6421 418.51053c-1.7-.6-5.8-1.2-9.2-1.2-7.5 0-12.1 4.6-12.1 10.4 0 5.8 2.9 10.4 11.5 10.4 4.6 0 8.6-.6 9.8-.6l1.7 12.1c-7.5 1.2-13.8 1.2-15 1.2-14.4 0-25.4-8.6-25.4-23.1.6-14.4 9.2-23.1 25.9-23.1 6.3 0 12.1.6 15 1.7z" id="path46" clip-rule="evenodd" fill="#465e9b" fill-rule="evenodd"/><path class="st0" d="M210.6421 418.51053c-1.7-.6-5.8-1.2-9.8-1.2-7.5 0-12.1 4.6-12.1 10.4 0 5.8 2.9 10.4 12.1 10.4 4 0 8.1-.6 9.8-.6l1.2 12.1c-7.5 1.2-13.3 1.2-14.4 1.2-15 0-25.4-8.6-25.4-23.1 0-14.5 9.2-23.1 25.4-23.1 6.3 0 12.7.6 15.6 1.7z" id="path48" fill="none" stroke="#fff" stroke-width="1.417" stroke-miterlimit="22.9256"/><path class="st1" d="M210.6421 418.51053c-1.7-.6-5.8-1.2-9.8-1.2-7.5 0-12.1 4.6-12.1 10.4 0 5.8 2.9 10.4 12.1 10.4 4 0 8.1-.6 9.8-.6l1.2 12.1c-7.5 1.2-13.3 1.2-14.4 1.2-15 0-25.4-8.6-25.4-23.1 0-14.5 9.2-23.1 25.4-23.1 6.3 0 12.7.6 15.6 1.7z" id="path50" clip-rule="evenodd" fill="#465e9b" fill-rule="evenodd"/><path class="st2" d="M330.5421 205.31053c-6.3-25.9-28.8-63.4-98-63.4-14.4 0-52.5 4-59.4 4 .6-2.3 7.5-21.9 8.6-24.8-4.6-2.3-16.7-4.6-34-5.2-40.3-1.2-89.3 16.1-119.9 38.6-3.5 10.4-9.8 26.5-13.8 36.3 31.7-16.7 78.4-34 114.1-37.5 24.2-2.3 33.4 2.3 36.3 4 2.9 1.2-20.7 9.2-20.2 18.4 0 11.5 48.4-1.2 80.1 0 54.8 1.7 79 20.7 87.6 47.8 11 33.4-8.6 65.7-32.9 77.8 30.2-7.3 62.5-50.5 51.5-96z" id="path52" clip-rule="evenodd" fill="#d24a43" fill-rule="evenodd"/><path class="st3" d="M147.8421 115.91053c17.3.6 29.4 2.9 34 5.2-1.2 2.9-8.1 22.5-8.6 24.8 6.9 0 45-4 59.4-4 69.2 0 91.6 37.5 98 63.4 1.7 7.5 2.3 14.4 2.3 21.3 4-19 4-42.1 1.7-54.8-4-25.9-27.1-62.3-90.5-63.4-14.4 0-52.5 4-58.8 4 .6-2.3 7.5-21.9 8.1-24.8-4-2.3-14.4-6.3-31.7-6.9-40.9-.6-89.9 16.1-120.5 38.6-3.5 10.4-9.2 25.4-13.3 35.2 30.6-22.4 79.6-39.7 119.9-38.6z" id="path54" clip-rule="evenodd" fill="#3eb5f1" fill-rule="evenodd"/><path class="st4" d="M333.4421 130.91053c-5.8-20.7-28.2-54.2-77.8-55.3-14.4 0-50.7 2.9-58.8 3.5.6-1.7 6.3-19 7.5-21.9-3.5-4.6-13.8-8.6-31.1-9.2-40.9-1.2-89.3 17.3-119.9 40.3-3.5 10.4-12.1 32.3-12.1 31.1 30.5-22.5 79.5-39.2 120.5-38.6 17.3.6 27.7 4.6 31.7 6.9-.6 2.9-7.5 22.5-8.1 24.8 6.3 0 44.4-4 58.8-4 63.4 1.2 86.5 37.5 90.5 63.4 1.2 6.3 1.7 16.1 1.2 26.5 3.4-22 2.8-46.2-2.4-67.5z" id="path56" clip-rule="evenodd" fill="#fff" fill-rule="evenodd"/><path class="st1" d="M332.3421 121.71053c-4.6-19-26.5-53.6-76.1-53.6-16.7 0-47.8 2.3-57.1 3.5-1.2 4-2.3 6.9-2.3 7.5 8.1-.6 44.4-3.5 58.8-3.5 49.6 1.2 72 34.6 77.8 55.3 1.2 5.2 1.7 9.8 2.9 15-1.2-9.8-2.3-18.5-4-24.2zm-128-64.6c1.2-2.9 1.7-5.8 2.3-6.9-4-3.5-15-9.2-31.1-9.8-40.3-.6-88.8 17.9-119.3 40.3-.6 2.3-1.7 4.6-2.9 7.5 30.5-22.5 79.5-41.5 119.9-40.3 16.7.6 27.1 4.6 31.1 9.2z" id="path58" clip-rule="evenodd" fill="#465e9b" fill-rule="evenodd"/><path class="st4" d="M291.3421 249.61053zm-185.6-63.4c-14.4.6-29.4 8.6-40.3 21.3-8.6 11-13.8 23.6-13.8 36.9 0 2.9.6 5.2.6 8.1l.6 2.3 2.3 1.2c1.7.6 2.9 1.7 3.5 2.3l-2.3 4.6-6.3 13.8c-2.9 7.5-4.6 16.1-4.6 25.4 0 8.6 1.7 17.9 7.5 24.8l1.2 2.3h35.7l.6-3.5c0-1.2.6-2.3.6-3.5 0-2.9-.6-6.9-2.3-9.2-1.7-2.9-3.5-3.5-4.6-4-.6 0-1.7-1.2-1.7-2.9v-.6c.6-2.3 4-5.2 11-8.1l.6-.6c3.5 5.8 6.9 11.5 8.6 15l3.5 5.8c2.9 4.6 6.9 8.6 11.5 11l1.2.6h37.5v-5.2c0-9.2-2.3-14.4-6.9-15.6l-3.5-.6c-4-1.2-4-1.2-4.6-2.3v-1.1c0-1.7.6-4.6 1.7-6.9 0 0 .6-3.5 1.2-6.3 4-1.2 8.6-1.7 12.7-1.7-1.2 5.2-1.7 11-1.7 15.6 0 5.2.6 9.2.6 11.5v.6c1.7 4 8.1 9.8 14.4 11.5l1.2.6h37.5v-5.2c-1.2-10.4-4-15.6-9.2-15.6-5.2 0-8.1-2.3-8.1-2.9 0-.6 2.3-4 9.8-11 4.6 11.5 20.2 28.2 30.5 34l.6.6h39.2l-1.2-5.8c-2.3-8.6-6.3-14.4-12.7-15.6-7.5-1.2-9.8-2.3-11.5-5.2-1.2-1.2-2.3-6.3-3.5-10.4-1.2-4.6-2.3-9.2-3.5-12.7-.6-1.7-1.2-2.9-1.7-4l.6 1.2 2.3-.6c6.9-.6 24.8-4.6 31.1-11.5 4.6.6 11 .6 14.4-1.2 2.3-1.2 6.3-6.3 6.9-9.2v-.6l1.7-.6c5.2-3.5 11.5-11.5 11.5-16.1v-.5c0-2.3-1.2-4-3.5-4.6l-1.2-.6c-4-1.7-8.6-3.5-13.3-4.6-1.7-8.1-12.7-12.1-21.9-15.6-1.7-3.5-5.2-6.3-9.2-8.1-4-1.7-8.6-1.2-12.1.6-12.1-5.8-38-14.4-52.5-16.1l-3.5-.6-1.2 3.5c-.6.6-1.7 4-4.6 4.6-9.8 1.2-20.2-1.2-31.7-3.5-13.4-2.3-27.8-5.7-45.7-5.2z" id="path60" clip-rule="evenodd" fill="#fff" fill-rule="evenodd"/><path class="st1" d="M291.9421 249.11053c5.8-3.5 11.5-12.1 9.2-13.3-4.6-1.7-12.1-5.2-17.9-6.3 1.7-5.8-5.8-9.2-20.7-14.4-1.2-5.8-10.4-12.1-17.9-6.3-10.4-5.8-38.6-15-53-16.7-1.2 2.3-3.5 6.3-8.1 6.9-21.9 3.5-43.8-9.2-77.2-8.1-25.9 1.2-54.2 28.2-49.6 61.1 3.5 1.2 7.5 4.6 5.8 8.6-1.7 4-4.6 8.1-8.6 17.9-3.5 9.8-8.6 31.1 2.3 46.1h29.4c.6-2.3.6-10.4-2.9-11-2.9-.6-5.8-4.6-5.2-8.6 1.2-4.6 5.2-8.1 13.8-12.1-1.7-6.3-5.8-13.3-6.3-15.6 3.5-.6 21.9 34 24.2 38 2.9 4 6.3 7.5 10.4 9.2h32.3c0-3.5-.6-11-4-12.1-4.6-1.2-9.8-.6-11-5.8-1.2-5.2 2.3-11.5 3.5-19.6 6.9-2.3 17.3-1.7 21.3-2.3-3.5 10.9-2.3 25.9-1.7 31.1.6 1.7 5.2 6.3 11.5 8.6h32.3c0-2.9-1.2-11.5-4.6-11.5-8.1-.6-12.7-4-12.7-7.5.6-4 5.2-8.6 12.1-15 2.9-2.3 11-13.3 14.4-11.5-4 2.9-6.3 8.6-8.6 12.7 3.5 10.4 19 27.1 28.8 32.9h32.3c-.6-3.5-2.9-11.5-8.6-12.1-8.1-1.7-12.1-2.9-15-6.9-2.3-4-4-17.3-6.9-24.8-5.2-11-5.8-15.6-.6-18.4.6 1.7 4 8.1 5.8 9.8 8.6-1.2 27.1-6.9 29.4-12.1 5.8.6 11.5.6 14.4-.6.6 0 5.2-5.8 4-6.9-.6-.6-1.7-.6-3.5-.6 2.8-.5 6.3-2.3 7.4-2.8z" id="path62" clip-rule="evenodd" fill="#465e9b" fill-rule="evenodd"/><path class="st4" d="M276.9421 234.71053c-1.7 0-7.5 4-9.2 4-1.7-1.7-6.9-9.2 9.2-7.5 2.3 0 .6-2.3-1.2-3.5-3.5-1.7-9.8-4-17.9-6.3-1.7-6.9-9.8-9.8-12.1-1.7-9.2-5.2-30-13.3-44.4-15.6-1.7 1.2-2.3 6.9-12.1 8.6-12.1 2.3-36.3-5.2-64-8.6-27.7-3.5-49.6 10.4-52.5 35.7 6.3-1.2 19.6-1.7 28.2 9.8 26.5 33.4 21.3 45.5 25.9 47.8 5.2-11.5 13.3-37.5 5.2-53 2.9-1.2 7.5 2.9 12.1 6.9 5.2 5.2 13.8 9.2 21.3 8.6 2.9-11 15.6-21.9 19-21.3-6.9 11.5-10.4 18.4-13.8 31.7-5.2 16.1-3.5 34.6 0 35.2 1.2-5.2 3.5-15 11.5-28.2 12.7-20.2 36.9-37.5 54.8-33.4-5.2 1.2-9.2 6.3-10.4 8.6 6.9 1.7 10.4 4.6 13.3 8.1 6.3-5.8 18.4-4.6 26.5-8.1 0-2.3.6-5.2 4.6-5.8 5.2-.6 12.1 1.7 16.7-.6 1.7-1.2 5.8-5.8 5.8-8.6-1.5-1.1-9-2.8-16.5-2.8z" id="path64" clip-rule="evenodd" fill="#fff" fill-rule="evenodd"/></g></svg>