<svg xmlns="http://www.w3.org/2000/svg" width="110" height="122"><path fill="#828CA2" fill-rule="evenodd" d="M88.6 102.5c-.2 0-.7 1.4-.2 2.5.2.5.8.7 1.2.6.5-.2.6-.6.6-1 0-1-1-2-1.6-2zm-3.3-16.3v1.6l-1.2-.2v1.8h1.4v1.5H87v-1.7h1.4v-1.7l-1.4.2v-1.6h-1.7zm1 6.2c-.4 0-.7.3-.7.7 0 .5.3.8.6.8.4 0 .7-.3.7-.7 0-.3-.4-.6-.8-.6zm0 2.8c-.4 0-.7.3-.7.7 0 .2.3.5.6.5.4 0 .7-.3.7-.6 0-.5-.4-.8-.8-.8zm0 2.8c-.4 0-.7.3-.7.7 0 .3.3.6.6.6.4 0 .7-.3.7-.6 0-.4-.4-.7-.8-.7zm2 .7c0 .3.4.6.7.6.4 0 .7-.3.7-.6 0-.4-.3-.7-.7-.7-.3 0-.6.3-.6.7zm3 0c0 .3.2.6.5.6.4 0 .7-.3.7-.6 0-.4-.3-.7-.7-.7-.3 0-.6.3-.6.7zm-5 3c-.6 0-2 3-1 4.4.2.4.5.6 1 .6.3 0 .7-.2 1-.5 1-1.4-.5-4.3-1-4.3zm-2.4.8c-.8 0-1.8 1-1.8 2.2 0 .3.2.7.6 1 .5 0 1-.2 1.3-.7.5-1 0-2.5 0-2.5zm-1.2-3.8c0 .3.3.6.7.6.3 0 .6-.3.6-.6 0-.4-.2-.7-.5-.7-.4 0-.7.3-.7.7zm-2.7 0c0 .3.4.6.7.6.4 0 .7-.3.7-.6 0-.4-.3-.7-.7-.7-.3 0-.6.3-.6.7zm-.6 0v-1h5.7V92c-2.6.3-4.8 2.4-5.4 5 0 .3-.7.4-1 .4-2-.3-6.2-1-6.2-2 0-1.2.8-1.7 1.6-1.7 1.2 0 2.5.7 3.5-1-3.7.3-1-5-4-6.2.2 1.4 0 4-.4 5.2 0 0-1-1.2-2.3-1.7 0 1 0 3-.5 4 0 0-1.3-1-2.7-1.6 1.3 1.8 1.2 4.4 1 6-.2.5 0 1 1 1 1.6 0 6.7.2 9 1 .6.4 1.2.7 1.5 1.2.2.7.8 1.7 1.5 2.2.4-1 1.7-2.4 2.6-2.3.4 0 .7.5.8 1 0-.5.7-1.6 1.4-1.6s1.3.8 1.6 1.6c0-.5.3-1 .6-1 1 0 2 .7 2.4 2 .4-.4 2-2.4 2-3.7H79.6v-1.3zm8-6.8v5.6H93c-.5-3-2.8-5.2-5.6-5.7zM22 96.5h.2c-.4.4-.3.8-.2 1 .3.2.5-.3 1-1 .7-.6 1.2-1 1-1-.2-.3-.6-.3-1 0v-.2c-.2-.6-1.2-1.4-1.8-1.4a.6.6 0 0 0-.2 0c.2-.4.2-.7 0-.8-.2-.2-.3 0-.5.2v-.7c-1-1.2-5.3-5.3-6.3-5.7-.5-.2-.7 0-.7 0s-.4.3 0 1c.3 1 4.5 5.2 5.7 6 .3 0 .5.2.6 0-.2.3-.3.4-.2.6.2.2.5.2 1 0a.6.6 0 0 0-.2.2c0 .6 1 1.6 1.5 1.8zm-10.5-12H11v.7c0 .3 0 .6.4.8.3.4.6.5 1 .5h.4c.3-.4 0-1-.4-1.5-.2-.3-.6-.5-1-.5zm13.4 15c0-.4-1-1-2-1-1.3 0-2 .8-2 1.2 0 1 1 1 1.2 1 1 0 2.6-1 2.7-1.2zm-1.3 2.2c-.4.5-.5 1-.4 1.4 0 .6.6.8 1 .8.6 0 1-.2 1.3-.6.6-1 .6-2.8.4-3-.5 0-1.7.6-2.3 1.4zM11 81.8c-.3-.4-1 .3-1.6 0 .2-1.3 1 0 2-1 .3-.2 0-.8 0-1-.5.4-1 .3-1 0 1-2.2-1-4.7-2.8-4.4.4.5.5 2 .3 2.6.6.5 0 1.6-.6 1.3C7 79 6 77.8 7 77c0-.4-.6-.5-1.2.3.5-1.4-2.2-1-2.8-.6-.3.6-.6 3.3.7 2.8-.7.7-.6 1.2-.3 1.3.8-1 2-.2 2.3.3.4.8-.8 1.4-1.2.7-.5.2-2 0-2.5-.2-.3 1.8 2.2 3.6 4.4 2.6.2 0 .3.7 0 1 0 .3.7.4 1 0 1-.8-.4-1.7.8-2 .3.6-.3 1.4 0 2 .8.5 1.6-.8 2.4-.8 0-.8 1.2-1.7.5-2.3zM4.5 79s-.4-.3 0-.8c.6-.6 1-.2 1-.2l.5 1.6c-.5 0-1.6-.6-1.6-.6zm4.2 3.2c-.3 0-1 .6-1.2.3L6 81l.7-.7.7-.7L8.8 81c.3.3-.2 1-.2 1.2zM32 103.8v-.5h-.2s-.3 0-.5.4l-.5.6-.6.6c-.2 0-.4.2-.4.3 0 .2.2.2.3.2.3 0 .7 0 1.3-.7.5-.5.6-.8.6-1zm0 1.7l-.8.6c0 .3.4.5 1 .5 0 0 .4 0 .6-.2.4-.8 0-1.5-.2-1.7 0 .2-.3.5-.6 1zm-4.8-4c-.2.2-.7 1.6-.5 2.5 0 .4.3.6.6.5.4 0 .6-.2.7-.6 0-1-.6-2.4-.8-2.6zm-.3-4l3.5 3c.2.3.5.3.7.2l.6-.3c2.7-1 7-1 8.6-1 1 0 1.3-.5 1.2-1-.3-1.5-.4-4.2 1-6-1.5.5-2.8 1.7-2.8 1.7-.4-1-.6-3-.5-4-1.3.5-2.4 1.7-2.4 1.7-.6-1.3-.7-3.8-.6-5.2-3 1-.2 6.5-4 6.3 1 1.6 2.4 1 3.6 1 .8 0 1.8.5 1.6 1.7 0 1-5.2 2-7.2 2-1.4 0-2.4-.5-3-1.5-.4-.5-.8-.7-1.2-.6-.5 0-1 .6-1 1.7 0 1 .3 2.7 1.3 2.7.7 0 .7-1.4.4-2.3zm3.2 6.2c.4-.5.6-1 .5-1-.2-.6-1.2-1.7-2.6-3a5.6 5.6 0 0 1 0 .8c.8 1.2 1.2 2.5 1 3.6v.2c.5.2 1-.2 1.2-.5zM23.5 97l-.3.4h1v-.8c-.3 0-.6.3-.7.4zm46.2 8.4c.8-.4 1.5-1.4 1.6-2.5-.5.2-1 .3-1.8.3-2 0-4.5-1-6.7-2 0 0-.5.3-1.3.4 2.2.7 6.7 3.2 7 4.8.2 1-.5 1.4-.5 1.4-1-1.7-3.5-4.2-7-5.5v1s-.7.2-2.2 0c1.3 1 4.7 4.8 5 7.7.3 2-1 2-1 2-.2-3-1.8-6-4.5-9 0 0-.4.8-1 1.2 0 0-1-.2-2-.7.5 3.8.6 8.7.4 10.2 0 1-.7 1.4-.7 1.4s-.6-.5-.7-1.5c-.2-1.6 0-6.5.3-10.3-1 .5-2 .7-2 .7l-1-1c-2.7 3-4.2 6-4.4 8.8 0 0-1.3 0-1-2 .3-3 3.7-6.7 5-7.7-1.5.2-2.2 0-2.2 0v-1c-3.5 1.3-6 3.8-7 5.4 0 0-.7-.5-.5-1.5.3-1.6 4.8-4 7-4.8-.8 0-1.3-.5-1.3-.5-2.2 1-4.7 2-6.7 2-.7 0-1.3 0-1.8-.3 0 1 .7 2 1.6 2.4-3 2.2-1 7.2-5.2 6.3 2.3 4.2 7 4.6 7 4.6-1-2.2.2-9 6.3-12.2-3.7 4-5.5 8.5-4.5 11.7 1 3 4 4 6.2 4.2-1.6-5-.6-10.6 2.7-14-1.4 3.7-3.4 14 2.3 16 5.7-2 3.7-12.3 2.3-16 3.3 3.4 4.3 9 2.7 14 2.3-.2 5.2-1.4 6.2-4.3 1-3.2-.8-7.8-4.5-11.6 6 3.2 7.4 10 6.3 12.3 0 0 4.7-.4 7-4.6-4.2 1-2.3-4-5.3-6.3zM55.5 20.7c0-.3-.3-.6-.5-.6-.3 0-.6.4-.6.7 0 .3.3.5.6.5.2 0 .5-.2.5-.5zm2.7 0c0-.3-.3-.6-.6-.6s-.5.4-.5.7c0 .3.3.5.6.5s.6-.2.6-.5zM54 6.4c0 .6.4 1 1 1 .5 0 1-.4 1-1 0-.5-.5-1-1-1-.6 0-1 .5-1 1zm.3-2h1.4l-.2-1.8 1.5.2V1.5h-1.5l.2-1.5h-1.4l.2 1.6H53v1.2l1.5-.2-.2 1.7zm-1.5 16.3c0-.3-.2-.6-.5-.6s-.6.4-.6.7c0 .3.3.5.6.5s.5-.2.5-.5zm-3.2 2h10.9c.3 0 .5-.4.6-.7H49c0 .3.3.6.6.7zm.6-2c0-.3-.3-.6-.6-.6s-.5.4-.5.7c0 .3.3.5.6.5s.6-.2.6-.5zm10.6 0c0-.3-.2-.6-.5-.6s-.5.4-.5.7c0 .3.2.5.5.5s.5-.2.5-.5zm.7-1.3c.2-.4 1.6-3 1.6-5.7 0-2.4-3-3.7-4.7-3.8-.2 3.3-1.6 8.7-3.3 8.7-1.6 0-3-5.3-3.3-8.8-1.8 0-4.8 1.3-4.8 3.7 0 2.7 1.3 5.3 1.5 5.7h13zM55 17c.8 0 2-3.4 2-6.6 0-.7-.7-1.7-2-1.7s-2 1-2 1.7c0 3 1.2 6.6 2 6.6zM29 34.5c-1.6 2.2.6 4.6.7 4.8h.2c-.2-.2 1-3.6 7.7-1.8 0 0 .2 0 0 0-1.2-1-2.6-3.3-3-5 0 0-4.2-.2-5.8 2zm3.5-.5c0-.6 1-.7 1.4-.7 0 0 0 .6.4 1-.6-.4-1.3-.4-2-.3zm3.5-2.8c-.4 0-.6.3-.4.8 1.5 5 5.7 6.3 7.3 8.6 0 0 0-.7.7-2.4.5 1 2 2.5 2.8 2.7-.2-.6-.5-2.4-.3-3.6 2.2 2 5 2.2 6.3 1.2-1.2 0-2.8-1.4-3.6-2.6 1 .3 2.5 0 3-.3-.8-.2-1.7-.8-2.2-1.4.8 0 2.5-.7 3-1.6-.7.2-1.7 0-2.4-.5.5-.2 1.8-1.6 2-2.8-1.7 1-4.5 1.8-8.7 1.8H36zm4.7 2.3c-1.2.5-1.8 1-1.8 1l-1-1c0-.4 0-.8.5-.8h3.7c0 .3-.3.4-1.5.8zM28 42c.5.5 1.6 2 4 .6l3.6-2s-.4.6 0 1.4c.2-.5 2.3-2 5-2.3-1-1-2-1.6-2-1.6-1.2.2-3.4 1-6.2 2.8-2.8 2-4 1-4.2 1zM62 100.5l1-.6c-2 0-3.4-1.7-4-2.6-.5 1-1.6 1.7-1.6 1.7-.8 0-1.8-1-2.2-1.5-.4.6-1.4 1.4-2.2 1.6 0 0-1-.6-1.7-1.6-.4 1-2 2.5-3.8 2.6l1 .6H50c-.2.6-.3 1.4 0 2 0 0 .8 0 1.8-.4 0 .6.4 1.4.8 2h.3c.5 0 1.8-.5 2-1 .2.5 1.5 1 2 1h.4c.4-.6.7-1.4.8-2 .4.3 1 .4 1.5.4a6.2 6.2 0 0 0 .4 0c.3-.6.2-1.4 0-2h1.8zm-18.2-39c-.3 0-.5.3-.5.6v22.3c0 2.2 1 3.2 2.6 3.2h4c3 0 4.6 1 5.4 2.2.7-1.2 2.6-2.2 5.3-2.2h4c1.8 0 2.6-1 2.6-3.3V62.2c0-.3-.3-.6-.6-.6H43.6zm4 21c0 .4.6 1.3 1.6 1 0 .2 0 .7.2 1-1.7.5-2.4-1-1.7-2zM63 75a39.3 39.3 0 0 1-.8-.6c-.3-.3-.4-.4-.7-.4-.5 0-1 .3-1.4.5h1c.3 0 .6 0 1 .2l.2.5c0 .8.6 2.4.7 3 0 0-.3 0-.6 1-.3.3-1-.6-.8-.8.4-.4.5-.7.4-1 0-.4-.2-1-.4-1.2 0-.3-.4-.5-.8-.3-1.5.4-1.7-.3-3.2.3l1.7 2.7c0-.2 0-.5-.4-.8 0-.3.5-.4.7 0 .3.2.8.7 1.2.7.6 0 .6 1.2 2.6 1.6-.2.3-.8.2-1 0 0 .3.3.5.6.6-.3.3-1.3-.4-1.2.3h.6c.4 0 1 2.4-.3 3.4h1s.2 0 .3.2l.3.4h-.6v.4H63s-.7 0-1-.2l-1.3.2c-.2 0-.5 0-.5-.3v-.4c0-.2-.5 0-1 0h-1c.7-.6.4-2-.5-2 .7.7.6 1.8-.2 2 .3 0 .4.2.5.4.2 0 .2.3.2.4h-.6s0 .2-.2.2h-.2c-.3-.3-1.8 0-2-.2 0-.3.4-.5.8-.6-1-.3-1.8-2.2-3.4-2.5-.7-.3-1.6 0-1.6 1 0 .4.3.8.7.8.4 0 .6-.3.6-.5H52c0 .3-.4.3-.6 0v-.6c.2-.2.3-.3.6-.3.6 0 1 0 1.4.6l.2.7c0 1-1 1.3-1.6 1.3-1.5 0-2.4-1-2.4-2.3v-.5c.3-1.3 1.5-2 2.6-2 0-.6-.4-1-.8-1.3-.2-.2-.2-.4 0-.6 0-.2.3-.5.3-.8v-.2c-.5.4-1.2 1-2.2 1.2-.4 0-.5.4-.6.8v1.4c.2.4.4.7.4 1 0 .3-1 .3-1 .2 0-.8-.5-1-.4-1.5 0-.8.2-1.5 0-2.2 0-.2 0-.3.2-.4l.7-.6c.4-.4.6-1 .5-1.5v-.3c-.4-.6-.5-1-.5-1.8 0-.7-1-.7-.8 0l.2.7c1 2-.6 3.4-2.2 3.4 1.6-.5-.4-2.7-.4-4.3 0-1 .7-1.7 1.6-1.7 1 0 1.7.7 2 .8.4-.8 2-1 2.6-1 0-.5 0-1 .2-1.2 0-.3 0-.5-.2-.7-.5.5-.6 1.2-.6 1.5-1.8 0-2.6-.8-3-1l.8-1.6c-.4.3-.8.7-1 1.3l-1-.5c.5-1 1-1.5 1.7-2.2-1 .3-1.8 1.4-2.2 2h-1c1.2-1.2 1.7-3.7 4-4.2-.6 2.3.8 3.2 1.7 2.6h-.3c-2-.5-.7-3-1.2-3.7-.2-.2-.3-.4-.2-.6v-.3l-1-1.7c-.2-.2.2-.4.3-.3l1 1.7c0 .2 0 .2.2.2.4 0 .5.4.6.7v1c.3.3 6.4 10.5 6.4 10.5-1.4.5-3.8.6-4.5.5 0 .4-.3.7-.7 1 .4 0 .6-.4 1-.7l1 .2-1 1.4c-.4.2-.6.4-.5.7 0 .4.8 1 1 1.6l1 .3c.3.4 1 1 1.7.7-1.5 0-1.4-1.6-1-2.5 0 .8.4 1.4.8 1.5-.7-.6-.6-2 0-3 .2 1.4.6 2 1.2 2.3-.8-.7-1.2-2.3 0-3.5 0 3 2.7 2.6 3 6 1 0 1-1.4.4-1.6-.3 0-.6-.4-.8-.6 0-.2 0-.4-.2-.5-.2-1-1-.8-1-1 0 0 0-.2.3-.2l-1.7-2.3v-.2-.4l-6-10c.5 0 1 0 1.5.3l-.2-.5v-.3c.2 0 .3-.2.4-.3.3-.5.8-.7 1.3-.6.8.2 1 1 .5 1.5-.3.8-.7.7-.7 1 .2 0 1.2.8 1.3 1.2-.3.6-.4 1.6-.2 2 .3-2.5 2-3.8 3.4-3.8.4 0 .8 0 1 .2.3 0 .5.2.7.3a5 5 0 0 1 .8.5c.3.3.6.7 1 .7 0 .2-.2.4-.4.6l-.2.4c0 .3-.2.7-.5 1l-.5 1.6s0 .3-.2.3h-.5c-.2-.3-.3-.5-.2-.8v-.8l-.3-.8c-.4-.2-1.2.7-.6 1.5.4.6.8 1.7.8 2 0 0-.3.4-.8.3-1.8-.2-2.8-1.4-3.2-2.4 0 1.6 1.4 3 3.5 2.7 0 .4.4.7.8.7v-1c0-.3 0-.3.2-.4.5 0 1 0 1.6-.2.4-.2.7 0 1 .4.2.5.5 1 1 1.2l.3.4.3.6c-.2.4 0 1.2 0 1.3-.2.2-1 0-1-.3 0 0 .2-1 0-1.3zm12.4-42.5c-.5 1.7-2 4-3 5-.3 0-.2 0 0 0C79 35.7 80 39 80 39.2c0 0 .2.2.3 0 0 0 2.3-2.5.8-4.7-1.5-2.2-5.6-2-5.6-2zm.2 1.7c.3-.3.5-1 .5-1 .6 0 1.5.2 1.5.8-.6 0-1.3 0-2 .2zM82 42s0-.2-.2 0c0 0-1.4.7-4.2-1.2-2.8-1.8-5-2.6-6-2.7 0 0-1.2.8-2 1.7 2.5.2 4.6 1.8 4.8 2.3.4-.8 0-1.5 0-1.5l3.6 2c2.4 1.5 3.5 0 4-.6zM59.5 32c-.7.4-1.7.7-2.4.5.5 1 2.2 1.6 3 1.6-.5.6-1.4 1.2-2 1.4.3.3 1.8.6 3 .3-1 1.2-2.5 2.6-3.7 2.6 1.4 1 4 .7 6.3-1.2.2 1.2 0 3-.3 3.5 1-.3 2.3-2 2.8-2.8.8 1.7.8 2.4.8 2.4 1.7-2.3 6-3.5 7.4-8.6.2-.5 0-.8-.4-.8h-7.7c-4.2 0-7-1-8.8-1.8.3 1.2 1.6 2.6 2 2.8zm12 .5c.5 0 .4.4.3.7l-1 1.2s-.5-.6-1.7-1c-1.2-.5-1.5-.6-1.5-1h3.7zM44 40.5c0 .7-.2 1.4 0 2.4.7 1.5 1 4.6.8 6.4 1.2-1.7 1.8-3.7 2-5.2.8.7 1.8 1.8 2.4 2.6 0-1 .3-2 .5-2.8 1 .8 2.8 2 4 2.3-.8-3.6-2.3-6-2.3-6-1.2.2-3.3 0-4.2-1 .2 1.3 1 2.8 1 2.8-1.8.3-3.2-.4-4-1.5zm22 0c-1 1-2.4 1.8-4.3 1.6 0 0 1-1.4 1-2.7-.8 1-3 1.2-4 1 0 0-1.6 2.4-2.5 6 1.3-.4 3.2-1.5 4-2.3.3.8.5 2 .6 2.8.6-.8 1.6-2 2.3-2.6.4 1.5 1 3.5 2.2 5.2-.3-1.8 0-5 1-6.5 0-1 0-1.8-.3-2.5zM49 52c1 1.2 1.5 2.6 1.8 4 .7-1 1.4-2.5 2-4.3.5.8 1.6 2.4 2.2 3.7.6-1.3 1.7-3 2.3-3.7.5 1.8 1.2 3.3 2 4.2.2-1.4.8-2.8 1.6-4 .4 2.3 2.6 4.5 4.8 4.7-1.4-2-1.5-5-1.4-6.2-1-1.5-1.6-3-2-3.8-.6.6-1.6 2-2.5 3.4 0 0 0-1.8-.5-4-1 1-2.6 1.5-3.5 1.7-.6 1-.7 1.7-1 3-.3-1.3-.4-2-1-3-1-.2-2.6-.8-3.5-1.7-.4 2.2-.4 4-.4 4-.8-1.4-1.8-2.7-2.5-3.3-.3 1-1 2.3-2 3.8.2 1 0 4.3-1.3 6.2 2.2-.2 4.4-2.4 5-4.7zM29 79.2c1.2-.8 2-2.3 3-4-.6 0-1.4.3-2 .5-1 1.4-2 1-2 .7l.7-1-1-2c-1 2.2-3 4.5-4.5 5.4 1 1.3 4 1.6 5.8.4zm3.8-3.8c-1 2-.7 4.8 2.2 5-.3-2.2.6-4 1.6-5-.8.2-2.2 1.3-2.2 1.3l-.2 1c-.6.2-1-.2-.7-1.2l-.7-1zm-14 2.2a5.2 5.2 0 0 0 1.3-.2c2.8-.7 5.4-3 7-5-1 .3-1.8.5-2.8.6 0 0-.7.8-1.2 1-.3.3-.6.3-.8.3-.8 0-1-.6-1-.6l2-1.4c-.3-.7-.4-1.5-.4-2.4-2 2-6 4.2-9 4.6.6 1 2.6 3 5 3zM13.4 73a4.5 4.5 0 0 0 .4 0c2.8-.3 6.2-2 8.4-3.7-.7.2-2.5.2-3.4 0-.3.3-1.6 1-2.7 1.3-2 .2-2-1-2-1 1.2-.2 2.6-.6 4-1.3l.6-2.7c-3 1.8-8 3-11 3 .5 1.4 3 4.4 5.8 4.4zm.4-10c.5-1 1-1.8 1.8-2.5-2.5.7-5.7.8-7.4.8-2 0-4 0-5-.3 0 2 2 5.4 5.8 5.7h.6c2.3 0 6-1 8.6-1.8-1.8-.3-3.6-.8-4-1-1 .3-3.2.7-4 .7-1.6 0-1.8-1.4-1.8-1.4s3 0 5.4-.4zm-9-3.7c1.4.4 3.7.7 6 .7 1.6 0 3.2-.2 4.5-.4-1.4-.4-3-1.2-4.2-2-1.3 0-3.2 0-4.4-.3-1.8-.6-1.8-1.8-1.8-2 1.6.6 4.2 1.2 6.2 1.3.7-.7 1.8-1.6 3-2.3-4.7 0-10.6-1.8-14-3.5-.7 6.2 3.5 8 5 8.5zm10.2-13c-.7-1.3-1.4-3-1.5-4.7-2-1.7-4.6-4-6-6.3-1-1.5-.6-2.7 0-3.2.5 1.7 3.4 6 6 8.2 0-1.4.3-3 .6-4.2-3-3.3-6.4-8.8-7.2-11-1 .8-2.5 2.7-3 5.4-.3 2.8.6 5.6 2.7 8.5 1.7 2 5.4 5.3 8.5 7.4zm-.8 7c-2-1.3-3.6-2.6-4.4-3.7-1.8-.7-4-1.8-5.2-2.7-1.5-1.4-1-2.6-.8-2.8 1.3 1.4 4.3 3.4 6.4 4.3 1.3-.5 3-1 4.8-1-5.2-2.2-10.8-6-13.7-9.7-.6 1-3 6.6 1.5 11 2.4 2.4 7.3 4 11.4 4.6zm68 20c-.2.7-.6 1.5-1 2 .3.5.5.8.8 1 0 .3-1 .8-2-.6l-2-.6c1 2 1.8 3.4 3 4.2 2 1.2 5 1 5.8-.4-1.6-1-3.5-3.2-4.6-5.4zm-5 2c-.3.8-.7 1.2-.7 1.2.3 1 0 1.4-.7 1.3 0-.6-.2-1-.2-1s-1.4-1.2-2.2-1.4c1 1 2 2.8 1.6 5 3-.2 3-3 2.2-5zm9.7-3c.7.8 2 1.4 2 1.4s-.4.6-1.2.6c-.2 0-.5 0-.8-.2-.5-.2-1.2-1-1.2-1-1 0-2-.3-2.7-.5 1.6 2 4.2 4.2 7 5a5.2 5.2 0 0 0 1.2 0c2.4 0 4.4-1.8 5-3-3-.3-7-2.4-9-4.6 0 .8 0 1.6-.3 2.3zm5-4c1.4.7 2.8 1 4 1.3 0 0 0 1.2-2 1-1.2-.2-2.5-1-2.8-1.2h-3.4c2.2 1.5 5.6 3.3 8.4 3.6a4.5 4.5 0 0 0 .4 0c3 0 5.3-3 6-4.4-3 0-8.2-1.2-11.2-3l.6 2.7zm2.4-7.8c.7.7 1.3 1.6 1.8 2.4 2.4.4 5.4.3 5.4.3s-.2 1.3-2 1.4L96 64c-.4.2-2.2.7-4 1 2.6.8 6.3 1.8 8.6 1.8h.6c3.8-.4 5.7-3.8 5.8-5.8-1 .2-3 .3-5 .3-1.7 0-5 0-7.4-.8zm15.5-9.7c-3.4 1.7-9.3 3.6-14 3.5 1.2.7 2.3 1.6 3 2.3 2 0 4.6-.7 6.2-1.4 0 .3 0 1.5-1.8 2-1.2.5-3 .5-4.5.5-1.2.7-3 1.5-4.3 2l4.4.3c2.5 0 4.8-.3 6-.7 1.5-.5 5.7-2.3 5-8.5zM102.4 32c.6.6 1 1.8 0 3.3-1.4 2.4-4 4.6-6 6.3 0 1.6-.8 3.4-1.5 4.8 3-2 6.8-5.3 8.5-7.5 2-3 3-5.8 2.6-8.6-.3-2.7-2-4.6-2.8-5.4-.8 2.2-4.3 7.7-7.3 11 .2 1.2.5 2.8.5 4.2 2.6-2 5.5-6.5 6-8zm-2.7 16.5c2-1 5-3 6.4-4.3.2.2.7 1.4-.8 2.7-1.2.8-3.4 2-5.2 2.6-.8 1-2.3 2.4-4.4 3.8 4-.6 9-2.2 11.4-4.6 4.6-4.4 2-10 1.5-11-3 3.6-8.5 7.5-13.7 9.6 1.7.2 3.5.6 4.8 1zm-12.2-6.3c-1.7 4-6 7.5-8.8 9.2-1.2 1-.8 2.4-.4 3 3.8 6.4-3 11-9.3 8 1.5 0 2.8-1.2 3-2.2-.4.3-2.2 0-2.7-.3.8-.6 1-1 1-1.4-1 .6-3 .7-3.6-.3-3.3 0-5.5-2.7-5.7-3.4-.2.7-.6 2-.8 3.4-1-.6-2.4-2-3.2-3.8-1 1.3-1.6 2.7-2 4.2-.4-1.5-1-3-2-4.2-.8 1.8-2.3 3.2-3.2 3.8-.2-1.4-.6-2.7-.8-3.5-.2.6-2.4 3.2-5.7 3.3-.6 1-2.6 1-3.6.3 0 .4.2.8 1 1.3-.5.3-2.3.5-2.7.2.2 1 1.5 2.2 3 2-6.3 3.3-13.2-1.4-9.4-7.7.4-.7.8-2.2-.4-3-2.8-1.8-7-5.3-8.8-9.3-.2 1.6 0 5.6 1.6 8l-4 2c.8 1 2.4 2.2 3.4 3l-3 3.2c1 .6 2.8 1.2 4.2 1.7-.6 1-1.6 3-2 4.2 1.7.2 3.3.2 4.7.2-.2 1.3 0 3 0 4.2 1.5-.2 3-.8 4.2-1.4.2 1 .7 2.7 1.2 3.6 1.4-1.3 3.2-2 5-1.6 3.3.7 4.4 4.2 4.4 4.2V61.6c0-.6.4-1 1-1h24c.6 0 1 .4 1 1V73.4s1-3.5 4.4-4.2c1.7-.3 3.5.3 5 1.6.4-1 1-2.6 1-3.6 1.2.6 2.8 1.2 4.2 1.4.2-1.2.3-3 0-4.2 1.5 0 3 0 4.7-.2-.3-1-1.3-3-2-4 1.5-.5 3.3-1.2 4.2-1.8-.7-1-2-2.4-3-3.2 1-.8 2.7-2 3.4-3l-4-2c1.7-2.4 1.8-6.4 1.6-8zM44.2 29.8v.4c4 0 8-1.4 9.2-6.4h-3.2c-.6 3.6-2.7 6-6 6zm-18-8s2.3.4 3.2 3.7c1 3.2 3 4.7 5.4 4.7v-.4c-1.5-.2-3.4-2-3.7-5.6-.3-3.6-1-4-1-4-1-.7-3.3 1-3.8 1.5zM19.5 23c2 0 3.2.5 5.6-1.7 3-2.6 4.3-2 4.3-2-1.5-1-3.5-1.5-4.2-1-.6.6-1.5 2-3 3-2.3 1.6-4.6 1.2-4.7 2.5 0 0 .3-.8 2.2-.8zm1.8 8.5c1 1 1.2 3.5 1.2 3.5s1.4-2.5.3-5c-1.2-2.8-3.5-4.8-1.2-6.4-1.4 0-3-.3-3.6.7-.2.3-.4 1 .3 2 1 1.4 3 4.4 1.3 6.5 1.3-.3 1.7-1.3 1.7-1.3zm14.3-1.5h7.8L44 29h-9l.6 1.2zm4.7-11c0-.6-.4-1-.8-1s-.7.4-.7 1c0 .3.3.6.7.6.4 0 .8-.3.8-.7zm4 9c.2-1 .6-2.7.6-3.5 0-1.4-1-3-3.6-3.4 0 1.7-.8 6-1.8 6s-2-4.3-2-6c-2.7.5-3.5 2-3.5 3.4 0 .8.5 2.4.8 3.5h9.4zM39.4 26c.5 0 1-2.7 1-4 0-.8-.5-1.3-1-1.3s-1 .5-1 1.2c0 1.3.5 4 1 4zm-.5-8.8h1V16h1v-1l-1 .2V14h-1V15l-1-.2v1h1V17zm20.8 6.6h-3.2c1 5 5 6.4 9.3 6.4l-.2-.4c-3.3 0-5.4-2.4-6-6zm15.4 6.4c2.3 0 4.5-1.5 5.4-4.7 1-3.3 3.2-3.8 3.2-3.8-.5-.5-2.8-2.2-3.7-1.6 0 0-.7.6-1 4.2-.4 3.5-2.3 5.4-3.7 5.6v.4zm9.7-8.7c2.3 2.2 3.6 1.6 5.5 1.7 2 0 2 .8 2 .8h.2c0-1.3-2.4-1-4.6-2.4-1.5-1-2.4-2.5-3-3-.8-.6-2.8-.2-4.3.8 0 0 1.4-.5 4.2 2zm7 3c-.7-1-2.2-.7-3.6-.7 2.3 1.6 0 3.6-1.2 6.3-1 2.7.3 5.2.3 5.2s0-2.4 1.2-3.5c0 0 .4 1 1.7 1.3-1.8-2 .4-5 1.3-6.5.7-1 .5-1.7.3-2zm-17.6 5.7L75 29h-9l.6 1.2h7.8zm-3.2-11c0-.6-.3-1-.7-1-.4 0-.8.4-.8 1 0 .3.4.6.8.6s.7-.3.7-.7zm4 9c.3-1 .7-2.7.7-3.5 0-1.4-1-3-3.6-3.4 0 1.7-1 6-2 6s-1.8-4.3-1.8-6c-2.7.5-3.5 2-3.5 3.4 0 .8.5 2.4.8 3.5h9.4zM70.5 26c.5 0 1-2.7 1-4 0-.8-.5-1.3-1-1.3s-1 .5-1 1.2c0 1.3.5 4 1 4zm-.5-8.8h1V16h1v-1l-1 .2V14h-1V15l-1-.2v1h1V17zM18.7 48.4c-2 0-5.6.4-7.5 1 1.3 1.5 4.5 3.6 6.5 4.5-1.6.5-4.3 2-5.4 3 1.5 1 4.7 2 6.2 2.3-1 .7-2.7 2.7-3.4 4 1.4.3 4 .6 5.6.7-.6 1-1.2 3-1.3 4.3.8 0 3.5 0 4.8-.4 0 1 0 3 .2 3.8 1.4 0 3.2-.7 4-1l1.6 3.6c1-.2 2.3-.7 3.2-1.2.3.8 1 2 1.2 2.3 3-3 7.5-.6 7.5 2.7-.3 2.2-3.4 2-5 3-2.2 1.5-1.8 4.6-4 5 2 1.4 2.7-1 4.8-1-.3 1.2-.2 3.6 0 4.6 1-.7 2-1.2 3-1.3-.3.8-.4 2.6 0 3.8.4-.5 2.6-2.4 7.7-1.2.6.3-3.5 0-3 1.4.4 1 .5 1.8 0 3.3h.8c1 0 2.6-.6 3.2-1.6.4.4.4 2.8-1 3.4 1.5 0 2.8-1.2 3-2 0 0 .8 2 1.7 2.5.5-.3 1.6-1.3 2-2.3.4 1 1.5 2 2 2.2 1-.7 1.8-2.6 1.8-2.6.2.8 1.5 2 3 2-1.4-.6-1.4-3-1-3.3.6 1 2 1.8 3.2 1.8h.8c-.5-1.6-.4-2.3 0-3.4.5-1.3-3.6-1-3-1.3 5-1 7.3.8 7.8 1.3.3-1.2.2-3 0-3.8.8 0 2 .6 3 1.3 0-1 .2-3.4 0-4.7 2 .2 2.6 2.6 4.7 1.3-2.2-.5-1.8-3.6-4-5-1.6-1-4.7-1-5-3 0-3.4 4.4-6 7.5-2.8.2-.3 1-1.5 1.2-2.3 1 .5 2.2 1 3.2 1.2.3-.5 1.2-2.6 1.5-3.6 1 .3 2.7 1 4 1 .2-.8.3-2.8.2-4 1.2.4 4 .5 4.7.5 0-1.3-.7-3.2-1.3-4.3 1.7 0 4.2-.4 5.5-.8-.8-1.2-2.6-3.2-3.5-4C93 59 96.2 58 97.7 57c-1-1-3.8-2.5-5.4-3 2-1 5.2-3 6.5-4.6-2-.6-5.5-1-7.5-1 4.2-3 4.4-9.2 3-12.6-.7 2-3.4 5.5-5 7.3 0 1.8-.5 5-1.5 6.8 1.4.5 3 1.3 4.2 2.2-.8 1-2.4 2.5-3.5 3.3 1 1 2.4 2.6 3 3.6-1 .6-3 1.4-4.2 1.8.6 1 1.4 3 1.6 4.5-1.4.2-3 .4-5 .3.2 1.4 0 3.4-.2 4.6-1.6 0-3.6-.8-4.5-1.2-.4 1.8-1.6 3.6-1.6 3.7-5.2-5.7-9.8-.3-9.8 4.6V84c0 3.3-1 4.8-4 4.8h-3.7c-2.4 0-4.3 1-5.3 3-1-2-3-3-5.3-3H46c-3 0-4-1.5-4-4.7v-6.7c0-5-4.5-10.3-9.7-4.6 0 0-1.2-2-1.6-3.7-1 .4-3 1-4.5 1.2-.2-1.2-.4-3.2-.3-4.6-2 0-3.6 0-5-.3.3-1.4 1-3.4 1.6-4.5-1-.4-3.2-1.2-4-2 .5-1 2-2.6 3-3.5-1.2-.8-2.8-2.3-3.6-3.3 1.2-1 2.8-1.7 4.2-2.2-1-2-1.5-5-1.4-6.7-1.7-1.7-4.4-5-5.2-7.2-1.3 3.4-1 9.7 3 12.6zM7 80.7l-.3.4s.8 1 1.4.7c.5-.7-.6-1.4-.6-1.4l-.3.4z"/></svg>