<svg id="Слой_1" xmlns="http://www.w3.org/2000/svg" viewBox="0 0 100 100"><style>.st0{fill:none;} .st1{fill:none;stroke:#B2B2B2;stroke-width:2;stroke-linecap:round;stroke-linejoin:round;stroke-miterlimit:10;} .st2{fill:#B2B2B2;stroke:#B2B2B2;stroke-width:2;stroke-linecap:round;stroke-linejoin:round;stroke-miterlimit:10;} .st3{fill:none;stroke:#2F2F2F;stroke-width:2;stroke-linecap:round;stroke-miterlimit:10;} .st4{fill:#1D1D1B;} .st5{fill:#DADADA;} .st6{fill:#DB3B47;} .st7{fill:#66C2C2;} .st8{fill:#B2B2B2;}</style><path class="st0" d="M0 0h100v100H0z"/><path class="st1" d="M60.1 37.3l-6.8-6.2M60.1 37.3h-6.8v-6.2zM57.4 65.8v2.1H34.8V33.2h2.7"/><path class="st1" d="M55.3 67.9V70H32.7V35.3h2.1"/><path class="st1" d="M37.5 35.3v30.5h17.8"/><path class="st2" d="M60.1 37.3h-6.8v-6.2z"/><path class="st1" d="M37.5 35.3v-4.2h15.8M60.1 37.3v28.5H55.3"/><path class="st3" d="M45.4 42.5h5.5M48.1 39.7v5.5M41.9 55.5H55M41.9 51.4H55M41.9 59.7H55"/><g><path class="st4" d="M75 37.8v8.3c-.1.9-.2 1.8-.2 2.7h-.1c-.1-.8.1-1.5.1-2.3.1-.9.1-1.8.1-2.6v-5.4c0-1.7 0-3.4-.1-5.1-.1-1.5-.4-2.9-1.3-4.2-.2 0-.4-.1-.6-.1-.4-.1-.7-.2-1-.4-.4-.2-.8-.5-1.1-.9v-.1-.2h-.1c-1.7-.5-3.5-.6-5.2-.1 1.7 0 3.6.2 5.2.9.4.2.8.4 1.1.6 2.2 1.7 2.1 5 2.2 7.6.1 2 .1 4 .1 6s0 4.1-.3 6.1h-.1c0-2.1.2-4.2.2-6.3 0-1.9 0-3.8-.1-5.6-.1-1.6-.1-3.4-.5-4.9-.5-1.7-1.5-2.9-3.2-3.4-1.6-.6-3.5-.7-5.2-.7-.2.1-.4.2-.6.2-1.5.7-2.8 1.8-3.5 3.3-.9 1.8-1.1 3.9-1.2 5.8-.3 4-.2 8-.3 12 0 0 .1 0 .1.1v.1h-.1-.1c-.5-.3-1.1-.1-1.5.2h-.1v-.1l.3-.3c0-2.6.1-5.3.2-7.9.1-2.3.1-4.6.3-6.8.2-1.8.7-3.7 1.8-5.1.4-.5.8-.9 1.3-1.2-.5.2-1.3 0-1.4-.6-.1-.4.1-.9.2-1.3.1-.3.1-.5.4-.7.3-.1.6-.1.8-.1l1.5.3c.7.1 1.3.3 1.7.8.1 0 .2-.1.3-.1 1.9-.5 3.9-.4 5.8.2 0 0 .1 0 .1.1l.3-.3s0-.1.1-.1c1 .1 2 .3 2.9.6.7.3.5 1 .2 1.5-.2.3-.4.7-.7.8h-.2c.7 1 1 2.3 1.2 3.5.3 1.8.3 3.5.3 5.2zm-.8-9.5c.2-.3.6-.9.1-1.3-.2-.2-.6-.2-.9-.3-.7-.2-1.4-.3-2.1-.4-.3.4-.6.8-.6 1.3.5.4 1 .8 1.6 1 .3.1.6.2.9.2 0 0 .1-.1.1 0 .5 0 .7-.2.9-.5zm-3.3-1.8c-2.2-.6-4.6-.5-6.7.2-1.9.6-3.5 1.7-4.5 3.5S58.5 34 58.4 36c-.2 4.3-.3 8.6-.5 12.8.3-.1.7-.1 1.1 0-.1-2.5 0-5 .1-7.5 0-2.1.1-4.2.4-6.3.2-1.8.6-3.7 1.7-5.1.9-1.2 2.1-2 3.4-2.5 0 0 0-.1.1-.1h.1c1.8-.6 3.9-.6 5.8-.1.1-.2.2-.5.3-.7zm-6.3-.2c-.7-.7-2-.8-2.9-1-.4-.1-.9-.2-1.1.3-.1.2-.1.5-.2.7-.1.4-.1.9.3 1.1.3.1.6.1.8.1 1-.4 2-.9 3.1-1.2z"/><path class="st4" d="M74.9 48.9c-.1 2.2-.5 4.6-1.8 6.4-1.3 1.8-3.5 2.6-5.7 2.7v-.1h-.1s0-.1.1-.1.2-.1.2 0c.7-.1 1.3-.2 1.9-.3 1.6-.5 3.1-1.5 3.9-3 .9-1.6 1.2-3.6 1.3-5.4-.4-.4-.9-.4-1.5-.2-.1 1.7-.3 3.6-1.3 5.1-1.8 2.9-5.8 3.2-8.7 2.1-1.4-.5-2.6-1.4-3.3-2.7-.7-1.3-.9-2.9-.8-4.3h.1c.1 1.6.2 3.2 1.1 4.6.8 1.3 2.2 2 3.6 2.4 1.6.4 3.3.5 4.9 0 1.5-.5 2.6-1.5 3.3-2.9.6-1.3.8-2.9.9-4.3v-.1-.1c.1-.1.3-.2.5-.2h.1c.3 0 .7 0 1 .2h.1v.1c.1 0 .1 0 .2.1z"/><path class="st5" d="M74.8 38.4v5.4c0 .9 0 1.8-.1 2.6s-.2 1.5-.1 2.3c-.3-.2-.6-.2-1-.2.2-2 .2-4 .3-6.1 0-2 0-4-.1-6-.1-2.6-.1-5.9-2.2-7.6l.1-.2c.3.2.7.3 1 .4.2 0 .4.1.6.1.8 1.2 1.2 2.7 1.3 4.2.2 1.7.2 3.4.2 5.1z"/><path class="st6" d="M63.8 57.5c-1.8-.3-3.3-1.1-4.4-2.6-1.2-1.7-1.5-3.7-1.8-5.7.5-.3 1-.5 1.5-.2h.1c-.1 1.5.1 3 .8 4.3.7 1.3 1.9 2.2 3.3 2.7 3 1 6.9.7 8.7-2.1 1-1.5 1.2-3.3 1.3-5.1.5-.2 1-.2 1.5.2-.1 1.8-.5 3.8-1.3 5.4-.8 1.5-2.2 2.5-3.9 3-.6.2-1.3.3-1.9.3h-.2l-.1.1c-1.6 4.5-5.2 7.9-9.6 9.7-2.4 1-4.9 1.5-7.5 1.5-2.7.1-5.4-.2-7.8-1.5-1.1-.6-2.2-1.3-3.1-2.3-.9-1-1.5-2.3-2-3.6-.4-1.2-.7-2.3-.6-3.6.1-1.1.4-2.2.9-3.1 1.1-2 3-3.4 5.2-3.9 2.4-.5 4.9.1 6.9 1.5 1.4.9 1.9 2.3 2.4 3.9s.5 3.1 0 4.7c-.9 2.6-2.7 4.8-5 6.3-.7-.1-1.4-.2-2.1-.4h.1c3.8-2 7-6.4 5.4-10.9-.8-2.2-2.7-3.3-4.9-3.7-2.1-.3-4.4.1-5.9 1.8s-1.8 4.2-1.4 6.3c.4 2.1 1.6 3.9 3.3 5.2 1.5 1.1 3.4 1.6 5.2 1.9h.1c.4 0 .8.1 1.2.1 2.4.2 4.8-.1 7.1-.8 4.5-1.4 8.5-4.7 10.2-9.2m9-7.8c.1-.2.1-.5 0-.8h-.1c0 .3 0 .5.1.8-.1 0 0 0 0 0zm-.2 0v-.6h-.1v.6c0 .1.1.1.1 0zm-13.7 5.7c.1 0 .1-.1 0-.1-.3-.1-.5-.4-.7-.6h-.1c.2.3.5.6.8.7zm-.4 0c.1 0 .1-.1 0 0-.1-.2-.2-.3-.4-.4-.1-.1-.3-.3-.4-.5h-.1c.3.3.6.7.9.9zm-6.4 12.8c.1 0 0-.1 0 0-.3 0-.6.1-.9.1.3.1.6 0 .9-.1zm-.2.3c0-.1 0-.1 0 0-.4 0-.8.1-1.3 0v.1c.4 0 .9 0 1.3-.1zm-12-16.1c.1 0 .1-.1 0 0-.3-.1-.6 0-.9.2v.1c.3-.2.6-.2.9-.3zm0 .3s0-.1 0 0c-.4 0-.8.2-1.1.5 0 0 0 .1 0 0 .2-.1.3-.2.5-.3.2-.1.4-.2.6-.2z"/><path class="st4" d="M74.5 49.1c0 .2.1.5 0 .8h-.1c0-.3 0-.5.1-.8-.1 0 0 0 0 0zM74.4 27.3c0 .1-.1.1 0 0-.2-.1-.4-.2-.7-.2 0 0-.1-.1 0-.1.2 0 .6.1.7.3z"/><path class="st6" d="M74.3 27c.5.3.1.9-.1 1.3s-.4.6-.8.6h-.1c-.3 0-.6-.1-.9-.2-.6-.2-1.1-.6-1.6-1 .1-.5.3-.9.6-1.3.7.1 1.4.2 2.1.4.2 0 .6.1.8.2zm0 .4s.1 0 0 0c0-.3-.4-.4-.6-.4v.1c.3 0 .4.1.6.3zm-.2.2c0 .1.1 0 0 0 0-.2-.2-.4-.4-.4 0 0-.1.1 0 .1.2 0 .3.1.4.3z"/><path class="st4" d="M74.3 49.3v.6c0 .1-.1.1-.1 0 0-.2 0-.4.1-.6zM74.2 27.5c0 .1-.1.2 0 0-.2-.1-.3-.2-.5-.2v-.1c.2 0 .4.2.5.3z"/><path class="st5" d="M71.7 28.6l-.1.2c-.3-.2-.7-.5-1.1-.6-1.6-.7-3.4-.8-5.2-.9 1.7-.4 3.5-.3 5.2.1h.1V27.7c.3.4.7.7 1.1.9z"/><path class="st5" d="M70.9 26.5c-.1.2-.2.4-.2.7-1.9-.5-4-.5-5.8.1h-.1s-.1 0-.1.1c-1.3.5-2.5 1.3-3.4 2.5-1.1 1.5-1.5 3.3-1.7 5.1-.3 2.1-.3 4.2-.4 6.3 0 2.5-.1 5-.1 7.5-.3-.1-.7-.1-1.1 0 .1-4.3.3-8.6.5-12.8.1-2 .3-4 1.3-5.8 1-1.8 2.6-2.9 4.5-3.5 2-.7 4.4-.8 6.6-.2z"/><path class="st4" d="M55.4 67.1c-2.3.7-4.7.9-7.1.8-.4 0-.8-.1-1.2-.1H47c-1.9-.2-3.7-.7-5.2-1.9-1.7-1.3-2.9-3.1-3.3-5.2-.4-2.1-.1-4.6 1.4-6.3 1.5-1.7 3.8-2.1 5.9-1.8 2.2.4 4.1 1.5 4.9 3.7 1.5 4.4-1.7 8.8-5.4 10.9h-.1c.7.2 1.4.3 2.1.4 2.2-1.5 4.1-3.7 5-6.3.5-1.6.4-3.1 0-4.7-.4-1.5-1-2.9-2.4-3.9-2-1.3-4.6-1.9-6.9-1.5-2.2.4-4.1 1.8-5.2 3.9-.5 1-.8 2-.9 3.1-.1 1.2.2 2.4.6 3.6.5 1.3 1 2.6 2 3.6.9.9 2 1.7 3.1 2.3 2.4 1.2 5.2 1.6 7.8 1.5 2.5-.1 5.1-.6 7.5-1.5 4.3-1.8 8-5.3 9.6-9.7h.1v.1c-1.9 5.3-6.6 9.1-12 10.6-2.7.8-5.6 1-8.4.6-.7-.1-1.3-.2-2-.4l-.1.1c-3.3 1-6.9 1-10.1-.3-2.5-.9-4.7-2.6-6.4-4.7-.8-1-1.4-2.1-1.9-3.3-.6-1.5-1.2-3.1-1.4-4.7-.3-1.6-.2-3.2 0-4.8.2-1.6.5-3.1 1-4.6.9-2.5 2.5-5.1 4.9-6.4-.1-.3-.2-.5-.3-.8-.2-1 .1-2.1.7-2.9 1.2-1.5 3.3-1.8 4.9-1 2.1.8 2.9 3.5 1.7 5.4-1.3 1.9-4 2.1-5.7.7-.1 0-.2-.1-.3-.2-2.2 1.8-3.7 4.3-4.5 7-1.5 4.8-.7 10.2 2.3 14.2 1.5 1.9 3.5 3.5 5.8 4.4 2.2.9 4.4 1.1 6.7.9-1-.5-1.8-1-2.7-1.8-1-.9-1.7-1.9-2.2-3.2-.5-1.3-1-2.6-1.1-4-.1-2.2.7-4.4 2.2-5.9 1.7-1.7 4.1-2.5 6.5-2.3 2.2.2 5.1 1.2 6.2 3.3.6 1.2 1.1 2.6 1.2 3.9.2 1.4-.1 2.7-.7 4-1 2.2-2.6 4.1-4.6 5.5 1.2.1 2.4.2 3.6.1 2.2-.1 4.5-.7 6.5-1.6M50 62c1-2.2 1.2-5-.2-7-1.3-1.9-4-2.5-6.2-2.3-1.1.1-2.2.5-3 1.2-.9.7-1.4 1.7-1.7 2.8l-.3 1.5c0 .2 0 .4-.1.6 0 3.6 2.4 6.9 5.9 8 .1 0 .3.1.4.1.1 0 .1 0 .2-.1h.1s.1 0 .1-.1c2-1 3.8-2.6 4.8-4.7zm-5.2 6.8c-.7-.2-1.4-.4-2.1-.7-2.6.5-5.5-.1-7.9-1.3-4.5-2.2-7.4-6.7-8-11.7-.6-5 1.1-10.5 5.1-13.8-.3-.3-.6-.6-.8-1-1.3.9-2.4 2-3.2 3.3-.9 1.4-1.5 2.9-1.9 4.5-.8 2.9-1.1 6.3-.3 9.2.4 1.5.8 2.9 1.5 4.3.6 1.1 1.3 2.2 2.2 3.1 3.9 4.2 9.9 5.7 15.4 4.1zM38 40.7c.8-1.3.7-2.8-.2-3.9.6 1.5.4 3.4-.9 4.5-.7.6-1.6.9-2.5.8-.4 0-1-.1-1.4-.2 1.8.8 3.9.5 5-1.2zm-1.1.4c1.2-1.2 1.3-3 .7-4.4l-.3-.3c-1.6-1.3-4-1.5-5.5.1-.7.8-1 1.8-.8 2.8.2.9.7 1.5 1.3 2 1.4.8 3.4 1 4.6-.2z"/><path class="st4" d="M64.1 57.6c-.7 0-1.3-.1-1.9-.3-1.4-.4-2.6-1.3-3.4-2.8-.8-1.5-1.1-3.4-1.3-5.2h.1c.3 1.9.5 3.8 1.5 5.5.9 1.5 2.2 2.2 3.7 2.5"/><path class="st6" d="M61.7 25.4c.9.2 2.3.2 2.9 1-1.1.3-2.1.7-3 1.4-.3 0-.6-.1-.8-.1-.5-.2-.4-.7-.3-1.1 0-.2.1-.5.2-.7.1-.7.5-.6 1-.5zm-.1.3c.1 0 .1 0 0 0-.3-.1-.5.1-.7.3 0 0 0 .1 0 0 .1-.1.2-.2.3-.2.2 0 .3 0 .4-.1zm-.4-.1c.1 0 0 0 0 0-.3-.1-.5.1-.6.3.1-.1.1-.2.2-.2.2 0 .3 0 .4-.1z"/><path class="st4" d="M61.6 25.7c.1 0 .1 0 0 0-.1.1-.2.1-.3.2-.1.1-.2.1-.3.2 0 0-.1 0 0 0 .1-.3.4-.4.6-.4z"/><path class="st7" d="M61.2 25.6s.1 0 0 0c-.1.1-.2.1-.3.2-.1.1-.2.1-.2.2 0-.2.3-.4.5-.4z"/><path class="st4" d="M60.7 55.5c.1 0 0 .1 0 .1-.3-.1-.6-.4-.7-.7 0 0 0-.1.1 0 .1.2.3.4.6.6zM60.3 55.5s0 .1 0 0c-.4-.1-.7-.5-.8-.8 0 0 0-.1.1 0 .1.2.2.3.4.5 0 .1.2.2.3.3zM53.8 68.3s.1.1 0 0c-.2.2-.6.3-.9.2.3 0 .6-.1.9-.2zM53.6 68.6c-.4.2-.8.2-1.3.2v-.1c.4 0 .8-.1 1.3-.1z"/><path class="st6" d="M42.7 68.1c.7.3 1.4.6 2.1.7-5.5 1.6-11.5.1-15.4-4.1-.9-.9-1.6-2-2.2-3.1-.7-1.4-1.1-2.8-1.5-4.3-.8-3-.5-6.3.3-9.2.4-1.6 1-3.1 1.9-4.5.9-1.3 2-2.4 3.2-3.3.2.4.5.7.8 1-4 3.3-5.7 8.8-5.1 13.8.6 5 3.4 9.5 8 11.7 2.4 1.1 5.3 1.8 7.9 1.3zm-11.1-2.3s.1 0 0 0c-.1-.2-.3-.2-.5-.4-.2-.1-.4-.3-.5-.5 0 0-.1 0 0 0 .2.4.6.8 1 .9zm-.4 0c.1.1.1 0 0 0-.2-.2-.4-.3-.6-.5l-.6-.6s-.1 0 0 0c.2.5.7 1 1.2 1.1z"/><path class="st4" d="M41.6 52.5c.1 0 .1.1 0 0-.3.2-.6.2-.8.4 0 0-.1 0 0-.1.2-.2.5-.3.8-.3zM41.6 52.8s0 .1 0 0c-.2.2-.4.2-.5.3-.2.1-.4.2-.5.3 0 0-.1 0 0 0 .1-.3.6-.6 1-.6z"/><path class="st8" d="M37.9 36.8c.8 1.1 1 2.6.2 3.9-1.1 1.7-3.2 2-4.9 1.2.5.2 1 .2 1.4.2.9 0 1.8-.2 2.5-.8 1.2-1.2 1.4-3 .8-4.5z"/><path class="st5" d="M37.6 36.6c.7 1.5.5 3.3-.7 4.4-1.2 1.2-3.2 1-4.6.2-.6-.5-1.1-1.1-1.3-2-.2-1 .1-2.1.8-2.8 1.5-1.7 3.9-1.4 5.5-.1l.3.3zm-1 3.1c.3-.9-.1-1.8-.8-2.4-.9-.7-2.1-.6-3.1-.1-.1 0 0 .1 0 .1l-.2.2v.1c-.5.6-.6 1.8-.2 2.4 0 0 0 .1.1.1.4.8 1.4 1.2 2.2 1.2.9 0 1.7-.7 2-1.6zm-.9-3s.1 0 0 0c-.1-.3-.5-.5-.8-.4v.1c.4 0 .6.1.8.3zm-.2.2s.1-.1 0 0c-.3-.4-.9-.4-1.3-.3-.1 0-.1.1 0 .1h.7c.2 0 .4.1.6.2z"/><path class="st4" d="M35.8 37.4c.7.5 1.1 1.5.8 2.4-.3.9-1.1 1.5-2 1.6-.8 0-1.8-.4-2.2-1.2 0 0 0-.1-.1-.1-.4-.5-.3-1.8.2-2.4v-.1l.2-.2s-.1-.1 0-.1c.9-.5 2.1-.6 3.1.1zm.6 2.4c.4-.9 0-1.9-.8-2.4-.4-.3-.8-.4-1.3-.4.4.1.9.2 1.2.5.8.8.8 2.2-.1 2.9-.7.6-1.6.5-2.4.1.4.3.9.5 1.4.5.9.2 1.7-.4 2-1.2zm-1.2.6c.8-.7.8-1.9.1-2.6-.6-.6-1.8-.7-2.6-.2-.4.7-.8 1.8-.2 2.4.7.8 1.9 1.1 2.7.4z"/><path class="st8" d="M35.6 37.4c.8.5 1.2 1.5.8 2.4-.3.8-1.1 1.4-2 1.4-.6 0-1-.2-1.4-.5.7.4 1.7.4 2.4-.1.9-.7.9-2.1.1-2.9-.3-.3-.7-.5-1.2-.5.4-.1.9 0 1.3.2z"/><path class="st4" d="M35.8 36.6c0 .1-.1.1 0 0-.3-.2-.5-.3-.8-.3 0 0-.1-.1 0-.1.2 0 .6.2.8.4zM35.5 36.8c.1 0 0 .1 0 0-.2 0-.4-.1-.6-.1h-.7c-.1 0-.1-.1 0-.1.4-.2 1.1-.1 1.3.2z"/><path class="st5" d="M35.3 37.8c.7.7.7 1.9-.1 2.6-.8.7-2 .4-2.7-.3-.6-.7-.2-1.8.2-2.4.8-.6 2-.6 2.6.1zm-.6 2.4c.1 0 .1-.1 0-.1-.3 0-.6 0-.9-.1-.1 0-.1.1 0 .1.2.1.6.2.9.1zm-.4.2c.1 0 .1-.1 0-.1h-.6c-.1 0-.3-.1-.4-.1.2.3.7.3 1 .2z"/><path class="st4" d="M34.7 40.1c.1 0 .1.1 0 .1-.3.1-.6 0-.9-.1V40c.3.1.6.1.9.1zM34.3 40.3c.1 0 .1.1 0 .1-.3.1-.8 0-1-.2.1 0 .3.1.4.1.2.1.4 0 .6 0zM31.6 65.7c.1.1 0 .1 0 0-.5 0-.8-.4-1.1-.7 0 0 0-.1 0 0 .1.2.3.4.5.5.3.1.4.1.6.2zM31.2 65.8c.1 0 .1.1 0 0-.5-.1-1-.5-1.4-1 0 0 0-.1 0 0l.6.6c.4.1.6.2.8.4z"/></g></svg>