<svg xmlns="http://www.w3.org/2000/svg" width="400" height="200" viewBox="0 0 105.83333 52.916668"><g opacity=".98000004"><path fill="#d6d6d6" fill-rule="evenodd" d="M0 0h105.83334v52.916668H0z"/><g stroke-linecap="round"><g transform="matrix(1.54977 0 0 1.54977 -2.198 -403.112)" stroke-linejoin="round"><path d="M18.82413 265.54608l2.667165 2.66716 6.408935-6.40893" fill="none" stroke="#ec8e4a" stroke-width=".37147501"/><circle r=".16919093" cy="261.76755" cx="27.913734" fill="#092b3b" fill-rule="evenodd" stroke="#092b3b" stroke-width=".45536816"/><circle r=".16919093" cy="268.1543" cx="21.473265" fill="#092b3b" fill-rule="evenodd" stroke="#092b3b" stroke-width=".45536816"/><circle r=".16919093" cy="265.50006" cx="18.812788" fill="#092b3b" fill-rule="evenodd" stroke="#092b3b" stroke-width=".45536816"/></g><g transform="matrix(1.54977 0 0 1.54977 -1.064 -403.112)"><path fill="#d6d6d6" fill-rule="evenodd" stroke="#ec8e4a" stroke-width=".37665454" d="M2.7181218 268.72028h15.181808v17.851696H2.7181218z"/><circle cy="268.69238" cx="17.89662" r=".16919093" fill="#092b3b" fill-rule="evenodd" stroke="#092b3b" stroke-width=".45536816" stroke-linejoin="round"/><circle cy="268.71564" cx="2.7120156" r=".16919093" fill="#092b3b" fill-rule="evenodd" stroke="#092b3b" stroke-width=".45536813" stroke-linejoin="round"/><ellipse cx="10.557893" cy="275.48242" rx="3.7740459" ry="3.7740457" fill="none" stroke="#ec8e4a" stroke-width=".38940823" stroke-linejoin="round"/><path d="M2.7181217 286.57196c3.4129791-5.8889 10.5717883-7.85203 15.1818083 0" fill="none" stroke="#ec8e4a" stroke-width=".37041667" stroke-linejoin="round"/><circle cy="286.5444" cx="17.889563" r=".16919093" fill="#092b3b" fill-rule="evenodd" stroke="#092b3b" stroke-width=".45536813" stroke-linejoin="round"/><circle cy="286.58237" cx="2.7210813" r=".16919093" fill="#092b3b" fill-rule="evenodd" stroke="#092b3b" stroke-width=".45536813" stroke-linejoin="round"/></g></g><g style="line-height:1.25;-inkscape-font-specification:Verdana" font-size="7.05555534" font-family="Verdana" letter-spacing="0" word-spacing="0" fill="#092b3b" stroke-width=".26458332" font-weight="bold" text-anchor="middle"><path d="M41.124523 20.61002q0 .37207-.151585.6649-.148139.29284-.409966.48576-.303168.22738-.668348.32384-.361735.0965-.919841.0965h-2.239312v-5.12974h1.991265q.620117 0 .90606.0413.289388.0413.571886.18259.292833.14814.434082.39963.144694.24804.144694.56844 0 .37207-.19637.65801-.196371.2825-.554661.44097v.0276q.502984.0999.795817.41342.296279.3135.296279.82682zm-1.694987-2.1084q0-.12747-.06546-.25494-.06201-.12746-.223931-.18948-.144694-.0551-.361735-.0586-.213596-.007-.602892-.007h-.124023v1.0852h.206705q.313504 0 .53399-.0103.220486-.0103.347955-.0689.179145-.0792.234266-.20326.05512-.12746.05512-.29283zm.323839 2.08773q0-.2446-.09646-.37552-.09302-.13436-.320394-.19981-.155029-.0448-.427192-.0482-.272162-.003-.56844-.003h-.289388v1.27813h.09646q.558106 0 .799262-.003.241157-.003.444418-.0896.206705-.0861.282498-.22737.07924-.1447.07924-.33073zM44.056299 22.28434q-.506429 0-.926731-.12058-.416857-.12058-.726915-.37207-.306614-.25149-.475423-.6339-.16881-.38241-.16881-.89573 0-.54088.179145-.93362.18259-.39274.506429-.65112.313504-.2446.72347-.35829.409966-.11369.850939-.11369.396186 0 .73036.0861t.623562.22393v1.05765h-.1757q-.07235-.062-.1757-.1447-.09991-.0827-.248046-.16192-.141249-.0758-.310059-.12402-.16881-.0517-.392741-.0517-.496094 0-.764811.31695-.265272.3135-.265272.85438 0 .55811.272162.8475.275608.28939.778592.28939.234266 0 .420301-.0517.189481-.0551.313504-.12747.117133-.0689.206706-.14469.08957-.0758.165364-.14814h.1757v1.05764q-.292833.13781-.613227.21704-.316949.0827-.702799.0827zM50.06799 20.47566h-2.838758q.02756.45475.344509.69591.320394.24116.940511.24116.392741 0 .761366-.14125.368626-.14125.582221-.30317h.137804v.99563q-.420301.16881-.792372.2446-.37207.0758-.823377.0758-1.164443 0-1.78456-.52366-.620117-.52365-.620117-1.49173 0-.95773.585666-1.51584.589111-.56155 1.612305-.56155.943956 0 1.419379.47887.475423.47542.475423 1.37115zm-1.233344-.72691q-.01033-.3893-.192925-.58567-.18259-.19637-.568441-.19637-.35829 0-.589111.18603-.230822.18604-.258382.59601zM54.980697 20.19316q0 .47887-.148139.87161-.144694.39274-.382406.64768-.248047.26872-.56155.40652-.313504.1378-.671794.1378-.330729 0-.56155-.0723-.230822-.0689-.471979-.19637v1.6123h-1.240234v-5.28822h1.240234v.40308q.285943-.22738.582222-.36863.299723-.14125.689019-.14125.72347 0 1.123101.53055.403076.53054.403076 1.45727zm-1.27813.0241q0-.565-.192926-.81993-.192925-.25494-.609782-.25494-.1757 0-.361735.0551-.186035.0517-.354845.15158v1.94648q.124024.0482.265273.062.141249.0138.279053.0138.492648 0 .733805-.28595.241157-.28939.241157-.86816zM59.831391 20.24828q0 .9543-.558106 1.50551-.55466.54777-1.560628.54777-1.005968 0-1.564073-.54777-.55466-.55121-.55466-1.50551 0-.96118.558105-1.50895.561551-.54777 1.560628-.54777 1.012858 0 1.564074.55122.55466.55121.55466 1.5055zm-1.526177.94052q.120578-.14814.179145-.35485.06201-.21015.06201-.57878 0-.34106-.06201-.57188-.06201-.23082-.172255-.36863-.110243-.14125-.265272-.19981-.15503-.0586-.334175-.0586t-.320394.0482q-.137803.0482-.265272.19293-.113688.13436-.18259.36862-.06546.23427-.06546.58911 0 .31695.05857.55122.05857.23082.172255.37207.110243.13436.261827.19637.155029.062.3514.062.168809 0 .320393-.0551.15503-.0586.261828-.19292zM62.742497 22.28434q-.506429 0-.926731-.12058-.416856-.12058-.726915-.37207-.306613-.25149-.475423-.6339-.16881-.38241-.16881-.89573 0-.54088.179145-.93362.18259-.39274.506429-.65112.313504-.2446.72347-.35829.409967-.11369.850939-.11369.396186 0 .73036.0861t.623562.22393v1.05765h-.1757q-.07235-.062-.175699-.1447-.09991-.0827-.248047-.16192-.141249-.0758-.310059-.12402-.16881-.0517-.392741-.0517-.496093 0-.764811.31695-.265272.3135-.265272.85438 0 .55811.272162.8475.275608.28939.778592.28939.234266 0 .420301-.0517.189481-.0551.313504-.12747.117133-.0689.206706-.14469.08957-.0758.165364-.14814h.1757v1.05764q-.292833.13781-.613227.21704-.316948.0827-.702799.0827zM66.959294 22.28434q-.506429 0-.926731-.12058-.416856-.12058-.726915-.37207-.306613-.25149-.475423-.6339-.16881-.38241-.16881-.89573 0-.54088.179145-.93362.18259-.39274.506429-.65112.313504-.2446.72347-.35829.409967-.11369.850939-.11369.396186 0 .73036.0861t.623562.22393v1.05765h-.1757q-.07235-.062-.1757-.1447-.09991-.0827-.248046-.16192-.141249-.0758-.310059-.12402-.16881-.0517-.392741-.0517-.496094 0-.764811.31695-.265272.3135-.265272.85438 0 .55811.272162.8475.275608.28939.778592.28939.234266 0 .420301-.0517.189481-.0551.313504-.12747.117133-.0689.206706-.14469.08957-.0758.165364-.14814h.1757v1.05764q-.292833.13781-.613227.21704-.316949.0827-.702799.0827zM73.070893 22.18098h-1.202338V19.8142l-1.681207 2.36678H69.16071v-3.86884h1.202338v2.11873l1.557183-2.11873h1.150662zM78.155854 22.18098h-1.202338V19.8142l-1.681207 2.36678h-1.026638v-3.86884h1.202338v2.11873l1.557183-2.11873h1.150662zm-.427192-5.5845q0 .56155-.38585.9164-.382406.35484-1.136882.35484-.751031 0-1.136881-.35484-.385851-.35829-.385851-.9164h.957736q.0069.34107.130914.50988.124023.16536.434082.16536.313504 0 .434082-.16192.124024-.16536.130914-.51332zM81.346013 22.28434q-.506429 0-.926731-.12058-.416857-.12058-.726915-.37207-.306614-.25149-.475423-.6339-.16881-.38241-.16881-.89573 0-.54088.179145-.93362.18259-.39274.506429-.65112.313504-.2446.72347-.35829.409966-.11369.850938-.11369.396186 0 .730361.0861.334174.0861.623562.22393v1.05765h-.1757q-.07235-.062-.1757-.1447-.09991-.0827-.248047-.16192-.141249-.0758-.310058-.12402-.16881-.0517-.392741-.0517-.496094 0-.764811.31695-.265273.3135-.265273.85438 0 .55811.272163.8475.275608.28939.778591.28939.234267 0 .420302-.0517.18948-.0551.313504-.12747.117133-.0689.206706-.14469.08957-.0758.165364-.14814h.1757v1.05764q-.292833.13781-.613227.21704-.316949.0827-.702799.0827zM87.653982 22.18098h-1.433159l-1.036974-1.53306h-.396186v1.53306h-1.240234v-3.86884h1.240234v1.55374q.344509-.003.475423-.0723.130914-.0724.303169-.37551.05168-.0896.124023-.23083.07235-.14124.113688-.21704.18948-.33762.440972-.49953.254937-.16537.706245-.16537.130913 0 .275607.003.14814.003.199816.003v1.03353h-.337619q-.206706 0-.330729.10335-.120579.10335-.210151.30662-.07579.16881-.137804.26871-.06201.0965-.158475.16537zM90.630545 21.17157v-.80615q-.251492.0207-.544325.0586-.292833.0345-.444417.0827-.186035.0586-.285943.17225-.09646.11024-.09646.29283 0 .12058.02067.19637.02067.0758.103353.1447.07924.0689.18948.10335.110243.031.34451.031.186035 0 .375515-.0758.192925-.0758.337619-.19982zm0 .59945q-.09991.0758-.248047.18259-.148139.10679-.279052.16881-.18259.0827-.378961.12057-.19637.0413-.430637.0413-.551215 0-.923285-.34107-.372071-.34106-.372071-.87161 0-.42374.189481-.69246.18948-.26872.537435-.42375.344509-.15503.854383-.22048.509874-.0655 1.057644-.0965v-.0207q0-.32039-.261827-.44097-.261827-.12402-.771701-.12402-.306614 0-.654568.11024-.347955.1068-.499539.16536h-.113688v-.93362q.19637-.0517.637342-.12058.444418-.0723.888835-.0723 1.057644 0 1.526177.32728.471978.32384.471978 1.01975v2.63205h-1.229899zM96.638792 22.18098h-1.236789V20.8374h-.554661l-.92673 1.34358h-1.388374l1.109321-1.51584q-.389296-.1757-.592557-.44097-.199815-.26872-.199815-.7407 0-.32039.124023-.53743.127469-.21704.341065-.37207.18948-.13092.444417-.19637.258382-.0655.575331-.0655h2.304769zm-1.236789-2.10151v-.96462h-.733806q-.254937 0-.399631.11713-.141249.11369-.141249.33418 0 .27216.141249.39274.141249.12057.420302.12057zM51.962793 31.00043h-1.240235v-3.02824h-1.426269v3.02824h-1.240234v-3.86885h3.906738zM56.951291 29.2951h-2.838759q.02756.45476.34451.69591.320394.24116.940511.24116.392741 0 .761366-.14125t.582221-.30317h.137804v.99564q-.420302.16881-.792372.2446-.37207.0758-.823378.0758-1.164442 0-1.784559-.52365-.620117-.52366-.620117-1.49173 0-.95774.585666-1.51584.589111-.56155 1.612305-.56155.943956 0 1.419379.47886.475423.47543.475423 1.37115zm-1.233344-.72691q-.01034-.3893-.192925-.58567-.182591-.19637-.568441-.19637-.35829 0-.589112.18604-.230821.18603-.258382.596zM61.863997 29.01261q0 .47887-.148139.87161-.144694.39274-.382406.64767-.248047.26872-.561551.40653-.313503.1378-.671793.1378-.330729 0-.561551-.0724-.230821-.0689-.471978-.19637v1.61231h-1.240234v-5.28823h1.240234v.40308q.285943-.22738.582221-.36862.299724-.14125.689019-.14125.723471 0 1.123102.53054.403076.53055.403076 1.45728zm-1.278131.0241q0-.56499-.192925-.81993-.192925-.25494-.609782-.25494-.1757 0-.361735.0551-.186035.0517-.354845.15159v1.94648q.124024.0482.265273.062.141249.0138.279052.0138.492649 0 .733806-.28594.241156-.28939.241156-.86817zM66.569998 29.2951h-2.838759q.02756.45476.34451.69591.320394.24116.940511.24116.392741 0 .761366-.14125t.582221-.30317h.137804v.99564q-.420302.16881-.792372.2446-.372071.0758-.823378.0758-1.164442 0-1.784559-.52365-.620118-.52366-.620118-1.49173 0-.95774.585667-1.51584.589111-.56155 1.612304-.56155.943956 0 1.41938.47886.475423.47543.475423 1.37115zm-1.233344-.72691q-.01034-.3893-.192926-.58567-.18259-.19637-.568441-.19637-.358289 0-.589111.18604-.230821.18603-.258382.596zM71.351791 31.00043h-1.240235v-3.02824h-1.426269v3.02824h-1.240234v-3.86885h3.906738zM76.440197 31.00043h-1.202338v-2.36678l-1.681207 2.36678h-1.026638v-3.86885h1.202338v2.11874l1.557183-2.11874h1.150662zM79.630355 31.10378q-.506429 0-.92673-.12058-.416857-.12058-.726916-.37207-.306613-.25149-.475423-.6339-.168809-.3824-.168809-.89572 0-.54088.179145-.93362.18259-.39274.506429-.65113.313503-.2446.72347-.35829.409966-.11368.850938-.11368.396186 0 .73036.0861.334175.0861.623563.22394v1.05764h-.1757q-.07235-.062-.1757-.14469-.09991-.0827-.248047-.16192-.141249-.0758-.310058-.12403-.16881-.0517-.392741-.0517-.496094 0-.764812.31695-.265272.3135-.265272.85438 0 .5581.272163.84749.275607.28939.778591.28939.234267 0 .420302-.0517.18948-.0551.313504-.12746.117133-.0689.206705-.1447.08957-.0758.165365-.14814h.1757v1.05765q-.292833.1378-.613227.21704-.316949.0827-.7028.0827zM84.319128 29.70507q0-.24805-.148139-.37207-.148139-.12402-.427192-.12402h-.675238v1.00941h.675238q.186036 0 .303169-.0517.117133-.0551.172255-.13435.05857-.0758.07924-.15848.02067-.0827.02067-.16881zm1.274686-.0103q0 .29627-.117134.54777-.117133.25149-.306613.40996-.234267.18948-.485759.26872-.248046.0792-.671793.0792h-2.180746v-3.86885h1.23679v1.29192h.947401q.416856 0 .671794.062.258382.0586.489203.23082.206706.15503.310059.41686.106798.25838.106798.56155zM43.394841 39.92322q-.50643 0-.926731-.12057-.416857-.12058-.726915-.37207-.306614-.2515-.475423-.6339-.16881-.38241-.16881-.89573 0-.54088.179145-.93362.18259-.39274.506429-.65112.313504-.2446.72347-.35829.409966-.11369.850938-.11369.396186 0 .730361.0861.334174.0861.623562.22393v1.05764h-.1757q-.07235-.062-.1757-.14469-.09991-.0827-.248047-.16192-.141249-.0758-.310058-.12402-.16881-.0517-.392741-.0517-.496094 0-.764811.31695-.265273.3135-.265273.85438 0 .55811.272163.8475.275608.28938.778591.28938.234267 0 .420302-.0517.18948-.0551.313504-.12747.117133-.0689.206706-.14469.08957-.0758.165364-.14814h.1757v1.05764q-.292833.1378-.613227.21704-.316949.0827-.702799.0827zM49.430648 39.81987h-1.240235v-3.00412H47.16722q-.01033.25838-.01723.40307-.0034.14125-.01034.33073-.02412.55466-.09302.90262-.0689.34795-.1757.56844-.103353.22393-.223931.35484-.117134.13092-.237712.22738-.137804.11024-.361735.1757-.220486.0655-.427192.0655-.161919 0-.327284-.0138-.165364-.0103-.19637-.0103v-.99219h.0379q.01378 0 .04823.003t.0689.003q.08957 0 .18259-.0172.09646-.0172.158474-.0758.230822-.22049.306614-.55122.07924-.33417.113688-.9853.01378-.24115.02756-.55121t.02412-.7028h3.365858zM54.40881 38.11455h-2.838758q.02756.45475.344509.69591.320394.24115.940511.24115.392741 0 .761366-.14124.368626-.14125.582222-.30317h.137803v.99563q-.420301.16881-.792372.2446-.37207.0758-.823377.0758-1.164443 0-1.78456-.52365-.620117-.52366-.620117-1.49173 0-.95773.585666-1.51584.589112-.56155 1.612305-.56155.943956 0 1.419379.47887.475423.47542.475423 1.37115zm-1.233344-.72692q-.01033-.38929-.192925-.58566-.18259-.19637-.568441-.19637-.35829 0-.589111.18603-.230822.18604-.258382.596zM59.190603 39.81987h-1.240234v-3.02824H56.5241v3.02824h-1.240235v-3.86884h3.906738zM64.323796 37.88717q0 .95429-.558106 1.50551-.55466.54777-1.560628.54777-1.005968 0-1.564073-.54777-.554661-.55122-.554661-1.50551 0-.96118.558106-1.50895.56155-.54777 1.560628-.54777 1.012858 0 1.564073.55122.554661.55121.554661 1.5055zm-1.526178.94051q.120579-.14814.179145-.35484.06201-.21015.06201-.57878 0-.34106-.06201-.57188-.06201-.23082-.172254-.36863-.110243-.14125-.265273-.19981-.155029-.0586-.334174-.0586-.179145 0-.320394.0482-.137804.0482-.265272.19293-.113688.13435-.18259.36862-.06546.23427-.06546.58911 0 .31695.05857.55122.05857.23082.172254.37207.110243.13436.261828.19637.155029.062.351399.062.16881 0 .320394-.0551.15503-.0586.261827-.19293zM68.347668 36.8123h-1.887913v3.00757h-1.240234v-3.86884h3.128147zM72.802174 39.81987H71.56194v-3.00412h-1.023193q-.01033.25838-.01723.40307-.0034.14125-.01034.33073-.02412.55466-.09302.90262-.0689.34795-.175699.56844-.103353.22393-.223932.35484-.117133.13092-.237711.22738-.137804.11024-.361735.1757-.220486.0655-.427192.0655-.16192 0-.327284-.0138-.165365-.0103-.196371-.0103v-.99219h.0379q.01378 0 .04823.003t.0689.003q.08957 0 .18259-.0172.09646-.0172.158474-.0758.230822-.22049.306614-.55122.07924-.33417.113688-.9853.01378-.24115.02756-.55121t.02412-.7028h3.365858zM75.716726 38.45217l.881944-2.50114h1.274686l-2.14974 5.28822h-1.343587l.613227-1.44694-1.505507-3.84128h1.302246zM82.603472 39.81987h-1.44694l-.826823-1.15755-.847494 1.15755h-1.419379l1.526177-1.9327-1.502061-1.93614h1.44694l.813042 1.13688.816488-1.13688h1.422824l-1.505506 1.90514zM87.195782 39.81987h-1.202338v-2.36678l-1.681206 2.36678h-1.026639v-3.86884h1.202338v2.11873l1.557183-2.11873h1.150662zM92.415102 39.81987h-1.44694l-.826823-1.15755-.847493 1.15755h-1.41938l1.526178-1.9327-1.502062-1.93614h1.44694l.813043 1.13688.816487-1.13688h1.422825l-1.505507 1.90514z" style="-inkscape-font-specification:'Verdana Bold';text-align:center"/></g></g></svg>