<svg xmlns="http://www.w3.org/2000/svg" width="385.82199" height="450" viewBox="0 0 385.822 450"><defs><linearGradient id="c" gradientUnits="userSpaceOnUse" x1="839.22491" y1="302.4342" x2="1567.3845" y2="302.4342" gradientTransform="matrix(-.6944 .0188 .0188 .6944 816.34 179.96)"><stop offset="0" stop-color="#7B1100"/><stop offset=".1598" stop-color="#9E1200"/><stop offset=".355" stop-color="#CF1400"/><stop offset=".5146" stop-color="#CF1400"/><stop offset=".666" stop-color="#CF1400"/><stop offset="1" stop-color="#CF1400"/></linearGradient><linearGradient id="d" gradientUnits="userSpaceOnUse" x1="667.87079" y1="222.202" x2="1568.7347" y2="222.202" gradientTransform="rotate(-172.386 765.54 -.828)"><stop offset=".1366" stop-color="#000F24"/><stop offset=".2698" stop-color="#00318D"/><stop offset=".3004" stop-color="#0039A6"/><stop offset=".5126" stop-color="#0039A6"/><stop offset=".6723" stop-color="#0039A6"/><stop offset="1" stop-color="#0039A6"/></linearGradient><linearGradient id="e" gradientUnits="userSpaceOnUse" x1="679.7821" y1="211.0809" x2="1570.2347" y2="211.0809" gradientTransform="matrix(-.6944 .0188 .0188 .6944 816.34 179.96)"><stop offset=".1366" stop-color="#D3BEBB"/><stop offset=".292" stop-color="#FFF"/><stop offset=".5146" stop-color="#FFF"/><stop offset=".666" stop-color="#FFF"/><stop offset="1" stop-color="#FFF"/></linearGradient><linearGradient id="f" gradientUnits="userSpaceOnUse" x1="631.33539" y1="155.62421" x2="840.7453" y2="312.65991" gradientTransform="matrix(-.6944 .0188 .0188 .6944 816.34 179.96)"><stop offset="0" stop-color="#ADBFE2"/><stop offset=".05882" stop-color="#0039A6"/><stop offset=".8803" stop-color="#0039A6"/><stop offset="1" stop-color="#374E78"/></linearGradient><linearGradient id="g" gradientUnits="userSpaceOnUse" x1="651.33173" y1="119.3591" x2="869.70673" y2="245.4379" gradientTransform="matrix(-.6872 .1016 .1016 .6872 791.474 120.25)"><stop offset="0" stop-color="#E8E8E8"/><stop offset=".05672" stop-color="#FFF"/><stop offset=".7458" stop-color="#FFF"/><stop offset=".9496" stop-color="#E3E3E3"/><stop offset=".9727" stop-color="#BABABA"/><stop offset="1" stop-color="#8A8A8A"/></linearGradient><linearGradient id="h" gradientUnits="userSpaceOnUse" x1="602.83539" y1="211.3631" x2="808.1861" y2="354.4371" gradientTransform="matrix(-.6944 .0188 .0188 .6944 816.34 179.96)"><stop offset="0" stop-color="#ECA199"/><stop offset=".05672" stop-color="#CF1400"/><stop offset=".895" stop-color="#CF1400"/><stop offset="1" stop-color="#7F1300"/></linearGradient><path id="a" d="M0 41.9h1500v358.7H0z"/><path id="b" d="M0 41.9h1500v358.7H0z"/></defs><g clip-rule="evenodd" fill-rule="evenodd"><path d="M301.10888 330.66177c-.5803 9.47137 20.73916 10.81545 9.5789.84764-2.12186-2.43-7.33968-2.9353-9.5789-.84763zm21.01477-33.81935c-5.46833 2.79293-16.93843 2.34843-4.92297.41097 9.41263-.8807 8.9714-17.82733-1.70613-9.61264-4.54138 3.01027-11.09406 23.613-15.10277 5.53554-3.61504-13.20823-13.6315-15.8491-17.68546-4.0727-9.54033 10.7565-15.19067 29.76212 3.20297 34.24452 11.7678 6.266 24.55133 1.14203 34.9716 7.27906 8.03396-2.28678 14.59693 1.0115 20.90208-6.00286-2.93445-5.33682-1.07444-11.13115-6.95934-12.5675-2.4067-3.64888-12.7449-4.06714-3.79734-8.62097 2.06658-9.70632-7.9716-.5838-8.90265-6.59343zm-36.3705 51.84796c-3.94776-3.4733-4.4529-7.61543-10.83362-8.7443 1.8069-7.36482-11.58024-2.42636-10.10787-10.02435-9.88055.16364-16.2421-5.80816-27.04563-3.12002 7.23016 9.76815 15.37378 24.05263 25.89074 25.75475 5.80346 2.62394 13.2798 3.43776 19.7911.5079 2.98267.79812 5.4577-2.72415 2.3053-4.37397zm-50.61658-24.64918c10.49258 4.7272 21.76008-18.38 5.43543-10.5261-3.64407 1.11896-6.9159 7.43212-5.43543 10.5261zm81.67465-72.01752c-6.56897.589-9.59306 1.35196-1.47718-3.34906 1.44016-7.1071 12.37416-12.13813 9.62357-20.30998 1.5952-2.58405 1.87314-9.40363 1.88417-13.02098 3.57515-10.1325-23.50746 1.7905-9.3637-5.31385 10.53777-2.2764 7.18074-23.18467-2.1479-10.3966-5.78863 4.00037.05892 16.6561-8.01063 16.43737-1.2708 12.63747-12.0136 3.89934-7.45056-4.24255-.49375-1.80023-4.08872-.6078-3.45917-3.4677 1.4457-7.21492-6.4267-4.1696-7.47205-11.0355-2.1839 3.98157-10.61444-9.46744-8.37372 1.89543.04885 7.39808.9313 16.69904 1.17223 22.8696 2.01556 7.90863 4.21165 17.8822 9.2646 27.434 7.5264 12.4318 19.2491 23.13556 22.30312 37.77697 3.2774-4.794 3.78943-6.3992 9.7079-9.13274-2.35934-6.8221 10.31077-8.10425 4.10395-14.4231 6.75972-5.53005-.04645-10.0119 2.56976-16.7825-4.68053-.6807-6.31366 3.21167-10.28567.53096-1.49237 1.17534-1.2381 3.2966-2.5887 4.53024zm14.8734-107.93982c-5.02905 2.70774-10.80136.51056-13.61963 5.38658-4.7391-3.6176-13.0218 10.57306-7.9961-.02683 12.18202.9141 10.53023-24.27072-.01946-10.54934-4.21914 6.39993.08043 14.2464-7.62504 19.63684-11.72735 7.07204 4.2112 21.6122 10.687 28.2963 5.18172-5.10432 11.24936-8.39722 15.78394-14.30648-.9027-3.38957 7.83396-8.0119 4.351-12.5827 5.22186-4.9898-.3382-9.5212 1.03695-15.6065l-1.05987-.32263zm-16.75923-16.80732c6.50318-4.59935 3.78052-9.8025 7.2347-15.39294-3.48906-2.43218.0096-9.26068-3.6355-12.4749-3.2576-9.75972-16.06927 13.15123-11.9436-3.9451-5.82553-1.92937-1.6178-13.09302-10.61086-10.30035-1.97595-10.71768-7.61985 1.67954-12.21474-6.53424-4.92767.9622-3.54564 9.08205-3.88112 11.7448 3.9089 5.4351 2.21588 14.6841 10.62602 19.0548 3.7994 6.30035 4.98704 12.88022-2.9763 13.23728-6.951 8.07402-5.32934 17.78024-7.1501 27.2579.82294 6.78277 3.68873 16.30557 8.1735 5.76293 6.8593-7.82376 18.99817-11.83858 21.62-22.05207 2.29947-1.40247 6.3883-2.80278 4.758-6.3581zM175.91742 325.55948c5.0366 4.47678 22.9719 10.70708 12.90457 17.3029-3.31908 4.3027-17.16847 15.47806-9.53097 4.4776 4.72167-4.15088 15.24957-10.0356 2.8793-5.80135-7.7206.54418-14.59742 4.10568-22.65274.72116-6.80967 5.0847-2.58902-6.1327-11.16198-1.83574-1.96085-4.0736 4.2164-4.76223 3.38408-8.65858 8.6353 1.39543 3.28357-9.14605 13.24812-3.99604 2.76183-9.08278 6.44837 2.03963 10.9296-2.20996z" fill="#9c7d23"/><path d="M208.61163 325.64865c-5.03957 4.48107-22.99427 10.71577-12.9178 17.31835 3.3219 4.3079 17.18446 15.49223 9.53928 4.48155-4.72617-4.1545-15.26426-10.04504-2.88246-5.8066 7.7286.5446 14.61104 4.10962 22.674.72155 6.81503 5.08923 2.59062-6.13835 11.17167-1.83708 1.96373-4.07628-4.22016-4.76693-3.3866-8.66682-8.64318 1.39587-3.28555-9.1543-13.25993-3.99944-2.7641-9.09002-6.45387 2.04035-10.93814-2.2115z" fill="#9c7d23"/><path d="M112.1698 134.69813h160.25614c-.06878 50.85264.13722 101.71395-.10236 152.5612-.8954 12.869-14.33242 19.40367-25.93445 17.7328-13.90673.46185-27.98245-1.05085-41.7468 1.01276-10.53276-.09243-11.21045 17.09692-16.94016 3.3738-12.95574-7.21437-28.2196-3.4418-42.3759-4.38657-11.01072.23157-25.0272 1.40306-30.80907-10.42835-4.35857-10.60794-1.54794-22.47792-2.3474-33.68247V134.69814z" fill="#acd4f2"/><path d="M281.1735 80.75807c2.4013 6.3392-3.7304 7.56287 1.55763 12.47097-3.38505 3.24782 6.4307 6.12956 2.5056 10.6421 6.93814 1.1396 12.03106 23.38994 12.85187 7.83643-9.5482-4.23323 4.20194 1.77552-1.59892-6.95943-7.85436-2.1495-8.67635-4.79786-.41408-1.4167 1.05017-7.18506-19.99652-11.3398-4.8216-8.50214 5.08104 5.7493-8.09345-18.40024-10.0805-14.07123zm33.1773 16.21955c-4.83852 5.9551-10.94147 9.16874-13.4097 17.07028-4.77184 6.20567.37175 11.11416 1.0164 15.40855.95834 3.25053-3.35056 18.1848 1.3793 9.2735 6.0394-5.74337-5.69465-26.62128 2.64242-12.0614 7.2493 3.92726-5.3819-21.7814 2.01474-8.98313 8.19623 7.04096-4.21357-20.2582 4.12052-6.32136-.31326-2.9937 7.3839-15.57936 2.23632-14.38644zm-18.27365 22.10656c-6.31774 4.80048-14.61075 8.29388-11.491 18.09608-5.05715 5.90364-2.56832 15.53362.29465 23.18983 7.12717-6.52168-7.27573-28.37488 2.76672-11.49412 4.3539-5.63264-6.50084-20.66295 1.9184-8.1598 2.57578-9.33868-2.72945-11.05683 3.37712-9.84774-.41408-2.4577 7.33188-11.68266 3.1341-11.78426zm35.11354 26.3404c-4.83974 4.5063-9.92534-1.69955-12.96815 6.7719-4.9356-8.76733-6.49514 7.91563-13.04502 3.1605-2.79054 7.92867-12.00953 11.11193-1.8383 19.73265 5.4782 6.84413-3.25733-18.8062 2.35882-5.05973 2.3998 11.86857 8.44487-6.02895 4.36698-11.5464 1.15682 7.55733 5.1453 13.64416 7.9428 3.69176-2.16898-8.88673.18493-8.69352 1.52358-.17057 1.75984-3.17582 18.0638-16.49377 11.6593-16.58013zm-4.18265 102.36683c-4.43883 4.41088-7.9595-2.49447-10.34183 5.48588-5.3319-2.60375-6.5467 6.59967-11.2597 7.76056-5.33523 5.46227 8.75506 19.5965 4.04505 6.68594-3.02906-12.46396 4.0153 13.67008 4.56963-2.2242-1.93078-9.27023.9429-6.6827 1.09494.79578 5.22555-2.6219 4.20192-18.71538 4.85106-6.47092 1.1983-2.4313 11.43605-12.251 7.04085-12.03303zm-3.88643-36.01534c-5.1678 3.4776-9.48262-1.13365-12.54804 6.48783-5.28428-4.2839-2.89664 8.6743-9.9036 5.9709-2.69282 10.1338-7.9629 15.78143-8.57385 26.28378 6.16812 13.12654 9.30617-1.06632 5.1054-8.22492 4.8485 14.67124 8.36553-5.86295 3.6786-12.13617 2.2569 7.84422 4.40673 13.81462 8.78245 2.99313-2.9075-7.77298-1.61743-12.94254.4175-2.14504 5.88438 2.27366 4.05057-20.2444 5.72697-6.45132.58467-2.78646 15.08192-13.81038 7.31457-12.77822zm4.69907 88.2301c-6.1353-.0277-8.54007-3.91746-15.17134 1.06583-8.03294-2.32457-15.27354 1.94163-22.33602 5.37216-3.33247 5.606-19.42397 13.2385-3.75142 16.1183 3.4164-4.3836.05746-13.7123 2.57364-1.6183 7.23527-.5302 9.0997-13.25038 8.01427-12.87224-1.80443 18.175 10.71122-7.58368 9.11437-2.6779-10.2401 18.95333 17.83617-12.23648 6.4303 2.20896 1.2799-3.27783 23.85002-5.60637 15.1262-7.59683zm-43.70446 48.98043c-3.82813-3.3687-4.3185-7.38514-10.5064-8.48028 1.19657-6.94505-10.9352-2.7803-10.46035-9.95347-8.9139.5592-14.84582-5.40166-24.57625-2.8214.97326 9.4627 25.3173 2.1499 11.33127 6.50037 5.46124 4.75378 21.97258-.95567 6.59188 3.0482 4.44888 7.4073 23.99827-.6703 8.07992 4.98675 2.7837.99066 23.65657 12.82132 19.53992 6.71982zm-49.95205-12.0408c-2.72316-2.59525-1.30095-5.6706-8.31307-5.99288 2.9369-7.32468-8.99367.31946-9.9459-6.06498-6.79508 2.5283-22.02314 8.21034-22.03906 14.81605 4.61704.38558 16.55032-11.866 13.40137-7.79215-1.14807 9.90142 15.18282-10.7683 5.6415 2.01368 5.29487 3.54037 14.41007-8.5614 7.70926.65213 2.0566-1.0094 20.80583 7.23613 13.5459 2.36815zm58.24675-56.15156c-9.33935 4.37944-10.41154 14.5809-13.6343 23.94975-8.95134 3.78052-3.5596 19.0016 2.3666 5.2752-1.59136-7.4964.04824-9.3142 1.01426-.86072 7.4553-4.03566-1.16767-24.77298 4.62748-8.8245 2.82553 6.85275 5.65878-9.65956 2.59018-14.33664 2.48084 6.91203 2.66872 12.7633 6.71755 3.0673 2.86596-2.69258-2.91807-5.71783-3.68175-8.2704zm-11.3553-83.4271c-.0477 9.1702 3.86905 19.5382.75137 27.0809 7.2839 6.09825 3.40137 16.45188 9.1283 24.19634.2137-5.59554-1.2764-19.6204-2.66484-20.37475 6.3987 1.9026-10.71674-17.3086 1.02714-6.62862-1.86123-10.54195-6.1424-10.00106-1.7176-10.50302-.06675-1.48656-6.19477-21.703-6.52438-13.77085zm15.1324-110.7174c-3.1216 3.99952-2.03632 16.7215-.0031 5.40752l.1592-3.04525zm22.42758 23.72798c-8.53588.3749-7.1916 6.59165 0 0zm11.88803 53.04522c-12.24392-2.4312-15.13644 3.29823 0 0zm-3.3762 96.5496c-8.13748-.7389-10.7766 3.95126 0 0zm-7.66507-28.1727c-9.77078-1.0024-12.65927 4.98472 0 0zm3.2847-6.39725c-7.98574-1.852-9.55333 3.39974 0 0zm-30.9123-16.74142c-5.57724 6.00692-1.80068 9.97957 0 0zm2.54572 5.41944c-6.28275 9.29163-2.90104 15.7128 0 0zm2.9567 7.80232c-5.22297 5.71954-7.9368 16.4927-1.62683 4.5439l.8336-1.83732zm20.76818-84.9989c-10.1802-6.49688-10.6073 17.94606-.38237 5.83934 1.0018-1.74967 1.2784-4.00137.38237-5.83933zm5.28064 60.73898c-10.1805-6.49655-10.6064 17.94594-.3814 5.83962 1.00166-1.7499 1.27775-4.00174.3814-5.83962zm.33653 91.13172c-7.0551-9.80118-16.49366 12.74906-2.51605 5.28394 1.57797-1.2552 2.66802-3.24473 2.51605-5.28394zm-11.34445 49.31233c5.1405-8.88828-14.6703-8.21363-4.76518-.27286l2.32516.71456zm-12.4471-205.99376c-9.69024.68517-9.2941 7.2934 0 0zm3.0094-29.5134c-3.9244 3.21668-5.65813 15.86666-1.19026 5.27453l.82412-2.936zm11.57322 23.58375c-9.30155.39245-8.32816 7.26908 0 0zm2.638 50.7988c-11.4753-3.94702-15.31528 3.06994 0 0zm4.15316 94.64285c-11.35893-.51092-14.21728 4.7648 0 0zm-26.07363 31.33334c-8.98842-.53886-9.62473 4.2154 0 0zm6.15454-6.37786c-6.78962-3.00532-13.89844 3.86963-2.18826.56726zm23.9009 30.18804c-.20168-8.31837-6.90554-7.21803 0 0zm3.88643-1.17477c.3103-5.6708-5.04268-5.6833 0 0zm-9.2128-12.5704c-4.77445-5.68605-14.18358-2.63776-2.21495-.45303zm-7.33087 5.05964c-9.4205-8.20127-14.03446-3.37344 0 0zm-6.93772 2.91016c-4.9441-5.40492-13.37218-3.89158-2.16174-.58363zm-9.96033 4.25165c-5.97485-6.65406-10.4878-.96503 0 0zM268.997 351.0632c-1.50386-7.99787-9.71273-9.9777-1.48177-1.5149zm-43.58503-10.87998c-5.27232-8.01852-10.2144-4.36043 0 0zm38.86814 9.25546c-2.42732-7.94977-13.0641-14.18342-3.38058-3.33128l1.48763 1.4182zm-44.21002-8.2536c-4.46866-6.59243-11.86896-6.30334-1.7363-.85578zm35.78194 3.073c-2.19263-7.57815-12.0983-12.3047-3.18483-2.96445l1.38854 1.23252zm-43.90296-2.87683c-5.40948-8.24296-10.41368-4.6093 0 0zm98.4649-92.27625c-6.57565-.17697-14.22936 4.242-3.3336 1.74296l1.59406-.77574zM296.78745 144.8965c-7.13946.29527-11.86092 9.5394-2.07994 1.62583zm4.25243-53.11655c-3.76404 5.0114-3.906 19.42795-.69827 6.62958.4276-2.18243.74923-4.39767.69827-6.62958zm15.524 26.5792c-8.24572-.1119-8.91655 6.88676 0 0zm7.92017 51.74794c-6.4679-2.56105-18.03277 2.1466-4.83603.8386l1.9804-.24148zm.83513 96.897c-10.05318-1.51266-15.28554 3.6493 0 0zm-8.35752-26.96383c-6.9635-1.2885-17.72503 6.4673-4.7034 1.77926l1.96273-.68875zm-17.713-102.10785c-10.40197.9896-12.94398 9.05603 0 0zm33.7294 172.98782c-9.10058-1.98422-11.1238 8.3364-18.31912 10.18006-2.8985.41434-16.4606 3.7001-11.37965 5.72256 8.04006-5.10535 17.33752-5.5133 26.33574-12.25502-10.08443 3.5566-2.56943 6.96043 3.7422 2.94506-12.74905 2.92707 16.75623 12.10383 4.40068 1.6037 6.44975-9.21672-7.59133.60015-4.77986-8.19636zm-126.81986 38.62543c-3.13904 2.63698-9.40238-10.7203-1.33575-1.5937zm-.4645 2.32007c-.10288-5.3821 3.99695 1.0502 0 0zm43.10584-37.23742c-7.0544-9.8014-16.49277 12.7494-2.51538 5.28365 1.57792-1.25504 2.66774-3.24463 2.51538-5.28365z" fill="#f3d400"/><path d="M296.45944 204.75382c2.4344-11.23844-19.90914-19.8184-15.54016-34.50725.8182-13.4945 20.357-24.6001 25.5857-26.89335-4.68233 11.18022-17.46606 21.78658-3.1089 31.81507 10.4526 10.73698 15.15955 26.0987 4.08178 38.1446-5.23595 10.1869-9.79908 10.24334-7.6081-1.48488-2.11547-1.93305-5.11622-2.3675-3.41032-7.0742z" fill="#105a26"/><path d="M309.30666 206.58537c13.52864-19.05467-17.46318-32.29375-17.37296-51.0655-3.21794-2.58478-16.27156 19.034-7.05455 27.06894 6.09958 11.5188 23.262 20.54255 17.10596 35.47363 3.535-3.09595 5.47844-7.2623 7.32156-11.47706z" fill="#008e21"/><path d="M309.782 205.9255c-2.9076-17.97122-24.95514-27.57113-22.67883-47.04655-6.43164 17.53473 15.38198 27.91966 19.60612 43.19946 1.1271.7952 1.18938 10.62268 3.0727 3.8471z" fill="#d92819"/><path d="M313.3094 287.18684c-2.84615-19.41387-20.9979-31.63636-26.92427-49.57752-3.26298 12.7579-10.46024 28.25172 1.76035 39.30576 6.07383 5.2622 11.92404 22.27764 16.47568 21.147 1.6992-4.50954 7.07434-6.3903 8.68824-10.87524z" fill="#105a26"/><path d="M311.96714 287.25042c-3.0381-16.73315-16.22765-28.81602-24.91192-42.702-1.25022-1.556-9.19383 20.56275-1.26795 25.90166 6.09226 7.4352 13.51926 23.20496 18.92122 25.2612 1.15668-3.83913 5.9161-4.89287 7.25864-8.46086z" fill="#008e21"/><path d="M308.36065 291.32217c-4.1622-15.71716-18.85048-25.7346-23.76365-40.9703-.39797 14.4654 16.49748 23.2978 20.5715 36.9756 1.3744.66494.63067 8.48008 3.19215 3.9947z" fill="#d92819"/><path d="M302.9071 327.07155c-15.84347-.01364-27.2396-17.40553-43.3941-13.43263-6.44088 3.2999-13.79326 7.04783-18.19087 12.658 9.28887-.32642 15.81397 2.95618 24.34056 4.74403 9.66996 6.65397 22.86457 15.16737 32.00524 2.15277 2.4273-1.14905 4.87253-3.30983 5.23915-6.12217z" fill="#105a26"/><path d="M301.13447 328.13466c-15.63863-.92494-27.7908-18.17375-43.9545-12.54125-7.54763 4.53343-16.67816 8.5656-2.62145 9.52476 13.3916.49902 26.66783 22.4655 38.23697 9.55796 2.41332-2.4968 7.61665-2.4916 8.33897-6.54146z" fill="#008e21"/><path d="M292.43266 335.14992c-12.04-3.33373-32.13187-15.3015-38.27184-17.92548 13.23873 2.04676 30.32007 14.84635 38.27184 17.92548z" fill="#d92819"/><path d="M165.81287 315.90157c9.88653.39068 27.06165 12.8833 22.91026 18.1948-6.46798-6.14593-15.0058-9.36242-22.41108-8.9471-1.97992 5.85835-10.95402-1.90484-9.99657 6.23985-7.5955-.49717-4.28423 4.77006-8.8817 8.21717 5.72388.6092 7.24157.72574 9.31594 4.33073 2.1087 2.91333-13.09138 12.0068-20.42855 6.39182-10.353.1046-9.2024-1.12132-1.86102-6.124 8.1286-11.05644 15.65637-27.46752 31.35272-28.30328z" fill="#912c17"/><path d="M218.7534 315.90932c-9.8859.3917-27.06205 12.882-22.91026 18.19512 6.46663-6.14654 15.00708-9.3625 22.41157-8.94712 1.98017 5.8582 10.95453-1.9046 9.99688 6.24033 7.59548-.49823 4.28218 4.7708 8.88093 8.2164-5.72274.6112-7.2431.72527-9.31594 4.3315-2.11206 2.91347 13.09175 12.00736 20.42855 6.39183 10.35394.10468 9.20156-1.12043 1.86074-6.1239-8.12843-11.0568-15.6554-27.46895-31.35243-28.30416z" fill="#105a26"/><path d="M219.38072 316.73748c-8.4424.07382-16.2864 8.44547-5.84892 7.86018 5.30984-4.11452 7.3782 6.02824 14.1084 1.7388-.6169 5.93208 8.41165 5.1631 7.92983 9.592 8.77862 7.12057-7.87874 2.66515-4.96168 8.62645-5.4873 3.3611 12.5316 9.27008 18.09797 5.0687 9.17462-.23212-7.99987-12.78027-9.36914-19.29738-4.98933-6.18502-11.33915-13.5109-19.95646-13.58874z" fill="#008e21"/><path d="M223.06632 326.52876c-5.5077-4.1866-15.76837-11.82558-3.32028-4.9196.64238 1.65895 8.5139 4.3651 3.32028 4.9196zm19.8586 23.98774c-6.8942-3.95753-9.3198-15.17947-2.18048-3.87993-.4505 2.13037 8.8602 3.80665 2.1805 3.87993z" fill="#d92819"/><path d="M101.91482 128.92122c-5.94995-8.35257-13.3968-20.0631 1.5966-24.76318 1.14383-16.8866 24.9474-21.92357 29.7318-3.784 4.66002 21.16055 18.64264-11.03925 29.91168 4.45623 6.64672 12.1421 35.6297 8.3973 28.1826 23.2735-14.99006-.08755-27.2609-8.7251-40.91214-13.16035-4.54127 12.23927-23.72798 17.05525-28.4547 1.17282-3.8186-14.62532-14.006 7.71452-18.1733 7.50206l-.52904 2.4477z" fill="#912c17"/><path d="M282.6538 128.92277c5.94888-8.35437 13.39603-20.0635-1.5974-24.76395-1.14417-16.88716-24.949-21.92335-29.73366-3.78367-4.65998 21.16013-18.6439-11.03995-29.91292 4.45594-6.77922 13.63048-33.35993 5.3338-29.14258 24.13664 14.27223-3.2592 28.60018-6.97758 41.8729-14.02277 4.5431 12.2386 23.72896 17.05695 28.4566 1.17326 3.81924-14.62563 14.0056 7.71668 18.17375 7.50195l.5291 2.44747z" fill="#105a26"/><path d="M288.47722 109.86904c-6.87573-9.69026-16.55866 1.7664-12.70688 9.46173 8.54783 5.24042 6.94935-7.7383 12.70688-9.46173z" fill="#008e21"/><path d="M284.02163 107.65986c-3.60298-2.39047-14.56683 16.8115-4.96504 7.62707 1.6491-2.53325 1.28876-6.9196 4.96503-7.62707z" fill="#d92819"/><path d="M268.70623 89.28774c-16.5543-.22537-18.9482 24.13248-30.81467 29.8965 10.887 13.46667 22.68775 2.45962 27.47993-10.2282-.50078-8.52594 16.22472-9.68806 11.62458-12.02933-2.72424-2.58818-5.48814-5.13484-8.28985-7.63896z" fill="#008e21"/><path d="M243.93298 122.83103c10.80216-7.1895 20.03094-28.0645 27.78035-30.6494-14.0936 2.942-20.21722 25.48457-27.78035 30.6494zM151.47218 101.6193c13.8527 2.61166 23.42864 17.07266 38.93827 17.45168 9.08354 13.35974-12.0479 5.2968-19.33602 3.68037-8.03394-7.44678-29.93762-6.61385-19.60225-21.13204z" fill="#d92819"/><path d="M150.47886 102.46607c14.242 2.6928 24.61582 16.56018 40.1747 17.61678 5.06728 4.21546-11.9937-4.40863-15.61886-4.0426-8.45903-3.4931-17.0851-14.45805-24.55584-13.57418z" fill="#f9f200"/><path d="M149.72825 103.82616c14.3617 1.45596 23.73144 16.8251 39.30298 16.6919 9.77427 5.98604-13.85722-3.7146-17.4903-4.85737-6.74797-4.45585-15.12614-12.32452-21.81268-11.83454zM149.54215 111.71765c14.55376 3.48243 27.22996 12.94164 42.72354 14.01037-9.96667-1.12492-24.41014-3.60717-34.24942-11.00316-2.0372-2.16838-7.7619-1.29475-8.47413-3.0072z" fill="#f9f200"/><path d="M149.33356 110.4095c14.23432 3.66504 29.25035 11.9123 42.87398 14.9851-15.29656-1.46523-28.1835-11.07953-42.71424-14.18485z" fill="#f9f200"/><path d="M233.09488 101.62008c-13.85324 2.6119-23.42996 17.07293-38.94012 17.45222-9.4887 14.24252 14.971 4.40682 22.07878 2.89594 7.40565-7.11618 26.8516-6.64065 16.86134-20.34816z" fill="#008e21"/><path d="M235.38393 107.43344c-14.46184 2.70787-26.2569 14.2055-41.69257 14.73647-1.61544 2.47852 18.76707-1.85183 24.4008-6.4879 4.47194-4.81288 13.99735-5.4285 17.29177-8.24856z" fill="#d92819"/><path d="M104.73116 127.3254h175.13342c-.0752 55.14396.15006 110.29725-.11186 165.43542-.93064 13.29394-14.52218 21.35137-26.91444 19.61955-14.89316.47547-29.9812-1.00537-44.7349.8376-12.2275-1.78178-15.19818 27.43394-18.0752 10.6902-5.5178-11.57268-19.03826-12.16722-30.13037-11.5278-13.38246-.57354-27.02978 1.253-40.2173-1.11614-11.9664-3.49646-16.22536-16.52237-14.94934-27.77806V127.3254z" fill="#9c7d23"/><path d="M184.13227 305.65046c-13.4836-4.27725-27.89958-1.58868-41.84156-2.34023-10.24307.88078-22.79863-.81683-26.93063-11.88023-2.71473-7.90602-1.02532-16.43645-1.49596-24.64302 23.423 7.33344 46.84596 14.6669 70.26894 22.00033-.00052 5.6208.00078 11.24367-.00077 16.86316zm9.9262 4.44706c-1.63298 9.25937-6.1055-1.13847 0 0zm76.6724-43.2516c-.53245 11.38177 2.95627 25.8357-8.5497 33.12663-10.15958 5.82484-22.34624 2.42725-33.50558 3.33846-9.36838.37548-19.04504-1.2303-28.02835 2.16654v-16.68868l70.0836-21.94295zM113.8641 136.61807h156.86676v113.54536l-78.2558 24.84536-78.61095-24.90507V136.61808z" fill="#40187a"/><path d="M272.42594 251.5747c-26.64856 8.43357-53.30894 16.88328-79.9501 25.30675L112.1698 251.6282V134.69814h160.25614V251.5747zm-73.65832 56.56798v-20.6635c24.55278-7.7646 49.10555-15.52917 73.65832-23.29375-1.01696 11.73634 3.31516 25.5396-5.80366 34.99422-9.73444 9.18245-23.808 4.76842-35.8089 5.81248-10.70175.503-22.04934-1.6944-32.04576 3.15055zM112.1698 264.2273l74.0065 23.26118v20.94808c-13.38397-5.91718-28.3799-2.5595-42.58066-3.44443-10.52632.4409-23.67906.71364-29.07844-10.42835-4.20474-9.34203-1.64038-20.36534-2.3474-30.33648zm-4.34004-133.8351H276.7652c-.07264 53.37295.14482 106.7566-.1079 160.1229-.90415 12.91595-14.19258 20.4653-26.14607 18.7884-14.637.4263-29.43026-.93356-43.94642.8358-10.983-1.6088-13.70506 21.44935-17.13645 7.1619-10.46155-11.62613-27.08896-7.07077-40.8665-7.9977-12.23636-.8064-27.1942 3.36667-36.049-7.76345-7.71293-10.34795-3.66644-23.83567-4.6831-35.79074V130.3922z" fill="#f3d400"/><path d="M165.96563 171.164c12.55682-7.8559 21.454-21.58135 26.57534-34.46063 3.7103 14.92682 18.168 26.4676 25.66757 36.44314-4.29966 7.86598-22.66662-.5913-10.1388 10.86046 7.66875 10.40073 24.56484 15.99433 30.56103 24.0119-6.3303 6.68684-16.3284 4.53713-22.37656 8.09337 12.43432 11.88912 34.31198 18.56424 44.42288 27.91785-8.17186 6.4309-16.43925 6.9847-25.21886 10.96716-5.60552-4.35404-11.95037 9.1712-18.95975 1.30368-5.18107 8.42382-23.13923-2.63824-13.08643 10.20723-.78618 3.55402-15.7399 5.92692-21.93755 1.39304-.04685-.11815 7.35224-14.31255-3.0235-7.555-8.47573-4.88252-18.24744 1.98338-24.7673-7.18963-10.14714 5.27417-15.94804-5.963-26.1824-5.96206-10.86437-8.48484 14.46826-10.29676 19.34315-16.51224 6.91158-4.69677 32.93227-17.27454 12.60846-16.6476-3.41262-1.3846-22.0613-5.28968-8.55198-10.64963 10.4959-5.73893 27.71055-17.69273 29.7045-25.47926-4.55273-3.4823-12.52476 2.92614-14.6398-6.74177z" fill="#9c7d23"/><path d="M167.9895 172.06814c11.39036-6.86192 20.20032-19.59445 24.46927-30.79132 4.2688 11.2175 13.0803 23.91388 24.46774 30.77504.6 4.52883-7.8396-3.60512-1.05612 2.4015-4.74048 1.14264-2.8692-1.63577-4.2718 1.74857-2.7234-3.0771-5.16635-1.18536-7.633-.6663-11.94113-3.23632 10.2016 18.70657 20.1608 23.58112 10.28907 5.76225 14.282 8.53238 9.93516 7.90887 7.597 6.60885-10.88488-4.40365-.83872 3.66562-2.88026 1.4295-8.4587-6.3906-4.5626-.4823-7.26075-5.80988-1.05048 4.99875-7.8907-.76768 3.65647 7.58423-3.59272-1.4306-4.10452 3.94603-6.01405 9.41272 16.9488 15.0163 23.95427 21.28432 8.57747 2.6176 23.0171 13.12947 11.5179 7.9977 8.05515 8.3092-7.72293-1.43502-2.61113 2.78643 3.13897 6.6707-10.63837-6.65435-4.07244.6825-.34536 3.6101-10.66624-6.11656-2.61817 2.6573-2.3391 3.08876-7.0845-5.86055-1.6203 2.45038-3.93116 1.86128-7.13638-6.51647-2.7931 1.43996-6.52663-1.59295-4.28374-3.99513-5.47304-.8374-6.34665-5.11934-2.15244-4.37574-4.00652 1.5942-4.67406-9.7244.9925 8.26306-5.0289-.4243 1.7725 2.82116-3.54272 4.39213-4.18208.84905-1.4786 6.68806-5.3442-7.56277-5.32355 2.5325-1.7349-7.20134-3.1076 7.71258-5.95087-1.20566-.04063 8.9895-5.7837-4.4506-4.73372 2.35195-5.20352-3.3061-1.77066-7.2546-4.92627-.16982.23835-9.5639-2.46432 8.49615-3.29556-2.09054-1.92975 8.0985-2.33284-.2472-5.07374 4.3069-.25164-8.0617-3.2016 4.69475-3.7117-5.64535-.8125 8.97374-2.5512-7.60765-2.95138 2.1635-5.25504.44943-.82605-.46638-6.75705 2.53563 1.2577-7.05734-5.56164 5.26433-4.67503-5.0992-3.49495 8.66646-1.21167-7.82357-5.12806 2.10608-4.30522-.63454-.30334-2.14627-5.63832.83562-1.05122-6.3195.24882.2924-4.59477-1.8561 4.87383-8.98088-4.79976 3.53006-.90593-6.29008 1.28383-1.64576-9.03397 9.1457-3.79703.6225-3.87637 6.719-6.42556 2.29625-3.77358.10796-7.43765 8.77188-.53966-5.28787-3.49905-.50265-7.774 5.99316 4.85522-9.17166-1.96727-2.3635-8.0594 4.12028 2.17075-6.91686-6.2169 1.04876-5.51655.34702 3.68034-6.87762-4.03968-.5548-5.9577-.79435 4.92752-7.57972-4.07485-1.51207-4.0378-6.05877 17.50056-7.99734 21.30352-13.63236 7.92985-4.95535 27.4714-13.92285 16.46952-19.81605.82184-1.4225-7.41407 4.56598-2.34624-2.2467-6.85202 5.78515-.60715-5.06908-7.87754.75293 5.50928-5.97866-10.40544 5.7899-1.17476-3.22344-5.73552 4.16217-8.87864 1.90323-1.78038-1.75402-14.8669 5.74047 9.4297-6.32224 12.80097-9.71162 9.13986-5.25715 25.61833-23.82572 14.8519-19.9912-1.58985-1.86112-6.05406.33638-6.26018-.4632-5.2301 4.0876 1.3098-5.24975-4.24807.59212-5.29996-1.26408 6.58763-5.62517-1.99516-2.23865z" fill="#f3d400"/><path d="M171.85033 191.52508h41.13935c-.28564 13.26765.55976 26.6495-.3998 39.8491-4.4534 7.5893-17.17-1.87875-20.13653 7.52234-2.93812-10.0534-18.60712 1.4826-20.6038-9.51368.00052-12.619-.00078-25.24005.00078-37.85776z" fill="#9c7d23"/><path d="M173.6625 193.46442h37.515c-.25973 12.1373.50945 24.37876-.36465 36.45385-4.0866 6.69433-14.84202-1.21374-18.39362 6.0231-3.63787-7.7205-16.8658 1.85324-18.7575-7.8341.0005-11.54736-.0008-23.09678.00076-34.64285z" fill="#e0bf66"/><path d="M209.7926 221.71778c1.56228 5.88245-2.21377 11.5449-8.65733 9.77034-7.765.83567-9.0252 1.60778-16.54373 0-5.2831 1.3731-11.15576-1.72178-9.54337-7.76876.79297-4.48927 9.76122-.80324 13.84512-2.00158h20.8993z" fill="#105a26"/><path d="M209.17847 222.57617c1.71432 6.1249-3.7183 9.82258-9.37068 8.30945-6.67494 1.00258-8.9909.41445-15.92805 0-5.51003 2.136-10.8144-4.70775-7.3529-8.30945h32.65162z" fill="#008e21"/><path d="M175.04042 194.91136h34.74443v25.58125h-34.74443v-25.58124z" fill="#912c17"/><path d="M175.78715 195.66895H209.111v23.9606c-5.46955.89844-9.88418-.10575-12.4517-4.44512-2.10608-5.00686-14.93532-9.8917-10.02775-.32804 1.46768-1.52888-3.47652 7.70033-8.68756 4.77393-4.7331-.60064-.9367-9.73077-2.15607-13.8451-.00052-3.37183.00077-6.74574-.00078-10.11628z" fill="#d92819"/><path d="M183.57474 226.10047c5.06235 1.27446-6.68783 1.6698-3.30943-1.1296-2.80076-.39363 8.3325-1.43383 3.30944 1.1296zM203.35426 226.10047c5.06434 1.27467-6.6895 1.66937-3.30967-1.1293-2.81063-.39683 8.3322-1.4316 3.30966 1.1293zM193.2148 227.44894c5.06435 1.27466-6.6895 1.66936-3.30965-1.12932-2.80652-.39694 8.33512-1.4309 3.30966 1.12932z" fill="#105a26"/><path d="M202.84248 216.08432c3.1757 2.1208-3.0677 1.8564 0 0zM201.69407 217.83213c3.17643 2.122-3.06843 1.85667 0 0zM179.79377 217.20868c4.13196 2.76038-3.9924 2.41098 0 0z" fill="#912c17"/><path d="M204.90743 216.08432c3.1757 2.1208-3.0677 1.8564 0 0zM203.75903 217.83213c3.17642 2.122-3.06844 1.85667 0 0zM179.79377 212.56467c4.13196 2.76038-3.9924 2.41097 0 0zM204.90743 212.51427c3.17505 2.1199-3.06702 1.85676 0 0zM178.29022 214.8863c4.12897 2.75803-3.98868 2.41446 0 0zM203.75283 214.2993c3.1757 2.1208-3.0677 1.85638 0 0zM182.6163 217.20868c4.13094 2.75896-3.9901 2.41234 0 0z" fill="#912c17"/><path d="M207.07707 216.08432c3.17558 2.12047-3.0673 1.85664 0 0zM205.92944 217.83213c3.1754 2.12497-3.07072 1.85382 0 0z" fill="#912c17"/><path d="M208.127 217.83213c3.17422 2.12322-3.06803 1.85545 0 0zM181.11354 214.8863c4.1303 2.75997-3.99134 2.4126 0 0zM205.92246 214.2993c3.17483 2.11955-3.06537 1.8575 0 0z" fill="#912c17"/><path d="M183.2731 44.8691c22.19313-7.2645 47.55378 12.91796 44.09205 36.4671-1.24444 24.1435-30.95555 39.6144-51.52997 27.0883-11.46277-7.17266.9899-5.96293 5.87603-1.74906 1.69624.53094 6.4184 2.2132 7.19768-.12754 5.38443 2.3326 5.18857-1.8429 10.45885-.99382 1.4436-2.1359 2.49472-2.55396 7.32294-5.57475 4.2804-3.6777 3.83894-5.20785 7.56838-7.22002-.5674-2.8152 1.4398-4.72757 2.9393-7.91516.2588-3.0606.0677-5.71236 1.5411-9.58538-1.37746-2.69748-1.63483-4.51864-1.65165-9.09185-2.2846-1.80434-2.48803-5.10762-4.43263-7.63432-1.98708-2.29397-3.88795-3.96487-6.19804-7.03293-2.10708.08508-4.31473-3.8164-6.85127-3.22953-3.02835-3.42044-8.43845-2.04432-14.19633-3.17313l-2.13643-.2279z" fill="#999"/><path d="M196.02883 44.53413c22.5512 1.90578 37.92224 28.9451 26.41415 48.93476-8.733 18.00663-34.87844 23.84253-50.1336 10.72094 3.84305-1.29894 10.84812 6.3362 12.15097 3.93268 3.71583 2.16687 3.87107-1.2634 8.40896.33137.57284-2.30294 7.02106-1.01094 6.94915-3.8498 6.09543 1.2991-1.16417-5.12525 7.28266-6.00895 4.73824-2.83206 7.64714-3.51944 6.95862-6.80322 3.69923-2.02724.70206-4.75274 4.80275-7.57836-2.3012-1.85893 1.62338-5.67775-.50085-7.39975.95575-3.00817.47037-7.06083-1.08315-8.62136.8315-5.16297-2.82024-3.85823-2.6131-9.59446-2.3341 1.23286-3.3259-4.3884-5.65235-5.25382-2.27346-2.60208-4.0098-2.79576-7.01195-5.43905-1.8047.26453-4.47676-2.64567-6.8857-2.21097-5.81165-.48986-9.26485-1.5433-1.13002-1.2902z" fill="#b7c6c9"/><path d="M172.41716 70.35886c7.2876-11.03176 15.37063 8.80598 23.0237 11.95803 11.7044 10.55645 23.40875 21.11296 35.11295 31.66965 3.94244 13.2189-12.46247 11.82883-16.12024 2.67487l-42.0164-46.30256z" fill="#9c7d23"/><path d="M173.9331 70.50696c8.28123-7.08075 17.09285 13.54407 25.48236 17.22692 9.2346 10.67007 24.2206 18.58118 29.7956 30.9425-3.84082 9.03653-11.39254-.67112-14.95606-4.88372l-40.3219-43.2857z" fill="#f3d400"/><path d="M175.1955 92.58484c-2.90303-3.76703-9.23387-7.53406-10.07735-11.3011L183.491 62.9109l20.56812.81033-28.8636 28.8636z" fill="#999"/><path d="M175.0885 90.29113c-2.2954-3.7826-11.92986-7.5653-5.22908-11.3478 4.7036-4.70338 9.4072-9.40676 14.11078-14.11015l16.24902.328c-8.3769 8.37666-16.75382 16.7533-25.13072 25.12995z" fill="#b7c6c9"/><path d="M189.62847 210.33765c9.45018 3.0299 3.48047 10.8451-2.27044 3.6321l1.13552-1.81606z" fill="#9c7d23"/><path d="M189.3214 210.67186c3.71833 4.7939 2.83005 1.7329 3.8559 3.89834 7.5105 3.15372-9.8274 2.3499-3.8559-3.89834z" fill="#e0bf66"/><path d="M184.69445 219.65437c.2787-6.32718 9.2949-3.79735 12.95133-3.13332 5.19212 5.87434-6.87467 2.0496-10.20713 3.13332h-2.7442z" fill="#9c7d23"/><path d="M186.6268 216.39914c5.25385 1.5966 6.63822-1.44678 10.9279 1.46666.10658 1.09917-2.672-2.04778-3.28908 1.17133.83016-4.61807-5.46792 3.8186-6.61132-2.1929.87766 3.4814-3.71972 3.05983-1.0275-.4451z" fill="#e0bf66"/><path d="M188.89647 209.00625c4.24383 9.79202-10.06336 3.61983 0 0z" fill="#9c7d23"/><path d="M188.71968 209.58394c1.89073 8.40967-6.23973-.21377-.13948.79636-1.96357 2.51117-1.08664 6.06514.13948-.79636z" fill="#e0bf66"/><path d="M83.45973 330.65324c.5822 9.47415-20.73788 10.81387-9.57814.8484 2.12014-2.42903 7.33766-2.93576 9.57813-.8484zM62.4465 296.83622c5.46843 2.79316 16.93728 2.3479 4.9222.41097-9.41395-.8816-8.972-17.8265 1.70536-9.61245 4.54095 3.00794 11.0914 23.6132 15.1012 5.53535 3.61432-13.20687 13.63095-15.8488 17.6843-4.07242 9.5401 10.75595 15.18946 29.7612-3.20374 34.24332-11.7669 6.26504-24.55104 1.14237-34.97078 7.27887-8.03463-2.28603-14.5961 1.01088-20.90174-6.00253 2.9344-5.33643 1.0737-11.1307 6.95856-12.5671 2.40725-3.6484 12.7447-4.0672 3.79735-8.6206-2.06506-9.7047 7.97147-.58567 8.9073-6.59342zm36.36895 51.84563c3.94713-3.4741 4.45353-7.61463 10.8333-8.7442-1.80664-7.36472 11.58133-2.42656 10.10732-10.02407 9.88035.16378 16.2408-5.80815 27.04418-3.11963-7.23068 9.76732-15.37412 24.05208-25.89074 25.75388-5.80264 2.62195-13.27928 3.43893-19.78995.508-2.98285.79776-5.4553-2.72464-2.3041-4.37398zm50.61504-24.6484c-10.49058 4.7271-21.75857-18.3801-5.43496-10.5258 3.64374 1.11784 6.91615 7.43217 5.43495 10.5258zm-81.67234-72.0152c6.56874.5887 9.59165 1.35116 1.4764-3.34906-1.44074-7.10708-12.37305-12.13788-9.62422-20.30923-1.59492-2.58435-1.8723-9.40346-1.88328-13.02074-3.5753-10.13188 23.50588 1.78853 9.3627-5.31408-10.53632-2.27603-7.18022-23.18417 2.148-10.3966 5.78835 3.99978-.05977 16.65634 8.00986 16.4366 1.2709 12.6377 12.0126 3.89892 7.44968-4.24256.49313-1.80042 4.0905-.60422 3.45684-3.46693-1.44438-7.21585 6.4277-4.16883 7.4735-11.0355 2.18382 3.98167 10.6134-9.46627 8.3734 1.89577-.04798 7.39857-.93078 16.6979-1.17224 22.86926-2.01534 7.90767-4.2105 17.88225-9.26337 27.43296-7.52737 12.431-19.24632 23.13502-22.30313 37.7757-3.27607-4.79496-3.7899-6.39808-9.70736-9.13198 2.36082-6.82194-10.30986-8.10435-4.10294-14.42232-6.75944-5.53014.04628-10.01223-2.57053-16.7825 4.68092-.67956 6.31432 3.21063 10.28744.5313 1.4928 1.17496 1.23916 3.29596 2.58926 4.5299zM52.88553 144.08153c5.02897 2.70734 10.80116.51215 13.61916 5.38746 4.7396-3.6158 13.0202 10.57248 7.995-.027-12.18185.91376-10.52798-24.27048.02104-10.54935 4.21865 6.3997-.07992 14.2457 7.62503 19.63595 11.72798 7.07226-4.21076 21.6112-10.68583 28.2964-5.1816-5.10387-11.24898-8.39814-15.78433-14.3072.9029-3.3897-7.8343-8.01157-4.35023-12.58272-5.22333-4.98994.34055-9.5193-1.03858-15.6055l1.05964-.32274zm16.7577-16.80654c-6.5035-4.60024-3.77855-9.80216-7.23317-15.39218 3.48932-2.43174-.00975-9.2601 3.6347-12.47466 3.25818-9.75956 16.06916 13.15072 11.94398-3.94535 5.82495-1.92967 1.61768-13.09255 10.6105-10.30032 1.9758-10.71796 7.61883 1.68097 12.21397-6.53347 4.92725.96206 3.54478 9.0819 3.88035 11.7448-3.9089 5.4351-2.2159 14.68388-10.62602 19.0548-3.79916 6.2989-4.98768 12.88012 2.97552 13.23606 6.95143 8.07387 5.32927 17.77882 7.15077 27.25603-.82193 6.78224-3.68865 16.30583-8.1731 5.7635-6.85723-7.82388-18.9983-11.83813-21.61843-22.0514-2.30006-1.40242-6.38778-2.80206-4.75908-6.3578z" fill="#9c7d23"/><path d="M103.3951 80.7573c-2.40117 6.33934 3.72997 7.563-1.5573 12.47096 3.38463 3.2482-6.43207 6.12844-2.5067 10.64133-6.93748 1.1398-12.0312 23.39065-12.8511 7.8372 9.5478-4.23392-4.2011 1.77586 1.59893-6.95866 7.85403-2.14997 8.67656-4.7978.41407-1.4167-1.05018-7.1851 19.9955-11.33863 4.8209-8.50146-5.07828 5.74457 8.09243-18.39766 10.0812-14.0727zM70.21858 96.9776c4.83733 5.9543 10.9399 9.16835 13.40854 17.07028 4.7715 6.20563-.37186 11.11435-1.01648 15.4075-.9589 3.25084 3.35063 18.18496-1.3796 9.27378-6.03948-5.743 5.69462-26.62083-2.64243-12.06213-7.24937 3.92706 5.3824-21.77995-2.01474-8.9827-8.19633 7.04195 4.21368-20.2584-4.11973-6.32106.31325-2.99323-7.38462-15.58062-2.23555-14.38568zm18.27365 22.1058c6.31738 4.80048 14.60983 8.29333 11.491 18.0953 5.05786 5.9029 2.5671 15.53338-.29543 23.18905-7.12762-6.5217 7.27538-28.37507-2.7667-11.49412-4.35427-5.63282 6.50133-20.66306-1.9192-8.15978-2.5762-9.3383 2.7296-11.05736-3.3771-9.84753.4148-2.4566-7.33373-11.6845-3.13257-11.78293zM53.3787 145.42223c4.84042 4.5071 9.9258-1.70015 12.9688 6.772 4.93537-8.7672 6.49417 7.91466 13.04357 3.1612 2.79082 7.92862 12.0103 11.11094 1.8394 19.7322-5.4772 6.84507 3.2571-18.80614-2.35847-5.0593-2.39887 11.86828-8.44557-6.0281-4.36687-11.54563-1.15707 7.55733-5.1441 13.64416-7.94203 3.6918 2.16823-8.88594-.18508-8.69424-1.52435-.17136-1.76067-3.17752-18.0587-16.48875-11.66005-16.5809zm4.18263 102.36452c4.4385 4.4114 7.95902-2.49507 10.34105 5.48553 5.33202-2.60324 6.54595 6.59972 11.25905 7.76055 5.33544 5.46157-8.7547 19.59495-4.04527 6.6859 3.02737-12.46317-4.01477 13.67044-4.56943-2.2237 1.93137-9.26924-.94346-6.68233-1.09504.79566-5.22447-2.62235-4.202-18.7142-4.85107-6.47013-1.19774-2.43173-11.43722-12.25262-7.0393-12.0338zm3.88643-36.01457c5.16824 3.47686 9.4825-1.13492 12.54692 6.48748 5.28388-4.2844 2.8961 8.67362 9.90238 5.97047 2.69218 10.13317 7.96292 15.78202 8.5731 26.28378-6.1677 13.12677-9.30732-1.06668-5.1054-8.22493-4.8494 14.67094-8.3652-5.86182-3.6794-12.1354-2.2566 7.84474-4.40724 13.81316-8.78322 2.99238 2.90808-7.77264 1.6167-12.94136-.41717-2.14438-5.88315 2.27392-4.05085-20.24442-5.7265-6.4512-.58594-2.78766-15.08555-13.81174-7.3107-12.7782zm-4.69907 88.22775c6.1347-.02862 8.53954-3.91655 15.17054 1.0655 8.03263-2.32347 15.27325 1.94103 22.33602 5.37207 3.33253 5.60537 19.42287 13.23822 3.75065 16.11796-3.415-4.38365-.0576-13.71235-2.57285-1.6183-7.23505-.52936-9.10068-13.2504-8.0146-12.8716 1.80344 18.1738-10.7109-7.5835-9.11416-2.6779 10.23938 18.9542-17.83586-12.23782-6.4294 2.2091-1.27983-3.27693-23.8479-5.60782-15.1262-7.59683zm43.7029 48.9789c3.8283-3.36832 4.3191-7.3853 10.5064-8.48017-1.19687-6.94487 10.93406-2.78054 10.45956-9.9528 8.91344.5588 14.84548-5.402 24.57547-2.82142-.97344 9.4621-25.3172 2.14934-11.33127 6.50038-5.46163 4.75277-21.9726-.95514-6.59188 3.0482-4.4496 7.40632-23.99812-.67074-8.07992 4.98597-2.78357.99167-23.65276 12.81924-19.53837 6.71984zm49.9505-12.04157c2.7234-2.595 1.30247-5.6698 8.31383-5.99244-2.93715-7.32483 8.99212.31867 9.9451-6.06465 6.79656 2.52753 22.02028 8.21177 22.03908 14.81526-4.61607.3845-16.5499-11.86304-13.40136-7.79234 1.14886 9.90133-15.18122-10.76735-5.6415 2.01465-5.29435 3.53895-14.4091-8.56138-7.7077.65136-2.05656-1.00935-20.80328 7.23634-13.54745 2.36815zm-58.24444-56.15002c9.33925 4.3806 10.41128 14.58088 13.63428 23.94975 8.9501 3.78143 3.55888 19.00005-2.3666 5.27445 1.59148-7.4966-.04826-9.31265-1.01502-.85995-7.45307-4.03706 1.16686-24.77237-4.62736-8.8246-2.8258 6.85296-5.65838-9.65927-2.59107-14.33654-2.47992 6.91287-2.66816 12.7629-6.7171 3.0673-2.8658-2.69337 2.92022-5.71683 3.68286-8.2704zm11.3553-83.424c.04843 9.17005-3.86992 19.53803-.75215 27.0809-7.2827 6.09804-3.4014 16.45112-9.12673 24.1948-.21478-5.59542 1.2757-19.61895 2.66435-20.3737-6.39807 1.90255 10.71603-17.3081-1.02743-6.62813 1.86-10.54272 6.14314-10.00042 1.71757-10.50228.06735-1.487 6.193-21.702 6.5244-13.7716zM88.38057 86.64973c3.12287 3.99907 2.03706 16.72053.0035 5.40684l-.1595-3.04502zm-22.4268 23.7272c8.53484.37597 7.19215 6.59098 0 0zM54.0657 163.42062c12.24442-2.43084 15.13714 3.29757 0 0zm3.37697 96.5473c8.1373-.73968 10.77724 3.94943 0 0zm7.6643-28.17194c9.7685-1.00354 12.65944 4.98336 0 0zm-3.2847-6.39725c7.98438-1.85127 9.55477 3.39833 0 0zm30.9115-16.74217c5.5769 6.0077 1.80022 9.9797 0 0zm-2.54572 5.42022c6.28202 9.29096 2.90165 15.71204 0 0zm-2.9567 7.8023c5.22336 5.7195 7.93636 16.49156 1.62663 4.54333l-.8335-1.8372zM66.464 136.88173c10.17923-6.49692 10.60664 17.94483.38257 5.83923-1.0016-1.7497-1.27823-4.00118-.38257-5.83923zm-5.28142 60.73742c10.17953-6.49712 10.6062 17.94523.38258 5.83962-1.00154-1.74984-1.27828-4.00144-.38258-5.83962zm-.33498 91.1294c7.05364-9.8017 16.4928 12.74812 2.51538 5.28326-1.57775-1.25496-2.66773-3.24434-2.51538-5.28326zm11.34368 49.31077c-5.14042-8.8877 14.66954-8.21372 4.76508-.27332l-2.32507.7146zM84.6376 132.07177c9.69.68534 9.29427 7.29333 0 0zm-3.00943-29.51264c3.92377 3.21648 5.6582 15.86545 1.19057 5.27414l-.8241-2.93574zM70.05574 126.1421c9.30155.39245 8.32816 7.26908 0 0zm-2.63877 50.79726c11.47353-3.94607 15.31742 3.06867 0 0zm-4.1524 94.63974c11.36164-.51138 14.21273 4.76616 0 0zm26.07287 31.33256c8.98724-.53897 9.62448 4.21453 0 0zm-6.15454-6.37786c6.7884-3.00532 13.89798 3.86958 2.1886.56726zm-23.89935 30.18804c.20234-8.31767 6.9041-7.21915 0 0zm-3.8872-1.17632c-.3097-5.66758 5.04258-5.68582 0 0zm9.2128-12.56963c4.77488-5.68515 14.18225-2.638 2.2146-.4527zm7.3301 5.05964c9.4204-8.20094 14.03463-3.372 0 0zm6.9385 2.91016c4.9435-5.40528 13.37116-3.891 2.1616-.58352zm9.95877 4.25243c5.97542-6.65323 10.48913-.9664 0 0zm26.7343 25.85652c1.50485-7.99812 9.71187-9.9773 1.48167-1.51447zm43.5835-10.87998c5.27198-8.01912 10.2153-4.3577 0 0zm-38.8666 9.25624c2.42764-7.94905 13.06324-14.18403 3.37983-3.33182l-1.48742 1.41832zm44.20848-8.25438c4.46886-6.5913 11.8684-6.3029 1.7362-.85577zm-35.7804 3.07378c2.1922-7.57856 12.0982-12.30587 3.1843-2.96503l-1.38845 1.23265zm43.90142-2.8776c5.40992-8.24106 10.41316-4.60955 0 0zm-98.46258-92.27237c6.5756-.17857 14.22945 4.24175 3.33393 1.74294l-1.59416-.77572zm13.62652-104.20615c7.1394.2938 11.86104 9.5391 2.08027 1.62613zm-4.25242-53.11423c3.764 5.01095 3.9059 19.42686.69856 6.6292-.42756-2.18232-.74905-4.39743-.69856-6.6292zM68.0063 118.3576c8.24727-.11082 8.91416 6.88662 0 0zm-7.92096 51.7464c6.46722-2.56018 18.0319 2.14623 4.836.8386l-1.98036-.24148zm-.83436 96.89467c10.05462-1.51365 15.28338 3.6494 0 0zm8.35675-26.96227c6.9636-1.28913 17.72475 6.46605 4.7032 1.77846l-1.96263-.68852zm17.713-102.10553c10.40177.98928 12.94223 9.05572 0 0zm-33.7286 172.9824c9.0998-1.98444 11.1238 8.33555 18.31764 10.17966 2.89906.4132 16.45974 3.6997 11.3788 5.72185-8.03944-5.1043-17.3361-5.5142-26.3342-12.2547 10.0829 3.55688 2.57154 6.9598-3.74143 2.94584 12.74694 2.92626-16.75562 12.10226-4.40178 1.60294-6.44855-9.21462 7.59126.59855 4.78096-8.1956zm126.81596 38.62387c3.14028 2.6334 9.4029-10.71868 1.33542-1.59358zm.4637 2.32085c.10446-5.38158-3.99655 1.04835 0 0zm-43.1043-37.23666c7.05383-9.80164 16.49305 12.74786 2.5154 5.28326-1.57776-1.25496-2.66773-3.24434-2.5154-5.28326z" fill="#f3d400"/><path d="M88.10917 204.74994c-2.4366-11.23805 19.9085-19.8178 15.5394-34.50622-.81838-13.49386-20.35537-24.5983-25.5842-26.89312 4.68293 11.17946 17.4646 21.78625 3.10853 31.8142-10.45233 10.7366-15.15825 26.09796-4.08142 38.14363 5.23555 10.18706 9.79824 10.24266 7.60737-1.48507 2.11598-1.93217 5.11546-2.367 3.41032-7.07342z" fill="#912c17"/><path d="M75.26272 206.58072c-13.52805-19.0538 17.4626-32.2923 17.3722-51.06332 3.21795-2.58457 16.2713 19.03324 7.05405 27.06782-6.09914 11.5182-23.26037 20.54174-17.1047 35.47178-3.53507-3.09557-5.4794-7.26117-7.32155-11.47628z" fill="#d92819"/><path d="M101.7768 167.18762c3.0301 19.14218-22.14458 27.7946-21.46434 46.04915-.44807 7.99678-2.34315-12.38983 3.8885-14.8036 7.84153-8.2999 19.36183-23.13922 17.57583-31.24555z" fill="#f9f200"/><path d="M100.46943 164.27513c3.0368 18.2462-17.5929 27.4963-21.8154 43.20125-2.39848 13.89658-.34337-11.55876 6.88895-13.9392 7.78027-7.3402 16.48493-22.48536 14.92645-29.26205zM71.31968 198.99862c2.5618-17.24725 22.71348-27.16733 21.88868-45.08703 3.2435 16.87577-17.9717 27.39886-20.57225 43.72553l-.6736 3.352z" fill="#f9f200"/><path d="M72.36108 201.92662c2.12823-17.96353 21.86332-28.38895 22.39813-46.4293 2.21882 16.86828-18.61165 27.65318-20.93655 44.37668-.6233.5137-.28182 6.13682-1.46157 2.05262z" fill="#f9f200"/><path d="M71.2592 287.17986c2.32408-18.60477 17.36045-31.54315 26.23003-47.0675 2.3097-4.42344 3.75895 14.61535 6.51148 19.14292-1.52892 16.1811-16.87176 26.4222-22.69743 41.03855-1.9578-5.46934-7.65948-8.08895-10.04407-13.11397z" fill="#912c17"/><path d="M72.60146 287.24422c2.83786-16.80676 15.10347-29.63986 24.8818-42.8471 1.8948-.28968 9.42892 22.24825.08618 27.94587-5.9972 6.50088-12.76253 22.5962-17.54736 23.52325-1.22108-3.89424-6.017-5.01066-7.42062-8.62203z" fill="#d92819"/><path d="M102.06603 257.3865c-1.4292 15.29164-15.90265 25.49575-21.59014 39.38148 3.87642-13.84418 18.81347-24.35776 21.59013-39.38147z" fill="#f9f200"/><path d="M101.42785 255.45803c-1.42514 15.4416-16.0972 25.70552-21.73436 39.77693 3.6589-13.89836 19.0057-24.6244 21.73435-39.77693zM72.9853 288.4655c2.60366-16.92835 15.25775-29.66793 24.9425-42.9781.44296 3.44924-16.09212 19.63217-19.51664 29.48577-2.62972 3.41816-3.6961 12.17645-5.42586 13.49234z" fill="#f9f200"/><path d="M74.23683 289.64726c2.47693-16.38395 14.53872-28.8575 24.11572-41.5939-.245 4.0219-16.7789 20.30032-20.0679 30.8725-2.29634 1.9475-2.3032 11.3983-4.04782 10.7214z" fill="#f9f200"/><path d="M81.6623 327.0638c15.83695-.13067 27.2663-17.3324 43.39287-13.43263 6.44102 3.3002 13.79247 7.04777 18.1913 12.65798-9.28915-.3267-15.8149 2.95567-24.33978 4.74405-9.67004 6.65348-22.86454 15.16646-32.00535 2.15267-2.42696-1.14926-4.8732-3.30944-5.23906-6.12207z" fill="#912c17"/><path d="M83.43414 328.1269c16.0566-1.52027 29.91506-20.1606 46.41456-11.31188 3.70488 3.79112 14.64117 6.88773 3.4705 7.34903-14.39008.1205-26.3888 20.01124-39.67302 12.6003-2.0642-4.43577-9.0128-3.74953-10.21204-8.63744z" fill="#d92819"/><path d="M83.69313 329.11402c14.47083-1.9266 25.73103-14.9348 40.66907-13.99423 7.3731.38527-17.69266 1.20437-21.04744 7.35864-6.25122 1.9263-13.53983 7.60202-19.62163 6.63558z" fill="#f9f200"/><path d="M84.71436 330.3795c15.70735-2.29547 28.32912-17.2357 44.92668-13.6654-11.35964-1.466-23.9162 6.50126-35.03688 11.23765-2.90356.74826-7.16115 4.25433-9.8898 2.42776zM137.29742 322.07472c-15.69375.67146-27.75693 13.85224-42.09002 16.17923 13.00183-3.56797 23.2475-13.86978 36.95448-15.90793 1.65886.11272 3.66875-1.94517 5.13554-.2713z" fill="#f9f200"/><path d="M135.86367 320.97207c-15.5868.71015-27.75606 13.68312-41.86205 16.17922 12.92065-3.58915 23.06506-13.9185 36.72637-15.90748 1.65892.11278 3.66877-1.94582 5.13567-.27175z" fill="#f9f200"/><path d="M165.18555 316.72972c8.44202.0739 16.28753 8.4448 5.8504 7.8602-5.30932-4.11472-7.3782 6.0275-14.10806 1.73857.6166 5.93215-8.4107 5.16315-7.9301 9.59142-8.77714 7.12098 7.8792 2.66534 4.96278 8.62646 5.48856 3.36027-12.53116 9.26978-18.0974 5.0687-9.1747-.23184 7.99917-12.77965 9.3677-19.29713 4.9886-6.1849 11.3379-13.51052 19.95467-13.58823z" fill="#d92819"/><path d="M166.42236 316.853c-8.67278.83813-21.58746 14.98623-27.25597 26.07792-3.941 6.28212-9.72928 8.55427-1.93682 1.15347 7.7865-10.43847 14.43607-25.967 29.19278-27.2314z" fill="#f9f200"/><path d="M168.93938 317.85952c-8.32483.4467-22.4479 13.89163-27.63466 25.26002-3.94066 6.28228-9.72897 8.5552-1.93653 1.15405 7.72688-10.383 14.50275-26.18158 29.57118-26.41408zM154.70957 344.68454c-7.72175 10.4847-6.0622 3.6833 0 0zM176.89368 321.25742c-6.88486 6.3265-8.19977 3.19216 0 0z" fill="#f9f200"/><path d="M175.22342 320.6526c-6.1253 5.57378-7.36516 2.44893 0 0zM153.44718 343.8781c-2.87293 4.94405-10.94713 10.58364-2.68684 2.22934 1.49948-1.28618 4.56058-7.6429 2.68684-2.22934z" fill="#f9f200"/><path d="M96.09138 109.86827c6.87525-9.6903 16.55774 1.76696 12.7061 9.46172-8.5475 5.24032-6.94936-7.7377-12.7061-9.46173z" fill="#d92819"/><path d="M97.51817 109.42705c4.3816 1.01517 6.93006 11.28106 10.31314 10.48296-7.0582.21407-5.18347-8.14072-10.31313-10.48295z" fill="#f9f200"/><path d="M98.65804 108.85712c4.505.85512 6.05127 10.97454 10.4659 10.22086-7.26088.56846-5.32274-7.85853-10.4659-10.22086z" fill="#f9f200"/><path d="M115.8616 89.28774c16.5537-.22526 18.94738 24.13206 30.81378 29.89538-10.88677 13.4663-22.68737 2.4591-27.47873-10.2283.50064-8.52487-16.22285-9.6886-11.6247-12.0291 2.7241-2.58794 5.4878-5.13443 8.28965-7.63798z" fill="#d92819"/><path d="M107.16754 97.32888c15.52247-.77923 15.29875 26.2434 30.87274 27.8703-15.514.13008-15.25517-25.78693-30.207-27.97064z" fill="#f9f200"/><path d="M108.2167 96.32006c15.52285-.7791 15.29823 26.24362 30.87273 27.87107-15.51394.1292-15.25688-25.785-30.20702-27.9714zM114.6558 90.35705c17.23717-1.54932 16.71043 24.74787 32.01263 28.84267-14.5846-2.28913-14.60154-25.47785-29.33057-28.72245z" fill="#f9f200"/><path d="M113.7036 91.21234c17.15056-1.58176 16.68386 24.46506 31.697 28.7504-14.4564-2.58353-14.32916-25.4421-29.01497-28.63062z" fill="#f9f200"/><path d="M177.10693 217.20868c4.13057 2.75864-3.98998 2.4125 0 0z" fill="#912c17"/><path d="M155.04456 113.62365c8.67797-1.80372 11.0986-18.62043 18.0098-6.99608 3.58012 4.44358-9.60172 10.03656-12.068 15.9551-5.32978 2.3863-10.20744-4.97468-5.9418-8.95902z" fill="#9c7d23"/><path d="M156.5985 114.31688c7.43886-2.86888 10.3865-16.3632 16.62278-5.60554-4.62992 1.7424-20.29475 24.609-16.62277 5.60554z" fill="#f3d400"/></g><path d="M-76.84015 407.82593l-3.29193.5309c-116.67342 17.4094-187.5361 14.76474-188.17547 14.72712l.01328-.35397c.70794.02656 71.50205 2.68228 188.17546-14.7271C18.62152 393.27457 218.92586 306.7181 294.3132 274.1538c14.8005-6.39782 25.52586-11.01257 29.76026-12.6806 3.70786-1.44238 6.7985-2.78522 9.56832-3.93558 7.24538-3.0684 10.79396-4.62582 12.21866-1.90022l-.3208.19247c-1.31186-2.46233-4.80292-.98455-11.77397 2.0396-2.76985 1.15036-5.86047 2.4932-9.56833 3.93558-4.24546 1.59945-14.95978 6.28278-29.76026 12.6806-74.52896 32.21478-271.3533 117.22488-371.27725 133.34028z" class="st29" fill="#bababa"/><path class="st32" d="M-214.0176 445.57066l236.41975-34.96253 182.01023-52.08216 14.8225 2.4647c-3.6017 2.97332-5.6437 4.70996-5.6437 4.70996l25.58054 37.31992c-293.43835 77.58206-503.7211 61.25458-503.7211 61.25458l-1.1767-17.3313z" fill="url(#c)"/><path class="st33" d="M-73.5 221.5c10.5 2 107.8 20.1 269.8 22 171.8 2 602.6-131.7 642-144l7.4 37.4c-40.1 22.4-220.4 88.5-220.4 88.5l3.9 8.3c-46.6 12.6-246 37-413.3 35C54.5 266.9-61.8 242.9-75.3 240l4.1-43.4z" fill="url(#d)" transform="rotate(-9.17 1627.9 1639.38) scale(.6947)"/><path class="st34" d="M250.42464 321.83308c-25.66083 12.7935-212.065 86.06075-330.11006 103.69135-111.38154 16.6263-180.1138 14.975-187.46753 14.75367l-1.10814-17.34237s70.13042 2.9035 188.17548-14.7271c118.04505-17.6306 378.1576-136.49053 404.32945-146.5518 13.65227-5.22753 19.7163-9.5127 21.57017-5.8712 1.22116 2.33622-1.24125 10.19212-17.1944 20.7867-22.31364 14.78683-49.37497 35.47606-71.7727 53.23182z" fill="url(#e)"/><path class="st37" d="M221.65766 338.92728c34.4549-21.52982 129.62938-66.22178 124.67844-82.5222l60.30434 90.7567 2.78303 5.03968s2.85815 12.48636-11.7853 21.60312c-34.4549 21.5298-129.1648 66.92088-124.21386 83.2213l-4.71213-7.40248c-.0575.0796-58.77123-89.10406-58.77123-89.10406s-2.85815-12.48636 11.71672-21.59206z" fill="url(#f)"/><path class="st38" d="M367.70665 288.5636c4.95095 16.30042-89.8054 61.8397-124.19174 83.35846-14.57486 9.1057-11.7853 21.60313-11.7853 21.60313l.0221.13715-21.87937-33.13195s-2.85814-12.48636 11.7853-21.60312c34.45492-21.52982 129.16482-66.92088 124.21387-83.2213" fill="url(#g)"/><path class="st39" d="M266.31903 405.11597c33.56113-20.96347 124.3906-64.67322 124.42402-81.91824l15.88633 23.89545 2.78303 5.0397s2.85816 12.48635-11.7853 21.60312c-33.1828 20.69136-122.43268 63.72417-124.37533 81.34746-.1062.65042-.007 1.26766.16148 1.87384l-4.71214-7.40248s-4.37365-6.61267-10.69633-16.14785l-3.5352-5.34058c.0111.0686-2.7254-13.84472 11.84946-22.95043z" fill="url(#h)"/><path class="st40" fill="none" d="M-235.57038 308.87794L793.1593 142.96782l39.67463 246.00357-1028.72966 165.9101z"/></svg>