<svg xmlns="http://www.w3.org/2000/svg" width="300" height="75" viewBox="0 0 79.374998 19.843751"><path fill="#ff6400" d="M0 0h79.375v19.84374H0z"/><g font-family="Trebuchet MS" letter-spacing="0" word-spacing="0"><g font-size="9.525" text-anchor="middle" stroke-width=".26458"><g style="line-height:1.25;-inkscape-font-specification:Tahoma;text-align:center"><path d="M8.87078-28.82064H5.8384v5.97173h-.93947v-6.8089h3.97185zM9.5219-26.3138q0-1.48365.7395-2.47428.74414-.9953 2.00452-.9953 1.42782 0 2.17662.92553.75344.92553.75344 2.54404 0 1.665-.7581 2.62308-.75344.95808-2.17196.95808-1.30224 0-2.02313-1.0046-.7209-1.00458-.7209-2.57657zm.98134 0q0 1.1813.4558 1.96266.46042.7767 1.30688.7767.95808 0 1.45573-.7116.49764-.71623.49764-2.02777 0-2.6324-1.95338-2.6324-.84646 0-1.3069.69297-.45578.68833-.45578 1.93942zM17.19586-25.46735v2.61844h-.93018v-6.8089q.87902-.0512 1.27434-.0512 2.9719 0 2.9719 1.98128 0 2.29753-2.62773 2.29753-.2186 0-.68834-.0372zm0-3.3533v2.51614l.61856.0465q1.73478 0 1.73478-1.36272 0-1.24644-1.8464-1.24644-.24184 0-.50694.0465zM25.88835-22.8489h-.92087v-2.95332l-.39998-.009q-.8511 0-1.31155.40463-.46044.40463-.63252 1.36737-.13022.72553-.38137.98133t-.79995.2558q-.20928 0-.27904-.0186v-.82786q.09767.0186.15348.0186.15347 0 .2465-.11627.093-.11627.17207-.5209.26977-1.38596 1.38133-1.7999-.89297-.23718-1.21854-.65576-.32557-.41857-.32557-1.00458 0-.90227.65113-1.45573.65112-.55346 1.96267-.55346.67903 0 1.70222.0884zm-.92087-3.70676v-2.3115q-.493-.0605-.99064-.0605-.8046 0-1.13017.33487-.3209.33488-.3209.78136 0 1.22783 1.70687 1.24644zM31.57172-22.8489h-.92552v-2.74403q-.66043.15348-1.24644.15348-1.07435 0-1.66966-.56276-.5953-.5674-.5953-1.6092v-2.0464h.9441v1.93942q0 .74414.35348 1.1255.35812.38138 1.03715.38138.58136 0 1.17667-.15347v-3.29283h.92552zM36.85512-22.8489l-.4651-1.43713H33.8553l-.50694 1.43712H32.3112l2.76263-6.90657h.2465l2.57194 6.90656zM35.1622-27.9742l-1.0604 2.99982h2.01848zM42.92917-22.8489h-.92087v-2.95332l-.39998-.009q-.8511 0-1.31155.40463-.46043.40463-.63252 1.36737-.13022.72553-.38137.98133t-.79995.2558q-.2093 0-.27905-.0186v-.82786q.09767.0186.15348.0186.15348 0 .2465-.11627.093-.11627.17208-.5209.26975-1.38596 1.3813-1.7999-.89296-.23718-1.21852-.65576-.32557-.41857-.32557-1.00458 0-.90227.65113-1.45573.65112-.55346 1.96267-.55346.67903 0 1.70222.0884zm-.92087-3.70676v-2.3115q-.493-.0605-.99064-.0605-.8046 0-1.13016.33487-.32092.33488-.32092.78136 0 1.22783 1.70688 1.24644zM52.19372-22.8489h-.93483v-5.99034H49.752q-.14417 1.33945-.37206 2.47892-.22324 1.13946-.5767 1.91616-.35348.77204-.66043 1.10226-.3023.3302-.64647.44648-.3395.11162-.86506.11162v-.87436q.3209 0 .5488-.11162.23255-.11628.4837-.4651.2558-.35346.55345-1.20922.3023-.85576.48834-1.9022.18604-1.0511.33487-2.3115h3.1533zM58.59333-22.8489h-.93483V-27.737l-3.82767 4.9811h-.2465v-6.90192h.93018v4.88343l3.83233-4.9811h.2465zM63.88603-22.8489v-3.29748h-2.9719v3.29747h-.93018v-6.8089h.93017v2.72077h2.9719v-2.72077h.93484v6.8089zM71.22512-22.8489h-.93483V-27.737l-3.82768 4.9811h-.2465v-6.90192h.93018v4.88343l3.83232-4.9811h.2465zM76.9178-22.8489h-.92088v-2.95332l-.39998-.009q-.8511 0-1.31155.40463-.46044.40463-.63253 1.36737-.13022.72553-.38137.98133t-.79995.2558q-.2093 0-.27905-.0186v-.82786q.09767.0186.15348.0186.15348 0 .2465-.11627.093-.11627.17208-.5209.26975-1.38596 1.3813-1.7999-.89296-.23718-1.21852-.65576-.32556-.41857-.32556-1.00458 0-.90227.65112-1.45573t1.96267-.55346q.67903 0 1.70222.0884zm-.92088-3.70676v-2.3115q-.493-.0605-.99064-.0605-.8046 0-1.13016.33487-.3209.33488-.3209.78136 0 1.22783 1.70686 1.24644z" style="-inkscape-font-specification:'Trebuchet MS';text-align:center"/></g><g style="line-height:1.25;-inkscape-font-specification:Tahoma;text-align:center" fill="#fff"><path d="M8.7088-29.033H5.6764v5.97172h-.93948v-6.8089H8.7088zM9.35992-26.5262q0-1.48362.7395-2.47425.74413-.9953 2.00452-.9953 1.42782 0 2.1766.92553.75345.92553.75345 2.54403 0 1.66503-.7581 2.6231-.75345.9581-2.17196.9581-1.30225 0-2.02314-1.0046-.72088-1.0046-.72088-2.5766zm.98133 0q0 1.18134.4558 1.96268.46043.7767 1.3069.7767.95807 0 1.4557-.71158.49766-.71624.49766-2.0278 0-2.63238-1.95336-2.63238-.84646 0-1.3069.69298-.4558.68833-.4558 1.9394zM17.03387-25.67973v2.61845h-.93018v-6.8089q.879-.0512 1.27433-.0512 2.97192 0 2.97192 1.9813 0 2.29752-2.62775 2.29752-.2186 0-.68833-.0372zm0-3.35328v2.51612l.61857.0465q1.73477 0 1.73477-1.3627 0-1.24644-1.8464-1.24644-.24183 0-.50693.0465zM25.72636-23.06128h-.92087v-2.9533l-.4-.009q-.8511 0-1.31154.4046-.46043.40464-.63252 1.36737-.13022.72553-.38137.98133-.25114.2558-.79995.2558-.2093 0-.27905-.0186v-.82785q.09767.0186.15348.0186.15348 0 .2465-.11627.093-.11626.17208-.5209.26975-1.38595 1.3813-1.79988-.89296-.2372-1.21852-.65577-.32555-.41858-.32555-1.0046 0-.90226.65112-1.45572.65112-.55345 1.96267-.55345.67903 0 1.70222.0884zm-.92087-3.70675v-2.3115q-.493-.0605-.99065-.0605-.8046 0-1.13016.33487-.32092.33487-.32092.78135 0 1.22782 1.70687 1.24643zM31.40974-23.06128h-.92553v-2.74402q-.6604.15348-1.24642.15348-1.07436 0-1.66967-.56276-.5953-.5674-.5953-1.6092v-2.0464h.94413v1.93943q0 .74414.35346 1.1255.3581.38138 1.03714.38138.58136 0 1.17667-.15348v-3.29282h.92554zM36.69313-23.06128l-.46508-1.43712h-2.53473l-.50695 1.43712h-1.03714l2.76262-6.90656h.2465l2.57193 6.90656zm-1.69292-5.12527l-1.0604 2.99982h2.0185zM42.76718-23.06128h-.92087v-2.9533l-.39997-.009q-.8511 0-1.31154.4046-.46045.40464-.63253 1.36737-.13023.72553-.38138.98133t-.79996.2558q-.2093 0-.27905-.0186v-.82785q.09766.0186.15347.0186.15348 0 .2465-.11627.09302-.11626.17208-.5209.26975-1.38595 1.3813-1.79988-.89296-.2372-1.21852-.65577-.32556-.41858-.32556-1.0046 0-.90226.65112-1.45572.6511-.55345 1.96266-.55345.67903 0 1.70222.0884zm-.92087-3.70675v-2.3115q-.49298-.0605-.99063-.0605-.8046 0-1.13016.33487-.3209.33487-.3209.78135 0 1.22782 1.70687 1.24643zM52.03173-23.06128h-.93482v-5.99033h-1.50688q-.14417 1.33944-.37207 2.4789-.22324 1.13947-.5767 1.91617-.35347.77204-.66043 1.10226-.3023.3302-.64647.44648-.33952.11163-.86507.11163v-.87436q.3209 0 .5488-.11163.23255-.11627.4837-.46508.2558-.35347.55345-1.20923.3023-.85576.48834-1.9022.18604-1.0511.33487-2.3115h3.1533zM58.43134-23.06128h-.93482v-4.88808l-3.82768 4.9811h-.2465v-6.9019h.93018v4.8834l3.83233-4.98108h.2465zM63.72405-23.06128v-3.29748h-2.97192v3.29748h-.93017v-6.8089h.93017v2.72078h2.97192v-2.72077h.93482v6.8089zM71.06313-23.06128h-.93482v-4.88808l-3.82767 4.9811h-.2465v-6.9019h.93018v4.8834l3.83234-4.98108h.2465zM76.7558-23.06128h-.92087v-2.9533l-.39998-.009q-.8511 0-1.31154.4046-.46043.40464-.6325 1.36737-.13024.72553-.3814.98133-.25113.2558-.79994.2558-.2093 0-.27905-.0186v-.82785q.09768.0186.1535.0186.15347 0 .2465-.11627.093-.11626.17207-.5209.26975-1.38595 1.3813-1.79988-.89296-.2372-1.21852-.65577-.32556-.41858-.32556-1.0046 0-.90226.6511-1.45572.65113-.55345 1.96268-.55345.67903 0 1.70222.0884zm-.92087-3.70675v-2.3115q-.493-.0605-.99064-.0605-.8046 0-1.13017.33487-.3209.33487-.3209.78135 0 1.22782 1.70686 1.24643z" style="-inkscape-font-specification:'Trebuchet MS';text-align:center"/></g></g><g font-size="9.6439" stroke-width=".26377"><g style="line-height:1.25;-inkscape-font-specification:Tahoma" stroke="#000"><path d="M6.76522 3.80737H3.695v6.04627h-.9512V2.95976H6.7652zM7.42447 6.34548q0-1.50215.74872-2.50515.75342-1.0077 2.02954-1.0077 1.44565 0 2.2038.93707.76283.93707.76283 2.57578 0 1.6858-.76755 2.65584-.76285.97004-2.19908.97004-1.3185 0-2.04838-1.01713-.7299-1.01713-.7299-2.60875zm.9936 0q0 1.19607.46146 1.98717.4662.7864 1.3232.7864.97005 0 1.4739-.72047.50387-.72518.50387-2.0531 0-2.66525-1.97776-2.66525-.85702 0-1.3232.70163-.46148.69692-.46148 1.96362zM15.19422 7.2025v2.65114h-.9418V2.95976q.89-.0518 1.29026-.0518 3.009 0 3.009 2.006 0 2.32622-2.66054 2.32622-.22132 0-.69692-.03767zm0-3.39513V6.3549l.6263.0471q1.75642 0 1.75642-1.37973 0-1.262-1.86945-1.262-.24487 0-.51328.0471zM23.99522 9.85364h-.93237V6.86347l-.40497-.00942q-.86173 0-1.32792.40967-.46618.40968-.6404 1.38443-.13186.7346-.38615.9936-.25427.25898-.80992.25898-.2119 0-.28254-.01884v-.8382q.0989.01884.1554.01884.1554 0 .24957-.11772.0942-.11773.17424-.5274.27312-1.40327 1.39855-1.82236-.90412-.24016-1.23375-.66396-.32962-.4238-.32962-1.01713 0-.91354.65925-1.4739t1.98717-.56036q.6875 0 1.72347.08948zm-.93237-3.75302V3.76028q-.49915-.06122-1.003-.06122-.81465 0-1.14428.33904-.3249.33905-.3249.7911 0 1.24317 1.72817 1.262zM29.74954 9.85364h-.93708V7.07537q-.66867.1554-1.262.1554-1.08776 0-1.6905-.5698-.60275-.57448-.60275-1.62928V2.95975h.95593v1.96362q0 .75343.35788 1.13957.3626.38613 1.0501.38613.58862 0 1.19136-.1554V2.95977h.93708zM35.0989 9.85364l-.4709-1.45506h-2.56637l-.51328 1.45506h-1.0501l2.79712-6.99277h.24957L36.149 9.85364zM33.38483 4.6644L32.3112 7.70165h2.04368zM41.24876 9.85364h-.93237V6.86347l-.40498-.00942q-.86173 0-1.32792.40967-.46618.40968-.6404 1.38443-.13186.7346-.38614.9936-.2543.25898-.80994.25898-.2119 0-.28254-.01884v-.8382q.0989.01884.1554.01884.1554 0 .24957-.11772.09418-.11773.17423-.5274.27312-1.40327 1.39856-1.82236-.90412-.24016-1.23375-.66396-.32963-.4238-.32963-1.01713 0-.91354.65925-1.4739t1.98717-.56036q.6875 0 1.72346.08948zm-.93237-3.75302V3.76028q-.49916-.06122-1.003-.06122-.81466 0-1.14428.33904-.32492.33905-.32492.7911 0 1.24317 1.72818 1.262zM50.62896 9.85364h-.9465v-6.0651h-1.5257q-.14596 1.35616-.3767 2.50985-.22603 1.15368-.5839 1.94008-.3579.78168-.66868 1.116-.30608.33435-.65454.45207-.34375.11302-.87586.11302V9.0343q.3249 0 .55565-.11303.23545-.11772.48973-.4709.259-.35787.56036-1.22432.30608-.86644.49444-1.92595.18836-1.06422.33905-2.34034h3.19266zM57.10846 9.85364h-.9465v-4.9491l-3.87545 5.04328h-.24956V2.95976h.9418v4.94438l3.88015-5.04327h.24956zM62.46723 9.85364V6.515h-3.009v3.33864h-.9418V2.95976h.9418V5.7145h3.009V2.95975h.9465v6.89388zM69.89794 9.85364h-.9465v-4.9491l-3.87546 5.04328h-.24957V2.95976h.9418v4.94438l3.88016-5.04327h.24957zM75.66167 9.85364h-.93237V6.86347l-.40497-.00942q-.86173 0-1.32792.40967-.46617.40968-.6404 1.38443-.13185.7346-.38613.9936-.2543.25898-.80994.25898-.2119 0-.28254-.01884v-.8382q.09888.01884.1554.01884.15538 0 .24956-.11772.09418-.11773.17423-.5274.2731-1.40327 1.39855-1.82236-.90412-.24016-1.23374-.66396-.32962-.4238-.32962-1.01713 0-.91354.65925-1.4739t1.98717-.56036q.6875 0 1.72347.08948zm-.93237-3.75302V3.76028q-.49914-.06122-1.003-.06122-.81465 0-1.14427.33904-.32492.33905-.32492.7911 0 1.24317 1.7282 1.262z" style="-inkscape-font-specification:'Trebuchet MS'" transform="matrix(1.0085 0 0 .98785 .293 .756)"/></g><g style="line-height:1.25;-inkscape-font-specification:Tahoma" fill="#fff" stroke="#fffffe"><path d="M6.4852 3.62344H3.41497V9.6697h-.9512V2.77584H6.4852zM7.14445 6.16156q0-1.50215.74872-2.50516.75343-1.0077 2.02956-1.0077 1.44564 0 2.20378.93707.76286.93708.76286 2.5758 0 1.6858-.76756 2.65583-.76285.97004-2.19907.97004-1.3185 0-2.0484-1.01713-.72988-1.01712-.72988-2.60874zm.9936 0q0 1.19607.46146 1.98717.4662.7864 1.32323.7864.97004 0 1.4739-.72048.50385-.72517.50385-2.0531 0-2.66525-1.97775-2.66525-.85703 0-1.32322.70163-.46146.69692-.46146 1.96363zM14.9142 7.01858V9.6697h-.9418V2.77584q.89-.0518 1.29026-.0518 3.009 0 3.009 2.006 0 2.32623-2.66054 2.32623-.22132 0-.69692-.03768zm0-3.39514v2.54753l.6263.0471q1.75642 0 1.75642-1.37972 0-1.262-1.86945-1.262-.24486 0-.51327.0471zM23.7152 9.6697h-.93237V6.67955l-.40497-.00942q-.86173 0-1.32792.40968-.46618.40968-.6404 1.38443-.13186.7346-.38614.99358-.2543.259-.80994.259-.2119 0-.28254-.01883v-.8382q.0989.01884.1554.01884.1554 0 .24957-.1177.09417-.11773.17422-.5274.27312-1.40327 1.39856-1.82237-.90412-.24016-1.23375-.66396-.32962-.4238-.32962-1.01713 0-.91353.65926-1.4739.65925-.56036 1.98717-.56036.6875 0 1.72347.08947zm-.93237-3.753V3.57634q-.49915-.06122-1.003-.06122-.81465 0-1.14427.33905-.32492.33904-.32492.7911 0 1.24316 1.72818 1.262zM29.46952 9.6697h-.93708V6.89145q-.66866.1554-1.262.1554-1.08776 0-1.6905-.56978-.60274-.5745-.60274-1.6293V2.77583h.9559v1.96363q0 .75343.3579 1.13956.36258.38613 1.05008.38613.58862 0 1.19137-.1554V2.77584h.93707zM34.81887 9.6697l-.4709-1.45505h-2.56636l-.51326 1.45506h-1.0501l2.7971-6.99276h.2496l2.60403 6.99277zm-1.71405-5.18923L32.0312 7.51773h2.04366zM40.96874 9.6697h-.93236V6.67955l-.40497-.00942q-.86173 0-1.3279.40968-.4662.40968-.64043 1.38443-.13185.7346-.38613.99358-.2543.259-.80994.259-.2119 0-.28254-.01883v-.8382q.0989.01884.1554.01884.1554 0 .24957-.1177.09418-.11773.17423-.5274.27312-1.40327 1.39856-1.82237-.90412-.24016-1.23374-.66396-.32963-.4238-.32963-1.01713 0-.91353.65925-1.4739.65925-.56036 1.98717-.56036.6875 0 1.72347.08947zm-.93236-3.753V3.57634q-.49915-.06122-1.003-.06122-.81465 0-1.14428.33905-.32492.33904-.32492.7911 0 1.24316 1.72818 1.262zM50.34895 9.6697h-.9465V3.6046h-1.5257q-.14597 1.35618-.3767 2.50987-.22604 1.1537-.58392 1.94008-.35788.78168-.66867 1.11602-.30608.33433-.65454.45206-.34375.113-.87586.113v-.88527q.32492 0 .55565-.113.23546-.11774.48974-.4709.259-.3579.56037-1.22433.3061-.86645.49444-1.92596.18836-1.06422.33905-2.34034h3.19265zM56.82845 9.6697h-.9465V4.72063L52.0065 9.7639h-.24958V2.77582h.9418V7.7202l3.88015-5.04326h.24958zM62.18722 9.6697V6.3311H59.1782V9.6697h-.94178V2.77584h.9418v2.75473h3.009V2.77583h.9465V9.6697zM69.61792 9.6697h-.9465V4.72063L64.79597 9.7639h-.24958V2.77582h.94178V7.7202l3.88016-5.04326h.24958zM75.38165 9.6697h-.93236V6.67955l-.40498-.00942q-.86174 0-1.32792.40968-.4662.40968-.64042 1.38443-.13185.7346-.38613.99358-.25428.259-.80994.259-.2119 0-.28253-.01883v-.8382q.0989.01884.1554.01884.1554 0 .24957-.1177.09418-.11773.17423-.5274.27312-1.40327 1.39856-1.82237-.90412-.24016-1.23374-.66396-.32964-.4238-.32964-1.01713 0-.91353.65925-1.4739.65926-.56036 1.98718-.56036.6875 0 1.72348.08947zm-.93236-3.753V3.57634q-.49916-.06122-1.00302-.06122-.81464 0-1.14427.33905-.3249.33904-.3249.7911 0 1.24316 1.72817 1.262z" style="-inkscape-font-specification:'Trebuchet MS'" transform="matrix(1.0085 0 0 .98785 .293 .756)"/></g></g></g><g style="line-height:1.25;-inkscape-font-specification:Tahoma" font-size="3.175" font-family="Trebuchet MS" letter-spacing="0" word-spacing="0" stroke-width=".26458"><path d="M12.04268-15.95137h-.28215v-.65112H10.2459v.65113h-.28216v-.91157h.13333q.2186-.28835.3612-.58446.14264-.29766.2279-.59376.08683-.2961.20155-.83096h.91312v2.00918h.24184zm-.5395-.91157v-1.74873h-.40307q-.20618 1.08986-.68212 1.74873zM14.0162-16.6025h-.3116v-1.99677h-.5023q-.04806.4465-.12402.8263-.0744.37983-.19224.63873-.11782.25735-.22014.36742-.10077.11007-.2155.14883-.11316.0372-.28834.0372v-.29144q.10697 0 .18293-.0372.0775-.0387.16122-.15503.08527-.11782.1845-.40307.10076-.28526.16277-.63407.062-.35038.1116-.7705h1.0511zM15.91377-16.6025h-.30696v-.98443l-.13332-.003q-.2837 0-.43718.13488-.15348.13487-.21084.4558-.0434.24183-.12712.3271-.0837.0853-.26665.0853-.06977 0-.09303-.006v-.27595q.03256.006.05116.006.05116 0 .08217-.0388.031-.0387.05736-.17363.08992-.462.46043-.59996-.29766-.0791-.40618-.21858-.10852-.13953-.10852-.33487 0-.30075.21704-.48524.21704-.18447.65422-.18447.22634 0 .5674.0294zm-.30696-1.23557v-.7705q-.16432-.0202-.3302-.0202-.2682 0-.37673.11162-.10697.11162-.10697.26045 0 .40928.56896.41548zM18.88413-16.6025h-.3116v-1.99057h-.9302v1.99058h-.31005v-2.26962h1.55185zM19.65772-17.4753v.8728h-.31006v-2.26962q.293-.017.42478-.017.99064 0 .99064.66042 0 .76585-.8759.76585-.07287 0-.22946-.0124zm0-1.11777v.8387l.2062.0155q.57825 0 .57825-.45423 0-.41548-.61547-.41548-.0806 0-.16898.0155zM22.79086-16.6025h-.3116v-1.62935l-1.2759 1.66037h-.08216v-2.30064h.31006v1.6278l1.27744-1.66035h.08216zM23.56446-18.59307v.62787h.75034v.26355h-.75034v.8201h1.0294v.27906H23.2544v-2.26962h1.35496v.27905zM26.73326-16.6025l-.27285-1.46657-.5023 1.4976h-.07905l-.49454-1.4976-.26664 1.46658h-.2961l.44183-2.26962H25.4l.5271 1.65416.524-1.65416h.13334l.44493 2.26963zM28.63547-16.6025l-.15503-.47903h-.8449l-.169.47904h-.3457l.92087-2.30217h.08218l.8573 2.30218zm-.5643-1.7084l-.35347.99993h.67282zM30.0726-17.75746q0-.49454.2465-.82475.24803-.33178.66816-.33178.47594 0 .72554.3085.25115.30852.25115.84802 0 .555-.2527.87437-.25115.31937-.724.31937-.43407 0-.67436-.33487-.2403-.33486-.2403-.85886zm.3271 0q0 .39378.15193.65423.15348.2589.43563.2589.31936 0 .48525-.2372.1659-.23875.1659-.67593 0-.87746-.65114-.87746-.28215 0-.43563.231-.15193.22943-.15193.64646zM32.63057-17.9745q.17364-.0155.2961-.0155.40154 0 .61858.17673.2186.17674.2186.5085 0 .3302-.2217.51625-.22014.18603-.58446.18603h-.63718v-2.26962h1.2852v.26975h-.97515zm0 1.10846q.2124.0155.26045.0155.5457 0 .5457-.46353 0-.42478-.5302-.42478-.13797 0-.27595.0155zM34.43512-17.4753v.8728h-.31006v-2.26962q.293-.017.42478-.017.99063 0 .99063.66042 0 .76585-.8759.76585-.07287 0-.22945-.0124zm0-1.11777v.8387l.20618.0155q.57826 0 .57826-.45423 0-.41548-.61546-.41548-.0806 0-.16898.0155zM37.1931-16.6025l-.15504-.47903h-.8449l-.169.47904h-.3457l.92086-2.30217h.08217l.8573 2.30218zm-.56432-1.7084l-.35347.99993h.67284zM40.4022-15.95137h-.27906v-.65112h-2.3394v-2.26962h.29766v2.00608h.7395v-2.00608h.2992v2.00608h.7395v-2.00608h.29765v2.00608h.24494zM41.01456-18.59307v.62787h.75034v.26355h-.75034v.8201h1.0294v.27906H40.7045v-2.26962h1.35496v.27905zM43.72912-16.6025v-1.09915h-.99064v1.09916h-.31005v-2.26962h.31005v.90692h.99064v-.90692h.3116v2.26963zM46.17548-16.6025h-.3116v-1.62935l-1.2759 1.66037h-.08217v-2.30064h.31007v1.6278l1.27744-1.66035h.08218zM48.3087-16.6025h-.31162v-1.62935l-1.2759 1.66037h-.08216v-2.30064h.31006v1.6278l1.27744-1.66035h.08217zm-.22016-2.92694q-.10387.47594-.555.47594-.45114 0-.555-.47594l.26354-.0605q.05736.3178.29146.3178.262 0 .3054-.3147zM51.05116-18.59307h-1.0108v1.99058h-.31316v-2.26962h1.32396zM51.68678-17.4753v.8728h-.31006v-2.26962q.293-.017.42478-.017.99064 0 .99064.66042 0 .76585-.87592.76585-.07286 0-.22944-.0124zm0-1.11777v.8387l.2062.0155q.57824 0 .57824-.45423 0-.41548-.61546-.41548-.08062 0-.16898.0155zM54.44475-16.6025l-.15503-.47903h-.8449l-.169.47904h-.3457l.92086-2.30217h.08217l.85732 2.30218zm-.5643-1.7084l-.35348.99993h.67283zM57.50193-16.5932q-.0248.006-.10542.006-.18913 0-.27595-.0992-.08682-.10075-.12712-.3488-.0558-.34727-.2031-.493-.14572-.14727-.40927-.14727v1.0728h-.3054v-1.0728q-.2775 0-.42944.14883-.15037.14727-.20463.49144-.03877.2403-.12714.34416-.08682.10387-.26665.10387-.08526 0-.1085-.006v-.27595q.03565.006.06665.006.06976 0 .10232-.0667.03256-.0667.0496-.17518.04652-.27286.17054-.4372.1256-.16587.34108-.25424-.40618-.1054-.48834-.60306-.01705-.10232-.04496-.15813-.02635-.0574-.10077-.0574-.0558 0-.0682.003v-.26665q.05116-.008.10542-.008.18448 0 .27285.10387.08992.1023.12712.32865.04495.2744.18758.39998.14417.12402.41548.12402v-.94258h.3054v.94258q.262 0 .40618-.12712.14418-.12868.1876-.39688.0372-.2279.124-.3302.08683-.10233.26976-.10233.05426 0 .10387.008v.26665q-.0124-.003-.06976-.003-.0496 0-.0837.0388-.03256.0387-.0589.17673-.04187.22324-.17054.38137-.12868.15658-.324.2155.22478.093.35035.25734.12714.1628.17365.4403.0155.10387.04496.17363.031.0682.10078.0682.031 0 .06666-.006zM59.7607-15.95137h-.28215v-.65112H57.9639v.65113h-.28214v-.91157h.13332q.2186-.28835.36122-.58446.14263-.29766.2279-.59376.08682-.2961.20153-.83096h.91313v2.00918h.24184zm-.5395-.91157v-1.74873h-.40308q-.2062 1.08986-.68213 1.74873zM61.35905-16.6025l-.15503-.47903h-.8449l-.169.47904h-.3457l.92087-2.30217h.08215l.8573 2.30218zm-.5643-1.7084l-.35347.99993h.67283zM63.2504-16.6025v-1.09915h-.99063v1.09916h-.31006v-2.26962h.31007v.90692h.99064v-.90692h.31162v2.26963z" style="-inkscape-font-specification:'Trebuchet MS';text-align:start"/></g><g style="line-height:1.25;-inkscape-font-specification:Tahoma" font-size="3.175" font-family="Trebuchet MS" letter-spacing="0" word-spacing="0" stroke-width=".26458" fill="#fff"><path d="M11.9161-16.04902h-.28217v-.65113H10.1193v.65113h-.28216v-.91158h.13333q.2186-.28835.36122-.58446.1426-.29765.22788-.59376.08682-.2961.20154-.83096h.91312v2.00918h.24185zm-.5395-.91158v-1.74873h-.4031q-.20618 1.08986-.68212 1.74873zM13.8896-16.70015h-.3116v-1.99677h-.5023q-.04805.44648-.12402.8263-.0744.37982-.19223.63872-.11783.25735-.22015.36742-.10076.11007-.2155.14883-.11316.0372-.28834.0372v-.29144q.10697 0 .18293-.0372.0775-.03876.16122-.15503.08527-.11783.1845-.40308.10076-.28526.16277-.63408.062-.35037.1116-.7705h1.0511zM15.78717-16.70015h-.30696v-.98443l-.13332-.0031q-.2837 0-.43718.13487t-.21084.45578q-.0434.24184-.12712.3271-.08372.08528-.26665.08528-.06977 0-.09303-.0062v-.27595q.03256.0062.05116.0062.05116 0 .08217-.03875.031-.03876.05736-.17363.08992-.462.46043-.59997-.29766-.07906-.40618-.2186-.10852-.13952-.10852-.33485 0-.30076.21704-.48524.21704-.1845.65422-.1845.22635 0 .5674.02947zm-.30696-1.23558v-.7705q-.16432-.02015-.3302-.02015-.2682 0-.37672.11163-.10697.11162-.10697.26044 0 .40927.56896.41547zM18.75753-16.70015h-.3116v-1.99057h-.93018v1.99057h-.31006v-2.26963h1.55183zM19.53113-17.57296v.8728h-.31006v-2.26962q.293-.01705.42478-.01705.99063 0 .99063.66043 0 .76584-.8759.76584-.07287 0-.22945-.0124zm0-1.11776v.8387l.20618.0155q.57827 0 .57827-.45423 0-.41548-.61546-.41548-.0806 0-.16897.0155zM22.66427-16.70015h-.3116v-1.62935l-1.2759 1.66036h-.08216v-2.30064h.31007v1.6278l1.27744-1.66035h.08217zM23.43786-18.69072v.62787h.75035v.26355h-.75034v.8201h1.0294v.27905H23.1278v-2.26963h1.35496v.27906zM26.60666-16.70015l-.27285-1.46657-.50228 1.49758h-.07906l-.49455-1.49758-.26664 1.46657h-.2961l.44183-2.26963h.13642l.5271 1.65417.524-1.65418h.13332l.44493 2.26963zM28.50887-16.70015l-.15503-.47904h-.8449l-.169.47905h-.3457l.92087-2.30218h.08218l.8573 2.30218zm-.5643-1.70842l-.35347.99994h.67283zM29.946-17.85512q0-.49454.2465-.82475.24804-.33176.66817-.33176.47594 0 .72553.3085.25115.3085.25115.848 0 .55502-.2527.87438-.25114.31936-.72398.31936-.43408 0-.67438-.33485-.2403-.33487-.2403-.85887zm.3271 0q0 .39378.15193.65423.15348.2589.43564.2589.31936 0 .48524-.2372.1659-.23873.1659-.67592 0-.87746-.65113-.87746-.28216 0-.43564.231-.15192.22944-.15192.64646zM32.50398-18.07216q.17363-.0155.2961-.0155.40153 0 .61857.17674.2186.17673.2186.5085 0 .3302-.2217.51624-.22014.18604-.58446.18604h-.63718v-2.26963h1.2852v.26975h-.97514zm0 1.10846q.2124.0155.26045.0155.5457 0 .5457-.46353 0-.42478-.5302-.42478-.13798 0-.27595.0155zM34.30852-17.57296v.8728h-.31006v-2.26962q.293-.01705.42478-.01705.99064 0 .99064.66043 0 .76584-.87592.76584-.07286 0-.22944-.0124zm0-1.11776v.8387l.2062.0155q.57825 0 .57825-.45423 0-.41548-.61547-.41548-.08062 0-.16898.0155zM37.0665-16.70015l-.15504-.47904h-.8449l-.169.47905h-.3457l.92087-2.30218h.08217l.8573 2.30218zm-.56432-1.70842l-.35346.99994h.67282zM40.2756-16.04902h-.27906v-.65113h-2.3394v-2.26963h.29767v2.00608h.7395v-2.00608h.2992v2.00608h.7395v-2.00608h.29765v2.00608h.24495zM40.88796-18.69072v.62787h.75034v.26355h-.75034v.8201h1.0294v.27905H40.5779v-2.26963h1.35496v.27906zM43.60252-16.70015v-1.09915h-.99063v1.09915h-.31007v-2.26963h.31006v.90693h.99063v-.90693h.3116v2.26963zM46.0489-16.70015h-.31162v-1.62935l-1.2759 1.66036h-.08216v-2.30064h.31006v1.6278l1.27744-1.66035h.08217zM48.1821-16.70015h-.31162v-1.62935l-1.2759 1.66036h-.08216v-2.30064h.31006v1.6278l1.27744-1.66035h.08217zm-.22015-2.92695q-.10387.47594-.555.47594-.45114 0-.555-.47594l.26354-.06046q.05735.3178.29144.3178.262 0 .3054-.3147zM50.92456-18.69072h-1.0108v1.99057h-.31315v-2.26963h1.32396zM51.56018-17.57296v.8728h-.31006v-2.26962q.293-.01705.42478-.01705.99064 0 .99064.66043 0 .76584-.87592.76584-.07286 0-.22944-.0124zm0-1.11776v.8387l.2062.0155q.57825 0 .57825-.45423 0-.41548-.61547-.41548-.0806 0-.16898.0155zM54.31815-16.70015l-.15503-.47904h-.8449l-.169.47905h-.3457l.92087-2.30218h.08216l.8573 2.30218zm-.5643-1.70842l-.35348.99994h.67283zM57.37533-16.69084q-.0248.0062-.10542.0062-.18913 0-.27594-.09922-.08682-.10077-.12713-.34882-.0558-.34727-.2031-.493-.1457-.14727-.40926-.14727v1.0728h-.3054v-1.0728q-.2775 0-.42944.14883-.15038.14727-.20464.49144-.03877.2403-.12714.34416-.08682.10387-.26665.10387-.08526 0-.1085-.0062v-.27595q.03565.0062.06665.0062.06976 0 .10232-.06666.03256-.06666.0496-.17518.04652-.27285.17055-.43718.12557-.1659.34106-.25425-.40618-.10542-.48834-.60307-.01705-.10232-.04496-.15813-.02635-.05736-.10077-.05736-.0558 0-.0682.0031v-.26665q.05116-.0078.10542-.0078.18448 0 .27285.10387.08992.1023.12713.32866.04496.2744.18758.39997.14418.12402.41548.12402v-.94257h.3054v.94257q.262 0 .40618-.12712.14418-.12867.1876-.39687.0372-.2279.124-.33022.08683-.10232.26976-.10232.05426 0 .10387.0078v.26665q-.0124-.0031-.06976-.0031-.0496 0-.0837.03876-.03256.03876-.0589.17674-.04187.22324-.17054.38137-.12867.15658-.324.2155.22478.093.35036.25734.12712.16278.17363.44028.0155.10387.04496.17363.03102.0682.10078.0682.031 0 .06666-.0062zM59.6341-16.04902h-.28215v-.65113H57.8373v.65113h-.28214v-.91158h.13333q.21858-.28835.3612-.58446.14263-.29765.2279-.59376.08682-.2961.20154-.83096h.91312v2.00918h.24184zm-.5395-.91158v-1.74873h-.40307q-.2062 1.08986-.68213 1.74873zM61.23246-16.70015l-.15504-.47904h-.8449l-.169.47905h-.3457l.92087-2.30218h.08215l.8573 2.30218zm-.5643-1.70842l-.35348.99994h.67283zM63.1238-16.70015v-1.09915h-.99063v1.09915h-.31006l.00002-2.26963h.31005v.90693h.99064v-.90693h.31162v2.26963z" style="-inkscape-font-specification:'Trebuchet MS';text-align:start"/></g><text style="line-height:1.25;-inkscape-font-specification:Tahoma" x="30.73599" y="25.99095" font-size="10.58333" font-family="Tahoma" letter-spacing="0" word-spacing="0" stroke-width=".26458"><tspan x="30.73599" y="25.99095"></tspan></text><g font-size="4.35999" font-family="Trebuchet MS" letter-spacing="0" word-spacing="0" stroke-width=".13199"><g style="line-height:1.25;-inkscape-font-specification:'Trebuchet MS'" stroke="#000"><path d="M5.5539 17.22423h-.38746v-.89413H3.0865v.89413h-.38746v-1.2518h.18308q.30018-.39597.49604-.8026.19586-.40874.31295-.81536.11923-.40662.27677-1.1411H5.2218v2.75907h.3321zm-.74086-1.2518v-2.4014h-.55352q-.28314 1.49663-.9367 2.4014zM8.264 16.3301h-.42792v-2.74203h-.68976q-.066.61312-.17032 1.1347-.10218.5216-.26398.8771-.1618.3534-.3023.50456-.13838.15115-.29592.20438-.1554.0511-.39598.0511v-.40023q.1469 0 .2512-.0511.10646-.0532.22142-.21288.1171-.1618.25334-.55353.13838-.39172.22353-.87072.08517-.48113.1533-1.05806H8.264zM10.86976 16.3301h-.42152v-1.35186l-.18308-.0043q-.3896 0-.60035.18522-.21075.1852-.28952.6259-.0596.3321-.17457.4492-.11495.11708-.36617.11708-.0958 0-.12773-.0085v-.37894q.0447.0085.07025.0085.07026 0 .11284-.05322.04256-.05322.07876-.23844.12347-.63437.63228-.82385-.40875-.10858-.55777-.30018-.14903-.1916-.14903-.45984 0-.413.29805-.66635.29804-.25334.8984-.25334.3108 0 .77916.04044zm-.42152-1.69674V13.5753q-.22566-.02768-.45345-.02768-.3683 0-.51734.15328-.1469.15328-.1469.35765 0 .56203.78132.57055zM14.94874 16.3301h-.4279v-2.73352h-1.27735v2.73352h-.4258v-3.11672h2.13104zM16.01106 15.13152v1.19857h-.42578v-3.11672q.40237-.02342.58332-.02342 1.36037 0 1.36037.90692 0 1.05167-1.20283 1.05167-.10006 0-.31507-.01703zm0-1.53494v1.15174l.28315.0213q.7941 0 .7941-.62378 0-.57054-.8452-.57054-.1107 0-.23203.0213zM20.31358 16.3301h-.4279v-2.23748l-1.7521 2.28005h-.11283v-3.1593h.42578v2.23536l1.7542-2.28005h.11285zM21.3759 13.59658v.8622h1.0304v.36192h-1.0304v1.1262h1.4136v.3832H20.9501v-3.11672h1.86066v.3832zM25.72737 16.3301l-.37468-2.01395-.68978 2.05652h-.10857l-.67912-2.05652-.36617 2.01395h-.40662l.60673-3.11672h.18735l.72382 2.27154.71957-2.27154h.1831l.611 3.11672zM28.33954 16.3301l-.2129-.65784H26.9664l-.23206.65783h-.47474l1.26457-3.16142h.11283l1.17728 3.1614zm-.77492-2.34606l-.4854 1.37315h.92395zM30.31303 14.74406q0-.67912.3385-1.13257.34062-.4556.91755-.4556.65357 0 .99633.42365.3449.42366.3449 1.1645 0 .76216-.34702 1.2007-.34488.43857-.9942.43857-.5961 0-.92607-.45984-.32997-.45985-.32997-1.17942zm.4492 0q0 .54074.20863.8984.21076.35553.59822.35553.43855 0 .66635-.32573.2278-.32786.2278-.9282 0-1.20497-.89415-1.20497-.38746 0-.59822.3172-.20863.3151-.20863.88776zM33.82572 14.44602q.23843-.0213.40662-.0213.55138 0 .84943.2427.30018.2427.30018.69828 0 .45346-.30444.70893-.3023.25546-.80258.25546h-.87498v-3.11672h1.76486v.37043h-1.33908zm0 1.52216q.29166.0213.35765.0213.74938 0 .74938-.63655 0-.58332-.7281-.58332-.18946 0-.37893.0213zM36.30376 15.13152v1.19857h-.42578v-3.11672q.40236-.02342.58332-.02342 1.36037 0 1.36037.90692 0 1.05167-1.20283 1.05167-.10006 0-.31508-.01703zm0-1.53494v1.15174l.28314.0213q.79408 0 .79408-.62378 0-.57054-.84517-.57054-.1107 0-.23204.0213zM40.09108 16.3301l-.2129-.65784h-1.16024l-.23205.65783h-.47476l1.26457-3.16142h.11284l1.17728 3.1614zm-.77492-2.34606l-.4854 1.37315h.92395zM44.4979 17.22423h-.3832v-.89413h-3.2125v-3.11672h.40874v2.7548h1.0155v-2.7548h.41086v2.7548h1.0155v-2.7548h.40874v2.7548h.33637zM45.33882 13.59658v.8622h1.0304v.36192h-1.0304v1.1262h1.4136v.3832h-1.83938v-3.11672h1.86066v.3832zM49.06653 16.3301v-1.5094h-1.36037v1.5094h-.42578v-3.11672h.42578v1.2454h1.36037v-1.2454h.4279v3.1167zM52.42594 16.3301h-.4279v-2.23748l-1.7521 2.28005h-.11283v-3.1593h.4258v2.23536l1.7542-2.28005h.11284zM55.3553 16.3301h-.4279v-2.23748l-1.7521 2.28005h-.11283v-3.1593h.4258v2.23536l1.7542-2.28005h.11283zm-.3023-4.01937q-.14264.65357-.76215.65357-.6195 0-.76214-.65357l.36192-.08303q.07877.43642.40023.43642.3598 0 .4194-.43216zM59.12133 13.59658H57.7333v2.7335h-.43005v-3.1167h1.81808zM59.99418 15.13152v1.19857h-.42578v-3.11672q.40237-.02342.58332-.02342 1.36037 0 1.36037.90692 0 1.05167-1.20284 1.05167-.10006 0-.31508-.01703zm0-1.53494v1.15174l.28315.0213q.79408 0 .79408-.62378 0-.57054-.84517-.57054-.1107 0-.23205.0213zM63.7815 16.3301l-.2129-.65784h-1.16024l-.23205.65783h-.47474l1.26457-3.16142h.11283l1.17728 3.1614zm-.77492-2.34606l-.4854 1.37315h.92395zM67.9797 16.34287q-.03406.0085-.14477.0085-.25973 0-.37894-.13625-.11923-.13838-.1746-.479-.07663-.47688-.27887-.677-.20012-.20224-.56203-.20224v1.4732h-.4194v-1.4732q-.38107 0-.5897.20438-.2065.20224-.28102.67486-.05322.32998-.17457.4726-.1192.14265-.36616.14265-.1171 0-.14902-.0085v-.37895q.04897.0085.09154.0085.0958 0 .1405-.09154.04472-.09154.06813-.24056.06386-.3747.23417-.60035.17244-.2278.46835-.34914-.55777-.14477-.6706-.82815-.02342-.1405-.06174-.21714-.0362-.07877-.13838-.07877-.07664 0-.09367.0043v-.36617q.07025-.01065.14477-.01065.25333 0 .37468.14263.12348.1405.17457.45133.06174.37683.2576.54927.198.1703.57055.1703v-1.29436h.4194v1.29438q.35977 0 .55776-.17457.198-.1767.2576-.545.0511-.31294.1703-.45345.11923-.1405.37044-.1405.0745 0 .14264.01065v.36617q-.01703-.0043-.0958-.0043-.06813 0-.11496.05322-.0447.0532-.0809.24268-.05748.30656-.23418.5237-.1767.21503-.44494.29593.3087.12774.48113.3534.17456.22354.23842.6046.0213.14265.06174.23845.04258.09367.13838.09367.04258 0 .09154-.0085zM71.0815 17.22423h-.38745v-.89413H68.6141v.89413h-.38745v-1.2518h.1831q.30016-.39597.49602-.8026.19586-.40874.31295-.81536.11922-.40662.27676-1.1411h1.25392v2.75907h.3321zm-.74085-1.2518v-2.4014h-.5535q-.28316 1.49663-.93673 2.4014zM73.2764 16.3301l-.2129-.65784h-1.16024l-.23205.65783h-.47474l1.26457-3.16142h.11283l1.17728 3.1614zm-.77492-2.34606l-.4854 1.37315h.92395zM75.87366 16.3301v-1.5094H74.5133v1.5094h-.4258v-3.11672h.4258v1.2454h1.36036v-1.2454h.4279v3.1167z" transform="matrix(1.00218 0 0 .99532 .195 .346)"/></g><g style="line-height:1.25;-inkscape-font-specification:'Trebuchet MS'" fill="#fff" stroke="#fff"><path d="M5.3658 17.02437h-.38746v-.89414H2.8984v.89414h-.38745v-1.2518h.18308q.30018-.39597.49604-.8026.19586-.40874.31295-.81536.1192-.4066.27675-1.14108H5.0337v2.75906h.3321zm-.74085-1.2518v-2.4014h-.55352q-.28314 1.49662-.9367 2.4014zM8.0759 16.13023H7.648V13.3882H6.9582q-.066.61313-.1703 1.1347-.1022.5216-.264.87712-.1618.3534-.3023.50455-.13838.15115-.2959.20437-.15542.0511-.396.0511v-.40024q.1469 0 .25122-.0511.10645-.0532.2214-.21288.1171-.1618.25335-.55352.13836-.3917.22352-.87072.08516-.48113.15328-1.05806h1.4434zM10.68167 16.13023h-.42152v-1.35185l-.1831-.0043q-.38957 0-.60034.1852-.21075.18523-.28952.6259-.0596.33212-.17457.4492-.11495.1171-.36616.1171-.0958 0-.12773-.0085v-.37895q.04472.0085.07026.0085.07026 0 .11283-.05322.04257-.0532.07876-.23842.12348-.63438.6323-.82385-.40876-.10857-.5578-.30017-.149-.1916-.149-.45985 0-.413.29804-.66633.29804-.25334.8984-.25334.3108 0 .77917.04045zm-.42152-1.69673v-1.05807q-.22566-.02768-.45346-.02768-.3683 0-.51733.15328-.1469.15328-.1469.35766 0 .56202.7813.57053zM14.76065 16.13023h-.4279v-2.7335H13.0554v2.7335h-.42578v-3.1167h2.13103zM15.82297 14.93166v1.19857h-.42578v-3.1167q.40235-.02343.5833-.02343 1.36038 0 1.36038.9069 0 1.0517-1.20283 1.0517-.10006 0-.31508-.01704zm0-1.53494v1.15174l.28315.0213q.79408 0 .79408-.62378 0-.57055-.84518-.57055-.1107 0-.23205.0213zM20.12548 16.13023h-.4279v-2.23747l-1.7521 2.28005h-.11282v-3.15928h.42578v2.23535l1.7542-2.28006h.11284zM21.1878 13.39672v.8622h1.0304v.36192h-1.0304v1.1262h1.4136v.3832h-1.83938V13.0135h1.86067v.3832zM25.53928 16.13023l-.3747-2.01394-.68975 2.0565h-.10857l-.67912-2.0565-.36617 2.01393h-.40663l.60674-3.1167h.18735l.72382 2.27153.71957-2.27154h.1831l.61098 3.1167zM28.15144 16.13023l-.2129-.65783H26.7783l-.23205.65783h-.47474l1.26457-3.16142h.11284l1.1773 3.16143zm-.77492-2.34605l-.4854 1.37314h.92396zM30.12494 14.5442q0-.67912.3385-1.13258.34062-.45558.91755-.45558.65356 0 .9963.42365.3449.42364.3449 1.1645 0 .76215-.34702 1.2007-.34488.43855-.9942.43855-.5961 0-.92607-.45984-.32996-.45983-.32996-1.1794zm.4492 0q0 .54074.20863.8984.21076.35552.59822.35552.43854 0 .66633-.32572.2278-.32785.2278-.9282 0-1.20496-.89414-1.20496-.38747 0-.59823.3172-.20864.31508-.20864.88776zM33.63762 14.24615q.23844-.0213.40663-.0213.55138 0 .84943.2427.30017.2427.30017.6983 0 .45344-.30443.7089-.3023.25548-.8026.25548h-.87498v-3.1167h1.76486v.37042h-1.33908zm0 1.52217q.29166.0213.35766.0213.74937 0 .74937-.63655 0-.58332-.72808-.58332-.18947 0-.37895.0213zM36.11566 14.93166v1.19857h-.42577v-3.1167q.40235-.02343.5833-.02343 1.36037 0 1.36037.9069 0 1.0517-1.20283 1.0517-.10006 0-.31508-.01704zm0-1.53494v1.15174l.28315.0213q.7941 0 .7941-.62378 0-.57055-.84518-.57055-.1107 0-.23206.0213zM39.903 16.13023l-.2129-.65783h-1.16026l-.23205.65783h-.47475l1.26456-3.16142h.11285l1.17728 3.16143zm-.77494-2.34605l-.48538 1.37314h.92394zM44.3098 17.02437h-.3832v-.89414h-3.2125v-3.1167h.40875v2.7548h1.01548v-2.7548h.41088v2.7548h1.0155v-2.7548h.40875v2.7548h.33636zM45.15073 13.39672v.8622h1.03038v.36192h-1.03037v1.1262h1.4136v.3832h-1.83938V13.0135h1.86066v.3832zM48.87844 16.13023v-1.5094h-1.36037v1.5094h-.42578v-3.1167h.42577v1.2454h1.36037v-1.2454h.4279v3.1167zM52.23784 16.13023h-.4279v-2.23747l-1.7521 2.28005h-.11282v-3.15928h.42578v2.23535l1.7542-2.28006h.11284zM55.1672 16.13023h-.4279v-2.23747l-1.7521 2.28005h-.11282v-3.15928h.42578v2.23535l1.75422-2.28006h.11283zm-.3023-4.01937q-.14263.65358-.76214.65358-.6195 0-.76215-.65358l.36193-.08303q.07877.43643.40023.43643.35978 0 .4194-.43217zM58.93324 13.39672H57.5452v2.7335h-.43004v-3.1167h1.81808zM59.8061 14.93166v1.19857h-.4258v-3.1167q.40237-.02343.58333-.02343 1.36037 0 1.36037.9069 0 1.0517-1.20283 1.0517-.10006 0-.31508-.01704zm0-1.53494v1.15174l.28314.0213q.79408 0 .79408-.62378 0-.57055-.84518-.57055-.1107 0-.23205.0213zM63.5934 16.13023l-.21288-.65783h-1.16025l-.23206.65783h-.47473l1.26457-3.16142h.11283l1.17728 3.16143zm-.7749-2.34605l-.4854 1.37314h.92394zM67.7916 16.143q-.03406.0085-.14476.0085-.25973 0-.37895-.13624-.11923-.13838-.17458-.479-.07664-.47688-.27888-.677-.20012-.20224-.56203-.20224v1.4732h-.4194v-1.4732q-.38106 0-.5897.20437-.2065.20224-.281.67485-.05323.32998-.17458.47262-.11922.14263-.36617.14263-.1171 0-.14902-.0085v-.37894q.04897.0085.09154.0085.0958 0 .1405-.09154.0447-.09154.06813-.24057.06387-.37468.23418-.60035.17244-.2278.46836-.34914-.55777-.14476-.6706-.82814-.02342-.1405-.06174-.21715-.0362-.07877-.13838-.07877-.07664 0-.09367.0043v-.36617q.07025-.01065.14476-.01065.25335 0 .3747.14264.12348.1405.17457.45133.06174.3768.2576.54925.198.1703.57054.1703v-1.29436h.4194v1.29437q.3598 0 .55778-.17456.198-.1767.2576-.545.0511-.31294.1703-.45345.11923-.14052.37044-.14052.0745 0 .14264.01065v.36617q-.01703-.0043-.0958-.0043-.06812 0-.11496.05322-.0447.05322-.0809.2427-.05748.30656-.23418.5237-.1767.21503-.44494.29593.3087.12773.48113.3534.17458.22353.23844.6046.0213.14264.06174.23844.04258.09366.13838.09366.04258 0 .09154-.0085zM70.89342 17.02437h-.38747v-.89414h-2.07993v.89414h-.38746v-1.2518h.18308q.30018-.39597.49604-.8026.19586-.40874.31295-.81536.1192-.4066.27675-1.14108h1.25393v2.75906h.3321zm-.74086-1.2518v-2.4014h-.55352q-.28314 1.49662-.9367 2.4014zM73.0883 16.13023l-.21288-.65783h-1.16026l-.23205.65783h-.47473l1.26457-3.16142h.11283l1.17728 3.16143zm-.7749-2.34605l-.4854 1.37314h.92394zM75.68557 16.13023v-1.5094H74.3252v1.5094h-.42578v-3.1167h.42578v1.2454h1.36037v-1.2454h.4279v3.1167z" transform="matrix(1.00218 0 0 .99532 .195 .346)"/></g></g></svg>