<svg xmlns="http://www.w3.org/2000/svg" version="1" width="65" height="650" viewBox="0 0 65 650"><path d="M40.038762 80H21.659915c-3.028965 0-6.6599153 3.29182-6.6599153 6.86299V99.8492c0 3.57257 3.6309502 6.82228 6.6599154 6.82228h9.189424L36.970251 115v-8.32852h3.068511c3.031895 0 4.254906-3.24971 4.254906-6.82228V86.86299c0-3.57117-1.223011-6.86299-4.254906-6.86299zm-5.702012 21.05643H22.0407328c-.5155685 0-.930074-.79734-.930074-1.40376 0-.60362.4145055-1.40376.930074-1.40376H34.338215c.514104 0 .933003.79874.933003 1.40376-.0015.60642-.420364 1.40376-.934468 1.40376zm5.631708-7.01881H22.0407328c-.5155685 0-.930074-.0969-.930074-.70328 0-.60362.4145055-.70048.930074-.70048H39.968458c.514104 0 .930074.0969.930074.70048 0 .60642-.417435.70328-.930074.70328zm0-5.61505H22.0407328c-.5155685 0-.930074-.80014-.930074-1.40376 0-.60362.4145055-1.40376.930074-1.40376H39.968458c.514104 0 .930074.79874.930074 1.40376 0 .60502-.417435 1.40376-.930074 1.40376z" fill="#99cdff"/><g stroke="#99cdff"><g fill="#fffffc" stroke-width=".6"><path d="M21.832 33h-9.867C10.336 33 9 33.735 9 35.737v7.275C9 45.015 10.336 46 11.965 46h4.933L21 51.5V46h.832C23.46 46 24 45.015 24 43.012v-7.275C24 33.735 23.46 33 21.832 33z" transform="matrix(1.46468 0 0 1.05696 12.944 56.08)"/><path d="M21 53.077L16.64 47h-4.675C10.023 47 9 45.236 9 43.012v-7.275c0-2.2.991-3.737 2.965-3.737h9.867C23.757 32 25 33.466 25 35.737v7.275C25 45.308 23.728 47 21.832 47H21zM11.965 33C10.549 33 10 34.096 10 35.737v7.275c0 1.676.571 2.988 1.965 2.988h5.191L20 49.924V46h1.832C23.157 46 24 44.741 24 43.012v-7.275C24 34.045 23.178 33 21.832 33z" transform="matrix(1.46468 0 0 1.05696 12.944 56.08)"/></g><path d="M59.456425 69.169492h-6.253c-.263 0-.475-.331-.475-.5 0-.17.212-.5.475-.5h6.253c.261 0 .475.33.475.5-.001.169-.215.5-.475.5zM61.042374 71.807204h-9.624c-.277 0-.502-.161-.502-.5 0-.339.225-.5.502-.5h9.624c.277 0 .501.16.501.5 0 .34-.224.5-.501.5zM60.900425 74.235441h-9.624c-.277 0-.502-.162-.502-.5 0-.339.225-.5.502-.5h9.624c.277 0 .501.161.501.5 0 .338-.224.5-.501.5zM60.042374 76.809594h-6.999c-.2 0-.363-.331-.363-.5 0-.169.163-.5.363-.5h6.999c.2 0 .364.331.364.5 0 .169-.163.5-.364.5z" fill="#fc9" transform="matrix(1.46468 0 0 1.05696 -44.487 21.11)"/></g><g fill="#99cdff"><path d="M19.0416383 303.000276c-2.225911 0-4.0388384-2.101316-4.0416383-4.7920083v.0867965-18.196472c.0028-2.6864926 1.8157274-5.0971962 4.0416383-5.0971962h26.9195232c2.225911 0 4.0360386 2.301508 4.0388384 4.9880005V298.2964642v-.0867966c-.0028 2.6892925-1.8129275 4.7920083-4.0388385 4.7920083H19.0416383zm-2.6416943-22.901684v18.1964722c0 1.7835287 1.1619535 3.3052678 2.6416943 3.3052678h26.9195232c1.478341 0 2.6388944-1.521739 2.6388944-3.3052678v-18.196472c0-1.780729-1.1605536-3.6972522-2.6388945-3.6972522H19.0416383c-1.4797408 0-2.6416943 1.9165233-2.6416943 3.697252z"/><path d="M35.99916 280.601172h4.199832v18.199272H35.99916zM24.799608 290.40078h4.199832v8.399664h-4.199832zM30.399384 284.801004h4.199832v13.99944h-4.199832zM24.799608 305.800164h16.799328v1.399944H24.799608zM20.599776 308.600052h25.198992v1.399944H20.599776z"/></g><g fill="#99cdff"><path d="M22.6996563 470.0001646C18.3710495 470.0001646 15 473.46501 15 477.7222198V497.2807466c0 4.25441 3.3710495 7.7192554 7.6996563 7.7192554 4.3314066 0 7.6996562-3.4648453 7.6996562-7.7192554V477.7222198c0-4.25861-3.3682496-7.7220552-7.6996563-7.7220552zm6.2997187 16.7894504H16.3999375v-9.068795c0-3.3304514 2.91327-6.0393305 6.2983188-6.0393305 3.3878488 0 6.3011187 2.710279 6.3011187 6.0393304zM47.990927 491.272215c-2.7858755-3.2324558-7.6674576-3.9044258-11.265297-1.4293363-3.604839 2.4750895-4.637993 7.215278-2.504488 10.8957136zM35.1269014 502.0153353c2.7858757 3.2352555 7.6674577 3.9044256 11.270897 1.429336 3.600639-2.4750894 4.632393-7.212478 2.5016882-10.8957134z"/><g><path d="M42.2413838 471.1677124c1.7821205 0 3.4564457.8553618 4.4756002 2.2888978.785365 1.1073506 1.1157502 2.444291.937958 3.7784314-.131594.981356-.536176 1.8969153-1.1535484 2.6542815l-6.004332-8.440223c.562775-.1889917 1.1507487-.2813876 1.7443222-.2813876zm0-.918359c-1.075152 0-2.1629034.2645882-3.1498594.8175635l7.2894746 10.2503423c2.487689-2.0705076 3.0070658-5.7033454 1.098951-8.3856256-1.2389447-1.749922-3.224056-2.6822803-5.2385662-2.6822803zM37.9869738 473.173823l6.004332 8.440223c-.5571752.1861918-1.147949.2813875-1.7415224.2813875-1.7821204 0-3.4564456-.8553618-4.4756-2.2916977-.785365-1.1045507-1.1157503-2.444291-.9351584-3.7756314.1301942-.9771564.5277764-1.8969153 1.1479488-2.6542815zm.1231945-1.4321362c-2.487689 2.0747074-3.0070658 5.708945-1.098951 8.3912254 1.2417446 1.747122 3.224056 2.6822802 5.238566 2.6822802 1.077952 0 2.1629036-.267388 3.1498595-.8203633z"/></g></g><g fill="#99cdff"><path d="M18.9382 563C16.7136 563 15 560.7754 15 558.0874v-18.2028C15 537.1994 16.7136 535 18.9382 535h26.9206c2.226 0 4.1412 2.1994 4.1412 4.8846v18.2028c0 2.688-1.9152 4.9126-4.1412 4.9126zM16.4 539.8846v18.2028c0 1.7808 1.0598 3.5126 2.5382 3.5126h26.9206c1.4784 0 2.7412-1.7318 2.7412-3.5126v-18.2028c0-1.7794-1.2628-3.4846-2.7412-3.4846H18.9382c-1.4784 0-2.5382 1.7052-2.5382 3.4846zM24.8 565.8h16.8v1.4H24.8zM20.6 568.6h25.2v1.4H20.6z"/><path d="M37.8382 544.184c.4298-.0518.7882-.1036.994-.1498.469-.0406 1.7752-.2072 3.556-2.1168 0 0-.0126-1.0794-.4984-.8064-.1106.1092-.3836.3724-.847.665-.0056-.0056-.0084-.0112-.0154-.014l-4.0502-3.1934c-.056-.3584-.105-.6426-.133-.8008-.1554-.8204-1.4294-.21-1.4294-.21-.3066.252.2898 3.5924.3752 3.9158.1274.4592.238.924.343 1.3832-1.3524-.0112-3.8542.1176-5.6126 1.6548-.1036.1722-1.6072 1.3538-1.7206 5.0918 0 .1428.1008 1.0416.2758 2.198-3.7548.6146-5.0036 3.5574-5.1324 4.0474-.8008 1.7696-.6132 3.9452-.6132 3.9452s.8638.3472.8148-.1288c-.0378-.5796-.0084-1.1158.0658-1.6002l1.7584 1.414c-.5572-.0742-1.113-.1428-1.1592-.1036-.1344.049.0056 1.0248.0056 1.0248s1.7878.2898 2.2008.315c.252.1288 2.5382-.175 3.1556-.2814.2604-.1428 1.8018-.5222 1.0542-3.9788-.1414-.5796-.4494-2.0342-.6986-3.6806.0252-.0056.0546-.0056.0742-.014 4.7502.5474 5.7386-.6286 5.8954-.7322 2.2498-1.148 1.7388-5.5048 1.4364-7.2436-.0238-.1526-.0588-.3584-.0952-.6006zm-1.3776 5.5146l-5.0694-4.137c.3416-.3094.7938-.5936 1.3692-.7924l4.0544 3.1962c.0154.5502-.007.9436-.0644 1.099-.063.2632-.1428.4928-.2394.7-.0154-.0224-.0308-.049-.0504-.0658zm3.619-7.4354c-.6328.2632-1.4406.4844-2.4514.5656-.1358-.8946-.2926-1.9278-.4326-2.835zm-3.3502 4.3778l-2.6768-2.114c.6132-.0546 1.5022-.126 2.366-.2044.1442.8344.2478 1.6268.3108 2.3184zm-9.891 7.3948l3.486 3.1094c.1526.4536.2408.973-.0294 1.5974-.0196-.0224-.028-.0462-.049-.063l-4.5444-3.85c.364-.3332.735-.6076 1.1046-.8456.0126.0182.0182.0406.0322.0518zm-1.7556 1.547l4.4436 3.773c-.4844.1722-1.1326.2702-1.7906.2758l-3.2788-2.6334c.1806-.5754.4102-1.0458.6258-1.4154zm4.6816-.2492l-2.0566-1.8298c.5684-.2548 1.1046-.4186 1.5638-.5222.14.791.3038 1.617.4928 2.352zm.6118-3.6358c-.1064-.8666-.189-1.7444-.21-2.5396l3.0856 2.3464c-.903.0616-2.03.1358-2.8756.1932zm4.2518-.3556c-.0224-.035-.0462-.0714-.0798-.098l-4.3596-3.311c.0084-.1148.0168-.2296.028-.3304.0518-.2044.1778-.7294.539-1.2908l5.2136 4.2518c-.4648.4774-.9968.6818-1.3412.7784z"/></g><g transform="matrix(1.4 0 0 1.4 15 95.2)" fill="#99cdff"><ellipse cx="12.285" cy="84.129997" rx="2.24" ry="2.109"/><path d="M15.58 88h-.9l-1.492 3.801-.52-4.251-.594-.062-.23 4.347L10.295 88h-.879c-1.171 0-2.126.662-2.123 1.839l.986 6.526c0 .689.344 1.083.873 1.462l1.07 9.173H12v-8.966l1-.018V107h1.846l1.076-9.296c.486-.379.797-.883.795-1.522l.99-6.407c0-1.149-.953-1.775-2.127-1.775z"/><ellipse cx="3.7739999" cy="87.661003" rx="1.691" ry="1.594"/><ellipse cx="20.902" cy="87.661003" rx="1.692" ry="1.594"/><g><path d="M6.264 90h-.683l-1.125 3.167-.393-3.067-.449.028-.176 3.029L2.269 90h-.663c-.887 0-1.607.797-1.607 1.684l.746 5.076c0 .522.262.92.66 1.208L2.216 105H4v-6.845V105h1.708l.814-7.054c.365-.286.602-.68.602-1.162l.137-.907-.846-5.783c-.051-.005-.1-.094-.151-.094zM23.392 90h-.682l-1.125 3.167-.393-3.067-.447.028-.178 3.029L19.397 90h-.663c-.053 0-.1.101-.152.105l-.842 5.753.135.923c0 .521.26.909.66 1.196l.81 7.022H21v-6.845V105h1.835l.814-7.054c.369-.286.602-.68.602-1.162l.748-5.143c0-.866-.723-1.641-1.607-1.641z"/></g></g><g fill="#99cdff" clip-rule="evenodd" fill-rule="evenodd"><path d="M44.0178 611.19018c-.0462 0-.0658 1.0304-.14 1.5428-.224 1.5526-.7546 3.0002-1.624 4.3204-1.5946 2.4388-3.8122 4.0726-6.6724 4.8636-1.015.2814-2.0454.406-3.0982.4032-2.1434-.0056-4.2924.0294-6.4372-.0168-2.2498-.0462-4.2952-.7616-6.1362-2.0272-1.0584-.7224-1.96-1.603-2.7202-2.625-1.1508-1.5526-1.8424-3.262-2.0888-5.1576-.0532-.4298-.0672-1.3034-.1008-1.3034h29.0178zM28.965 599.99018v11.2H15.0196c.0252 0 .035-.6944.0686-.9548.2842-2.1084 1.2334-3.9872 2.6992-5.5342 1.7066-1.8018 3.8094-3.0464 6.1796-3.815 1.7248-.5572 3.5028-.896 5.32-.896h-.322zM26.2826 630.10558c.0084 2.6824-2.2428 4.886-4.9924 4.8944-2.7944.0084-5.0526-2.177-5.0554-4.8888-.0028-2.7076 2.2372-4.8972 5.0176-4.9028 2.7748-.0084 5.0246 2.1812 5.0302 4.8972zm-5.0316 3.4692c1.9474.0084 3.5574-1.5456 3.5686-3.451.0112-1.9054-1.5666-3.4748-3.5196-3.4916-1.9768-.0168-3.5882 1.5204-3.6036 3.4258-.014 1.9446 1.561 3.5056 3.5546 3.5168zM42.7816 630.11398c-.0056 2.7104-2.2638 4.8944-5.0428 4.886-2.779-.0084-5.012-2.2008-5.0064-4.9168.0056-2.7132 2.2666-4.8888 5.0694-4.8748 2.7426.0084 4.9826 2.2148 4.9798 4.9056zm-5.0372 3.4608c1.9502.014 3.5546-1.54 3.5742-3.4482.0168-1.8956-1.5666-3.4748-3.5-3.4944-1.9992-.0168-3.6092 1.5148-3.6204 3.437-.0126 1.9362 1.5596 3.4916 3.5462 3.5056zM26.067 627.85158c-.2128-.3332-.4214-.6566-.6398-.9898.9702-.5936 1.939-1.1872 2.9428-1.8018-1.4742-.9044-2.926-1.7906-4.3834-2.6796.0056-.0084.0112-.0168.014-.0252.35.0518.7.1204 1.0528.1526.448.0434.9072.0518 1.3566.0896.1288.0112.2674.0434.378.1092.8554.511 1.7066 1.0332 2.5536 1.561.1316.0798.2156.0742.3416-.0056.847-.5278 1.6982-1.0472 2.5536-1.5582.1008-.063.2352-.0952.3556-.1064.8064-.0714 1.6184-.1316 2.3842-.189-1.3944.8526-2.8434 1.7388-4.3344 2.653.9954.6076 1.9712 1.1998 2.9456 1.799-.21.3276-.4186.6482-.6398.9926-.2184-.1344-.4452-.2702-.6706-.4102-.8862-.5446-1.7724-1.0822-2.653-1.6324-.1092-.0686-.1722-.0252-.2548.0252-1.0752.6566-2.149 1.3132-3.2242 1.9712-.021.0126-.0462.0266-.0784.0448zM48.0806 608.73318c-.1722.4354-.1288.8036.147 1.162-.8694.252-1.6156.6706-2.2946 1.2082-.6776.5362-1.2544 1.162-1.7878 1.8424.0252-.238.0602-.476.0798-.714.0252-.3724.0322-.7378.0574-1.1074.0028-.0742.0294-.1638.0798-.2128.9954-.9674 2.114-1.7416 3.486-2.128.0602-.014.1288-.028.2324-.0504zM49.1306 608.35378c.476 0 .8694.3794.8694.84 0 .4648-.3822.8428-.8638.8456-.4704.0056-.875-.385-.8694-.84.0028-.4718.3864-.8456.8638-.8456z"/></g><g fill="#99cdff"><path d="M19.039 368c-2.2232 0-4.0362-2.0874-4.039-4.7782v.0994-18.1972c.0028-2.688 1.8158-5.124 4.039-5.124h26.922c2.2246 0 4.0348 2.3142 4.039 5.0022v18.319l-.0014-.0994C49.9958 365.9126 48.1856 368 45.961 368zM16.4 345.124v18.1972c0 1.7864 1.162 3.2788 2.639 3.2788h26.922c1.4784 0 2.639-1.4924 2.639-3.2788V345.124c0-1.7822-1.1606-3.724-2.639-3.724H19.039c-1.477 0-2.639 1.9418-2.639 3.724zM24.8 370.8h16.8v1.4H24.8zM20.6 373.6h25.2v1.4H20.6z"/><path d="M43.742 347H28.7018c-.3696 0-.6776.308-.6776.707 0 .3934.3094.693.6776.693H43.742c.3738 0 .679-.2996.679-.693.0014-.399-.3052-.707-.679-.707zM39.507 352.6H28.4946c-.273 0-.497.3038-.497.6972 0 .399.224.7028.497.7028H39.507c.2744 0 .4942-.3038.4942-.7028-.0014-.3934-.2198-.6972-.4942-.6972zM43.742 358.2H28.5982c-.3822 0-.6832.3024-.6832.7042 0 .3962.301.6958.6832.6958H43.742c.3794 0 .679-.2996.679-.6958.0014-.4018-.2996-.7042-.679-.7042zM20.6 345.6h4.2v4.2h-4.2zM20.6 351.2h4.2v4.2h-4.2zM20.6 356.8h4.2v4.2h-4.2z"/></g><g fill="#99cdff"><path d="M28.706 158.4526c2.303 0 4.1706-1.9096 4.1706-4.263 0-2.359-1.8676-4.27-4.1706-4.27-2.3058 0-4.1762 1.9124-4.1762 4.27 0 2.3534 1.8704 4.263 4.1762 4.263zM28.2986 159.2632c-3.2634 0-6.2986 1.2824-6.2986 2.8644V164.6h12.6v-2.4724c0-1.582-3.0366-2.8644-6.3014-2.8644zM40.2 168.8v1.4H20.6v-1.4M31.8 171.6v1.4H20.6v-1.4M40.2 174.4v1.4H20.6v-1.4"/><path d="M40.2 166H20.6v-18.2h19.6zM22 164.6h16.8v-15.4H22z"/><path d="M50 180H15v-35h35zm-33.6-1.4h32.2v-32.2H16.4z"/></g><g fill="#9cf"><path d="M41.6 22.0000002H23.4v-1.4h18.2M41.6 29.0000002H23.4v-1.4h18.2M38.8 33.2000002H23.4v-1.4h15.4M41.6 37.4000002H23.4v-1.4h18.2M44.4 47.2000002h-9.8v-7h9.8zm-8.4-1.4h7v-4.2h-7z"/><path d="M46.766 50.0000002H18.2298c-1.8116 0-3.2298-1.106-3.2298-2.5172v-26.999l6.4064-5.4838H46.766c1.7836 0 3.234 1.1298 3.234 2.5186v29.9642c0 1.4112-1.421 2.5172-3.234 2.5172zm-30.366-28.8974v26.3788c0 .6244.826 1.1186 1.8298 1.1186H46.766c1.0052 0 1.834-.4942 1.834-1.1172v-29.9642c0-.6244-.8288-1.1186-1.834-1.1186H21.9048z"/></g><path d="M36.100369 413.16581c-.02555-.02-.0605.15861-.09546.15861h-1.414528c-.06992 0-.129082-.15004-.13446-.09-.08606.99023-1.048796 2.07336-2.190367 2.07336-1.218217 0-2.209193-.90593-2.209193-1.95762 0-1.05168.989631-1.93333 2.209193-1.93333.205724 0 .422205.0186.660202.0886.01479.003.02824-.001.04033-.001.02824 0-.04302-.0114-.02286-.0257.03362-.0257-.04571-.0614-.04571-.0971v-2.925c0-.0728.356322-.15862.463891-.26006.471957-.32867.830967-.82879.830967-1.3932 0-.99882-.908955-1.80331-2.058596-1.80331-1.150985 0-2.074731.80449-2.074731 1.80331 0 .72303.567424 1.3446 1.28679 1.63038.04571.0257.20707.0643.20707.0871v1.51037c-1.344608.33437-3.108735 1.69469-3.108735 3.2708 0 1.84759 1.710343 3.35511 3.85096 3.35511 2.072042 0 3.75818-1.71042 3.854991-3.50515.0054-.0314-.0242.0357-.04975.0143z" fill="#99cdff"/><path d="M44.11479 420.17043c-.178869-.0102-.363128-.002-.545849.002l.712794.55814H20.393749l.566484-.41263h-.03001c-.160101 0-.320097-.00013-.480197 0-.163895.0002-.327611.00024-.491453 0-.181929.0263-.213768.0419-.38641.0219-.07333.0834-.149255.12262-.241974.14153l-1.001664.77943c-.0081.003-.01444.049-.02251.0518-1.446798.0514-2.612953 1.09312-2.612953 2.32628v13.62483c0 1.26175 1.227075 2.04323 2.723625 2.04323h28.168502c1.496549 0 2.721748-.78148 2.721748-2.04323v-13.62483c.0013-1.26174-1.225198-2.90837-2.721748-2.90837h-.286994l-.725926-.56013z" fill="#fff" stroke="#99cdff" stroke-width="1.3861238"/><g fill="#99cdff"><path d="M19.7961298 437.8474676c0 .5072392-.2460634.9149815-.673649.9149815-.4248964 0-.6709598-.4077422-.6709598-.9149814V422.064523c0-.5072392.2460634-.9149816.6709598-.9149816.4275856 0 .673649.4077424.673649.9149816z"/><path d="M19.7947852 439.7749767c-.8121437 0-1.3432642-.8642576-1.3432642-1.927509V422.064523c0-1.0632515.532465-1.927509 1.3432642-1.927509.8134883 0 1.3459534.8642575 1.3459534 1.927509v15.7829446c0 1.0632515-.532465 1.927509-1.3459534 1.927509zm-.0873996-17.7104537l-.1761437.1404663.030926 15.6424783.071264-.1033988c.0631967 0 .096812-.0312147.1048796-.0390184zM25.174565 437.8474676c0 .5072392-.9197125.9149815-1.344609.9149815-.4248962 0-1.3446086-.4077422-1.3446086-.9149814V422.064523c0-.5072392.9197124-.9149816 1.3446087-.9149816.4248965 0 1.344609.4077424 1.344609.9149816z"/><path d="M23.8286115 439.7749767c-.8121437 0-1.343264-.8642576-1.343264-1.927509V422.064523c0-1.0632515.532465-1.927509 1.343264-1.927509.8134884 0 1.3459534.8642575 1.3459534 1.927509v15.7829446c0 1.0632515-.532465 1.927509-1.3459535 1.927509zm.158664-17.7104537l-.176144.1404663.030926 15.6424783.0712644-.1033988c.0605073 0 .0968117-.0312147.1048794-.0390184zM29.2083913 437.8474676c0 .5072392-.2447188.9149815-.6696152.9149815-.4275855 0-.6749935-.4077422-.6749935-.9149814V422.064523c0-.5072392.247408-.9149816.6749936-.9149816.4248965 0 .6696153.4077424.6696153.9149816z"/><path d="M27.8664717 439.7749767c-.8134883 0-1.347298-.8642576-1.347298-1.927509V422.064523c0-1.0632515.532465-1.927509 1.347298-1.927509.8094545 0 1.3419196.8642575 1.3419196 1.927509v15.7829446c0 1.0632515-.532465 1.927509-1.3419196 1.927509zm.3966596-17.7104537l-.1761437.1404663.0336152 15.6424783.0739535-.1033988c.057818 0 .0941226-.027313.1021902-.0390184zM33.2422176 437.8474676c0 .5072392-.247408.9149815-.6723044.9149815-.4248963 0-.6723044-.4077422-.6723044-.9149814V422.064523c0-.5072392.247408-.9149816.6723044-.9149816.4248964 0 .6723044.4077424.6723044.9149816z"/><path d="M32.571258 439.7749767c-.812144 0-2.018258-.8642576-2.018258-1.927509V422.064523c0-1.0632515 1.206114-1.927509 2.018258-1.927509.810799 0 2.0155684.8642575 2.0155684 1.927509v15.7829446c0 1.0632515-1.2047695 1.927509-2.0155685 1.927509zm-.028237-17.7104537l-.174799.1404663.0322705 15.6424783.0712643-.1033988c.0605074 0 .0968118-.0312147.103535-.0390184z"/><g><path d="M37.276044 437.8474676c0 .5072392-.247408.9149815-.6723044.9149815-.4275856 0-.6723044-.4077422-.6723044-.9149814V422.064523c0-.5072392.2447188-.9149816.6723044-.9149816.4248964 0 .6723044.4077424.6723044.9149816z"/><path d="M37.276044 439.7749767c-.8121437 0-1.3446088-.8642576-1.3446088-1.927509V422.064523c0-1.0632515.532465-1.927509 1.3446088-1.927509.8121437 0 1.3446088.8642575 1.3446088 1.927509v15.7829446c0 1.0632515-.532465 1.927509-1.3446088 1.927509zM36.8256 422.064523l-.1774883.1404663.030926 15.6424783.072609-.1033988c.061852 0 .0968117-.0312147.1048793-.0390184z"/></g><g><path d="M41.3098703 437.8474676c0 .5072392-.247408.9149815-.6723044.9149815-.4275856 0-.6723044-.4077422-.6723044-.9149814V422.064523c0-.5072392.2447188-.9149816.6723043-.9149816.4248963 0 .6723043.4077424.6723043.9149816z"/><path d="M41.3098703 439.7749767c-.8121437 0-1.3446087-.8642576-1.3446087-1.927509V422.064523c0-1.0632515.532465-1.927509 1.3446087-1.927509s1.3446088.8642575 1.3446088 1.927509v15.7829446c0 1.0632515-.532465 1.927509-1.3446087 1.927509zm-.205725-17.7104537l-.176144.1404663.030926 15.6424783.072609-.1033988c.0605074 0 .0954672-.0312147.103535-.0390184z"/></g><g><path d="M46.6883055 437.8474676c0 .5072392-.9170232.9149815-1.3432642.9149815-.426241 0-1.3459534-.4077422-1.3459534-.9149814V422.064523c0-.5072392.9197123-.9149816 1.3459533-.9149816.426241 0 1.3432642.4096933 1.3432642.9149816z"/><path d="M45.3450413 439.7749767c-.8121437 0-1.3459534-.8642576-1.3459534-1.927509V422.064523c0-1.0632515.532465-1.927509 1.3459533-1.927509.8121437 0 1.3432642.8642575 1.3432642 1.927509v15.7829446c0 1.0632515-.532465 1.927509-1.3432642 1.927509zm.0363044-17.7104537l-.1761437.1404663.030926 15.6424783.0739535-.1033988c.0605074 0 .0954672-.027313.1021902-.0390184z"/></g></g><path d="M19.33327 420.68108l9.202103-5.25445M45.154097 420.90002l-9.40812-5.47339" fill="none" stroke="#99cdff" stroke-width="1.4850733"/><g fill="none" stroke="#000" stroke-width="1.8762418" stroke-linecap="round" stroke-linejoin="round"><path d="M147.378801 585.366076h63.123756v63.123756h-63.123756zM147.378801 520.366076h63.123756v63.123756h-63.123756zM147.378801 455.366076h63.123756v63.123756h-63.123756zM147.378801 390.366076h63.123756v63.123756h-63.123756zM147.378801 325.366076h63.123756v63.123756h-63.123756zM147.378801 260.366076h63.123756v63.123756h-63.123756zM147.378801 195.366096h63.123756v63.123756h-63.123756zM147.378801 130.366096h63.123756v63.123756h-63.123756zM147.378801 65.366092h63.123756v63.123756h-63.123756zM147.378801.3660917h63.123756v63.123756h-63.123756z"/></g></svg>