<?xml version="1.0" encoding="UTF-8" standalone="no"?>
<!-- Generator: Adobe Illustrator 16.0.0, SVG Export Plug-In . SVG Version: 6.00 Build 0)  -->

<svg
   xmlns:dc="http://purl.org/dc/elements/1.1/"
   xmlns:cc="http://creativecommons.org/ns#"
   xmlns:rdf="http://www.w3.org/1999/02/22-rdf-syntax-ns#"
   xmlns:svg="http://www.w3.org/2000/svg"
   xmlns="http://www.w3.org/2000/svg"
   xmlns:sodipodi="http://sodipodi.sourceforge.net/DTD/sodipodi-0.dtd"
   xmlns:inkscape="http://www.inkscape.org/namespaces/inkscape"
   version="1.0"
   id="Слой_1"
   x="0px"
   y="0px"
   width="37"
   height="370"
   viewBox="0 0 37 370"
   enable-background="new 0 0 25 270"
   xml:space="preserve"
   sodipodi:docname="secondary-menu-icons_v0.svg"
   inkscape:version="0.92.1 r15371"><metadata
     id="metadata217"><rdf:RDF><cc:Work
         rdf:about=""><dc:format>image/svg+xml</dc:format><dc:type
           rdf:resource="http://purl.org/dc/dcmitype/StillImage" /><dc:title></dc:title></cc:Work></rdf:RDF></metadata><defs
     id="defs215" /><sodipodi:namedview
     pagecolor="#ffffff"
     bordercolor="#666666"
     borderopacity="1"
     objecttolerance="1"
     gridtolerance="10"
     guidetolerance="1"
     inkscape:pageopacity="0"
     inkscape:pageshadow="2"
     inkscape:window-width="1920"
     inkscape:window-height="1028"
     id="namedview213"
     showgrid="false"
     inkscape:pagecheckerboard="true"
     inkscape:zoom="3.4962963"
     inkscape:cx="-18.29923"
     inkscape:cy="427.01694"
     inkscape:window-x="1272"
     inkscape:window-y="-8"
     inkscape:window-maximized="1"
     inkscape:current-layer="Слой_1"
     inkscape:measure-start="-0.286017,255.413"
     inkscape:measure-end="25.7415,255.699" /><g
     id="g4740"
     transform="matrix(1.4646834,0,0,1.4037621,94.839037,-17.766829)"><path
       d="m -46.972796,39.726695 h -12.548 c -2.068,0 -4.547,2.345 -4.547,4.889 v 9.251 c 0,2.545 2.479,4.86 4.547,4.86 h 6.274 l 4.179,5.933 v -5.933 h 2.095 c 2.07,0 2.905,-2.315 2.905,-4.86 v -9.251 c 0,-2.544 -0.835,-4.889 -2.905,-4.889 z m -3.893,15 h -8.395 c -0.352,0 -0.635,-0.568 -0.635,-1 0,-0.43 0.283,-1 0.635,-1 h 8.396 c 0.351,0 0.637,0.569 0.637,1 -0.001,0.432 -0.287,1 -0.638,1 z m 3.845,-5 h -12.24 c -0.352,0 -0.635,-0.069 -0.635,-0.501 0,-0.43 0.283,-0.499 0.635,-0.499 h 12.24 c 0.351,0 0.635,0.069 0.635,0.499 0,0.432 -0.285,0.501 -0.635,0.501 z m 0,-4 h -12.24 c -0.352,0 -0.635,-0.57 -0.635,-1 0,-0.43 0.283,-1 0.635,-1 h 12.24 c 0.351,0 0.635,0.569 0.635,1 0,0.431 -0.285,1 -0.635,1 z"
       id="path2"
       style="fill:#ffcc99;fill-opacity:1"
       inkscape:connector-curvature="0" /><g
       transform="matrix(1,0,0,0.75294809,-104.6822,-2.2252512)"
       id="g4709"><g
         style="fill:#fffffc;fill-opacity:1;stroke:#ffcc99;stroke-width:0.60000002;stroke-miterlimit:4;stroke-dasharray:none;stroke-opacity:1"
         id="g8"
         transform="translate(39.210374,33.086865)"><path
           inkscape:connector-curvature="0"
           style="fill:#fffffc;fill-opacity:1;stroke:#ffcc99;stroke-width:0.60000002;stroke-miterlimit:4;stroke-dasharray:none;stroke-opacity:1"
           id="path4"
           d="M 21.832,33 H 11.965 C 10.336,33 9,33.735 9,35.737 v 7.275 C 9,45.015 10.336,46 11.965,46 h 4.933 L 21,51.5 V 46 h 0.832 C 23.46,46 24,45.015 24,43.012 V 35.737 C 24,33.735 23.46,33 21.832,33 Z" /><path
           inkscape:connector-curvature="0"
           style="fill:#fffffc;fill-opacity:1;stroke:#ffcc99;stroke-width:0.60000002;stroke-miterlimit:4;stroke-dasharray:none;stroke-opacity:1"
           id="path6"
           d="M 21,53.077 16.64,47 H 11.965 C 10.023,47 9,45.236 9,43.012 V 35.737 C 9,33.537 9.991,32 11.965,32 h 9.867 C 23.757,32 25,33.466 25,35.737 v 7.275 C 25,45.308 23.728,47 21.832,47 H 21 Z M 11.965,33 C 10.549,33 10,34.096 10,35.737 v 7.275 C 10,44.688 10.571,46 11.965,46 h 5.191 L 20,49.924 V 46 h 1.832 C 23.157,46 24,44.741 24,43.012 V 35.737 C 24,34.045 23.178,33 21.832,33 Z" /></g><path
         inkscape:connector-curvature="0"
         style="fill:#ffcc99;fill-opacity:1"
         id="path10"
         d="m 59.456425,69.169492 h -6.253 c -0.263,0 -0.475,-0.331 -0.475,-0.5 0,-0.17 0.212,-0.5 0.475,-0.5 h 6.253 c 0.261,0 0.475,0.33 0.475,0.5 -10e-4,0.169 -0.215,0.5 -0.475,0.5 z" /><path
         inkscape:connector-curvature="0"
         style="fill:#ffcc99;fill-opacity:1"
         id="path12"
         d="m 61.042374,71.807204 h -9.624 c -0.277,0 -0.502,-0.161 -0.502,-0.5 0,-0.339 0.225,-0.5 0.502,-0.5 h 9.624 c 0.277,0 0.501,0.16 0.501,0.5 0,0.34 -0.224,0.5 -0.501,0.5 z" /><path
         inkscape:connector-curvature="0"
         style="fill:#ffcc99;fill-opacity:1"
         id="path14"
         d="m 60.900425,74.235441 h -9.624 c -0.277,0 -0.502,-0.162 -0.502,-0.5 0,-0.339 0.225,-0.5 0.502,-0.5 h 9.624 c 0.277,0 0.501,0.161 0.501,0.5 0,0.338 -0.224,0.5 -0.501,0.5 z" /><path
         inkscape:connector-curvature="0"
         style="fill:#ffcc99;fill-opacity:1"
         id="path16"
         d="m 60.042374,76.809594 h -6.999 c -0.2,0 -0.363,-0.331 -0.363,-0.5 0,-0.169 0.163,-0.5 0.363,-0.5 h 6.999 c 0.2,0 0.364,0.331 0.364,0.5 0,0.169 -0.163,0.5 -0.364,0.5 z" /></g></g><g
     id="g34"
     style="fill:#ffcc99;fill-opacity:1"
     transform="matrix(1.399944,0,0,1.399944,1,-3.5924961)"><g
       id="g22"
       style="fill:#ffcc99;fill-opacity:1"><path
         d="M 2.887,129 C 1.297,129 0.002,127.499 0,125.577 v 0.062 -12.998 C 0.002,110.722 1.297,109 2.887,109 v 0 h 19.229 c 1.59,0 2.883,1.644 2.885,3.563 v 0.079 12.998 -0.062 c -0.002,1.921 -1.295,3.423 -2.885,3.423 v 0 H 2.887 Z M 1,112.641 v 12.998 C 1,126.913 1.83,128 2.887,128 v 0 h 19.229 c 1.056,0 1.885,-1.087 1.885,-2.361 v 0 -12.998 c 0,-1.272 -0.829,-2.641 -1.885,-2.641 v 0 H 2.887 C 1.83,110 1,111.369 1,112.641 Z"
         id="path20"
         style="fill:#ffcc99;fill-opacity:1"
         inkscape:connector-curvature="0" /></g><rect
       x="15"
       y="113"
       width="3"
       height="13"
       id="rect24"
       style="fill:#ffcc99;fill-opacity:1" /><rect
       x="7"
       y="120"
       width="3"
       height="6"
       id="rect26"
       style="fill:#ffcc99;fill-opacity:1" /><rect
       x="11"
       y="116"
       width="3"
       height="10"
       id="rect28"
       style="fill:#ffcc99;fill-opacity:1" /><rect
       x="7"
       y="131"
       width="12"
       height="1"
       id="rect30"
       style="fill:#ffcc99;fill-opacity:1" /><rect
       x="4"
       y="133"
       width="18"
       height="1"
       id="rect32"
       style="fill:#ffcc99;fill-opacity:1" /></g><g
     id="g60"
     style="fill:#ffcc99;fill-opacity:1"
     transform="matrix(1.3999375,0,0,1.3999375,1,-5.9977621)"><g
       id="g38"
       style="fill:#ffcc99;fill-opacity:1"><path
         d="m 5.5,190.007 c -3.092,0 -5.5,2.475 -5.5,5.516 v 6.387 7.584 c 0,3.039 2.408,5.514 5.5,5.514 3.094,0 5.5,-2.475 5.5,-5.514 v -7.584 -6.387 c 0,-3.042 -2.406,-5.516 -5.5,-5.516 z M 10,202 H 1 v -6.478 c 0,-2.379 2.081,-4.314 4.499,-4.314 2.42,0 4.501,1.936 4.501,4.314 z"
         id="path36"
         style="fill:#ffcc99;fill-opacity:1"
         inkscape:connector-curvature="0" /></g><g
       id="g44"
       style="fill:#ffcc99;fill-opacity:1"><path
         d="m 23.566,205.202 c -1.99,-2.309 -5.477,-2.789 -8.047,-1.021 -2.575,1.768 -3.313,5.154 -1.789,7.783 z"
         id="path40"
         style="fill:#ffcc99;fill-opacity:1"
         inkscape:connector-curvature="0" /><path
         d="m 14.377,212.876 c 1.99,2.311 5.477,2.789 8.051,1.021 2.572,-1.768 3.309,-5.152 1.787,-7.783 z"
         id="path42"
         style="fill:#ffcc99;fill-opacity:1"
         inkscape:connector-curvature="0" /></g><g
       id="g58"
       style="fill:#ffcc99;fill-opacity:1"><g
         id="g50"
         style="fill:#ffcc99;fill-opacity:1"><g
           id="g48"
           style="fill:#ffcc99;fill-opacity:1"><path
             d="m 19.459,190.841 c 1.273,0 2.469,0.611 3.197,1.635 0.561,0.791 0.797,1.746 0.67,2.699 -0.094,0.701 -0.383,1.355 -0.824,1.896 l -4.289,-6.029 c 0.402,-0.135 0.822,-0.201 1.246,-0.201 z m 0,-0.656 c -0.768,0 -1.545,0.189 -2.25,0.584 l 5.207,7.322 c 1.777,-1.479 2.148,-4.074 0.785,-5.99 -0.885,-1.25 -2.303,-1.916 -3.742,-1.916 z"
             id="path46"
             style="fill:#ffcc99;fill-opacity:1"
             inkscape:connector-curvature="0" /></g></g><g
         id="g56"
         style="fill:#ffcc99;fill-opacity:1"><g
           id="g54"
           style="fill:#ffcc99;fill-opacity:1"><path
             d="m 16.42,192.274 4.289,6.029 c -0.398,0.133 -0.82,0.201 -1.244,0.201 -1.273,0 -2.469,-0.611 -3.197,-1.637 -0.561,-0.789 -0.797,-1.746 -0.668,-2.697 0.093,-0.698 0.377,-1.355 0.82,-1.896 z m 0.088,-1.023 c -1.777,1.482 -2.148,4.078 -0.785,5.994 0.887,1.248 2.303,1.916 3.742,1.916 0.77,0 1.545,-0.191 2.25,-0.586 z"
             id="path52"
             style="fill:#ffcc99;fill-opacity:1"
             inkscape:connector-curvature="0" /></g></g></g></g><g
     id="g72"
     style="fill:#ffcc99;fill-opacity:1"
     transform="matrix(1.4,0,0,1.4,1,-6.8000001)"><g
       id="g64"
       style="fill:#ffcc99;fill-opacity:1"><path
         d="M 2.813,237 C 1.224,237 0,235.411 0,233.491 v 0 -13.002 C 0,218.571 1.224,217 2.813,217 v 0 h 19.229 c 1.59,0 2.958,1.571 2.958,3.489 v 0 13.002 0 c 0,1.92 -1.368,3.509 -2.958,3.509 v 0 z M 1,220.489 v 13.002 C 1,234.763 1.757,236 2.813,236 v 0 H 22.042 C 23.098,236 24,234.763 24,233.491 v 0 -13.002 C 24,219.218 23.098,218 22.042,218 v 0 H 2.813 C 1.757,218 1,219.218 1,220.489 Z"
         id="path62"
         style="fill:#ffcc99;fill-opacity:1"
         inkscape:connector-curvature="0" /></g><rect
       x="7"
       y="239"
       width="12"
       height="1"
       id="rect66"
       style="fill:#ffcc99;fill-opacity:1" /><rect
       x="4"
       y="241"
       width="18"
       height="1"
       id="rect68"
       style="fill:#ffcc99;fill-opacity:1" /><path
       d="m 16.313,223.56 c 0.307,-0.037 0.563,-0.074 0.71,-0.107 0.335,-0.029 1.268,-0.148 2.54,-1.512 0,0 -0.009,-0.771 -0.356,-0.576 -0.079,0.078 -0.274,0.266 -0.605,0.475 -0.004,-0.004 -0.006,-0.008 -0.011,-0.01 l -2.893,-2.281 c -0.04,-0.256 -0.075,-0.459 -0.095,-0.572 -0.111,-0.586 -1.021,-0.15 -1.021,-0.15 -0.219,0.18 0.207,2.566 0.268,2.797 0.091,0.328 0.17,0.66 0.245,0.988 -0.966,-0.008 -2.753,0.084 -4.009,1.182 -0.074,0.123 -1.148,0.967 -1.229,3.637 0,0.102 0.072,0.744 0.197,1.57 -2.682,0.439 -3.574,2.541 -3.666,2.891 -0.572,1.264 -0.438,2.818 -0.438,2.818 0,0 0.617,0.248 0.582,-0.092 -0.027,-0.414 -0.006,-0.797 0.047,-1.143 l 1.256,1.01 c -0.398,-0.053 -0.795,-0.102 -0.828,-0.074 -0.096,0.035 0.004,0.732 0.004,0.732 0,0 1.277,0.207 1.572,0.225 0.18,0.092 1.813,-0.125 2.254,-0.201 0.186,-0.102 1.287,-0.373 0.753,-2.842 -0.101,-0.414 -0.321,-1.453 -0.499,-2.629 0.018,-0.004 0.039,-0.004 0.053,-0.01 3.393,0.391 4.099,-0.449 4.211,-0.523 1.607,-0.82 1.242,-3.932 1.026,-5.174 -0.017,-0.109 -0.042,-0.256 -0.068,-0.429 z m -0.984,3.939 -3.621,-2.955 c 0.244,-0.221 0.567,-0.424 0.978,-0.566 l 2.896,2.283 c 0.011,0.393 -0.005,0.674 -0.046,0.785 -0.045,0.188 -0.102,0.352 -0.171,0.5 -0.011,-0.016 -0.022,-0.035 -0.036,-0.047 z m 2.585,-5.311 c -0.452,0.188 -1.029,0.346 -1.751,0.404 -0.097,-0.639 -0.209,-1.377 -0.309,-2.025 z m -2.393,3.127 -1.912,-1.51 c 0.438,-0.039 1.073,-0.09 1.69,-0.146 0.103,0.596 0.177,1.162 0.222,1.656 z m -7.065,5.282 2.49,2.221 c 0.109,0.324 0.172,0.695 -0.021,1.141 -0.014,-0.016 -0.02,-0.033 -0.035,-0.045 l -3.246,-2.75 c 0.26,-0.238 0.525,-0.434 0.789,-0.604 0.009,0.013 0.013,0.029 0.023,0.037 z m -1.254,1.105 3.174,2.695 c -0.346,0.123 -0.809,0.193 -1.279,0.197 l -2.342,-1.881 c 0.129,-0.411 0.293,-0.747 0.447,-1.011 z m 3.344,-0.178 -1.469,-1.307 c 0.406,-0.182 0.789,-0.299 1.117,-0.373 0.1,0.565 0.217,1.155 0.352,1.68 z m 0.437,-2.597 c -0.076,-0.619 -0.135,-1.246 -0.15,-1.814 l 2.204,1.676 c -0.645,0.044 -1.45,0.097 -2.054,0.138 z m 3.037,-0.254 c -0.016,-0.025 -0.033,-0.051 -0.057,-0.07 l -3.114,-2.365 c 0.006,-0.082 0.012,-0.164 0.02,-0.236 0.037,-0.146 0.127,-0.521 0.385,-0.922 l 3.724,3.037 c -0.332,0.341 -0.712,0.487 -0.958,0.556 z"
       id="path70"
       style="fill:#ffcc99;fill-opacity:1"
       inkscape:connector-curvature="0" /></g><g
     id="g90"
     style="fill:#ffcc99;fill-opacity:1"
     transform="matrix(1.4,0,0,1.4,1.0014,-2.8000001)"><g
       id="g78"
       style="fill:#ffcc99;fill-opacity:1"><ellipse
         cx="12.285"
         cy="84.129997"
         rx="2.24"
         ry="2.109"
         id="ellipse74"
         style="fill:#ffcc99;fill-opacity:1" /><path
         d="m 15.58,88 h -0.9 l -1.492,3.801 -0.52,-4.251 -0.594,-0.062 -0.23,4.347 L 10.295,88 H 9.416 C 8.245,88 7.29,88.662 7.293,89.839 l 0.986,6.526 c 0,0.689 0.344,1.083 0.873,1.462 L 10.222,107 H 12 v -8.966 l 1,-0.018 V 107 h 1.846 l 1.076,-9.296 c 0.486,-0.379 0.797,-0.883 0.795,-1.522 l 0.99,-6.407 C 17.707,88.626 16.754,88 15.58,88 Z"
         id="path76"
         style="fill:#ffcc99;fill-opacity:1"
         inkscape:connector-curvature="0" /></g><ellipse
       cx="3.7739999"
       cy="87.661003"
       rx="1.691"
       ry="1.594"
       id="ellipse80"
       style="fill:#ffcc99;fill-opacity:1" /><ellipse
       cx="20.902"
       cy="87.661003"
       rx="1.692"
       ry="1.594"
       id="ellipse82"
       style="fill:#ffcc99;fill-opacity:1" /><g
       id="g88"
       style="fill:#ffcc99;fill-opacity:1"><path
         d="M 6.264,90 H 5.581 L 4.456,93.167 4.063,90.1 3.614,90.128 3.438,93.157 2.269,90 H 1.606 c -0.887,0 -1.607,0.797 -1.607,1.684 l 0.746,5.076 c 0,0.522 0.262,0.92 0.66,1.208 L 2.216,105 H 4 V 98.168 98.155 105 H 5.708 L 6.522,97.946 C 6.887,97.66 7.124,97.266 7.124,96.784 L 7.261,95.877 6.415,90.094 C 6.364,90.089 6.315,90 6.264,90 Z"
         id="path84"
         style="fill:#ffcc99;fill-opacity:1"
         inkscape:connector-curvature="0" /><path
         d="M 23.392,90 H 22.71 L 21.585,93.167 21.192,90.1 20.745,90.128 20.567,93.157 19.397,90 h -0.663 c -0.053,0 -0.1,0.101 -0.152,0.105 l -0.842,5.753 0.135,0.923 c 0,0.521 0.26,0.909 0.66,1.196 l 0.81,7.022 H 21 V 98.167 98.154 105 h 1.835 l 0.814,-7.054 c 0.369,-0.286 0.602,-0.68 0.602,-1.162 l 0.748,-5.143 C 24.999,90.775 24.276,90 23.392,90 Z"
         id="path86"
         style="fill:#ffcc99;fill-opacity:1"
         inkscape:connector-curvature="0" /></g></g><g
     id="g106"
     style="fill:#ffcc99;fill-opacity:1"
     transform="matrix(1.4,0,0,1.4,0.965,-7.6098241)"><path
       d="m 20.752,252 c -0.033,0 -0.047,0.736 -0.1,1.102 -0.16,1.109 -0.539,2.143 -1.16,3.086 -1.139,1.742 -2.723,2.909 -4.766,3.474 -0.725,0.201 -1.461,0.29 -2.213,0.288 -1.531,-0.004 -3.066,0.021 -4.598,-0.012 -1.607,-0.033 -3.068,-0.544 -4.383,-1.448 -0.756,-0.516 -1.4,-1.145 -1.943,-1.875 -0.822,-1.109 -1.316,-2.33 -1.492,-3.684 C 0.059,252.624 0.049,252 0.025,252 c 6.911,0 13.795,0 20.727,0 z"
       id="path92"
       style="clip-rule:evenodd;fill:#ffcc99;fill-opacity:1;fill-rule:evenodd"
       inkscape:connector-curvature="0" /><path
       d="m 10,244 c 0,3 0,5 0,8 -3,0 -6.5,0 -9.961,0 0.018,0 0.025,-0.496 0.049,-0.682 0.203,-1.506 0.881,-2.848 1.928,-3.953 1.219,-1.287 2.721,-2.176 4.414,-2.725 1.232,-0.398 2.502,-0.64 3.8,-0.64 0.047,0 -0.23,0 -0.23,0 z"
       id="path94"
       style="clip-rule:evenodd;fill:#ffcc99;fill-opacity:1;fill-rule:evenodd"
       inkscape:connector-curvature="0" /><path
       d="m 8.084,265.511 c 0.006,1.916 -1.602,3.49 -3.566,3.496 -1.996,0.006 -3.609,-1.555 -3.611,-3.492 -0.002,-1.934 1.598,-3.498 3.584,-3.502 1.982,-0.006 3.589,1.558 3.593,3.498 z m -3.594,2.478 c 1.391,0.006 2.541,-1.104 2.549,-2.465 0.008,-1.361 -1.119,-2.482 -2.514,-2.494 -1.412,-0.012 -2.563,1.086 -2.574,2.447 -0.01,1.389 1.115,2.504 2.539,2.512 z"
       id="path96"
       style="clip-rule:evenodd;fill:#ffcc99;fill-opacity:1;fill-rule:evenodd"
       inkscape:connector-curvature="0" /><path
       d="m 19.869,265.517 c -0.004,1.936 -1.617,3.496 -3.602,3.49 -1.985,-0.006 -3.58,-1.572 -3.576,-3.512 0.004,-1.938 1.619,-3.492 3.621,-3.482 1.959,0.006 3.559,1.582 3.557,3.504 z m -3.598,2.472 c 1.393,0.01 2.539,-1.1 2.553,-2.463 0.012,-1.354 -1.119,-2.482 -2.5,-2.496 -1.428,-0.012 -2.578,1.082 -2.586,2.455 -0.009,1.383 1.114,2.494 2.533,2.504 z"
       id="path98"
       style="clip-rule:evenodd;fill:#ffcc99;fill-opacity:1;fill-rule:evenodd"
       inkscape:connector-curvature="0" /><path
       d="m 7.93,263.901 c -0.152,-0.238 -0.301,-0.469 -0.457,-0.707 0.693,-0.424 1.385,-0.848 2.102,-1.287 -1.053,-0.646 -2.09,-1.279 -3.131,-1.914 0.004,-0.006 0.008,-0.012 0.01,-0.018 0.25,0.037 0.5,0.086 0.752,0.109 0.32,0.031 0.648,0.037 0.969,0.064 0.092,0.008 0.191,0.031 0.27,0.078 0.611,0.365 1.219,0.738 1.824,1.115 0.094,0.057 0.154,0.053 0.244,-0.004 0.605,-0.377 1.213,-0.748 1.824,-1.113 0.072,-0.045 0.168,-0.068 0.254,-0.076 0.576,-0.051 1.156,-0.094 1.703,-0.135 -0.996,0.609 -2.031,1.242 -3.096,1.895 0.711,0.434 1.408,0.857 2.104,1.285 -0.15,0.234 -0.299,0.463 -0.457,0.709 -0.156,-0.096 -0.318,-0.193 -0.479,-0.293 -0.633,-0.389 -1.266,-0.773 -1.895,-1.166 -0.078,-0.049 -0.123,-0.018 -0.182,0.018 -0.768,0.469 -1.535,0.938 -2.303,1.408 -0.015,0.009 -0.033,0.019 -0.056,0.032 z"
       id="path100"
       style="clip-rule:evenodd;fill:#ffcc99;fill-opacity:1;fill-rule:evenodd"
       inkscape:connector-curvature="0" /><path
       d="m 23.654,250.245 c -0.123,0.311 -0.092,0.574 0.105,0.83 -0.621,0.18 -1.154,0.479 -1.639,0.863 -0.484,0.383 -0.896,0.83 -1.277,1.316 0.018,-0.17 0.043,-0.34 0.057,-0.51 0.018,-0.266 0.023,-0.527 0.041,-0.791 0.002,-0.053 0.021,-0.117 0.057,-0.152 0.711,-0.691 1.51,-1.244 2.49,-1.52 0.043,-0.01 0.092,-0.02 0.166,-0.036 z"
       id="path102"
       style="clip-rule:evenodd;fill:#ffcc99;fill-opacity:1;fill-rule:evenodd"
       inkscape:connector-curvature="0" /><path
       d="m 24.404,249.974 c 0.34,0 0.621,0.271 0.621,0.6 0,0.332 -0.273,0.602 -0.617,0.604 -0.336,0.004 -0.625,-0.275 -0.621,-0.6 0.002,-0.337 0.276,-0.604 0.617,-0.604 z"
       id="path104"
       style="clip-rule:evenodd;fill:#ffcc99;fill-opacity:1;fill-rule:evenodd"
       inkscape:connector-curvature="0" /></g><g
     id="g130"
     style="fill:#ffcc99;fill-opacity:1"
     transform="matrix(1.4,0,0,1.4,1,-4.4000001)"><g
       id="g116"
       style="fill:#ffcc99;fill-opacity:1"><g
         id="g110"
         style="fill:#ffcc99;fill-opacity:1"><path
           d="M 2.885,156 C 1.297,156 0.002,154.509 0,152.587 v 0.071 -12.998 C 0.002,137.74 1.297,136 2.885,136 v 0 h 19.23 c 1.589,0 2.882,1.653 2.885,3.573 v 0.087 12.998 l -0.001,-0.071 C 24.997,154.509 23.704,156 22.115,156 v 0 z M 1,139.66 v 12.998 C 1,153.934 1.83,155 2.885,155 v 0 h 19.23 C 23.171,155 24,153.934 24,152.658 v 0 -12.998 C 24,138.387 23.171,137 22.115,137 v 0 H 2.885 C 1.83,137 1,138.387 1,139.66 Z"
           id="path108"
           style="fill:#ffcc99;fill-opacity:1"
           inkscape:connector-curvature="0" /></g><rect
         x="7"
         y="158"
         width="12"
         height="1"
         id="rect112"
         style="fill:#ffcc99;fill-opacity:1" /><rect
         x="4"
         y="160"
         width="18"
         height="1"
         id="rect114"
         style="fill:#ffcc99;fill-opacity:1" /></g><path
       d="M 20.53,141 H 9.787 c -0.264,0 -0.484,0.22 -0.484,0.505 0,0.281 0.221,0.495 0.484,0.495 H 20.53 c 0.267,0 0.485,-0.214 0.485,-0.495 C 21.016,141.22 20.797,141 20.53,141 Z"
       id="path118"
       style="fill:#ffcc99;fill-opacity:1"
       inkscape:connector-curvature="0" /><path
       d="M 17.505,145 H 9.639 c -0.195,0 -0.355,0.217 -0.355,0.498 0,0.285 0.16,0.502 0.355,0.502 h 7.866 c 0.196,0 0.353,-0.217 0.353,-0.502 C 17.857,145.217 17.701,145 17.505,145 Z"
       id="path120"
       style="fill:#ffcc99;fill-opacity:1"
       inkscape:connector-curvature="0" /><path
       d="M 20.53,149 H 9.713 c -0.273,0 -0.488,0.216 -0.488,0.503 0,0.283 0.215,0.497 0.488,0.497 H 20.53 c 0.271,0 0.485,-0.214 0.485,-0.497 C 21.016,149.216 20.801,149 20.53,149 Z"
       id="path122"
       style="fill:#ffcc99;fill-opacity:1"
       inkscape:connector-curvature="0" /><rect
       x="4"
       y="140"
       width="3"
       height="3"
       id="rect124"
       style="fill:#ffcc99;fill-opacity:1" /><rect
       x="4"
       y="144"
       width="3"
       height="3"
       id="rect126"
       style="fill:#ffcc99;fill-opacity:1" /><rect
       x="4"
       y="148"
       width="3"
       height="3"
       id="rect128"
       style="fill:#ffcc99;fill-opacity:1" /></g><g
     id="g196"
     style="fill:#ffcc99;fill-opacity:1"
     transform="matrix(1.4,0,0,1.4,1,-2.0000001)"><g
       id="g184"
       style="fill:#ffcc99;fill-opacity:1"><path
         d="m 9.79,64.609 c 1.645,0 2.979,-1.364 2.979,-3.045 0,-1.685 -1.334,-3.05 -2.979,-3.05 -1.647,0 -2.983,1.366 -2.983,3.05 0,1.681 1.336,3.045 2.983,3.045 z"
         id="path180"
         style="fill:#ffcc99;fill-opacity:1"
         inkscape:connector-curvature="0" /><path
         d="M 9.499,65.188 C 7.168,65.188 5,66.104 5,67.234 V 69 h 9 v -1.766 c 0,-1.13 -2.169,-2.046 -4.501,-2.046 z"
         id="path182"
         style="fill:#ffcc99;fill-opacity:1"
         inkscape:connector-curvature="0" /></g><polygon
       points="18,72 18,73 4,73 4,72 "
       id="polygon186"
       style="fill:#ffcc99;fill-opacity:1" /><polygon
       points="12,74 12,75 4,75 4,74 "
       id="polygon188"
       style="fill:#ffcc99;fill-opacity:1" /><polygon
       points="18,76 18,77 4,77 4,76 "
       id="polygon190"
       style="fill:#ffcc99;fill-opacity:1" /><path
       d="M 18,70 H 4 V 57 H 18 Z M 5,69 H 17 V 58 H 5 Z"
       id="path192"
       style="fill:#ffcc99;fill-opacity:1"
       inkscape:connector-curvature="0" /><path
       d="M 25,80 H 0 V 55 H 25 Z M 1,79 H 24 V 56 H 1 Z"
       id="path194"
       style="fill:#ffcc99;fill-opacity:1"
       inkscape:connector-curvature="0" /></g><g
     id="g210"
     style="fill:#ffcc99;fill-opacity:1"
     transform="matrix(1.4,0,0,1.4,1,-0.4000002)"><polygon
       points="6,5 19,5 19,6 6,6 "
       id="polygon198"
       style="fill:#ffcc99;fill-opacity:1" /><polygon
       points="6,10 19,10 19,11 6,11 "
       id="polygon200"
       style="fill:#ffcc99;fill-opacity:1" /><polygon
       points="6,13 17,13 17,14 6,14 "
       id="polygon202"
       style="fill:#ffcc99;fill-opacity:1" /><polygon
       points="6,16 19,16 19,17 6,17 "
       id="polygon204"
       style="fill:#ffcc99;fill-opacity:1" /><path
       d="m 21,24 h -7 v -5 h 7 z m -6,-1 h 5 v -3 h -5 z"
       id="path206"
       style="fill:#ffcc99;fill-opacity:1"
       inkscape:connector-curvature="0" /><path
       d="M 22.69,26 H 2.307 C 1.013,26 0,25.21 0,24.202 V 4.917 L 4.576,1 H 22.69 C 23.964,1 25,1.807 25,2.799 V 24.202 C 25,25.21 23.985,26 22.69,26 Z M 1,5.359 V 24.201 C 1,24.647 1.59,25 2.307,25 H 22.69 C 23.408,25 24,24.647 24,24.202 V 2.799 C 24,2.353 23.408,2 22.69,2 H 4.932 Z"
       id="path208"
       style="fill:#ffcc99;fill-opacity:1"
       inkscape:connector-curvature="0" /></g><g
     id="g4990"
     transform="translate(-59.507006,91.62255)"><path
       d="m 81.607375,139.54326 c -0.02555,-0.02 -0.0605,0.15861 -0.09546,0.15861 h -1.414528 c -0.06992,0 -0.129082,-0.15004 -0.13446,-0.09 -0.08606,0.99023 -1.048796,2.07336 -2.190367,2.07336 -1.218217,0 -2.209193,-0.90593 -2.209193,-1.95762 0,-1.05168 0.989631,-1.93333 2.209193,-1.93333 0.205724,0 0.422205,0.0186 0.660202,0.0886 0.01479,0.003 0.02824,-0.001 0.04033,-0.001 0.02824,0 -0.04302,-0.0114 -0.02286,-0.0257 0.03362,-0.0257 -0.04571,-0.0614 -0.04571,-0.0971 v -2.925 c 0,-0.0728 0.356322,-0.15862 0.463891,-0.26006 0.471957,-0.32867 0.830967,-0.82879 0.830967,-1.3932 0,-0.99882 -0.908955,-1.80331 -2.058596,-1.80331 -1.150985,0 -2.074731,0.80449 -2.074731,1.80331 0,0.72303 0.567424,1.3446 1.28679,1.63038 0.04571,0.0257 0.20707,0.0643 0.20707,0.0871 v 1.51037 c -1.344608,0.33437 -3.108735,1.69469 -3.108735,3.2708 0,1.84759 1.710343,3.35511 3.85096,3.35511 2.072042,0 3.75818,-1.71042 3.854991,-3.50515 0.0054,-0.0314 -0.0242,0.0357 -0.04975,0.0143 z"
       id="path132"
       style="fill:#ffcc99;fill-opacity:1;stroke:none;stroke-width:1.38612378;stroke-opacity:1"
       inkscape:connector-curvature="0" /><path
       d="m 89.621796,146.54788 c -0.178869,-0.0102 -0.363128,-0.002 -0.545849,0.002 l 0.712794,0.55814 H 65.900755 l 0.566484,-0.41263 h -0.03001 c -0.160101,0 -0.320097,-1.3e-4 -0.480197,0 -0.163895,2e-4 -0.327611,2.4e-4 -0.491453,0 -0.181929,0.0263 -0.213768,0.0419 -0.38641,0.0219 -0.07333,0.0834 -0.149255,0.12262 -0.241974,0.14153 l -1.001664,0.77943 c -0.0081,0.003 -0.01444,0.049 -0.02251,0.0518 -1.446798,0.0514 -2.612953,1.09312 -2.612953,2.32628 v 13.62483 c 0,1.26175 1.227075,2.04323 2.723625,2.04323 h 28.168502 c 1.496549,0 2.721748,-0.78148 2.721748,-2.04323 v -13.62483 c 0.0013,-1.26174 -1.225198,-2.90837 -2.721748,-2.90837 h -0.286994 l -0.725926,-0.56013 z"
       style="fill:#ffffff;fill-opacity:1;stroke:#ffcc99;stroke-width:1.38612378;stroke-opacity:1"
       id="path134"
       inkscape:connector-curvature="0" /><g
       transform="matrix(0.96039643,0,0,1.3934587,0.56289596,-115.58831)"
       id="g4792"><g
         style="fill:#ffcc99;fill-opacity:1;stroke:none"
         id="g140"
         transform="matrix(1.400056,0,0,1.400056,63.209745,-59.479588)"><path
           inkscape:connector-curvature="0"
           style="fill:#ffcc99;fill-opacity:1;stroke:none"
           id="path136"
           d="m 3,185.91 c 0,0.26 -0.183,0.469 -0.501,0.469 C 2.183,186.379 2,186.17 2,185.91 v -8.09 c 0,-0.26 0.183,-0.469 0.499,-0.469 0.318,0 0.501,0.209 0.501,0.469 z" /><path
           inkscape:connector-curvature="0"
           style="fill:#ffcc99;fill-opacity:1;stroke:none"
           id="path138"
           d="M 2.999,186.898 C 2.395,186.898 2,186.455 2,185.91 v -8.09 c 0,-0.545 0.396,-0.988 0.999,-0.988 0.605,0 1.001,0.443 1.001,0.988 v 8.09 c 0,0.545 -0.396,0.988 -1.001,0.988 z m -0.065,-9.078 -0.131,0.072 0.023,8.018 0.053,-0.053 c 0.047,0 0.072,-0.016 0.078,-0.02 z" /></g><g
         style="fill:#ffcc99;fill-opacity:1;stroke:none"
         id="g146"
         transform="matrix(1.400056,0,0,1.400056,63.209745,-59.479588)"><path
           inkscape:connector-curvature="0"
           style="fill:#ffcc99;fill-opacity:1;stroke:none"
           id="path142"
           d="m 7,185.91 c 0,0.26 -0.684,0.469 -1,0.469 -0.316,0 -1,-0.209 -1,-0.469 v -8.09 c 0,-0.26 0.684,-0.469 1,-0.469 0.316,0 1,0.209 1,0.469 z" /><path
           inkscape:connector-curvature="0"
           style="fill:#ffcc99;fill-opacity:1;stroke:none"
           id="path144"
           d="M 5.999,186.898 C 5.395,186.898 5,186.455 5,185.91 v -8.09 c 0,-0.545 0.396,-0.988 0.999,-0.988 0.605,0 1.001,0.443 1.001,0.988 v 8.09 c 0,0.545 -0.396,0.988 -1.001,0.988 z m 0.118,-9.078 -0.131,0.072 0.023,8.018 0.053,-0.053 c 0.045,0 0.072,-0.016 0.078,-0.02 z" /></g><g
         style="fill:#ffcc99;fill-opacity:1;stroke:none"
         id="g152"
         transform="matrix(1.400056,0,0,1.400056,63.209745,-59.479588)"><path
           inkscape:connector-curvature="0"
           style="fill:#ffcc99;fill-opacity:1;stroke:none"
           id="path148"
           d="m 10,185.91 c 0,0.26 -0.182,0.469 -0.498,0.469 C 9.184,186.379 9,186.17 9,185.91 v -8.09 c 0,-0.26 0.184,-0.469 0.502,-0.469 0.316,0 0.498,0.209 0.498,0.469 z" /><path
           inkscape:connector-curvature="0"
           style="fill:#ffcc99;fill-opacity:1;stroke:none"
           id="path150"
           d="M 9.002,186.898 C 8.397,186.898 8,186.455 8,185.91 v -8.09 c 0,-0.545 0.396,-0.988 1.002,-0.988 0.602,0 0.998,0.443 0.998,0.988 v 8.09 c 0,0.545 -0.396,0.988 -0.998,0.988 z m 0.295,-9.078 -0.131,0.072 0.025,8.018 0.055,-0.053 c 0.043,0 0.07,-0.014 0.076,-0.02 z" /></g><g
         style="fill:#ffcc99;fill-opacity:1;stroke:none"
         id="g158"
         transform="matrix(1.400056,0,0,1.400056,63.209745,-59.479588)"><path
           inkscape:connector-curvature="0"
           style="fill:#ffcc99;fill-opacity:1;stroke:none"
           id="path154"
           d="m 13,185.91 c 0,0.26 -0.184,0.469 -0.5,0.469 -0.316,0 -0.5,-0.209 -0.5,-0.469 v -8.09 c 0,-0.26 0.184,-0.469 0.5,-0.469 0.316,0 0.5,0.209 0.5,0.469 z" /><path
           inkscape:connector-curvature="0"
           style="fill:#ffcc99;fill-opacity:1;stroke:none"
           id="path156"
           d="M 12.501,186.898 C 11.897,186.898 11,186.455 11,185.91 v -8.09 c 0,-0.545 0.897,-0.988 1.501,-0.988 0.603,0 1.499,0.443 1.499,0.988 v 8.09 c 0,0.545 -0.896,0.988 -1.499,0.988 z m -0.021,-9.078 -0.13,0.072 0.024,8.018 0.053,-0.053 c 0.045,0 0.072,-0.016 0.077,-0.02 z" /></g><g
         style="fill:#ffcc99;fill-opacity:1;stroke:none"
         id="g164"
         transform="matrix(1.400056,0,0,1.400056,63.209745,-59.479588)"><path
           inkscape:connector-curvature="0"
           style="fill:#ffcc99;fill-opacity:1;stroke:none"
           id="path160"
           d="m 16,185.91 c 0,0.26 -0.184,0.469 -0.5,0.469 -0.318,0 -0.5,-0.209 -0.5,-0.469 v -8.09 c 0,-0.26 0.182,-0.469 0.5,-0.469 0.316,0 0.5,0.209 0.5,0.469 z" /><path
           inkscape:connector-curvature="0"
           style="fill:#ffcc99;fill-opacity:1;stroke:none"
           id="path162"
           d="m 16,186.898 c -0.604,0 -1,-0.443 -1,-0.988 v -8.09 c 0,-0.545 0.396,-0.988 1,-0.988 0.604,0 1,0.443 1,0.988 v 8.09 c 0,0.545 -0.396,0.988 -1,0.988 z m -0.335,-9.078 -0.132,0.072 0.023,8.018 0.054,-0.053 c 0.046,0 0.072,-0.016 0.078,-0.02 z" /></g><g
         style="fill:#ffcc99;fill-opacity:1;stroke:none"
         id="g170"
         transform="matrix(1.400056,0,0,1.400056,63.209745,-59.479588)"><path
           inkscape:connector-curvature="0"
           style="fill:#ffcc99;fill-opacity:1;stroke:none"
           id="path166"
           d="m 19,185.91 c 0,0.26 -0.184,0.469 -0.5,0.469 -0.318,0 -0.5,-0.209 -0.5,-0.469 v -8.09 c 0,-0.26 0.182,-0.469 0.5,-0.469 0.316,0 0.5,0.209 0.5,0.469 z" /><path
           inkscape:connector-curvature="0"
           style="fill:#ffcc99;fill-opacity:1;stroke:none"
           id="path168"
           d="m 19,186.898 c -0.604,0 -1,-0.443 -1,-0.988 v -8.09 c 0,-0.545 0.396,-0.988 1,-0.988 0.604,0 1,0.443 1,0.988 v 8.09 c 0,0.545 -0.396,0.988 -1,0.988 z m -0.153,-9.078 -0.131,0.072 0.023,8.018 0.054,-0.053 c 0.045,0 0.071,-0.016 0.077,-0.02 z" /></g><g
         style="fill:#ffcc99;fill-opacity:1;stroke:none"
         id="g176"
         transform="matrix(1.400056,0,0,1.400056,63.209745,-59.479588)"><path
           inkscape:connector-curvature="0"
           style="fill:#ffcc99;fill-opacity:1;stroke:none"
           id="path172"
           d="m 23,185.91 c 0,0.26 -0.682,0.469 -0.999,0.469 -0.317,0 -1.001,-0.209 -1.001,-0.469 v -8.09 c 0,-0.26 0.684,-0.469 1.001,-0.469 0.317,0 0.999,0.21 0.999,0.469 z" /><path
           inkscape:connector-curvature="0"
           style="fill:#ffcc99;fill-opacity:1;stroke:none"
           id="path174"
           d="M 22.001,186.898 C 21.397,186.898 21,186.455 21,185.91 v -8.09 c 0,-0.545 0.396,-0.988 1.001,-0.988 0.604,0 0.999,0.443 0.999,0.988 v 8.09 c 0,0.545 -0.396,0.988 -0.999,0.988 z m 0.027,-9.078 -0.131,0.072 0.023,8.018 0.055,-0.053 c 0.045,0 0.071,-0.014 0.076,-0.02 z" /></g></g><path
       inkscape:connector-curvature="0"
       id="path4906"
       d="m 64.840276,147.05853 9.202103,-5.25445"
       style="fill:none;stroke:#ffcc99;stroke-width:1.48507333;stroke-linecap:butt;stroke-linejoin:miter;stroke-miterlimit:4;stroke-dasharray:none;stroke-opacity:1" /><path
       inkscape:connector-curvature="0"
       id="path4908"
       d="m 90.661103,147.27747 -9.40812,-5.47339"
       style="fill:none;stroke:#ffcc99;stroke-width:1.48507333;stroke-linecap:butt;stroke-linejoin:miter;stroke-miterlimit:4;stroke-dasharray:none;stroke-opacity:1" /></g></svg>