<svg xmlns="http://www.w3.org/2000/svg" width="385.8" height="403.1" viewBox="0 0 385.822 403.069"><g fill-rule="evenodd" clip-rule="evenodd"><path fill="#9C7D23" d="M333.3 370.3c0 .7.5 1.2 1 1.2h.2c0 .8 0 1.6.2 2.3 1.2 3 3.4 3.7 4 4.8 0 .3 0-.6.3-.4 2.3 2.5 6 4.3 9.6 2.5 2.4-1.4 2-4.7.4-6.6-2-2-5-3.5-6.4-4.2 0-.2.5-.7.3-.8-1.4.3-5-1-6.8 0l-1 .8c0-.4-.5-.7-1-.7-.2.5-.6 1-1 1.3m27.2-43.6c-6.7-1.6-8 4-11.4 4.3-2 0-1-2-2.8-2.7.2 0 .4-.3.5-.6v-.2c1 .5 2 .8 2.7.8 4 0 6-2 7.4-2.2.3 0-.6-.4-.3-.5 4-1.5 7.6-5 7.3-9.8-.6-3.3-4.5-4.4-7.4-3.4-3.4 1-6.3 4-7.8 5.2-.2-.2-.6-1-.7-.7-.4 1.6-3.6 5-3.3 7.6 0 .5.2 1 .5 1.5-.6-.2-1 0-1.3.6-.2.2-.2.5 0 .7l-.6.7c-2.5.4-3 4.3-5.5 4.7-.5 0-1.6-.4-2-1.6v.2c-1-2.3-3-10-8.4-17.5-2-3-4.3-6-6.6-9 .2 4-5.3-.2-8 5-1.2 2 0 4.6-1.3 6.6-1 1.5-3.2-1-4.6 2.3-2 5.6-5.4 11-7.7 16-2.4 5.8-.6 11.4-3 15.4 10 5 17.2 15.6 39 15.7 1-.7 1.5-1.2 2-1 2.3-.2 5 2.2 7 3.2 2 .8 3.7-1.4 5.7-2 3.5-1 7.3 6.4 12.2 4 2.4-1 1.3-1.8 2.8-2.7 2-.8 7 4.8 10.3 2.7 2.7-1.7 1.2-3.4 2.3-4.3 1.6 0 4.2.5 6-.6 1.5-.7 2-1.5 2-2.5 1-5-3.6-4.8-3.7-6.6-.2-1.8 3.8-1.6 1.3-6.4-2.3-3.2-5-.6-7-2-.8 0 2.2-2-1-4-1.7-1-6.2-1.2-7-1.2-1-1.2-1.2-2-2-2.7.4-1.6 4.4-2.6 5.5-4.5 1-1.5.8-3.8 0-4.8-3-2.5-5.7-1.7-9 0-1.7-.6 0-3-2.4-3.7zm-47 67c-3.2-1.8-4.2-.3-4-6.6 0-2.8-5-1.5-8.3-3-4.3-2.5 2-4-2.7-7-.6-.3-7-1.2-10.2-1.8-1.2-.2-.2-2.4-.4-4l-.3-.3.2-.2c-.2-1.2-1.2-2-4.2-2-1 .2-5 1.5-7 .4-.5-3.6-1.7-3.2-2.7-3.5-3-.8-5 1.6-7 1.3-3.5-2-.5-1.5-4-3.3-3-.4-8 1.8-11 1.6 2.5 3 5 6.2 7.3 9.7 5.7 9 10 17 16.7 18.4.4 0 1 0 1.8.3 2.4.6.4 5.4 4.4 5.8 3.8.7 2.6-2.6 4.3-2 2 .7 2.7 4.8 5.8 4.7 2.7.2 2-2.5 3.6-2.3 2 .3 3 3.6 6.4 3 3 0 2.8-3.8 4.5-4.7 5 2.4 12.6-.4 7-4.7zm-65.2-32c.8.3 1.7 0 2-.6v-.2c.8.6 1.7 1 2.6 1 4 0 6-2.3 7.4-2.3.3 0-.6-.6-.3-.7 3.7-1.4 7.5-5 7.2-9.7-.6-3.2-4.5-4.3-7.4-3.3-3.4 1-6.3 4-7.8 5.2l-.7-1c-.3 1.8-3.5 5.3-3.2 7.8 0 .5.3 1 .6 1.4-.6 0-1 .3-1.3.7v.7c.2.4.5.7 1 1zM353.5 269c-2-.8-3.8-1.4-5.2-.8-2.3 1-2.8 3.7-3 3.3-1-1.5-.5-3.4.5-4.2 1.5-1.4 5-1.8 5.8-2.7 2-2.2-.2-3.2.2-4.4.6-2.2 7.6-4.6 8.6-6 .7-1 1.2-2.3 0-3.7-1.2-1.5.4-3 2.4-4.4 6-6 1.4-7.8-.5-8.2-.6 0 4.5-4.3 5.2-7.7.5-2.5-3.4-4.4-3.4-4.7 8.7-11-3-13-6.8-6.8-1 1.4-3.2-3-5.5-2-1 .3-3.2 2-3.8 2.5l1.6-3.2c1.6.4 3 0 4.8-1 3.6-1.5 4.6-4.2 6-4.8.3 0-.8-.3-.5-.5 3-2.8 5-7.5 3-11.8-1.7-3-5.7-2.4-8-.4-2.8 2.3-4.5 6-5.4 7.7l-.4-.2c-.2.4-.4 1-.7 1.3-.5 2.3-2 5.6-1 7.3.3.5.5 1 1 1.5-.6.2-1.6.6-1.6 1v.8l-2 6.6c-1.2-.3-3.6-1.8-5 .3-1.2 2-1 9-2.7 8-1-.7-2-1.8-4-.8h-.2c.4-1.3.8-3 0-4-.5-.7-2.8 0-3-1.5-.4-2 1.8-6.2 1.7-8-.2-2-2.6-1.6-3.2-2h-.4v-.2s-.2 0-.2-.2v-.2c-.3-.2-.4-.5-.5-.8v-1.2c-.2-1.5 0-3.2 0-4.7 0-.7-.3-1.3-.6-1.8-1.2-2-5 1.3-5.4-.6-.3-5.6-3.6-9.4-5.2-6-.6 2-1 .2-1.7-.6-3-3.5-2.7-4-7-4.6-1.8 1-1.6 5.4 1 9.5.6 1.5 0 1.6-1 2.3-5.4 3.6 4.2 10.8.4 12.5-5.2 3.5 3.5 8 2.3 10.7-2.7.8-4 3-2.7 4.4 1.7 2 5.6 4.4 5.2 6.2 0 2.7-3.8 5.4.2 8 .7.6 1.5 1.2 1.5 2-.5 2.6 3.7 14 13.8 26.8 11.6 14.5 21.5 32 21 37.2v.2c.8-.5 2.8-1.4 3.7-2.6 1-1 .5-3-.2-4.4-1.4-2.8 9 1.7 9.6-7.7 0-1-1.5-3 .7-4.3 4.6-1.3 8-5 6.3-8.2-.4-.8-3-1.3-2.2-3.2 5.4-3.3 6.5-9.2 3-10.3-4-1.2.5-3.6 1.2-6.6.4-1.8-.2-3.7-1-4.6-1-1.7-4.7-1.4-7.8 3-1.8.5-1.2-2.2-3-2.8-4-1.3-4.4 6.3-5.7 6.3zm19.2-139.3c-2.2.7-2.8 1.6-5.4 3-2.4.7-.8-2-3.8-2.2-3.8-.3-5.6 3.7-7 6.6-1.3 2-.6-2.4-5.2-2-3 .4-5 4.8-6.7 8.3-1 .5-1.4-.7-2.6-1.3l1.3-4c1 0 1.5-.5 1.5-1.2v-.2c1 .2 2 0 2.8-.2 3.5-1.4 4.6-4.2 6-4.7.3-.2-.8-.3-.5-.6 3-2.6 5.3-7.3 3.3-11.6-1.8-3-6-2.4-8.2-.5-2.6 2.2-4.3 6-5.2 7.7-.3-.2-1-.7-1-.5.4 1.7-1.3 6 0 8.4.2.4.5.8 1 1-.6.3-1 .7-1 1.2 0 .3 0 .5.3.7l-1 4.2c-.7 0-1.7 0-3 .6-3 3.5-2.4 4-3.8 9-1 2-1-1-4.7 1.6l-2 5.2c4.3 6 13.3 17 18.7 26.6h.2c1 .2 3.7 0 4.6-.8 1-1.3.4-3.6.6-3.5 1.7.5 6.3-1 7.6-3 1.3-2-.6-4.7.8-4.6 4.8-1 6.8-1 9-4.3 1.4-4.3-3.7-3-.6-5.3 2.8-2 4.8-2 7.4-6 1-6-5.5-4.4-1-7.3 2-2 7-7.2 1.7-9-3.2-1 2-4.8 1-8.8-.7-2-1.7-3-4.8-2.5zM351 108c-.3-1.3 1.2-2.2 1.8-2.5 8.8-5 4.3-7 3-9-1-1.6 3-2.4 4-3.8 1-1 1.8-3 .6-4.5-1.2-1.5-3.8 0-2.5-2 3-6 1.8-9.5 0-9.8-1.2-.3-2.3.6-2.3 0 1.2-13.4-7.3-8.8-9-3.3-1 1.5-2-1-4 0-1 .6-1.3 4-2 4-4.4-2.6 4.3-14-4.6-13-2.6.5 3-10.6-4.8-10.6-2 0-3.8 2.5-4.6.3-.3-5.6-5.5-9.7-7.3-4.5-.6 1.8-1.7 1.7-2.3.8-3-3.4-4.4-5.6-9-4.5-1.8 1-2.7 3.7-.3 7.7.7 1.7-1.4 1.8-2.4 2.4-5.5 3.7 6.2 6.4 2.4 8.2-5.2 3.5 6 7 4.8 9.8-2 2.3-2 4.2-.6 5.7 1.5 2 8 4 7.6 5.7-1 4.8 5.2 7.3 5.4 12-1.8 1.7-1.5.8-3.4 4-1 1.6-2-2.2-4.8-.4-1.7 1.2-2.3 6-3 7-.6 1-4 .4-4.7 3.6-.6 2.8 1.7 8 1 9.3-1.2 2-3-.3-3.8 5-.6 3.8 3.4 6 2.4 7.8-.7 1.4-2.6 3-2 6 .7 4 3.5 9.6 4.7 13.2 4.3-7.4 11-14 18.2-17.7l.3-.5c0-1.5 4-3.8 7.7-6.5l1.8-1.4c2.6-2 4.6-4.5 3.6-6.8-1-2.6 4-4.4 6.7-6.2 3-2 1.3-5.2 1.4-5.4zM171.8 363.7c1.5.7 2.6 1.4 3.6 2.6 1 1.3 2 2.7 3 3h1c1.4-.3 4 0 5.2 1 2.3 1.6 3.3 4 5 6.2 0 .2 0 .3.2.4v-.3c.2.6 3 2.8 3.4 3.4 1 1.8-.6 2 0 3.6-6.5 2-12.3 9.3-18.2 16-1.3-.6-2.8-1.5-2.5-4.2 4.6-5 10.6-9.3 16.7-13.2-4 .8-8.2.7-12.6 4-1 .8-3.4.8-4 .2-1-.7 0-2.3-1.3-2.2-2.2.3-4.3 4.3-7.3 4-1 0-2-2.7-3.4-2.5-2.5.2-1.7 4.5-6.5 2-3.5-3.6-3.2-2.8-7-.3-5.7 0-1-2.8-2-4.2-1-1.4-2.4-.8-3.4-.4-1.6.6-5.6 1-6.5-1-.5-1.4 1-3.7 2-4 3-.5 5.5-.7 2.4-3.4-2-1.8 3-4.3 7-3 5-.7-2.3-5.8 3.2-6.6.6 0 5 2.4 8 1.8 2.5-.5 0-7.3 7-4 1 .5 2.4 3 4.4 2.8 1-1.8 2-2 2.8-1.7"/><path fill="#9C7D23" d="M214 363.8c-1.6.7-2.6 1.4-3.6 2.6-1 1.3-2 2.7-3 3h-1c-1.4-.3-4 0-5.2 1-2.3 1.6-3.3 4-5 6.2l-.2.5v-.2c-.3.6-3.2 2.8-3.5 3.4-.8 1.7.6 1.8 0 3.5 6.6 2 12.4 9.3 18.3 16 1.3-.6 2.8-1.4 2.5-4-4.6-5-10.6-9.5-16.8-13.4 4 1 8.3.7 12.6 4 1 .8 3.6.8 4.3.3 1-.7 0-2.4 1.2-2.3 2 .3 4.3 4.3 7.3 4 1 0 2-2.7 3.3-2.5 2.7.3 2 4.5 6.7 2 3.5-3.6 3.3-2.7 7-.2 5.7 0 1.2-3 2-4.3s2.5-.7 3.5-.3c1.6.6 5.6 1 6.5-1 .6-1.4-1-3.8-2-4-3-.6-5.4-.8-2.3-3.5 2-1.8-3-4.2-7-3-5-.7 2.3-5.8-3.2-6.6-.6-.2-5 2.3-8 1.7-2.5-.4 0-7.3-7-4-1 .5-2.5 3-4.4 3-1-2-2-2-2.8-2"/><path fill="#ACD4F2" d="M89.6 117.6h206.7v194c0 14.2-11.5 25.5-25.6 25.6h-52.2c-4.6 0-24 2-25.6 14.7-1.7-12.8-22-14.8-25.5-14.8H114.6c-14-.3-25-11.5-25-25.5v-194z"/><path fill="#F3D400" d="M307.5 48c0 2.3 1.2 3.3 2 6.3-.3 2-4.8 1.6-4.3 3.7.5 1.8 3.4 1.7 5 5-.3 2-3.4 2-2 3.7 2 2.2 4.2 2.8 6 6 0 2.5-3 3.2-1.4 5 2 2.8 8.3 5 9 7 0 .7-.2 1.4-.7 2.4.2 2 4.8 5.3 5.2 9.2.8-.3 1.3-.2 3.5-.8.2-2.4 0-5-.3-7.5 0-.3-5.8-2.8-6-3 0-.3 5.8 1.7 5.7 1.4-.3-2.4-1-5-1.7-7.4 0-.3-9.8-3.7-10-4 4.4-.8 9.6 2.4 9.5 2l-2-6.4c-1.3 0-10-3.6-13.2-6 8-.2 11.8 3.4 11.7 3-3.7-6.7-9.2-13-12.6-19.8-1.3-1.7-2.7-.7-3.2.2m42.8 21c-1.7 1.4-1 3.4-2.8 5.8-1.7 1-3-2-4.3-.2-1 1.6-.4 1.7-1.7 5-1.8 1-4.6 0-5.3 2.2-1.2 4 1.3 3.8 0 7.2-2 1.7-4.7 2-5.3 4.4-.3.8-.2 1.7-.2 2.8 1.5 3 .2 6.6-.8 8.5.6 3 4.7-.8 5 3 .5 3.4-1.6 3-2 6.3 0 1.8 2 .7 2.7 3.5 0 4-7 7.5-1.6 10.2 2-1.3 3.5-13.4 5.2-15.4.2-.2-5-13.3-5-13.4.2-.3 5 4 5.8 10.6 1.5-2 2-6.5 3.4-9-1.3-1-5.8-10.3-5.6-10.6 3.4 2.7 6 9.3 6.2 9 1.3-2 1.8-6.6 3-8.6-.7-1-4.5-5-4.7-9 4.4 3.6 5 6.5 5 6 3-7 2.7-10.6 5.6-17.6.3-2.2-1.6-1-2.7-1zm-23.5 28.5c-1.7 1.4-2.5 2.3-4.2 4.7-2.4 2-4.4-1.4-5.6 0-1.2 1.6-1 3-1.2 6.3-1.8 2-4.8 1.2-5.4 3.3-1 4 2.7 5.6 1.5 9-2.2 2.5-3.2 1.7-4.2 3.4-.8 5 1.7 4 2.3 9-.3 2.5-2 1.3-2.5 4.7 1.4 4.7 3 8.3 4.8 12.7 1-2.3 3-9.5 3.2-12.6l-6-11.5s5.7 3 6.4 9.4c1.5-2 .5-5.8 1.8-8.3-1.3-1-5-9.8-4.7-10 3.5 2.7 5.2 8 5.4 7.7 1.2-2 1-5.3 2.2-7.3-.8-.8-3-4-3.2-8 4.3 3.5 4.2 5.5 4.4 5 2.7-7 3.7-9.2 6.7-16.2.4-2-.7-1.6-1.7-1.3zm45.2 34c-2 .6-1.7 2.4-4.3 4-2.4.5-2-3.3-4.8-3.6-4-.4-4.4 5-6 7.8-3.2 3-2-6-7-3-2.4 1.3-2.3 5.5-4.7 8.2-3 1.4-2.8-4-6.8-.8-2.6 4.2-1.5 4-3 8.7-2 2.8-3.2-1.8-5 1.2-.5 1.6-1 4-1.6 5.5.5 1 1 2 1.7 2.8l7.4 9.8 1-1.3c0-.2-3-13.6-2.8-13.8.3 0 3 1.5 4 12.7 2.3-1.3 4.7-5.3 7-7.2-.5-1.7-2.7-14.4-2.4-14.5 2.5 3.8 3.7 13.3 4 13 1.8-1.2 4.8-4.7 6.7-6.4-.4-1.3-2-8.5-1.6-12.6 2.5 5 2.7 10.7 3 10.4 6-5.4 12.8-15.2 18.2-20.5-.7-2-2-1.4-3.2-1zm-5.3 132c-1.5.6-2.2 2-4 3.3-1.6.6-2.4-3.2-4.5-3.2-2.8 0-1.4 4.4-3.6 6.6-1.8 1.8-3-3-6.3-.5-1.7 1.2-1 4.3-2.4 6.4-3 2.7-4 0-6.6 2.4-1.4 2.8.3 5.5-3 8.2 3 3.8 6.8 9.6 8 11 0 0 .4-1.4 1-2.7 0-.2-3-11.5-2.7-11.8 0-.2 2 3 3.8 11 1.5-1 2.4-4 3.8-5.6-.4-1.2-1.5-11.6-1.2-11.6 2.2 2.5 2 10.4 2.3 10.3 1.3-1 3.8-5.3 5-6.7-.3-.8.5-6 .4-9 2.2 3.4.7 7.6 1 7.4 4-4.4 7.8-11 11.3-15-.7-1.5-1.6-1-2.3-.6zm-5-46.5c-1.5.5-2 1.4-3.6 3-2.7 1.4-4-2.8-6-2.5-2.8.5-2.5 5-5 7.5-2.4 2-3-3.6-6-1-.4.6 0 6-2 8.2-1 1.4-4.8-2-6.3 1-.8 1.3-1.5 3.6-1.5 5.6 0 1 .4 3.3-1 5-3.4 0-4 2-4.6 3-1.2 2.6 1.3 6.2.6 8-2.5 3-2 0-4.3 2.8-1 3 1.4 6.5-.4 9.4 3.4 3.3 5.5 7.5 7 8.8 0 0 2-6.2 2.6-7.6 0 0-3.2-11.4-3-12 0 0 1.2 1.3 4 9 .6-.5 2.3-5 4.6-9 .2-.4-4-15.2-3.8-15.5.2-.3 4.8 14 5 13.5 2.7-4.5 5.7-8.8 6.3-9.6-.6-1.2-3-12.4-2.7-12.5 2.4 2.3 3.3 11.3 3.5 11 1.2-1 5.2-6 6.2-7.7-.5-.7-.4-6-1-9 2.8 3 1.8 7.4 2 7.2 3.4-5 10.2-11.4 13-16-.8-1.3-3-1-3.6-.5zm6 113.8c-1.4-.4-2.6.5-4.7 1-3-.4-1.5-3.3-3.5-4.2-2.5-1-5.8 3-9 4.4-4.6 1.3-2.5-2.6-6.5-2-.7.2-2.8 1.7-5.3 3.6-1.5 1-3.3-3.7-6.2-2-1.4.8-1.5.3-2.4 2-.5.8-2.3 3.7-4.4 4.4-2.8-2-4-1.2-4.7-.7-2.7 1.6-3 7-4.5 8.2-3.7 1.2-3.4-.4-7 .8-2.2 1.8-3 6.6-5.3 8.7 2.7 2 5.5 3.8 8.8 5.6l1.5-.7c1-.7 2-1 2.3-1.4 0 0-1.4-10-1-10.3.2 0 2.3 4 2 9.5.8 0 5.3-4.3 9.5-6.5.4-.2.3-11.6.7-11.7.3-.2 0 10.8.5 10.6l6.3-3c0-1.2 5-12.8 5.4-12.7.8 3.2-4.2 12-4 12 1.6-.4 8.4-4.2 10-5 .2-.8 4.6-5.5 5.8-8.2-.6 4-4 7.4-3.8 7.3 6-4.5 18-6 23-8.3 0-1.5-2.6-1.7-3.5-1.5zm-56.4 63c-3-1.5-4 0-4-6 0-3-4.8-1.7-8-3-4.2-2.6 2-4-2.7-7-.5-.2-6.7-1-9.8-1.6-2.4-.5 2.6-6.6-4.7-6-1 0-4.8 1.2-6.8 0-.4-3.3-1.6-3-2.5-3.3-3-.8-5 1.5-6.8 1.2-3.5-2-.6-1.4-4-3.2-2.5-.4-6.4 1.2-9.4 1.5l3.5 4.5c3.6 1.4 7.8 2.5 8.8 3 .4 0 9.5-1.8 9.8-1.6s-7.8 2.4-7.4 2.5c5 1.8 6.2 3 7 3.3 1-.8 11.4-2.3 11.6-2-3 2.4-10.4 2-10 2.5.7 1.5 6.4 4.2 8 5 .8-.7 9.4-1 12.2-2-3.3 2-10.3 3.2-10 3.5 6.5 3.4 21 10.2 27 11.5 1-1-1-2.3-1.7-3zM247 378.5c-3-.6-5-1.2-2-4 2-1.7-3.7-2.6-7-2.6-5-.6 2.8-5.3-2.7-6-.6-.2-5 2.2-8.2 1.6-2.3-.5.8-7-5.6-3.7-1 .5-2.3 3.5-4.6 3.3-1.7-3-1.5-2-2.4-1.8-3 .4-4.6 4.7-6.5 5.2l-4-.4c-3 1-7.6 10.6-10.5 11.6-.3 1.5-2 .6 1.5.4 3-3 11.8-5.8 13-6 .5 0 5.3-7.4 5.7-7.4s-3.3 6.7-3 6.7c5.4-.3 6.2-.7 7.3-.7.6-1 5.7-7.3 6-7-2 3.3-5 6.6-4.5 7 1.3 1 5.5.2 7.3.2.4-.8 4.5-3 6.6-5.2-2 3.4-4.5 5.7-4 5.8 7.2.5 14.6 4 20.2 5.6.5-1.5-1.8-2.4-2.7-2.6zm75-72.4c-4 5.6-4.3.7-6.5 2.6-.5.5-2.3 4-2 7.2-1 3.2-3.4.7-4.8 3.2-1.5 2.7 1.8 7-.3 9.5-2.4 1.5-3.5 2.3-3.6 3-.7 3 .4 3.6-.3 5.4-2 2.6-2.6.5-5 3.3-1 2.3-1 7-1.6 10.5l2.5 1.6c2.5-3 6.6-7.8 7-8.7 0-.2-1.2-9.6-1-10 0 0 2 4 2.3 9 .6-.6 2-2 4.6-6 .3-.4-2-11.8-2-15.3 0-.2 2 3.5 3 7.5.7 3 .6 6.5.7 6.4l5.8-8.4c-.5-1-2.7-11.7-2.7-14.3 2.4 2.4 3.7 12.4 3.8 12.2 3-4.5 4.6-7.7 6.3-10.5 0-.3-.2-.5-.4-.8L322 306zm-14.6-107.6c1 1.8 2.4 5 2.3 7-1 3-1 1.7-2.3 3.4-1.6 2.2 3 5.2 3 8.7-.4 3-2 1-2.2 5 0 .6 3 3.8 3.3 6.6.2 2-5 1.6-3 4.3 1 1.6 4 2.4 5.2 6 .3 1-1.5 3.8-1.3 6 2 2.6 3.6 4 4 5 1 3-1 4.7 0 6.5 0 1 .2 1.8.5 2.6v.4c.7 1.2 1.7 2.4 3 4.7-.2-6-.7-9.4-.5-19 0-1-5-8.7-5-9 0-.4 4.4 4 4.3 3.5-1.2-4.7-.4-4.6-.6-5.6-1.2-.4-6.8-9.2-6.7-9.5 3.2 1 6.5 5 6.5 4.7 0-1.6-1-6.4-1.2-8.3-1-.2-4.2-3-5.6-6.7 3.8 1.6 5 5 5 4.7-.6-8.5-5.3-18.3-7.7-24-1.5 0-1.6 1.4-1 3zM327 55.6c-2 3.8-3.3 8.8-2.5 14 2.8-3.2 3-11 2.4-14zm28.8 30.6c-4 1-8.5 1.5-8 3.7 1.6 1 6-1.4 8-3.8zm15.4 68.4c-4-.7-14-1-14.6.5 1 1.6 11.7 1 14.6-.4zM366.8 279c-3 0-9.4.7-9.7 2 1 1 7.8-.7 9.8-2zm-10-36.2c-3.8-.3-11 .7-11.4 2.2 1 1.3 9-.7 11.5-2.2zm4.4-8.2c-4-.4-8.7-.7-9 .8 1 1.3 6.4.6 9-.8zm-40-21.6c-2 3.2-4.8 7-3.7 8.2 1.7-.3 3.8-5.3 3.8-8.2zm3.4 7c-2.2 3.2-5.7 11.8-4.6 12.8 1.6-.2 4.6-10 4.6-12.8zm3.8 10c-2.2 3.2-9 13.6-8 14.7 1.7-.3 8-11.7 8-14.7zm26.8-109.6c-1.5-2.4-5-2-6.8-.4-2.8 2.4-4.4 6.4-4.8 7.3-.6 2.7 3.2 5.5 5.8 4.8 4-.4 8.2-6.6 5.8-11.6zm6.8 78.3c-1.5-2.4-5-2-6.8-.4-2.8 2.4-4.4 6.4-4.7 7.3-.7 2.7 3.2 5.5 5.8 5 4-.7 8-7 5.7-12zm.4 117.6c-.5-2.8-3.7-3.7-6-3-3.6 1.3-6.6 4.4-7.2 5-1.7 2.4 1 6.4 3.6 6.7 3.8 1 10-3.2 9.6-8.7zM347.8 380c2-1.4 1.6-4 .3-5.7-2-2.2-5.2-3.5-6-3.8-2-.5-4.4 2.6-3.8 4.8.5 3.2 5.5 6.5 9.6 4.6zm-16-265.8c-4 1-10.3 2-9.7 4.3 1.6 1 7.7-2 9.7-4.3zm3.8-38c-2.6 3.2-5 7.7-5.5 13.2 3.6-2.6 5.4-10 5.6-13.3zm15 30.4c-4.2 0-6 .6-10.3 3.8 1 3 7.7-2 10.2-3.8zm3.3 65.5c-4-1.6-8.4-2-13.7-.8-.2 3 10.6 1.5 13.6 1zm5.3 122c-3-.8-9.2 1-13 2 0 2.3 10.8-1.2 13-2zm-33.6 40.5c-3-1-7 .6-10.7 1.8 0 2.2 8.5-1 10.7-1.8zm8-8.2c-3-1-8.4-2-12.3 1 0 2.2 10-.3 12.2-1zm30.7 39c0-3 0-6.2-4-9-2 1 2.7 7 4 9zm5-1.6c0-2 0-4.3-2.7-6.2-1.5.6 1.8 5 2.7 6.2zm-11.8-16.2c-2.2-2-6.7-5.3-11.4-4.6-1 2 9 4 11.4 4.5zM348 354c-5.3-2.5-6.8-6-11.6-6.3-1.3 1.7 8.6 6.8 11.7 6.3zm-8.8 3.8c-1.7-2.5-6.2-3.3-10.6-6-1.8 4 8.5 5 10.6 6zm-13 5.5c-1.6-2.5-4.5-3-8.2-4.8 0 4.8 6.2 4 8.3 4.8zM292 396.6c0-3-4-7.4-6.3-11-2.8 4 5 9 6.3 11zm-56.2-14c-1-2.2-5-5.2-7.8-7-.7 3.7 6.3 6 7.8 7zm50.2 12c0-3-7.6-10.8-9.8-14.3-2.7 4 8.5 12.3 9.8 14.2zm-57-10.7c-1-2.3-7-6-9.6-8-.7 3.8 8 7 9.5 8zm46 3.8c0-3-6.7-9-8.8-12.7-2.8 4 7.6 11 9 12.8zm-56.5-3.7c-1-2-5.3-5.3-8-7.2-.7 3.8 6.4 6.4 8 7.3zm127-119c-3.8.6-8.6 1.7-13.2 2.3 3 2.6 7 1.5 13.3-2.2zm-17.6-134.3c-4.2.2-7 2.7-11.3 6 1 2.8 8.7-4 11.3-6zm5.5-68.5c-2 3.7-4.7 11.7-4.3 17 3-3 4.4-13.8 4.2-17zm20 34.3c-4 .8-8.7 1.4-8.8 3.5.8 1.6 6.6-1.3 8.8-3.5zm10.2 66.8c-4-1-14.7-1.5-15.7.5 0 1.7 12.8.5 15.7-.5zm1 125c-3-.6-12.4-.3-13 1 .2 1.4 11 0 13-1zm-10.7-35c-4-.5-15 2.4-15.7 4.3.2 1.6 13-3 15.7-4.2zM331 122c-4.3.7-12 3-12 5.3.7 1.6 9.6-3 12-5.2zm43.4 223c-1.8-.8-3.6-1.5-5.8-.8.5 2.3-6 4-6.8 4-3 .2.6 3.2-1.4 5.2 0 0-1 1.4-2.6 1.7-3 .6-5.8-1-6.5 1 0 .8-.6 3.2-3 3.8-4.2 1-6.6-2.2-9.5.3-.8.6-1 2.7-2.3 3.5-2 1.5-5 1.7-2.2 2 2.4.4 4.6-1.5 5.5-4.4.5-1 4.5.8 6 .8 4.4.7 5.8-1.7 6.8-4.2-.2-1.3 3.5 0 6-1 1.7-.6 2-1.3 2.2-2.3.6-.6 9-4.8 9.2-4.7.3 0-8.3 5-7.8 5l2.6.7 2.5.8c.3.2 7.3-2.7 7.5-2.6.4 0-6.2 3.3-5.7 3.5 7.4 2.5 13.6 6 14.3 6 2-.3 2.2-4.4-2.4-5.5-2-3.5 2.6-3.4 1.7-6-1.2-4.3-5.4 0-7.8-1.4-1.8-1 1.5-3-.6-5zm-163.6 50l-1.6 2c-1.6-3.3-4.4-6.2-6.6-9 3.2 2 6 4 8.2 7zm-.6 3c-.7-1 .8-2 1.2-2.8l1 1.4c0 .7-1 2.2-2.2 1.3zm55.6-48.2c-.5-2.8-3.8-3.6-6.2-2.8-3.4 1-6.4 4.2-7 5-1.7 2.2 1 6.3 3.5 6.6 4 1 10.2-3.2 9.8-8.8z"/><path fill="#105A26" d="M327.3 208h.4c1.6-2.2 1.7-3.2 1.5-5.5-9-8.7-22.3-24.4-22.3-33.3-1.3-15.2 14-32.5 28.4-36.8 2.7-1.2 2.5-3 2-4.6l2-1.4c4.2 6-6.7 13-13.8 28.8 2.6 5 18 22.4 23.3 35 5.3 12.5-2.3 17-4 21.2-1.7 5-8.3 17.5-11.5 15.5v3.5l-.4.2c.4-1.3.8-3 0-4-.5-.7-2.8 0-3-1.5-.4-2 1.8-6.2 1.7-8-.2-2-2.6-1.6-3.2-2-2-.8-1-4.5-1.2-7.3"/><path fill="#008E21" d="M343.8 210.3c3.5-4.2 6.5-11.2 5-14.3-6.4-22-31-37-27-55-5.7 5.6-10.4 13.2-13 21.2-2.6 12.3 6.8 22.5 15.7 33 7.3 8.3 15.6 17 10 30 6.7-7.2 5.5-7 9.3-15"/><path fill="#D92819" d="M344.4 209.4c-2.8-14.5-12.8-23.7-21.5-35.2-5.8-7.5-9.2-18.3-7.8-25.4l-2 3.5c.5 22.6 13.4 26.2 24.4 45.4 2.3 4 3.6 9.2 5.2 14.8.5-1 .8-1.8 1.6-3"/><path fill="#105A26" d="M349 314.2c.5-5.2-8-23.6-19.7-38.2-10-12.7-15.6-23.2-15-25.7-1.7 0-.7 3.8-2 9.4-2 8.2-5.5 16.4-5.5 18.5-.5 3.3 1 9.5 4.3 14.7 4.4 7 10.4 14.6 15.5 22 5.3 7.5 8.6 14 9.5 16.2 1.2-1 2-4.5 4.2-6.8 4-4.2 8.8-7.8 8.8-10.2"/><path fill="#008E21" d="M347.3 314.3c.4-4.7-8-23-18.5-36-9.2-11.7-15-19.5-14.4-21.8-1.5 0 .2 1-1 6-2 7.5-5 14.8-5 16.7-.3 3 2.2 8.8 5 13.5 4 6.4 9.2 13.3 13.8 20 4.8 7 8.5 12.7 9.4 14.8 1-1 1.3-3.4 3.2-5.4 3.6-3.7 7.5-5.5 7.5-7.7"/><path fill="#D92819" d="M342.6 319.6c-3.7-12.3-10.8-21.4-19-32-5.2-7.2-10.3-14.3-11.6-21-.6 1-.6 3-1.2 4 6.7 16.8 14.7 20 25 38 2 3.7 3.5 7.6 5 12.7.4-1 1-1 1.8-1.7"/><path fill="#105A26" d="M335.6 365.7c-23-2.5-32-17.4-49-18.3-5.5-.7-13.5 3-19.8 8.8-6.7 3.4-10.2 6-10.6 8.2v.3c2.3-.6 4.7-1.2 6.5-1 3.4 1.8.4 1.3 4 3.3 1.8.3 4-2 7-1.3 1 .3 2 0 2.5 3.5 2 1 6-.2 7-.3 3-.3 4 .6 4.3 1.8h-.2c4.5 3 9 5 13 7.2 6 3.4 11 6.5 13.6 5.6 5-.7 6.5-4.7 11-8 2.4-1.6 5.3-2.4 7-4.2 3.3-3 3.6-5 3.6-5.7"/><path fill="#008E21" d="M333.3 367c-3 .4-8.5-2-17-5.3-13-5-19.2-13-31.6-12.5-3.2 0-7 .7-11.3 3.3-4 2.2-7.5 6.5-12.2 7.8 2.2 0 19.6 4 30.7 10.7 9 5.4 17.6 11.2 21.5 10.7 6.2 0 7.5-6.5 11.8-8.2 7.6-2.8 8-5.7 8-6.4"/><path fill="#D92819" d="M322 376c-12.3-1-18.8-8.5-30.6-14.2-7.6-3.7-14.5-7-21-7 .8-.8 1.5-1 2.3-1.8 8.3 1 16.8 5.2 25 10 9.4 5.4 18.3 11.3 26 11.4-.7.5-1 .8-1.6 1.7"/><path fill="#912C17" d="M158.8 351.3c3-.8 7.2 2.7 12.7 5 8 3.4 15.2 2 18.3 20.6-2-2.8-4-6.6-6-7-2.5-1-1.5-1-5.4-.7-1.8-.5-3-4-5.3-5-.8-.3-2.3-1.8-4 1-2 .3-3.5-2.2-4.5-2.6-7-3.4-4.4 3.4-6.8 4-3 .5-7.5-2-8-2-5.6 1 1.7 6-3.2 6.5-4.2-1-9 1.4-7 3.2 3 2.7.6 3-2.5 3.5-.8 0-2.5 2.4-2 3.8 1 2 5 1.6 6.6 1 1-.4 2.5-1 3.4.4 1 1.4-3.7 4.2 2 4.2l2.3-1.2-2.6 3.4c-10 11.8-16.8 7.6-26 6-6.5-1-10.3 1-12-2 7.5-.4 12-9 18.3-18.6 9.3-14.6 22.2-24.7 31.8-23.7"/><path fill="#105A26" d="M227 351.3c-3-.8-7 2.7-12.7 5-8 3.4-15.2 2-18.3 20.6 2-2.8 4-6.5 6-7 2.5-.8 1.5-1 5.4-.7 2-.5 3-4 5.3-5 1-.3 2.4-1.8 4 1.2 2 0 3.6-2.4 4.6-2.8 7-3.4 4.4 3.4 6.8 4 3.2.5 7.6-2 8.2-2 5.5 1-1.8 6 3 6.6 4.3-1 9.3 1.3 7.2 3-3 2.8-.7 3 2.4 3.6 1 0 2.5 2.4 2 4-1 1.8-5 1.4-6.6.8-1-.4-2.5-1-3.4.4-1 1.4 3.7 4.2-2 4.2l-2.3-1.2 2.6 3.4c10 11.8 17 7.7 26 6 6.6-1 10.5 1 12-2-7.4-.4-12-9-18-18.6-9.5-14.6-22.4-24.7-32-23.7"/><path fill="#008E21" d="M228 352.4c-3.4 0-7.5 2.7-12.5 4.8l-4 1.5 7 5.3c1.4-.7 2.4-2.4 3-2.8 6.4-3 5 4 7.2 4.4 3 .5 7.3-1.7 8-1.6 6.7 1.7-1 5.7 3.4 6.2 4-1 9.4 2.3 7.5 4-2.8 2.4-1.6 2.3 1.2 3 2.6.2 3.8 3.5 3.3 4.8-.8 1.8-2 3.2-7 2-1.4-.2-2-1-3 0-.4 1 4 5.5-3 4.2 9 10.8 14.8 8.5 23.2 7 6-1 6 0 9.6-1-7.3-6.7-9.2-10.7-15-19.5-8.4-13.3-20.3-23.2-29-22.3"/><path fill="#D92819" d="M232.6 365c-4.6-4.3-9-7.8-14-9.4l2.6-1.2c5 2.2 9.5 5.8 14 10h-.8c-.2 0-.7 0-1 .2l-.7.2v.2m25.5 31c-4.5-3.6-7.2-7.5-10-11.7h.5c.5-.3 1.4-.3 2-.6 3 5.3 6 10 10.6 11.6l-3 .6z"/><path fill="#912C17" d="M76.4 110c-.6-.6-.7-1-2-1.4.4-1.8-.2-4.6-1.3-6-3-4.3-7.6-7.7-7.6-13 0-5.5 8.4-6 13-11.4-1-6.7 2.4-8.5 7.4-12.8 3.3-3 6.6-7.7 9-8.3 18.4 0 19.8 16 29.2 28.3 10.8-8 14-12.7 21.4-11.6 11.7 3.4 13 11.4 26.2 17 10.8 4.5 15.8.8 21.3 7.7 0 4.5-.4 6.8 0 11.8-3-3.6-9.5-1.8-22-4.4-11.5-2.4-20.8-13.2-32-13.7-.5 8.2-4.6 5.8-9 9-5 3.5-6.5 8-12.3 7.3C107 107 100 88 98 86c0-1-3.5 2-6.7 5.4-2 2-2.6 4.8-4.8 6.7-2.7 2.4-5 2.3-7.8 1.8.8 4.8-1.6 9.6-2.3 10.3"/><path fill="#105A26" d="M309.5 110c.5-.6.6-1 2-1.4-.4-1.7.2-4.6 1.2-6 3.2-4.3 7.8-7.7 7.7-13 0-5.5-8.3-6-13-11.4 1-6.7-2.4-8.5-7.3-12.8-3.3-3-6.6-7.7-9-8.3-18.4 0-19.8 16-29.2 28.3-10.8-8-14-12.7-21.4-11.6-11.6 3.4-13 11.4-26.2 17-10.8 4.5-15.8.8-21.3 7.7 0 4.5.2 7 0 11.8 2.7-3.6 9-3.6 21.8-4.4 11.6-.8 20.8-13.2 32-13.7.5 8.2 4.6 5.8 9 9 5 3.5 6.6 8 12.3 7.3C279 107 286 88 288 86c0-1 3.6 2 6.8 5.4 2 2 2.6 4.8 4.7 6.7 2.7 2.4 5 2.3 7.8 1.8-.7 4.8 1.7 9.6 2.5 10.3"/><path fill="#008E21" d="M317 85.6c-2 0-9.3-5-10.8-6.3 0 2.5-3.3 5.6-5.5 8.8-2.4 4-3.4 7.4 0 9.8 3.6 2.6 7.3 1.2 9.3-1.8 1.4-2 1.8-5.2 2.8-7.2 1.3-2.4 4.2-3 4.2-3.2"/><path fill="#D92819" d="M311.2 82.7c-.4 0-1-.7-1.8-1-.6.3-2.4.8-3.6 3-1 2-1.4 5-2.8 7-1 1.7-2.6 3-4.3 3.2v.6h.2c2.3.3 4.4-1 5.8-3 1.4-2 1.8-5.3 2.8-7.3 1.3-2.4 3.6-2.3 3.6-2.6"/><path fill="#008E21" d="M291.5 59c-3-.7-8-.2-12.7 4-5.7 5-10.5 16-15.5 23-5.4 7.5-11 10.3-12.2 10.3.4 2.3 2.8 2 5.7 4 3 2 5.8 4.5 7 6 2.7 2 8.8-.2 12.7-4.8 4.4-5.2 12.2-21 17.4-26.6 6.5-7 10-3.2 11.3-3.2-2.7-3-11-10.6-13.5-12.8"/><path fill="#D92819" d="M259.5 102.3c14.2-4.8 20.2-37.6 38.2-37.8-1-.5-1.2-1.3-2.4-1.7-19.4 3-20.5 30.4-38 38 1 .4.8.8 2.2 1.5M140.3 75c11.4-1.8 15.3 8.8 27.4 15.2 13 6.8 18.7 2.7 25.2 9.2v9.2c-8.4-4.6-14.7-2-23.3-4.8-10.6-3.3-25-15.6-31.4-13-.4-2.2-3-13 2-16"/><path fill="#F9F200" d="M139 76c11.4-1.7 16.5 8.8 28.6 15.2 2 1 3.6 1.7 5.2 2.3 9.4 3.6 14.5 1.4 20 7v1.2c-2.3-4-9.7-4.8-16.2-6-3.4-.8-9-3.5-10.4-4.4-10.5-6.5-18.2-17-28-14l.8-1.3"/><path fill="#F9F200" d="M138 77.8c11.4-1.7 17.5 8.7 29.6 15 2 1 3.6 2 5.2 2.5 9.4 3.5 14.5 1.4 20 7v1.2c-2.3-4.2-9.7-5-16.2-6.2-3.4-.6-9-3.3-10.4-4.3-10.5-6.4-19-17-28.5-14 0 0 0-.7.3-1.2M137.8 88c1.5 0 2.2-1.2 11.8 2.8 5 2.2 11.8 8.3 23.4 11.5 7.3 1 11-.2 20 3.7v1c-8.4-4.4-14-2.6-20.4-4-11.6-2.4-28-16.3-34.6-13.8l-.2-1.2z"/><path fill="#F9F200" d="M137.5 86.3c3-.7 5.7-.2 9 1.3 3.2 1.4 8.7 4.3 12.3 6.4 5.4 3.3 10.4 5.6 15.3 6.6 6.3 1.3 10.5-.3 18.8 4v1c-8.3-4.6-14.3-2.6-20.5-4.4-4-1.2-9-3.3-13.4-6-8.4-5-17-9.5-21.3-8l-.2-1z"/><path fill="#008E21" d="M245.5 75C234.2 73 230.2 83.7 218 90c-13 6.8-18.6 2.7-25 9.2v9.2c8.2-4.6 18.8-3.5 23.4-4.3 8.2-1.5 24.6-16 31-13.6.5-2 3-13-2-15.8"/><path fill="#D92819" d="M248.5 82.4c-8-1.3-18.7 8-31 13.4-10 4.5-20.7 2.5-24.5 7v2c4.5-5.3 17-3.4 25-7.2 12-5.6 19-14 30.4-13v-2.2"/><path fill="#9C7D23" d="M80 108h226v210.6c0 15.4-12.7 28-28 28H221c-14.2 0-26 11-28 24.7-1.7-13.8-13.5-24.6-27.8-24.6h-57.7c-15.2-.4-27.5-13-27.5-28V108z"/><path fill="#40187A" d="M182.4 338c-6-2.4-12.5-3-14.3-3h-51.6c-13.6-.3-24.6-11.2-24.6-25v-22l90.6 28.3V338zm12.8 5.8c-1.2 1.6-2 3.4-2.3 5.6-.4-2.2-1.2-4-2.5-5.7l2.7 1.3 2-1.2zm99-55.8v22c0 14-11.3 25-25 25H218c-2.3 0-8.6.6-14.3 2.8v-21.5L294 288zM91.7 120H294v146.5l-100.8 32-101.4-32V120z"/><path fill="#F3D400" d="M296.3 268.3l-103 32.7-103.7-32.6V117.6h206.7v150.7zm-95 73v-26.7l95-30v27c0 14.2-11.5 25.5-25.6 25.6h-52.2c-2.7 0-10.8.7-17.2 4zM89.6 284.6l95.4 30v27c-6.6-3.6-15.3-4.4-17.5-4.4H114.6c-14-.3-25-11.5-25-25.5v-27zM84 112h218V315.8c0 15-12.2 26.8-27 27h-54.3-.7c-11 0-25.3 5.5-27 18.8-1.8-13.3-18.2-18.8-26.8-18.8h-55.7c-14.7-.4-26.5-12.3-26.5-27V112z"/><path fill="#9C7D23" d="M159 164.6c18-12.4 26.4-26.2 34-44v-.4.2c.2 0 .2-.2.2-.2v.4c7.6 17.8 16 31.6 34 44-1.6 7.5-10 10.2-14.5 6-1 2.2-3.4 3.2-6.5 2.4 11.6 15 28.3 27.2 47.6 37-2.7 6.4-7.7 9.7-15.7 6.5-2.4 5.6-8.5 6.5-12.2 3.4 0 1.4-1.7 2.6-2 2.6 18 14 37.4 24.5 58.6 33.7-2.5 6.2-12.7 11.6-21.2 9-1 6-11.5 10.7-18 5-2.6 7.7-15.6 9-19 4-4.6 7-15.7 6.6-20 2 0 5.5-1.5 11.6 5.2 11.5-2.4 2.2-6.5 3.5-10 2.6-2 1-3.5 2.8-6.2 2.5h-.2c-2.6.3-4-1.6-6-2.4-3.7.8-7.7-.5-10-2.7 6.5 0 5.2-6 5.2-11.6-4.5 4.6-15.6 5-20-2-3.5 5-16.5 3.7-19-4-6.7 5.7-17.2 1-18.2-5-8.5 2.6-18.7-2.8-21.2-9 21.3-9.2 40.5-19.6 58.6-33.8-.2 0-2-1-2-2.7-3.6 3-9.8 2.2-12.3-3.4-7.8 3-12.8-.2-15.6-6.7 19.3-9.8 36-21.8 47.6-37-3 1-5.4-.2-6.4-2.5-4.4 4.3-13 1.6-14.6-6"/><path fill="#F3D400" d="M161.6 165.8c17-11.6 24.2-22.7 31.3-39.3v-.8.4h.2v-.3.8c7.3 16.6 14.5 27.7 31.5 39.3l-.6 1.8s-3.6-1.6-3.7-1.5c-.2.4 3.2 2.6 3 3-.5.5-1 1-1.8 1.4 0 0-3.7-3-4-3-.3.2 2.6 3.6 2 3.7-.5 0-1 .2-1.7 0-.4 0-3-2.7-3.5-2.8-.4 0 1.5 2.5 1 2.3-1.2-.5-2.5-1.3-3.6-2.4 0 1-.4 1.8-1.2 2.6-.3.2-2.5-2-3-1.8-.2.2 1.2 2.7.7 3h-1.4c-.4 0-2.6-3.5-3-3.5-.3 0 1 3.6.8 3.5-.5 0-2-1.6-2.3-1.7-.3 0 .4 1.6 0 1.5 10 15.8 31 30 49 39 0 .5-.2.8-.4 1.2-.2.3-7.2-3.4-7.4-3.2 0 .3 6.5 4.5 6.3 4.7l-1.4 1.2c-.4.3-6.8-3.8-7.3-3.6-.5.2 5 4.7 4.4 4.8-.8 0-1.7.2-2.6 0-.3 0-5-4-5.3-4-.7-.2 2.8 3.6 2 3.4l-3.6-1.2c0 .2-2-2-2.2-1.7 0 .3 1.8 2.8 1.7 3l-1.5 2c-.3.3-4-3.3-4.4-3-.3.2 3 4.2 2.5 4.4-.6.3-1.3.6-2 .6-.6 0-3-3.7-3.6-3.8-.5 0 1 3.4.5 3.2-.7-.2-1.3-.6-2-1 0 1.5-4.6 6.6-5 6.5 17.2 13.3 37.7 24.7 57.8 33.4l-2.5 2.6-6-4 4.5 5-3.7 1-5.2-4.3 3.5 5H265l-6.2-5 3.8 5.2-4.3-.6-5-3.8 5 6.4-1.4 1.8-5-4.8 4 6-2.2 1.2-4.8-5 3.4 5.5-3 .4-4.5-5 2.3 4.7-3.8-2-4-5 2.3 5.5-1.6 2.5-3.4-4.7 2 6.2-2.7 1.7-3-4.8 1.3 5.2-3.6.5-2.5-4.8.4 4.3-4-1.4-2.4-5 .7 4.8-2.2 2.5-1.7-4.6-.2 5.5-3.7 1-1.3-4.5-.7 4.6-3.7-.6-1-4.6-.6 4-3.4-2-1-5.2-.4 4.8-1.7 2.2-.7-5-.5 6-2.5 1.2-.4-5-1 5.5-2.4.5-.5-4v.3l-.3 3.8-2.4-.4-1-5.4-.6 5-2.5-1.3-.5-6-.7 5-1.6-2.3-.5-4.8-1 5.2-3.4 2-.6-4-1 4.6-3.8.6-.6-4.6-1.4 4.6-3.8-1-.2-5.5-1.8 4.4-2-2.4.6-4.8-2.4 5-4 1.4.4-4.4-2.5 4.7-3.5-.5 1.2-5.2-3 4.7-2.8-1.7 2-6-3.3 4.5-1.6-2.5 2.4-5.6-4 5-4 2 2.5-4.7-4.5 5.2-3-.4 3.4-5.5-4.7 5-2.3-1.3 4-6-4.8 5-1.5-2 5-6.3-5 3.8-4.4.5 3.8-5.2-6 5h-3.5l3.4-5-5.2 4.2-3.7-1 4.4-5-6 4-2.7-2.4c20.2-8.8 40.7-20.2 57.8-33.6 0 0-4.8-5-5-6.5l-1.7 1c-.5.2 1-3.3.6-3.2-.6 0-3 3.8-3.6 3.8-.8 0-1.6-.2-2.3-.6-.2 0 3-4 2.6-4.4-.3-.2-4 3.4-4.3 3-.6-.5-1-1.2-1.6-2 0-.2 1.8-2.7 1.7-3 0 0-2.2 2-2.3 1.8-1.2.5-2.4 1-3.6 1.2-.6.2 2.8-3.5 2.2-3.4-.5 0-5 4-5.5 4-.8.2-1.7.2-2.5 0-.5 0 5-4.6 4.4-4.7-.6-.3-7 3.7-7.4 3.4-.5-.3-1-.7-1.3-1.2-.2-.2 6.5-4.4 6.3-4.6-.2-.2-7 3.4-7.3 3.2 0-.4-.3-.7-.5-1 18.3-9.3 39-23.4 49-39.2-.2 0 .5-1.4.2-1.4-.5 0-2 1.6-2.3 1.7-.4 0 1-3.6.7-3.6-.4 0-2.5 3.5-3 3.5l-1.3-.3c-.5 0 1-2.7.6-3-.4 0-2.6 2.2-2.8 2-.8-.8-1-1.7-1.3-2.5-1 1-2.3 1.8-3.6 2.3-.5.2 1.4-2.4 1-2.3-.4 0-3 3-3.6 3h-1.8c-.5-.2 2.5-3.5 2-3.7 0 0-3.7 3-4 3-.6-.4-1.2-1-1.7-1.6-.3-.4 3-2.5 3-2.8 0-.2-3.8 1.6-3.8 1.4-.3-.5-.5-1-.6-1.8"/><path fill="#9C7D23" d="M166.6 191h53v48.7c0 3.6-3 6.5-6.5 6.6h-13.3c-3.4 0-6.2 2.5-6.6 5.7-.3-3.2-3-5.7-6.4-5.7H173c-3.6 0-6.4-3-6.4-6.6V191z"/><path fill="#E0BF66" d="M169 193.4h48.3V238c0 3.4-2.7 6-6 6h-12-.2c-2.4 0-5.5 1.2-6 4.2-.3-3-4-4.2-6-4.2h-12.2c-3.3 0-6-2.7-6-6v-44.6z"/><path fill="#105A26" d="M215.5 229.8v7c0 3-2.5 5.6-5.5 5.6h-11.2c-3 0-5.3 1-5.7 3.8-.2-2.7-2.6-3.8-5.4-3.8H176c-3 0-5.3-2.5-5.3-5.5v-7.2h44.8z"/><path fill="#008E21" d="M214.7 231v5.3c0 3-2.4 5.3-5.3 5.3h-10.8c-2.4 0-5.2 0-5.5 2.8-.3-2.7-3.5-2.8-5.2-2.8h-11c-3 0-5.3-2.4-5.3-5.3V231h43.2z"/><path fill="#912C17" d="M170.7 195.2h44.8v33h-44.8z"/><path fill="#D92819" d="M171.6 196.2h43v31h-11.3l-3.6-5.8h-2.2c-.5-4.2-4.6-4-7.2-6-.7-4-4-3-5.6-.8-.6.8-1 2-1 3 0 2 1 4 3.6 3.2l.6.6h-3.7l-2 5.7h-10.7v-30.8z"/><path fill="#105A26" d="M176.8 235.5h2.3l-2.2-2 3 .8.6-2.6.6 2.6 3.3-.8-2.6 2h2.6v1.3h-7.5M202.3 235.5h2.3l-2.3-2 3 .8.6-2.6.5 2.6 3.3-.8-2.6 2h2.6v1.3h-7.5M189.2 237.2h2.3l-2.3-2 3 .8.6-2.5.7 2.5 3.2-.8-2.6 2h2.7v1.3h-7.5"/><path fill="#912C17" d="M206.5 222.5c.6 0 1 .5 1 1s-.4 1-1 1-1-.4-1-1 .5-1 1-1M205 224.8c.6 0 1 .5 1 1s-.4 1-1 1-1-.4-1-1 .5-1 1-1M176.8 224c.7 0 1.3.6 1.3 1.3 0 .7-.5 1.3-1.2 1.3s-1.3-.6-1.3-1.3c0-.7.6-1.3 1.3-1.3M209.2 222.5c.5 0 1 .5 1 1s-.5 1-1 1-1-.4-1-1 .4-1 1-1M207.7 224.8c.6 0 1 .5 1 1s-.4 1-1 1-1-.4-1-1 .4-1 1-1M176.8 218c.7 0 1.3.6 1.3 1.3 0 .8-.5 1.3-1.2 1.3s-1.3-.5-1.3-1.3c0-.7.6-1.3 1.3-1.3M209.2 218c.5 0 1 .4 1 1 0 .5-.5 1-1 1s-1-.5-1-1c0-.6.4-1 1-1M175 221c.6 0 1.2.6 1.2 1.3s-.6 1.3-1.3 1.3c-1 0-1.5-.5-1.5-1.3s.6-1.3 1.4-1.3M207.7 220.2c.6 0 1 .5 1 1s-.4 1-1 1-1-.4-1-1 .4-1 1-1M180.4 224c.8 0 1.4.6 1.4 1.3 0 .7-.6 1.3-1.4 1.3s-1.3-.6-1.3-1.3c0-.7.7-1.3 1.4-1.3M212 222.5c.5 0 1 .5 1 1s-.5 1-1 1c-.6 0-1-.4-1-1s.4-1 1-1M210.5 224.8c.6 0 1 .5 1 1s-.4 1-1 1-1-.4-1-1 .4-1 1-1M213.3 224.8c.6 0 1 .5 1 1s-.4 1-1 1c-.5 0-1-.4-1-1s.5-1 1-1M178.5 221c.7 0 1.3.6 1.3 1.3s-.6 1.3-1.3 1.3c-.7 0-1.3-.5-1.3-1.3s.6-1.3 1.3-1.3M210.5 220.2c.6 0 1 .5 1 1s-.4 1-1 1-1-.4-1-1 .4-1 1-1"/><path fill="#999" d="M181.3 1.7c16.5-4.5 32 .2 44 11 17.4 17.5 17.4 46 0 63.5-15.5 15.4-39.5 17.3-57 5.5l-3.6-3.7 2-2.2 11.7 5 2.8 2.3-.2-2 3.7 2.5.2-2 4 2-.4-2.2 5 1.5-.5-2 5 1-.4-2.3 5 .6-1-2 4.7.2-1.7-1.8 8-4L215 68l3.7-1-2-1.6 4.2-2-1.7-1.5 3.4-1.7-1.8-1.5 3.2-2-2-1.3 3.3-2.8-2-.7 3-3.4-2-.4 2.3-3.5-2-.3 2-3.5-2-.2L227 37l-2 .5 1.2-4.3-2 .6 1-4.6-1.7.7v-5l-1.6 1-.5-4.8-1.3 1.4-1.2-5-1.4 1.3-1.2-4.3-1 1.2-1.6-4-1 1.3L211 10l-1 1-1.8-3-.6 1.2-2.2-2.7-.4 1-2-2.4-.6 1-2.2-2-.4 1-2.5-2.3-.5 1c-1.5-.5-3.6-.8-6-1l-9.5-1z"/><path fill="#B7C6C9" d="M197.7 1.3c10 1 18.8 6 26.5 13 16.7 16.6 16.7 43.8 0 60.5-14.8 14.7-37.8 16.7-54.5 5.5-1-.6-1.8-1.2-2.5-2 0-.2.5-.7.7-1l9.7 4.5 4.2 3v-2l3.6 2.4v-2.6l4 2.3-.2-2.6 5.2 1.7-.5-2.2 4.8 1-.4-2.6 5 .6-.8-2.2 4.8.3-3-4 7.6-4 3.2-2.3 5.2-1.2-2-2 4.3-1.8-2-1.7 3.5-1.6-1.8-1.6 3.3-2-2-1.5 3.5-2.8-2.2-.8 3-3.5-2.2-.5 2.4-3.6H226l2.2-3.7h-2l1.6-4-2 .3 1.2-4.4-2 .7 1-5-2 1v-5.6L222 25l-.4-5.5-1.6 1.8-1-5-1.4 1.5-1.5-4.4-1 1.4-1.5-4-1 1.3-1.8-3.5-.8 1.6-2-3.2-.7 1.5-2.2-2.8-.5 1-2-2.5-.6 1.2-2-2-.6.8-2.5-2-.4 1v-.2h-.4c-1-.3-2.3-.5-3.7-.6l-5-.7c3.3-.5 6.7-.5 10.2-.2"/><path fill="#9C7D23" d="M167.3 34.6l6-6 69 62.3c3 9.6-3 15.6-12.6 12.4l-62.4-68.8z"/><path fill="#F3D400" d="M169.2 34.8l4.3-4.3c16.4 15 50.2 47 66.6 61.8 2.2 7-2 11.2-9 9l-61.8-66.5z"/><path fill="#999" d="M157 49.5L181.7 25l26.5 1-37 37.3"/><path fill="#B7C6C9" d="M160 49.6l22.2-22 21 .3-32.5 32.3"/><path fill="#9C7D23" d="M189.5 215c1.8 2.2 4 2 6.3 4 2.7 3-.5 6.4-3.2 5-3.4-1.2-4-3.8-6-4.2l3-4.7"/><path fill="#E0BF66" d="M189 215.6c1 1 2 1.6 3.2 2v.6c.2 1-.4 2-1.3 2.5 1-.4 2-1.5 1.8-2.7.5 0 1 .4 1.3.6h-.2l.2.6c.2 1-.5 2-1.6 2.5 1.4-.5 2.3-1.6 2.2-2.7.2 0 .4.3.6.5 2.4 2.6 0 5.2-2.4 4-3.4-1.2-3.4-3.8-6-4.2l2.3-3.7"/><path fill="#9C7D23" d="M185 222.2H199l3 5h-19"/><path fill="#E0BF66" d="M185.6 223h6.2l-.2.6c0 .5.4 1 1 1 .5 0 1-.5 1-1 0-.2 0-.5-.3-.6h5.2l2.2 3.4h-.8l-2-3h-2l1.7 3h-2.4v-3H194v3h-6v-3h-1v3h-2.6l1.2-3.4z"/><path fill="#9C7D23" d="M188.5 213.4c1.3.6 1.7 2.6.8 4.5-1 1.8-2.6 2.8-4 2.3s-1.5-2.6-.6-4.5c.8-2 2.6-3 3.8-2.4"/><path fill="#E0BF66" d="M188.3 214.2c1 .5 1.2 2 .5 3.5s-2 2.3-3 2c-1-.6-1.3-2.2-.6-3.7.5-1 1.4-2 2.2-2 .8.4 1 1.7.4 3-.4 1-1.2 1.6-2 1.7 1 0 2-.7 2.5-1.8.4-1 .4-2.2 0-2.8"/><path fill="#9C7D23" d="M52.6 370.3c0 .7-.6 1.2-1 1.2h-.3c.2.8 0 1.6-.2 2.2-1 3-3.3 3.8-3.8 5 0 .2-.2-.7-.4-.5-2.3 2.5-6 4.2-9.6 2.5-2.3-1.4-2-4.7-.3-6.6 1.8-2 4.8-3.5 6.2-4.2 0-.2-.5-.7-.3-.8 1.2.3 4.8-1 6.7 0l1 .8c0-.4.4-.7.8-.7l1 1.3m-27-43.6c6.7-1.6 7.8 4 11.3 4.2 2 0 1-2 3-2.7-.4-.2-.6-.4-.7-.6v-.2c-.8.5-1.7.8-2.6.8-4 0-6-2-7.4-2.2-.3 0 .6-.4.3-.6-3.8-1.4-7.6-5-7.3-9.7.6-3.3 4.5-4.4 7.4-3.4 3.4 1 6.3 4 7.8 5.2.2-.2.6-1 .7-.7.2 1.6 3.4 5 3 7.6 0 .5 0 1-.4 1.5.6-.2 1 0 1.3.6v.7l.4.7c2.6.4 3.2 4.3 5.5 4.7.3 0 1.4-.4 1.8-1.6 1-2 3-9.7 8.4-17.3 2-3 4.3-6 6.6-9-.2 4 5.3-.2 8 5 1.2 2 0 4.6 1.3 6.5 1.2 1.6 3.3-1 4.7 2.4 2.3 5.6 5.6 11 7.8 16 2.4 5.8.6 11.4 3 15.4-10 5-17.2 15.6-39 15.7-1-.7-1.5-1.3-2-1-2.3-.2-5 2.2-7 3-2 1-3.7-1-5.7-1.7-3.5-1-7.3 6.4-12.2 4-2.3-1-1.3-1.8-2.8-2.7-2-.8-7 4.8-10.2 2.7-2.8-1.8-1.3-3.5-2.4-4.3-1.5 0-4.2.5-6-.6-1.4-.7-2-1.5-2-2.5-1-5 3.6-4.8 3.7-6.6 0-1.8-4-1.6-1.5-6.4 2.4-3.2 5-.6 7-2 .8 0-2.2-2 1-4 1.7-1 6.2-1.2 7-1.2 1-1.2 1.2-2 2-2.7-.4-1.6-4.4-2.6-5.5-4.5-1-1.5-.8-3.8 0-4.8 3-2.5 5.7-1.7 9 0 1.8-.6 0-3 2.5-3.7zm47 66.8c3-1.7 4 0 4-6.4 0-2.8 5-1.6 8.2-3 4.4-2.6-2-4 3-7 .4-.3 6.8-1.2 10-1.8 1.4-.2.3-2.4.5-4 0-.2.2-.2.3-.3l-.2-.2c.2-1.2 1.2-2 4.2-2 1 .2 5 1.5 7 .4.6-3.6 1.8-3.2 2.7-3.5 3-.8 5 1.6 7 1.3 3.5-2 .5-1.5 4-3.3 3-.4 8 1.8 11 1.6-2.5 3-5 6.2-7.2 9.7-6 9-10.2 17-16.8 18.4-.5 0-1 0-1.8.2-2.5.7-.5 5.5-4.5 5.8-4 .8-2.8-2.5-4.5-2-2 .8-2.7 4.8-5.8 4.8-2.6.2-2-2.6-3.5-2.3-2 .2-3 3.6-6.3 3-3.2 0-3-3.8-4.7-4.7-5 2.4-12.5-.4-7-4.8zm65-31.7v-.2c-.7.3-1.5 0-1.8-.5v-.2c-1 .6-1.8 1-2.7 1-4-.2-6-2.3-7.3-2.3-.4 0 .5-.6.2-.7-4-1.4-7.7-5-7.4-9.7.6-3.3 4.5-4.3 7.4-3.4 3.4 1.2 6.3 4 7.8 5.3l.7-1c.4 1.8 3.6 5.3 3.3 7.8 0 .5-.3 1-.6 1.4.6 0 1 .3 1.3.7v.7c-.2.4-.5.7-1 1zm-105.2-93c2-.6 3.8-1.2 5.2-.6 2.3 1 2.8 3.7 3 3.3 1-1.5.5-3.4-.4-4.3-1.4-1.3-5-1.7-5.8-2.6-2-2.2.2-3.2 0-4.4-.8-2.2-7.8-4.6-8.8-6-.7-1-1.2-2.3 0-3.7 1.2-1.5-.4-3-2.4-4.4-6-6-1.3-7.8.5-8.2.6 0-4.5-4.3-5.2-7.7-.5-2.5 3.4-4.4 3.4-4.7-8.6-11 3-13 7-6.8 1 1.4 3-3 5.4-2 1 .3 3.3 2 4 2.5l-1.8-3.2c-1.6.4-3 0-4.7-1-3.6-1.5-4.7-4.2-6-4.8-.4-.2.7-.3.4-.5-3-2.8-5.3-7.5-3.3-11.8 1.8-3 6-2.4 8.2-.5 2.6 2.4 4.3 6 5.2 7.8l.4-.2.7 1.3c.5 2.3 2 5.6 1 7.3-.3.5-.5 1-1 1.5.6 0 1.6.6 1.6 1 0 .3-.2.6-.3.8l2.2 6.6c1-.3 3.4-1.8 4.7.3 1.3 2 1.2 9 2.8 8 1-.7 2-1.8 4-.8h.2c-.3-1.3-.6-3.2 0-4 .6-.7 3 0 3-1.5.5-2-1.6-6.2-1.5-8s2.5-1.6 3-2h.4s.2 0 .2-.2c.2 0 .2-.2.2-.2v-.2c.3-.2.4-.5.5-.8v-1.2c.2-1.5 0-3.2 0-4.7 0-.7.3-1.3.6-1.8 1.3-2 5 1.3 5.5-.6.3-5.6 3.6-9.4 5.2-6 .7 2 1.2.2 1.8-.7 3-3.5 2.8-4 7-4.6 1.8 1 1.6 5.4-1 9.5-.6 1.5 0 1.6 1 2.3 5.4 3.6-4.2 10.7-.4 12.5 5.3 3.5-3.4 8-2.2 10.7 2.7.8 4 3 2.7 4.4-1.6 2-5.6 4.4-5.2 6.2 0 2.7 3.8 5.4-.2 8-.6.6-1.4 1.2-1.4 2 .5 2.6-3.7 14-13.8 26.8-11.6 14.5-21.4 32-21 37.2v.2c-.7-.5-2.7-1.4-3.7-2.6-.8-1-.3-3 .3-4.4 1.4-2.8-9 1.6-9.6-7.7 0-1 1.6-3-.6-4.3-4.5-1.4-7.8-5-6.2-8.2.4-.8 3-1.3 2.2-3.2-5.4-3.3-6.5-9.2-3-10.3 4-1.2-.5-3.6-1-6.6-.6-1.8 0-3.7.7-4.6 1.2-1.7 4.8-1.4 8 3 1.7.5 1-2.2 2.8-2.8 4-1.3 4.5 6.3 5.8 6.3zM13 130c2.3.6 3 1.5 5.5 3 2.4.6 1-2 3.8-2.3 3.8-.3 5.6 3.7 7 6.6 1.4 2 .6-2.4 5.2-2 3 .4 5 4.8 6.7 8.3 1 .5 1.4-.7 2.6-1.3l-1.3-4c-.8 0-1.5-.5-1.5-1.2v-.2c-1 .2-2 0-2.7-.2-3.6-1.4-4.7-4.2-6-4.7-.4-.2.7-.3.4-.6-3-2.6-5.2-7.3-3-11.6 1.6-3 5.7-2.4 8-.5 2.7 2.2 4.4 6 5.3 7.7.3-.2 1-.7 1-.5-.4 1.7 1.3 6 0 8.4 0 .4-.5.8-1 1 .6.3 1 .7 1 1.2 0 .3 0 .5-.2.7l1 4.2c.7-.2 1.7 0 3 .6 3 3.5 2.4 4 4 9 1 2 1-1 4.5 1.6l2 5.2c-4.3 6-13.2 17-18.7 26.6h-.2c-1 .2-3.7 0-4.5-.8-1.3-1.3-.5-3.6-.8-3.5-1.7.5-6.3-1-7.6-3-1.3-2 .6-4.7-.8-4.6-4.8-1-6.8-1-9-4.3-1.3-4.3 3.7-3 .6-5.3-2.8-2-4.7-2-7.4-6-1-6 5.6-4.4 1-7.3-2-2-7-7.2-1.7-9 3.2-1-2-4.8-1-8.8.7-2 1.7-3 4.8-2.5zM35 108c.3-1.3-1.2-2.2-1.8-2.5-8.8-5-4.3-7-3-9 1-1.6-3-2.4-4-3.8-.8-1-1.7-3-.6-4.5 1.2-1.5 4 0 2.5-2-3.2-6-2-9.5 0-9.8 1-.3 2.2.6 2.2 0-1.3-13.4 7.3-8.8 9-3.3.8 1.5 1.8-1 4 0 1 .6 1.2 4 2 4 4.3-2.6-4.4-14 4.5-13 2.7.5-3-10.6 5-10.6 2 0 3.7 2.5 4.5.3.3-5.6 5.5-9.7 7.3-4.5.7 1.8 1.8 1.7 2.4.8 3-3.4 4.2-5.6 9-4.5 1.6 1 2.6 3.7 0 7.7-.6 1.7 1.5 1.8 2.5 2.4 5.5 3.7-6.2 6.4-2.4 8.2 5.3 3.5-5.8 7-4.6 9.8 2 2.3 1.8 4.2.6 5.7-1.7 2-8 4-7.8 5.7 1 4.8-5.2 7.3-5.4 12 1.8 1.7 1.5.8 3.4 4 1 1.6 2-2.2 4.8-.4 1.7 1.2 2.3 6 3 7 .6 1 4 .4 4.8 3.6.6 2.8-1.7 8-1 9.3 1.2 2 3-.3 3.8 5 .7 3.8-3.4 6-2.4 7.8.7 1.4 2.6 3 2 6-.7 4-3.5 9.6-4.7 13.2-4.2-7.4-11-14-18.2-17.7-.2-.2-.2-.4-.2-.6 0-1.4-4-3.7-7.6-6.4l-2-1.4c-2.5-2-4.4-4.5-3.5-6.8 1-2.6-4.2-4.4-7-6.2-2.7-2-1.2-5.2-1.3-5.4z"/><path fill="#F3D400" d="M78.3 48c0 2.3-1.2 3.3-2 6.3.3 2 4.8 1.6 4.3 3.7-.5 1.8-3.3 1.7-5 5 .4 2 3.5 2 2 3.7-2 2.2-4.2 2.8-6 5.8 0 2.7 3 3.4 1.4 5.3-2 2.7-8.3 4.8-9 7 .2.6.2 1.3.7 2.2 0 2-4.7 5.3-5 9.2-1-.3-1.4-.2-3.6-.8 0-2.4 0-5 .5-7.5 0-.3 5.7-2.8 5.8-3 0-.3-5.6 1.7-5.6 1.4.5-2.4 1-5 1.8-7.4 0-.3 9.8-3.7 10-4-4.3-.8-9.5 2.4-9.4 2l2-6.4c1.3 0 10-3.6 13.2-6-8-.2-11.8 3.4-11.6 3 3.7-6.7 9-13 12.5-19.8 1.5-1.7 2.8-.7 3.3.2M35.5 69c1.7 1.4 1 3.4 2.8 5.8 1.7 1 3-2 4.3-.2 1 1.6.4 1.7 1.8 5 1.7 1 4.6 0 5.2 2.2 1.2 4-1.2 3.8 0 7.2 2 1.7 4.8 2 5.3 4.4v2.8c-1.4 3-.2 6.6 1 8.5-.8 3-5-.8-5.3 3-.3 3.4 1.7 3 2 6.3 0 1.8-2 .7-2.6 3.5 0 4 7 7.5 1.7 10.2-2-1.3-3.4-13.4-5-15.4-.3-.2 5-13.3 5-13.4s-5 4-6 10.6c-1.4-2-2-6.5-3.3-9 1.3-1 5.8-10.3 5.6-10.6-3.4 2.7-6 9.3-6.2 9-1.3-2-1.8-6.6-3-8.6.7-1 4.5-5 4.7-9-4.4 3.6-5 6.5-5 6-3-7-2.6-10.6-5.6-17.6-.5-2.2 1.5-1 2.5-1zM59 97.4c1.8 1.4 2.5 2.3 4.3 4.7 2.4 2 4.3-1.4 5.5 0 1.2 1.6 1 3 1.2 6.3 1.8 2 5 1.2 5.4 3.3 1 4-2.7 5.6-1.5 9 2 2.5 3 1.7 4 3.4.8 5-1.7 4-2.2 9 .3 2.5 2 1.3 2.5 4.7-1.4 4.7-3 8.3-4.8 12.7-1-2.3-3-9.5-3.2-12.6l6-11.5c-.2-.2-5.6 3-6.4 9.4-1.6-2-.7-5.8-2-8.4 1.3-.8 5-9.7 4.7-10-3.4 2.8-5 8-5.2 7.7-1.3-2-1-5.2-2.3-7.2.8-.8 3-4 3.2-8-4.3 3.5-4.2 5.5-4.3 5-2.7-7-3.7-9.2-6.6-16.2-.5-2 .6-1.6 1.7-1.3zm-45.2 34c2 .6 1.8 2.4 4.3 4 2.5.5 2-3.3 5-3.6 3.7-.4 4.2 5 5.7 7.8 3.3 3 2-6 7-3 2.5 1.3 2.5 5.5 4.8 8.2 3 1.4 2.8-4 6.8-.8 2.6 4.2 1.5 4 3 8.7 2.2 2.8 3.2-1.8 5 1.2.6 1.6 1 4 1.6 5.5-.7 1-1.3 2-2 2.8-2 3-4.7 6.2-7.2 9.8l-1-1.3c0-.2 3-13.6 2.8-13.8-.2 0-2.8 1.5-4 12.6-2.3-1-4.7-5-7-7 .5-1.7 2.7-14.4 2.4-14.5-2.5 3.8-3.7 13.3-4 13-1.8-1.2-4.8-4.7-6.7-6.4.4-1.3 2-8.5 1.6-12.6-2.6 5-3 10.7-3.2 10.4-6-5.4-12.8-15.2-18.2-20.5.8-2 2-1.5 3.2-1zm5.4 132c1.5.6 2 2 4 3.3 1.5.6 2.3-3.2 4.5-3.2 2.7 0 1.3 4.4 3.5 6.6 1.8 1.7 3-3 6.3-.5 1.8 1.2 1 4.3 2.4 6.4 2.8 2.7 3.8 0 6.4 2.4 1.4 2.8-.3 5.5 3 8.2-3 3.8-6.8 9.6-8 11 0 0-.3-1.4-1-2.7 0-.2 3-11.5 2.7-11.8 0-.2-2 3-3.6 11-1.5-1-2.4-4-4-5.6.5-1.2 1.6-11.6 1.3-11.6-2 2.5-2 10.4-2.2 10.3-1.3-1-3.8-5.3-5-6.7.3-.8-.4-6-.3-9-2.3 3.4-.8 7.6-1 7.4-4-4.4-7.8-11-11.4-15.2.7-1.3 1.6-1 2.4-.4zm5-46.5c1.4.5 2 1.4 3.5 3 2.8 1.4 4-2.8 6.2-2.5 2.6.5 2.4 5 4.8 7.5 2.5 2 3-3.6 6-1 .4.6 0 6 2 8.2 1 1.4 4.8-2.2 6.3 1 1 1.3 1.7 3.6 1.6 5.6 0 1-.4 3.3 1 5 3.4 0 4.2 2 4.6 3 1.2 2.6-1.2 6.2-.6 8 2.5 3 2 0 4.3 2.8 1 3-1.6 6.5.2 9.3-3.4 3.3-5.5 7.5-7 8.8 0 0-2-6.2-2.6-7.6 0 0 3.2-11.4 3-12 0 0-1.2 1.3-4 9-.5-.5-2.2-5-4.6-9-.2-.4 4-15.2 4-15.5s-5 14-5.2 13.5c-2.7-4.5-5.7-8.8-6.3-9.6.6-1.2 3-12.4 2.7-12.5-2.4 2.3-3.3 11.3-3.5 11-1-1-5-6-6-7.7.4-.7.3-6 .8-9-2.6 3-1.7 7.4-2 7.2-3.3-5-10-11.4-13-16 1-1.3 3-1 3.7-.5zm-6 113.8c1.3-.4 2.5.5 4.6 1 3-.4 1.5-3.3 3.5-4.2 2.5-1 5.8 3 9 4.3 4.6 1.3 2.5-2.6 6.6-2 .5.2 2.6 1.7 5.2 3.6 1.4 1 3.2-3.7 6-2 1.5.8 1.6.3 2.6 2 .5.8 2.3 3.7 4.5 4.4 2.8-2 3.8-1.2 4.6-.7 2.5 1.6 2.8 7 4.3 8.2 3.7 1 3.4-.4 7 .8 2.3 1.8 3 6.5 5.3 8.7-2.7 2-5.5 3.8-8.8 5.6l-1.5-.7c-1-.7-2-1-2.3-1.4 0 0 1.4-10 1-10.3-.2 0-2.3 4-2 9.5-.8 0-5.3-4.3-9.5-6.5-.4-.2-.3-11.6-.7-11.7-.3-.2 0 10.7-.4 10.6l-6.4-3c0-1.3-5-12.8-5.4-12.7-.8 3.2 4.2 12 4 12-1.6-.4-8.4-4.2-10-5-.2-.8-4.6-5.5-5.8-8.2.7 4 4 7.4 3.8 7.3-6-4.5-18-6-23-8.3 0-1.5 2.7-1.7 3.5-1.5zm56.3 63c3.2-1.5 4 0 4-6.2 0-2.7 4.8-1.5 8-3 4.2-2.4-2-3.7 2.7-6.7.5-.4 6.7-1.3 10-1.8 2.2-.5-2.8-6.6 4.5-6.2 1 0 5 1.4 7 .3.3-3.4 1.5-3 2.4-3.4 3-.8 5 1.5 7 1.2 3.3-2 .4-1.5 3.7-3.2 2.6-.4 6.5 1.2 9.5 1.5l-3.5 4.5c-3.5 1.4-7.7 2.5-8.7 3-.4 0-9.4-1.8-9.8-1.6-.3 0 7.8 2.4 7.4 2.5-5 1.8-6 2.8-7 3.3-1-.8-11.4-2.3-11.6-2 3 2.4 10.4 2 10 2.5-.7 1.5-6.4 4.2-8 5-.8-.7-9.4-1-12.2-2.2 3.3 2.3 10.3 3.4 10 3.7-6.4 3.4-21 10.2-26.8 11.4-1-1 .8-2.2 1.5-2.8zm64.4-15.4c3-.6 5-1.2 1.8-4-2-1.7 3.7-2.7 7-2.7 5-.5-2.8-5.2 2.7-6 .6 0 5 2.3 8.2 1.7 2.4-.5-.7-7 5.7-3.7 1 .5 2.3 3.5 4.6 3.3 1.7-3 1.5-2 2.4-1.8 3 .4 4.7 4.7 6.5 5.2 3.8-.4 0-.2 3.8-.4 3 .8 7.6 10.6 10.5 11.6.3 1.5 2 .6-1.4.4-3.2-3-12-5.8-13.2-6-.4 0-5.3-7.4-5.6-7.5-.4 0 3.2 6.8 2.8 6.8-5.3-.3-6-.7-7-.7-.8-1-6-7.3-6.2-7 2 3.3 5 6.6 4.5 7-1.3 1-5.4.2-7.3.2-.4-.8-4.5-3-6.6-5.2 2 3.4 4.5 5.7 4 5.7-7.2.6-14.6 4.2-20 5.7-.7-1.5 1.6-2.4 2.5-2.6zM63.7 306c4 5.6 4.3.7 6.5 2.6.5.5 2.3 4 2 7.2 1 3.2 3.5.6 4.8 3.2 1.6 2.7-1.7 7 .4 9.5 2.4 1.5 3.5 2.2 3.7 3 .7 3-.4 3.6.4 5.4 2 2.6 2.5.5 5 3.3.8 2.3 1 7 1.5 10.5l-2.6 1.6c-2.6-3-6.7-7.8-7-8.7-.2-.2 1-9.6 1-10-.2-.2-2.2 4-2.4 9-.6-.6-2-2-4.6-6-.3-.4 2-11.8 2-15.3 0-.2-2 3.5-3 7.5-.7 3-.6 6.5-.7 6.4-3-4.4-5-7.6-5.7-8.4.6-1.2 2.7-11.7 2.7-14.3C65.4 315 64 325 64 325c-2.8-4.5-4.5-7.7-6.3-10.6l.5-.7 5.6-7.7zm14.6-107.6c-1 1.8-2.4 5-2.3 7 1 3 1 1.7 2.4 3.4 1.7 2.2-3 5.2-3 8.7.4 3 2 1 2.2 5 0 .6-3 3.8-3.3 6.6-.2 2 5 1.6 3.2 4.3-1.2 1.6-4 2.4-5.3 6-.4 1 1.5 3.8 1.2 6-2 2.6-3.6 4-4 5-1 3 1 4.7 0 6.5 0 1-.2 1.8-.5 2.6-.2 0-.2.2-.3.4-.6 1.2-1.6 2.4-3 4.7.3-6 .8-9.4.7-19 0-1 4.8-8.7 5-9 0-.4-4.5 4-4.4 3.5 1.2-4.7.4-4.6.6-5.6 1.2-.5 6.8-9.2 6.7-9.5-3.2 1-6.5 5-6.5 4.7 0-1.6 1-6.4 1.2-8.3 1-.2 4.2-3 5.7-6.7-3.8 1.6-5 5-5 4.7.6-8.6 5.2-18.3 7.6-24 1.5 0 1.6 1.4 1 3zM59 55.6c1.7 3.8 3.2 8.8 2.4 14-2.8-3.2-3-11-2.5-14zM30 86.2c4 1 8.5 1.5 8 3.7-1.6 1-6-1.4-8-3.8zm-15.3 68.4c4-.7 14-1 14.6.5-1 1.6-11.8 1-14.6-.4zM19 279c3 0 9.4.7 9.7 2-.8 1-7.7-.7-9.7-2zM29 243c3.8-.3 11 .7 11.4 2.2-1 1.3-9-.8-11.5-2.2zm-4.3-8.2c3.8-.4 8.6-.7 9 .8-1 1.3-6.5.6-9-.8zM64.5 213c2.2 3.2 5 7 3.8 8.2-1.7-.3-3.8-5.3-3.8-8.2zm-3.3 7c2.3 3.2 5.8 11.7 4.6 12.8-1.6-.2-4.5-10-4.6-12.8zm-3.8 10c2.3 3.2 9 13.6 8 14.7-1.6-.3-8-11.8-8-14.7zM30.6 120.4c1.5-2.4 5-2 6.8-.4 2.8 2.4 4.5 6.4 4.8 7.3.7 2.7-3.2 5.5-5.8 4.8-4-.4-8-6.6-5.8-11.6zm-6.8 78.3c1.5-2.4 5-2 6.8-.4 2.8 2.4 4.4 6.4 4.8 7.3.7 2.7-3.2 5.5-5.8 4.8-4-.5-8.2-6.7-5.8-11.7zm-.4 117.6c.5-2.8 3.8-3.7 6.2-3 3.4 1.2 6.4 4.4 7 5 1.7 2.3-1 6.4-3.5 6.7-3.8 1-10-3.2-9.6-8.7zM38 379.8c-2-1.2-1.6-4-.2-5.5 2-2.3 5.2-3.5 6-3.8 2-.5 4.4 2.6 3.8 4.8-.4 3.2-5.5 6.5-9.6 4.5zm16-265.6c4 1 10.3 2 9.7 4.2-1.5 1-7.5-1.8-9.6-4.2zm-3.8-38c2.6 3.2 5 7.7 5.5 13.2-3.5-2.7-5.3-10-5.5-13.3zm-15 30.4c4.3 0 6 .6 10.3 3.8-1 3-7.7-2-10.2-3.8zM32 172c3.7-1.6 8.2-2 13.5-.8.2 3-10.5 1.5-13.6 1zm-5.5 122c3-.8 9.2 1 13 2 0 2.3-10.8-1.2-13-2zM60 334.6c3-1 7 .6 10.8 1.8 0 2.2-8.5-1-10.7-1.8zm-7.8-8.2c3-1 8.3-2 12.2 1 0 2-10-.4-12.2-1zm-30.8 39c0-3 0-6.2 4-9 2 .8-2.7 7-4 9zm-5-1.6c0-2 0-4.3 2.8-6.2 1.4.6-2 5-2.8 6.2zm12-16.2c2-2 6.5-5.3 11.2-4.6 1 2-9 4-11.3 4.5zm9.3 6.5c5.4-2.5 7-6 11.7-6.4 1.4 1.8-8.6 7-11.7 6.4zm9 3.8c1.6-2.5 6-3.4 10.5-6 1.8 3.8-8.4 5-10.5 6zm12.8 5.5c1.7-2.6 4.6-3 8.4-4.8 0 4.8-6.4 4-8.5 4.8zM94 396.6c0-3 4.2-7.4 6.3-11 2.8 4-5 9-6.3 11zm56.2-14c1-2.2 5-5.2 7.8-7 .7 3.7-6.3 6-7.8 7zm-50 12c-.2-3 7.4-10.8 9.6-14.3 2.7 4-8.5 12.3-9.7 14.2zm57-10.7c1-2.3 6.7-6.2 9.4-8 .7 3.7-8 7-9.5 8zm-46.3 3.8c0-3 6.7-9.2 8.8-12.7 2.8 4-7.6 11-9 12.8zm56.5-3.7c1-2 5.3-5.3 8-7.2.7 3.8-6.4 6.4-8 7.3zm-127-119c3.8.6 8.6 1.7 13.2 2.3-2.7 2.6-7 1.5-13-2.2zm17.6-134.3c4.3.2 7 2.7 11.4 6-1 2.8-8.7-4-11.3-6zm-5.3-68.5c2 3.7 4.6 11.7 4.2 17-3-3-4.6-13.8-4.3-17zm-20 34.3c4 .8 8.6 1.4 8.7 3.5-.8 1.6-6.5-1.3-8.8-3.5zm-10.3 66.8c4-1 14.7-1.5 15.7.5 0 1.7-12.6.5-15.6-.5zm-1 125c3-.6 12.4-.3 13 1-.2 1.4-11 0-13-1zm10.7-35c4-.5 15 2.4 15.8 4.3-.2 1.6-13-3-15.7-4.2zM55 122c4 .7 11.8 3 12 5.3-1 1.6-9.8-3-12-5.2zm-43.5 223c1.7-.8 3.5-1.5 5.8-.8-.6 2.3 5.8 3.8 6.7 3.8 3 .4-.5 3.4 1.5 5.4 0 0 1 1.3 2.5 1.7 3 .6 5.8-1 6.5 1 0 .8.6 3.2 3 3.8 4.2 1 6.6-2.2 9.6.2.8.6 1 2.7 2.3 3.5 2 1.5 5 1.7 2.2 2-2.4.3-4.6-1.5-5.4-4.4-.5-1-4.5.8-6 .8-4.4.7-5.8-1.7-6.8-4.2.3-1.3-3.5 0-6-1-1.7-.6-2-1.4-2.2-2.3-.5-.7-9-4.8-9.2-4.8s8.3 5 7.8 5l-2.5.8-2.4.8c-.3.2-7.4-2.8-7.6-2.7-.4.2 6.2 3.4 5.8 3.5-7.4 2.6-13.5 6-14.2 6-2 0-2.3-4.2 2.3-5.3 1.8-3.6-2.8-3.4-2-6 1.3-4.3 5.5 0 8-1.4 1.6-1-1.7-3 .5-5.2zm163.5 50l1.6 1.8c1.6-3 4.4-6 6.6-8.8-3 2-6 4-8.2 7zm.6 2.8c.7-.7-.8-1.8-1-2.6l-1.3 1.3c.3.8 1 2.3 2.3 1.3zm-55.6-48c.5-2.8 3.8-3.6 6.2-2.8 3.5 1 6.4 4.2 7 5 1.7 2.2-1 6.2-3.5 6.6-4 1-10-3.3-9.7-8.8z"/><path fill="#912C17" d="M58.6 208H58c-1.5-2.2-1.5-3.2-1.4-5.5 9-8.7 22.3-24.4 22.3-33.3 1-15.2-14.2-32.5-28.6-36.8-2.6-1.2-2.5-3.2-2-4.6l-2-1.4c-4 6 6.8 13 14 28.8-2.8 5-18 22.4-23.5 35-5.5 12.5 2.2 17 3.7 21.2 1.8 5 8.5 17.4 11.6 15.5v3.5l.4.2c-.3-1.3-.6-3.2 0-4 .6-.7 3 0 3-1.5.5-2-1.6-6.2-1.5-8s2.5-1.6 3-2c2.2-.8 1-4.5 1.4-7.3"/><path fill="#D92819" d="M42 210.3c-3.5-4.3-6.5-11.2-5-14.3 6.5-22 31-37 27-55 5.7 5.6 10.4 13.2 13 21.2 2.6 12.3-6.7 22.5-15.7 33-7.3 8.3-15.5 17-10 30-6.7-7.2-5.4-7-9.3-15"/><path fill="#F9F200" d="M76.2 159.5c2.5 12.3-7.3 24.3-16.3 34.7-7.4 8.4-14.7 17-10.4 29-1-1.3-1-1-2-2.4-2-11.8 4-19 10.7-27 7-8.2 19.6-20.2 17.2-36l.7 1.7"/><path fill="#F9F200" d="M74.5 155.7C77 168 68.2 181 58.8 191c-7.5 8.2-14.5 17.5-12.5 28.2l-1.5-3c-.8-8.4 6.3-18 13-25.7 7-8.3 18.4-20.7 16-36.4l.7 1.7M37 200.5c2-10.4 8-18.8 14.4-27.3 8-11 16-20.8 13.7-30.8 1 .8.7.6 1.4 1.4 1.2 10.6-6.6 19.7-14.2 30-6.4 8.6-12.7 17.4-14.5 29.3 0-.4-.7-2-.8-2.5"/><path fill="#F9F200" d="M38.3 204.3c2-11 8.5-21.4 15.2-30.4 7.8-10.6 15.2-20 13.6-29.6 1 .8.7.7 1.4 1.5.4 10-7 19-14.4 29-6.5 9-12.8 18.8-14.8 31-.2-.3-1-1.2-1-1.7"/><path fill="#912C17" d="M36.8 314.2c-.4-5.2 6.8-24 18.4-38.5 10-12.7 17-23 16.4-25.4 1.6 0 .6 3.8 2 9.4 2 8.2 5.5 16.4 5.5 18.5.5 3.3-1 9.5-4.2 14.6-4.4 7-10 14.5-15.2 22-5.3 7.5-8.8 14-9.8 16.3-1.2-.8-2-4.4-4.2-6.6-4-4.2-8.8-7.8-8.8-10.2"/><path fill="#D92819" d="M38.6 314.3c-.5-4.7 7.6-24 18.2-37.3 9.2-11.6 15.2-18.2 14.6-20.5 1.5 0 0 1 1 6 2 7.5 5 14.7 5 16.7.3 3-2.2 8.8-5 13.5-4 6.4-9.5 13.8-14 20.5-5 7-8 12.6-8.7 14.7-1-1-1.8-4-3.7-6-3.6-3.7-7.4-5.6-7.4-7.7"/><path fill="#F9F200" d="M76.6 275.8c.2.7 0 .6.3 1 .3 3-2.3 9.4-5.2 14-4 6.5-9.5 14-14 20.6-5 7-8.2 13-9 15.2l-.7-1.2c2.4-4.8 5.3-9 8-13.3 4.2-6.7 10.3-14 14.5-21 3-5 5-9.5 6-15.2"/><path fill="#F9F200" d="M75.7 273.3l.4 1.2c.5 3-2 9.3-5 14-4 6.5-9.6 14-14.3 20.8-4.8 7-8 13.2-9 15.3l-.7-1.2c2.3-5 5.3-9 8-13.5 4.3-7 10.4-14.4 14.6-21.4 3-5 5-9.6 6-15.3M39 316c-.4-6 8-24.6 18.6-38 9.3-11.6 15-17.7 14.3-20 .2 1.3 0 1.4.3 2.8-5 8.2-15 18.2-20 26.4-6 10.2-11.2 20-12.3 29.5l-1-.8"/><path fill="#F9F200" d="M40.7 317.4c-.5-5.6 7.5-23.8 17.8-36.8 9-11.2 14.5-17 14-19.2.2 1.3 0 1.4.4 2.7-5 8-14.7 17.3-19.2 25-5.7 10-11.4 19-12 29.3-.6-.4-.4-.3-1-1"/><path fill="#912C17" d="M50.3 365.7c25-3.5 32-17.5 49-18.3 5.4-.7 13.4 3 19.7 8.8 6.7 3.4 10.2 6 10.6 8.2v.2c-2.3-.5-4.7-1-6.5-1-3.3 2-.3 1.4-3.8 3.4-2 .3-4-2-7-1.3-1 .3-2 0-2.6 3.5-2 1-6-.2-7-.3-3-.3-4 .6-4.3 1.8h.2c-4.5 3-9 5-13 7.2-6 3.4-11 6.5-13.5 5.6-5.2-.7-6.7-4.7-11.2-8-2.4-1.6-5.3-2.4-7-4.2-3.3-3-3.5-5-3.5-5.7"/><path fill="#D92819" d="M52.5 367c3 .4 10-3 18.5-6.3 13-5 17.7-12 30-11.5 3.3 0 7 .7 11.4 3.3 4 2.2 7.5 6.5 12.2 7.8-2.2 0-19.6 4-30.7 10.6-9.3 5.4-17.7 11.2-21.7 10.7-6.2 0-7.5-6.5-11.8-8.2-7.6-2.8-8-5.7-8-6.5"/><path fill="#F9F200" d="M53 368.3c3 .4 10.8-3.6 19.4-7 14-5.4 18-13 36.2-10.7l1.2.5c-5.4 0-11.4-.5-16 1-7.4 2.7-13.6 7.3-21 10-6.3 2.5-13.2 6.4-19.3 7.2-1-.6 0 0-.6-1"/><path fill="#F9F200" d="M54.2 370c3 .3 11-3.7 19.5-7 14-5.4 15.6-12.4 37.4-11l1.6.6c-5.4 0-14.2.2-19 1.8-7.2 2.5-12 6.6-19.5 9.4-6.2 2.3-12.8 6.2-18.8 7-1-.6-.5 0-1-1M122 359.2c-2.2 0-19.6 4-30.7 10.7-9.2 5.4-18.7 11.2-22.7 10.7l-1-.6c10.3-1.2 20.7-10.8 32-15.3 6.2-2.5 14.5-5 21-6.3 1 .5.4.6 1.4.8"/><path fill="#F9F200" d="M120 357.8c-2 0-19.4 4-30.5 10.7-9.2 5.4-18.8 11.3-22.7 10.8l-.6-.6c10-1.4 20.3-11 31.5-15.5 6.2-2.4 14.5-5 21-6.2 1 .5.4.5 1.4.8"/><path fill="#D92819" d="M158 352.3c3.3 0 7.3 2.8 12.4 5l4 1.4-7.2 5.3c-1.3-.7-2.3-2.5-3-2.8-6.3-3-5 4-7 4.4-3 .5-7.4-1.7-8-1.6-6.8 1.7 1 5.7-3.5 6.2-3.8-1-9.3 2.3-7.4 4 2.8 2.4 1.6 2.3-1.2 3-2.4 0-3.7 3.5-3.2 4.8 1 1.7 2 3.2 7 2 1.4-.2 2.2-1 3 0 .4 1-4 5.5 3 4.2-9 10.7-14.8 8.5-23.2 7-6-1-6 0-9.6-1 7.3-6.7 9.2-10.7 15-19.5 8.4-13.3 20.3-23.2 29-22.4"/><path fill="#F9F200" d="M159.6 352.5l1.7.8c-5-.2-11.6 2-16.2 6.3-2.6 2.6-5.7 5.6-8.5 9-2.3 2.7-4.4 5.8-6 8.3-4 5.8-7.7 12.7-13.5 17.5h-1.6c7.3-6.7 9.4-11 15-19.7 8.6-13.2 20.5-23.2 29.2-22.3"/><path fill="#F9F200" d="M162.8 353.8l1.8.8c-5-.2-12.3 2-16.5 5.4-2.8 2.4-6 5.5-8.8 8.8-2.3 2.8-4.4 5.8-6 8.3-4 6-7.7 13-13.5 17.8-.5 0-1 0-1.5-.2 7.3-6.6 9.4-10.7 15-19.5 10-15 21-22 29.6-21.2M144.5 388.4c-1.3 2-2.3 3-3.3 4-.7 1-1.5 1.8-2.8 3-.5 0-1 .3-1.6.4 2.4-2.2 4.8-5 6.6-7.7.3.4.7.4 1 .4M173 358.2c-2.5 1.6-4.8 3.2-6.8 5l-.6-.5c1.8-1.8 4-3.4 6.6-5 .3.3.6.4 1 .5M171 357.4c-2.7 1.6-4.2 2.5-6.2 4.3-.2 0-.4-.3-.6-.5 1.8-1.8 3.2-2.7 5.8-4 .3 0 .6 0 1 .2M142.8 387.4c-.8 1.3-1.8 2.4-2.8 3.7-1.5 2-3 3.7-5 5.3h-1.3c2-1.7 4-4 5.7-6l4.4-6.2c-.4 1.5-1 2.4-1 3.4"/><path fill="#D92819" d="M69 85.6c2 0 9-5 10.6-6.3 0 2.5 3.3 5.6 5.5 8.8 2.5 4 3.6 7.4.2 9.8-3.7 2.6-7.3 1.2-9.4-1.8-1.4-2-1.8-5.2-2.8-7.2-1.3-2.4-4-3-4-3.2"/><path fill="#F9F200" d="M70.7 85l1-.4c1.6 1 1.8 1.4 3.2 2.8 1.2 1.8 2 6.6 3.6 8 1.6 1.7 4 2.3 6.5 2.5l-1 .5c-2.7 0-5.6-1.7-6.5-3-1.4-2-1.8-5.2-3-7-1.5-2.4-3.8-3.2-3.8-3.5"/><path fill="#F9F200" d="M72.2 84.3l.8-.5c1.8 1 2 1.5 3.3 3 1.4 1.6 2 6.2 3.6 7.7 1.5 1.7 3.8 2 6.4 2.2l-.7.7C83 97.4 80 96 79 94.7c-1.5-2-2-5-3-7-1.5-2.3-3.8-3-3.8-3.4"/><path fill="#D92819" d="M94.4 59c3-.7 8-.2 12.6 4 5.8 5 10.5 16 15.5 23 5.4 7.5 11 10.3 12.2 10.3-.3 2.3-2.7 2-5.6 4-2.8 2-5.7 4.5-7 6-2.6 2-8.7-.2-12.6-4.8C105 96.3 97.2 80.5 92 75c-6.5-7-10-3.2-11.3-3.2 2.8-3 11-10.6 13.7-12.8"/><path fill="#F9F200" d="M83 69.4l.8-.7c1.2 0 5.4-2 11.7 6.4 2.8 4 4.6 7 7 10.3 1.8 3 3.8 6.4 6.7 10.5 5.8 8.5 9.2 9.2 13.8 9.5l-.7.7c-3.3 0-7.8-1.2-12-7-3.2-4.5-6-9.3-8.8-13.4C98 80 95 76 94.2 74.8c-6.2-7.8-11-5-11-5.4"/><path fill="#F9F200" d="M84.5 68l.7-.6c1 0 5.4-2 11.7 6.4 2.7 3.8 4.4 6.8 6.7 10.2 2 3 4 6.4 7 10.5 5.7 8.5 9 9.2 13.6 9.5l-.7.7c-3.3 0-7.7-1.2-12-7L103 84.3c-3.7-5.5-6.5-9.7-7.5-10.8-6-7.8-11-5-11-5.4M92.8 60.4l.7-.6c6-.8 12 3 15 7.7 2 3 8.3 13.5 11.2 17.6 5.8 8.7 9.7 11.3 14.4 12.6-.3.4-.4.4-1 .7-3.7-1.3-7.3-3.3-11.7-9.4-3.2-4.6-11-17-13.6-21-4.3-6.5-10.8-8-15-7.6"/><path fill="#F9F200" d="M91.6 61.5l.7-.6c5.8-1 12 2.8 15 7.6 2 3 8.3 13.5 11 17.6 6 8.6 9.4 11 14 12.4l-1 .5c-4-1-6.8-3-11.2-9-3-4.5-10.8-17-13.5-21-4.3-6.4-10.8-7.8-15-7.5"/><path fill="#912C17" d="M173.3 224c.8 0 1.4.6 1.4 1.3 0 .7-.6 1.3-1.4 1.3-.7 0-1.3-.6-1.3-1.3 0-.7.6-1.3 1.3-1.3"/><path fill="#9C7D23" d="M145 90.4c2.3-2.4 7.3-4 9.6-6.3 3-3 3.4-6.7 6.4-9.7l10 10c-2.6 2.6-7.2 3.8-9.8 6.4-2.7 2.8-3.5 7-6.2 9.6-3 3-7.4 3-10 0s-3-7 0-10"/><path fill="#F3D400" d="M147 91.3c2-2.2 6-3.8 8.2-6 2.7-2.6 3.4-5.7 6-8.3l7 7c-2.2 2.4-6 3.8-8.3 6-2.5 2.5-3.5 6-6 8.3-2.5 2.6-6 3-8 1s-1.6-5.5 1-8"/></g></svg>