<svg xmlns="http://www.w3.org/2000/svg" width="385.822" height="403.069" viewBox="0 0 385.822 403.069">
  <path d="M336.13 374.312c-.243 15.404 28.8 9.586 9.675-.778-3.06-1.223-6.972-1.467-9.674.778zm27.102-43.614c-11.002 4.397-17.41 1.774-2.394-.763 14.775-13.2-9.32-19.093-12.227-3.032-14.3 28.075-14.48-33.726-33.92-11.018-13.2 14.302-23.1 45.788 4.7 50.345 18.83 3.294 37.89 7.47 56.56 6.453 23.25-2.194 5.52-24.83-5.77-29.93 15.18-13.278-3.43-5.9-6.94-12.055zm-46.904 66.864c-13.8-14-24.4-24.29-44-27.437-11.23-4.227-23.682-1.575-10.642 9.404 9.545 16.74 28.593 30.08 48.468 24.86 2.727-1.44 12.414-1.48 6.174-6.84zm-65.276-31.788c16.45 7.4 24.64-28.088 3.663-11.406-2.71 2.93-5.163 7.37-3.663 11.406zm105.33-92.875c-18.313 4.05 7.133-12.55 8.626-20.01 5.874-13.95 9.012-41.53-12.296-31.76 15.96 1.35 15.56-32.65 1.76-15.8-5.537 10.22-5.186 27.55-17.958 28.51-3.44-14.04-8.155-28.81-23.62-33.84-7.86 4.88-1.113 32.19.864 44.53 3.926 22.37 19.905 38.95 31.638 57.41 5.6 10.3 5.132 21.86 14.4 7.11 12.263-10.89 14.04-25.7 13.188-42.7-7.023 2.97-14.56-2.14-16.603 6.52zm19.18-139.21c-10.774 2.02-23.463 8.09-29.545 10.64 5.957-2.91 20.48-16.65 8.044-22.56-13.59 7.89-6.86 28.36-21.29 36.55.44 15.84 19.54 41.39 31.95 19.48 12.73-11.6 17.65-27.16 14.2-43.81-1.06-.59-2.21-.36-3.35-.32zm-21.612-21.67c10.075-9.23 12.59-33-.29-38.95-5.484 4.64-15.464 10.12-10.475-2.09-4.992-7.02-8.492-14.48-14.85-17.18-7.974-1.25-21.796-8.65-19.52 6.97-3.673 17.27 26.18 30.86 13.11 44.75-13.624 7-11.893 28.9-11.255 42.45 5.667 16.37 16.623-12.47 27.254-13.99 5.872-6.71 14.036-14.68 16.024-21.98zM174.68 367.73c10.702 5.834 30.696 17.522 11.53 27.552-6.3 8.813-14.87 6.21-4.618-1.546 21.844-14.87-15.892 1.33-24.232-3.23-8 2.52-12.606-5.846-18.72-5.39 5.69-12.077 17.944-17.3 28.16-18.3 1.892 1.72 5.743 3.433 7.88.91z" clip-rule="evenodd" fill="#9c7d23" fill-rule="evenodd"/>
  <path d="M216.845 367.847c-10.712 5.84-30.727 17.536-11.543 27.578 6.306 8.822 14.884 6.215 4.62-1.55-21.864-14.882 15.907 1.332 24.256-3.23 8.006 2.524 12.616-5.85 18.736-5.395-7.446-12.44-20.162-21.88-33.95-16.187l-2.12-1.216z" clip-rule="evenodd" fill="#9c7d23" fill-rule="evenodd"/>
  <path d="M92.472 121.594h206.67c-.35 66.578.7 133.227-.535 199.76-4.557 21.12-29.436 21.345-46.526 19.935-19.68.58-43.9-4.72-57.58 12.34-12.48-19.22-39.72-10.37-59.27-12.43-16.29 1.83-40.06-.69-42.01-21.3-1.6-26.25-.34-52.68-.74-79.03V121.59z" clip-rule="evenodd" fill="#acd4f2" fill-rule="evenodd"/>
  <path d="M310.422 52.032c-2.45 17.12 5.87 28.063 15.355 41.007 2.948 13.19 11.872-1.76 1.994-3.22 14.87-2.47-17.7-15.58 1.87-8.68-.02-8.48-22.38-15.41-4.79-9.85-2.76-6.23-7.49-18.67-14.42-19.27zm42.786 20.917c-15.553 11.66-23.487 29.09-16.04 47.13-2.594 22.81 9.326-7.43 1.27-15.38 8.56 16.82 6.373-4.58 4.105-9.09 11.815 19.19-.703-20.6 7.78-4.12-.73-4.9 9.56-17.05 2.885-18.55zm-23.566 28.5c-19.593 7.58-22.222 41.6-13.027 51.45 5.325-7.18-7.724-30.27 2.156-13.03 5.06-5.69-6.26-24.07 2.48-10.53-3.99-16.27 10.76-12.47 8.4-27.9zm45.283 33.97c-7.116.18-20.615 10.33-18.928 5.91-11.093 4.69-33.61 20.61-15.128 33.87.21-9.06-2.84-19.06 2.52-4.01 11.6 2.04.71-31.89 7.23-9.77 10.6 9.28 4.3-26.3 9.26-4.64 2.66-5.78 20.7-16.65 15.03-21.39zm-5.395 132.02c-11.78 2.93-31.682 11.58-27.63 27.29 11.184 16.5.33-17.49 7.674 1.21 6.594 1.88.264-25.19 4.62-4.65 6.68-4.81 4.642-19.15 7.22-9.75 1.06-2.88 13.29-12.64 8.117-14.12zm-5.01-46.45c-16.04 3.19-25.385 11.92-32.037 24.97-5.12 6.89-13.91 33.92.33 29.5 3.768-8.21-6.094-19.89 2.508-8.44 9.29-5.61-3.75-33.21 3.89-12.98 12.68 9.22 2.7-30.56 8.49-8.26 7.69 1.73 5.33-23.05 7.39-8.32-.05-3.17 19.85-17.5 9.44-16.48zm6.06 113.78c-19.12-2.65-41.598-.01-55.47 15.58-17.43 13.32 9.452 13.46 4.686 6.8 5.805 17.45 14.336-25.64 11.626-4.14 7.356.4 14.634-22 8.48-3.56 4.368 1.3 20.56-17.52 11.17-4.9.864-4.48 29.492-6.2 19.507-9.8zm-56.363 63.16c-13.593-14.63-26.184-24.22-46.222-27.53-17.846-5.68-10.98 9.56 2.03 6.78 13.07-1.85-8.137 3.53 7.16 4.19 14.034.42 4.424-1.94 2.7 3.02 11.965 5.57 18.387-.48 11.464 5.93 5.65 1.37 20.89 13.6 22.86 7.6zm-64.42-15.53c-9.185-12.64-23.437-18.59-38.74-9.18-9.295 1.66-19.304 19.81-4.073 8.38 7.22-5.57 7.24-7.98 10.37-2.23 5.302-2.76 12.474-10.34 5.033-.88 7.618 3.21 15.054-8.07 11.705.82 1.213-.86 25.57 9.6 15.706 3.07zm75.117-72.4c-14.41 9.26-16.79 29.73-23.252 42.75 10.89 9.88 6.988-25.6 10.03-6.18 8.975-6.2-.874-28.51 7.318-9.39 8.765-5.69-1.892-31.29 5.562-10.46 8.072-1.65 6.556-12.56.342-16.72zM310.27 202.41c1.592 20.937 2.855 38.55 9.106 58.147 7.994 19.59-.273-17.02 1.756-20.53-2.98-5.015-9.054-15.152-.233-6.31-4.57-8.328-2.45-31.275-10.63-31.305zm19.515-142.78c-5.822 9.443.43 22.128 0 0zm28.923 30.6c-8.45-.855-10.372 9.024 0 0zm15.33 68.408c-14.86-3.346-17.45 4.732 0 0zm-4.353 124.512c-11.23-.632-11.29 5.103 0 0zm-9.885-36.332c-16.868-.715-10.957 5.95 0 0zm4.236-8.25c-3.777-2.878-13.344 2.68-3.96 1.16l3.96-1.16zm-39.865-21.59c-4.37 1.845-4.31 12.91-.96 4.013l.96-4.01zm3.29 6.99c-8.21 11.777-2.37 18.13 0 0zm3.82 10.06c-7.86 8.228-7.51 18.416-1.18 3.832.51-1.23.76-2.568 1.18-3.83zm26.79-109.615c-13.26-8.59-11.7 23.118-.49 7.53l1.17-3.722-.67-3.8zm6.81 78.33c-13.26-8.59-11.7 23.118-.49 7.53l1.17-3.722-.67-3.8zm.44 117.525c-9.14-12.885-19.42 17.148-3.24 6.814l2.46-3.028.79-3.786zm-14.63 63.594c8.33-16.366-27.34-3.784 0 0zM334.62 118.21c-15.23 1.767-8.2 8.35 0 0zm3.88-38.062c-11.235 18.177-1.26 13.69 0 0zm14.926 30.414c-14.17 1.13-7.55 8.567 0 0zm3.4 65.51c-14.42-5.34-17.4 4.806 0 0zm5.36 122.054c-14.006-.907-16.216 6.24 0 0zm-33.626 40.408c-4.33-2.067-13.97 4.113-4.04 1.532l4.04-1.532zm7.94-8.225c-11.97-3.45-12.41 5.2-.663.17l.667-.18zm30.826 38.93c.85-8.61-9.21-9.96 0 0zm5.01-1.52c1.12-6.82-7.32-7.15 0 0zm-11.88-16.21c-9.234-8.36-13.44-.79-.675-.14l.68.14zM351 358.03c-11.1-10.328-16.715-2.937 0 0zm-8.947 3.75c-10.17-8.825-15.33-3.16 0 0zm-12.85 5.486c-5.45-7.675-14.06-1.52 0 0zm-34.48 33.347c-2.54-11.538-13.116-12.336 0 0zm-56.21-14.03c-8.734-12.198-10.605-2.985 0 0zm50.124 11.935c-2.48-10.295-15.62-15.476-3.554-3.53 1.228 1.133 2.373 2.35 3.555 3.528zm-57.014-10.645c-8.85-10.51-12.887-5.44 0 0zm46.146 3.96c-6.14-14.29-15.54-13.246 0 0zm-56.62-3.71c-9.01-12.59-10.76-3.184 0 0zm126.98-119c-14.51.305-10.64 6.177-.3.164l.3-.167zm-17.57-134.39c-11.49 1.172-13.89 12.983 0 0zm5.48-68.5c-6.68 9.682-2.22 22.126-.22 4.3l.22-4.3zm20.02 34.277c-13.09.58-8.07 8.1 0 0zm10.21 66.736c-19.07-2.58-15.31 4.457 0 0zm1.08 124.96c-8.2-2.133-18.27 3.94-3.39.754l3.39-.752zm-10.77-34.77c-10.99-1.487-18.87 8.085-3.97 1.557 1.33-.48 2.64-1.044 3.96-1.555zm-22.85-131.68c-13.9 1.242-13.93 11.26 0 0zm43.5 223.085c-14.42 1.78-23.63 16.74-39.3 18.33 4.74 2.6 36.72-13.31 31.1-11.93-7.2 9.9 14.84-2.66 4.87 5.93 3.42 5.97 20.49 5.97 9.48-1.75 9.42-10.98-10.94-.26-6.17-10.57zm-163.55 49.82c-9.24-.59-6.98-12.15 0 0zm-.6 3c-.78-6.48 5 1.05 0 0zm55.59-48.02c-9.14-12.88-19.43 17.15-3.25 6.82l2.45-3.03.78-3.78z" clip-rule="evenodd" fill="#f3d400" fill-rule="evenodd"/>
  <path d="M330.135 211.94c-1.13-19.366-31.96-31.858-17.182-53.912 4.75-9.807 25.15-25.804 28.893-22.578-13.822 15.22-14.116 34.907 3.95 46.685 13.147 15.237 4.97 43.386-11.18 49.644 2.034-9.19-5.032-12.07-4.48-19.84z" clip-rule="evenodd" fill="#105a26" fill-rule="evenodd"/>
  <path d="M346.703 214.3c12.507-16.866-5.73-33.66-15.16-46.796-6.658-8.58-7.203-29.875-16.508-9.59-13.566 21.118 11.037 36.272 20.808 52.168 7.04 5.855-2.702 27.978 6.957 12.16l2.066-3.897 1.837-4.044z" clip-rule="evenodd" fill="#008e21" fill-rule="evenodd"/>
  <path d="M347.316 213.45c-3.75-23.032-32.108-35.67-29.247-60.672-7.82 26.133 25.5 39.347 27.8 63.727l.63-.717.81-2.338z" clip-rule="evenodd" fill="#d92819" fill-rule="evenodd"/>
  <path d="M351.865 318.246c-3.716-25.068-26.936-40.603-34.722-63.936-7.873 19.57-10.78 43.633 8.07 58.02 5.842 12.13 14.89 27.714 24.33 9.73l1.332-1.79.99-2.024z" clip-rule="evenodd" fill="#105a26" fill-rule="evenodd"/>
  <path d="M350.134 318.328c-4.304-21.01-20.968-39.678-33.08-54.492-10.512 16.422-3.085 33.71 8.654 46.648 7.27 11.216 14.423 27.547 24.426 7.844z" clip-rule="evenodd" fill="#008e21" fill-rule="evenodd"/>
  <path d="M345.483 323.58c-4.926-16.905-27.848-43.47-30.49-49.42 4.315 19.414 25.138 32.69 29.437 50.894l1.053-1.475z" clip-rule="evenodd" fill="#d92819" fill-rule="evenodd"/>
  <path d="M338.45 369.682c-22.62-.5-43.042-30.202-65.54-12.195-10.3 5.46-19.26 13.825-1.585 12.34 19.825-.56 36.2 25.19 55.722 12.802 3.223-4.98 10.22-6.72 11.403-12.95z" clip-rule="evenodd" fill="#105a26" fill-rule="evenodd"/>
  <path d="M336.164 371.053c-22.455-2.507-44.868-30.484-66.812-10.044-5.868 9.91 21.558 4.6 26.004 14.72 14.077 13.78 29.856 9.09 40.808-4.68z" clip-rule="evenodd" fill="#008e21" fill-rule="evenodd"/>
  <path d="M324.942 380.1c-17.463-5.355-32.964-15.316-49.356-23.117 18.182 3.34 32.882 15.64 49.356 23.117z" clip-rule="evenodd" fill="#d92819" fill-rule="evenodd"/>
  <path d="M161.65 355.277c11.795 2.062 30.197 9.857 29.546 23.464-14.11-15.56-36.927-12.3-48.16-1.59-13.8 12.38 11.034 6.59 5.288 18.18-6.73 8.92-33.347 8.32-32.603.43 16.16-12.15 21.83-39.43 45.93-40.47z" clip-rule="evenodd" fill="#912c17" fill-rule="evenodd"/>
  <path d="M229.924 355.287c-11.794 2.063-30.198 9.857-29.546 23.465 14.11-15.57 36.928-12.305 48.16-1.592 13.798 12.38-11.032 6.59-5.29 18.174 6.73 8.914 33.35 8.32 32.605.43-16.15-12.152-21.825-39.437-45.93-40.477z" clip-rule="evenodd" fill="#105a26" fill-rule="evenodd"/>
  <path d="M230.733 356.355c-15.61.312-16.732 13.566-1.066 9.973 9.408 3.902 22.83 8.713 23.902 20.304-25.65 4.844 11.81 23.393 18.33 9.3-12.29-14.073-20.16-37.323-41.17-39.577z" clip-rule="evenodd" fill="#008e21" fill-rule="evenodd"/>
  <path d="M235.486 368.982c-9.595-5.434-15.89-14.763-2.322-4.55.992.575 7.983 4.383 2.322 4.55zm25.61 30.935c-9.115-4.287-9.65-18.043-2.505-4.004.94 1.736 10.35 4.16 2.51 4.004z" clip-rule="evenodd" fill="#d92819" fill-rule="evenodd"/>
  <path d="M79.247 114.144c-12.58-11.508-9.683-28.502 2.664-35.836 7.78-26.49 39.87-14.44 42.29 7.972 13.12-1.046 29.3-18.567 38.45 1.794 8.82 6.558 45.19 12.22 28.35 24.87-20.18 3.25-43.82-28.572-56.52-7.05-14.99 13.32-28.34-3.01-34.33-14.67-8.26 4.988-17.6 13.994-20.88 22.92z" clip-rule="evenodd" fill="#912c17" fill-rule="evenodd"/>
  <path d="M312.33 114.146c12.58-11.51 9.682-28.503-2.665-35.837-7.776-26.5-39.865-14.44-42.286 7.97-13.1-1.08-29.72-18.76-38.38 2.18-10.17 5.89-44.53 12-29.79 24.94 17.42-1.42 38.67-15.19 51.86-14.45 11.12 20.76 35.19 9.39 40.37-7.74 8.59 5.36 17.28 13.54 20.88 22.92z" clip-rule="evenodd" fill="#105a26" fill-rule="evenodd"/>
  <path d="M319.84 89.574c-11.126-18.576-27.613 19.76-8.315 11.897 2.99-3.77 3.26-9.98 8.316-11.89z" clip-rule="evenodd" fill="#008e21" fill-rule="evenodd"/>
  <path d="M314.095 86.725c-9.428-1.078-14.693 22.458-5.172 7.05.874-2.718 1.675-6.515 5.172-7.05z" clip-rule="evenodd" fill="#d92819" fill-rule="evenodd"/>
  <path d="M294.344 63.032c-19.572 1.65-31.455 31.585-37.096 41.45 21.824 18.177 29.68-18.278 42.273-26.833 14.76-3.31-1.66-9.06-5.17-14.62z" clip-rule="evenodd" fill="#008e21" fill-rule="evenodd"/>
  <path d="M262.396 106.29c11.414-8.706 30.186-36.597 32.535-38.53-16.45 7.192-20.08 27.298-32.53 38.53zm-119.24-27.355c18.02 7.593 38.017 19.09 52.893 27.742-10.33 12.3-32.84-5.977-46.51-9.515-8.9-2.43-13.39-10.632-6.39-18.227z" clip-rule="evenodd" fill="#d92819" fill-rule="evenodd"/>
  <path d="M141.876 80.027c14.763 4.364 46.02 24.35 49.54 23.334-19.42-1.98-31.58-19.21-49.54-23.33z" clip-rule="evenodd" fill="#f9f200" fill-rule="evenodd"/>
  <path d="M140.908 81.78c18.812 4.17 36.167 21.352 53.138 24.012-20.458-2.71-34.21-19.296-53.138-24.01zm-.24 10.178c16.307 4.476 43.5 18.355 52.622 17.774-19.467-.624-35.48-11.146-52.622-17.774z" clip-rule="evenodd" fill="#f9f200" fill-rule="evenodd"/>
  <path d="M140.4 90.27c15.317 4.39 48.078 17.776 51.626 18.853-17.9-3.5-35.28-13.33-51.627-18.852z" clip-rule="evenodd" fill="#f9f200" fill-rule="evenodd"/>
  <path d="M248.42 78.936c-18.23 6.05-34.963 20.41-52.017 25.597 1.232 15.597 30.02-.068 39.51-4.842 9.19-2.79 22.865-9.79 12.506-20.75z" clip-rule="evenodd" fill="#008e21" fill-rule="evenodd"/>
  <path d="M251.37 86.433c-14.644 4.463-46.374 19.08-50.75 19.886 19.298-.91 33.182-14.18 50.75-19.89z" clip-rule="evenodd" fill="#d92819" fill-rule="evenodd"/>
  <path d="M82.88 112.086h225.854c-.363 72.152.73 144.376-.557 216.482-4.453 22.363-30.388 24.212-48.738 22.26-18.94 2.627-47.36-8.406-58.09 12.616-8.21 22.287-11.1-16.274-27.89-11.824-24.51-3.572-49.89 2.61-74.09-3.31-16.81-7.052-17.59-27.05-16.5-42.633v-193.59z" clip-rule="evenodd" fill="#9c7d23" fill-rule="evenodd"/>
  <path d="M185.276 342.057c-24.908-7.945-51.878 2.028-76.618-5.815-17.04-5.696-16.884-36.152-11.17-43.417 29.263 9.16 58.526 18.323 87.79 27.485-.002 7.25 0 14.498-.002 21.747zm12.8 5.735c-1.007 11.69-8.58-.84 0 0zm98.88-55.778c.615 16.588 2.628 41.435-18.647 45.807-22.93 3.91-46.75-1.91-69.56 3.27-4.77-.77-.96-13.55-2.18-19.3 13.09-7.64 32.55-10.61 48.01-16.5l42.36-13.26zM94.656 124.07h202.3V270.5c-33.996 10.343-67.99 22.485-101.984 31.705L94.657 270.423V124.07z" clip-rule="evenodd" fill="#40187a" fill-rule="evenodd"/>
  <path d="M299.14 272.32c-34.368 10.877-68.733 21.768-103.104 32.636-34.522-10.856-69.043-21.71-103.564-32.567v-150.8h206.67v150.73zm-94.99 72.95v-26.647l94.99-30.04c-.746 17.154 4.997 41.638-15.08 50.103-17.518 5.297-36.27 1.328-54.326 2.445-8.657-.13-17.663.26-25.584 4.14zM92.472 288.638c31.813 10 63.626 20 95.44 29.998v27.015c-25.886-10.55-54.805.97-81.067-7.17-19.805-8.48-13.202-33.14-14.373-49.84zM86.875 116.04h217.862c-.353 69.838.71 139.746-.54 209.54-4.432 21.73-29.76 23.043-47.504 21.267-18.07 2.564-43.635-7.38-55.93 9.845-7.953 16.705-12.584-13.454-26.577-9.147-22.737-2.794-46.028 1.715-68.608-2.316-21.19-6.03-19.684-31.33-18.475-48.77-.526-60.13-.08-120.29-.228-180.42z" clip-rule="evenodd" fill="#f3d400" fill-rule="evenodd"/>
  <path d="M161.848 168.62c17.028-6.372 28.987-38.35 35.326-40.88 2.934 18.494 30.51 31.49 29.23 46.346-11.35 1.146-22.086 3.616-8.27 13.542 7.547 12.63 37.863 18.173 34.16 31.258-14.367 4.876-35.945 6.827-11.71 18.1 12.625 9.354 37.182 15.376 41.427 27.073-17.59 9.36-40.17 16.43-56.42 16.11-9.25 4.53-24.48-.29-16.62 13.04-12.1 6.73-32.21 4.53-24.76-11.76-19.81 3.54-38.38-5.79-56.96-9.46-8.46-3.54-28.84-9.79-10.12-17.07 16.49-6.61 34.84-15.43 46.12-28.86-8.33-1.68-40.37-8.91-18.16-17.38 11.56-8.17 34.97-19.27 33.29-32.53-6.38-.9-15.44 1.99-16.49-7.55z" clip-rule="evenodd" fill="#9c7d23" fill-rule="evenodd"/>
  <path d="M164.458 169.787c15.535-5.953 26.378-32.862 32.656-36.976 4.52 15.9 22.16 29.05 29.337 38.82-8.32-4.45 4.67 3.59-4.99 1.51-3.31.53-23.5-1.42-10.57 9.73 8.92 15.78 37.45 23.57 40.93 34.88-13.76-7.23 2.3 7.38-9.44-.62-1.11.81.64.65-4.67.21-2.93 4.52-3.56 1.47-5.79 4.27-17.89 7.87 15.1 22.81 24.31 27.42 9.6 4.46 26.9 13.65 19.35 14.83-.95 4.03-9.86-4.68-6.24 3.02-4.61-1.4-8.34-7.94-5.65-.53-13.79-8.8 2.97 8.38-7.83 1.11 9.32 11.2-9.19-3.32-.53 6.32-7.1-.41-12.65-9.93-12.23.98-3.24-9.81-2.55 8.66-6.02.73-5.16 5.19-13.14-3.74-13.54.82-4.89 7.31-5.77-.23-9.16 4.45-4.21-1.94-6.28-5.12-8.98-3.71-1.74 3.78-1.01-3.93-4.25 4.54 1.21-8.82-7.53 7.18-8.49-2.54-4.96 6.92-3.16-9.84-4.96-.09-.7-11.93-9.36 8.56-11.97-.48-7.11 7.86-4.16-9.03-7.84-.25-.537-11.21-10.796 6.22-12.79-2.75-6.38 3.38-1.826-4.41-7.1-3.78 5.554-9.83-11.07 8.81-3.763-2.7-6.65 11.5-4.094-5.5-9.08 3.94 3.77-11.17-8.525 3.28-.134-9.64-9.142 8.07-3.812-4.97-12.572 3.26 4.148-8.472-10.13 4.96-3.964-5.57-15.09 3.908 13.89-10.393 20.03-11.913 7.26-7.37 38.08-17.28 23.09-28.07-7.24 1.97-.72-1.84-6.96-2.44-4.94-2.81-2.78-.77-10.58.814 11.52-7.95-13.18 2.393 1.49-6.73-14.63 4.555 14.97-9.766 18.82-13.99 9.26-5.6 34.2-29.88 8.77-24.92-4.51 2-1.11-2.78-7.1-.01 5.91-8.61-.32 2.85-1.53-3.904z" clip-rule="evenodd" fill="#f3d400" fill-rule="evenodd"/>
  <path d="M169.437 194.88h53.054c-4.39 17.313 10.19 49.387-10.24 55.563-11.27-4.86-14.8 10.146-21.62.135-18.85 5.342-24.66-9.51-21.18-25.186V194.88z" clip-rule="evenodd" fill="#9c7d23" fill-rule="evenodd"/>
  <path d="M171.774 197.38h48.38c-3.98 15.827 9.154 44.73-9.084 50.802-14.233 1.36-23.087 2.512-37.75-2.513-3.495-15.36-.6-32.38-1.546-48.29z" clip-rule="evenodd" fill="#e0bf66" fill-rule="evenodd"/>
  <path d="M218.368 233.816c2.01 20.785-27.328 12.083-39.937 12.264-15.6-13.906 9.67-13.275 19.67-12.264h20.27z" clip-rule="evenodd" fill="#105a26" fill-rule="evenodd"/>
  <path d="M217.576 234.923c.068 18.717-28.138 9.752-39.926 9.76-10.75-10.947 5.974-10.488 13.41-9.76h26.516z" clip-rule="evenodd" fill="#008e21" fill-rule="evenodd"/>
  <path d="M173.55 199.246h44.808v32.99H173.55v-32.99z" clip-rule="evenodd" fill="#912c17" fill-rule="evenodd"/>
  <path d="M174.514 200.223h42.975v30.9c-11.56 6.723-30.43-26.674-29-5.495-19.99 21.06-12.66-15.707-13.98-25.405z" clip-rule="evenodd" fill="#d92819" fill-rule="evenodd"/>
  <path d="M179.662 237.47c14.185-2.105 2.438 9.58 0 0zm25.508 0c14.186-2.106 2.44 9.58 0 0zm-13.077 1.74c14.187-2.106 2.44 9.578 0 0z" clip-rule="evenodd" fill="#105a26" fill-rule="evenodd"/>
  <path d="M209.405 226.55c4.434 2.623-4.313 2.456 0 0zm-1.48 2.255c4.434 2.624-4.315 2.455 0 0zM179.68 228c5.77 3.415-5.61 3.19 0 0z" clip-rule="evenodd" fill="#912c17" fill-rule="evenodd"/>
  <path d="M212.068 226.55c4.434 2.623-4.313 2.456 0 0zm-1.48 2.255c4.434 2.624-4.315 2.455 0 0zm-30.908-6.793c5.77 3.414-5.61 3.188 0 0zm32.388-.065c4.433 2.62-4.312 2.456 0 0zm-34.326 3.06c5.765 3.41-5.607 3.192 0 0zm32.838-.757c4.433 2.62-4.314 2.454 0 0zM183.32 228c5.77 3.413-5.608 3.19 0 0z" clip-rule="evenodd" fill="#912c17" fill-rule="evenodd"/>
  <path d="M214.866 226.55c4.434 2.623-4.312 2.456 0 0zm-1.48 2.255c4.434 2.628-4.317 2.45 0 0z" clip-rule="evenodd" fill="#912c17" fill-rule="evenodd"/>
  <path d="M216.22 228.805c4.432 2.626-4.313 2.453 0 0zm-34.837-3.8c5.767 3.414-5.61 3.19 0 0zm31.994-.755c4.432 2.62-4.31 2.455 0 0z" clip-rule="evenodd" fill="#912c17" fill-rule="evenodd"/>
  <path d="M184.168 5.75c30.62-10.515 65.113 21.237 56.142 52.728-5.546 30.555-49.22 47.212-71.673 24.214 13.778 1.13 32.762 9.046 45.73-5.872 15.188-11.63 19.238-34.568 9.23-50.865-8.38-14.572-23.21-20.145-39.43-20.206z" clip-rule="evenodd" fill="#999" fill-rule="evenodd"/>
  <path d="M200.618 5.317c30.807 2.056 50.584 42.147 31.698 67.275-12.963 19.944-44.033 25.457-62.287 9.658 12.29 6.265 26.35 7.586 37.68.73 6.74-10.983 24.36-17.06 22.54-33.944.14-16.57-6.99-30.642-21.94-39.372-5.45-3.073-26.86-5.03-7.7-4.347z" clip-rule="evenodd" fill="#b7c6c9" fill-rule="evenodd"/>
  <path d="M170.168 38.62c15.523-11.523 26.742 20.427 41.012 25.633 8.71 13.78 42.473 24.32 30.862 42.327-18.51 2.405-24.92-21.03-38.01-30.64L170.17 38.62z" clip-rule="evenodd" fill="#9c7d23" fill-rule="evenodd"/>
  <path d="M172.123 38.812c17.62-4.614 25.716 22.424 40.214 29.642 8.64 10.51 36.73 23.3 26.616 37.174-11.197-2.098-16.428-14.533-24.7-21.588l-42.13-45.228z" clip-rule="evenodd" fill="#f3d400" fill-rule="evenodd"/>
  <path d="M210.974 30.06c-12.897 10.62-26.116 30.67-38.812 35.402-22.676-11.153 3.685-29.737 15.602-36.315l23.21.914z" clip-rule="evenodd" fill="#999" fill-rule="evenodd"/>
  <path d="M206.022 31.918c-11.974 7.633-24.08 33.04-35.927 28.75-14.69-8.995 10.926-27.66 20.54-29.06l15.387.31z" clip-rule="evenodd" fill="#b7c6c9" fill-rule="evenodd"/>
  <path d="M192.364 219.14c20.678 10.827-11.213 11.38 0 0z" clip-rule="evenodd" fill="#9c7d23" fill-rule="evenodd"/>
  <path d="M191.968 219.57c9.754 5.327 4.52 11.552-1.6 2.697l1.6-2.696z" clip-rule="evenodd" fill="#e0bf66" fill-rule="evenodd"/>
  <path d="M205.163 231.155c-7.177 1.844-27.963-1.532-11.302-5.545 4.34.123 9.67.9 11.31 5.545z" clip-rule="evenodd" fill="#9c7d23" fill-rule="evenodd"/>
  <path d="M188.493 226.957c14.12.73 16.244 1.842 3.43 3.45-2.258-8.112-4.84 6.093-3.43-3.45z" clip-rule="evenodd" fill="#e0bf66" fill-rule="evenodd"/>
  <path d="M191.42 217.423c6.38 12.53-13.82 4.526 0 0z" clip-rule="evenodd" fill="#9c7d23" fill-rule="evenodd"/>
  <path d="M191.192 218.168c-1.242 12.09-3-6.412-1.633 5.046 1.46-1.206.87-3.55 1.63-5.046z" clip-rule="evenodd" fill="#e0bf66" fill-rule="evenodd"/>
  <path d="M55.447 374.3c.248 15.405-28.798 9.59-9.675-.776 3.06-1.223 6.972-1.467 9.675.777zm-27.1-43.61c11.003 4.397 17.407 1.773 2.392-.764-14.78-13.2 9.32-19.093 12.22-3.032 14.3 28.076 14.48-33.723 33.92-11.017 13.2 14.303 23.1 45.788-4.7 50.344-18.83 3.3-37.89 7.47-56.56 6.46-23.25-2.19-5.52-24.83 5.77-29.93-15.18-13.27 3.43-5.9 6.94-12.05zm46.903 66.86c13.8-14 24.397-24.29 43.997-27.435 11.23-4.227 23.68-1.574 10.64 9.404-9.544 16.74-28.59 30.08-48.466 24.86-2.72-1.44-12.41-1.48-6.17-6.84zm65.274-31.786c-16.448 7.398-24.64-28.087-3.663-11.406 2.71 2.928 5.17 7.37 3.67 11.406zM35.198 272.892c18.31 4.05-7.136-12.547-8.63-20.01-5.874-13.946-9.01-41.526 12.296-31.757-15.958 1.357-15.558-32.645-1.758-15.796 5.535 10.22 5.184 27.54 17.954 28.51 3.44-14.04 8.152-28.81 23.617-33.84 7.863 4.88 1.114 32.19-.862 44.52-3.925 22.38-19.905 38.95-31.635 57.42-5.6 10.29-5.14 21.85-14.4 7.11-12.27-10.89-14.04-25.7-13.19-42.7 7.02 2.97 14.56-2.14 16.602 6.52zm-19.18-139.197c10.772 2.027 23.462 8.094 29.542 10.648-5.958-2.904-20.478-16.652-8.042-22.554 13.593 7.89 6.864 28.36 21.294 36.55-.435 15.84-19.54 41.39-31.947 19.47-12.735-11.6-17.645-27.16-14.2-43.81 1.063-.6 2.213-.36 3.353-.32zm21.61-21.674c-10.076-9.23-12.588-32.99.287-38.94C43.4 77.73 53.38 83.2 48.39 71c4.993-7.018 8.494-14.478 14.85-17.18 7.975-1.242 21.796-8.647 19.52 6.976 3.673 17.27-26.18 30.865-13.11 44.75 13.622 7.003 11.89 28.904 11.255 42.447-5.667 16.376-16.62-12.462-27.253-13.99-5.873-6.705-14.033-14.68-16.023-21.977z" clip-rule="evenodd" fill="#9c7d23" fill-rule="evenodd"/>
  <path d="M81.156 52.03c2.45 17.12-5.874 28.063-15.356 41.007-2.948 13.195-11.87-1.757-1.994-3.215-14.863-2.465 17.707-15.578-1.868-8.68.017-8.47 22.378-15.4 4.79-9.844 2.568-5.947 7.76-18.99 14.428-19.267zM38.37 72.95c15.552 11.67 23.486 29.098 16.04 47.136 2.592 22.81-9.328-7.43-1.272-15.38-8.56 16.82-6.372-4.578-4.104-9.086-11.817 19.197.703-20.594-7.78-4.12.73-4.928-9.56-16.992-2.883-18.55zm23.567 28.507c19.59 7.587 22.22 41.605 13.025 51.45-5.326-7.183 7.724-30.27-2.155-13.032-5.053-5.688 6.267-24.07-2.475-10.523 4.134-15.78-10.704-12.648-8.395-27.895zm-45.283 33.967c7.115.188 20.615 10.333 18.928 5.914 11.092 4.695 33.607 20.61 15.128 33.87-.22-9.055 2.832-19.057-2.526-4.005-11.607 2.044-.713-31.887-7.23-9.762-10.606 9.28-4.298-26.3-9.263-4.63-2.67-5.78-20.69-16.64-15.03-21.38zm5.394 132.01c11.78 2.935 31.68 11.583 27.627 27.296-11.182 16.5-.332-17.487-7.673 1.22-6.593 1.886-.264-25.19-4.62-4.652-6.68-4.81-4.642-19.148-7.22-9.747-1.06-2.87-13.292-12.64-8.114-14.11zm5.012-46.444c16.038 3.188 25.38 11.926 32.032 24.97 5.12 6.89 13.91 33.928-.332 29.5-3.767-8.204 6.095-19.89-2.507-8.44-9.28-5.61 3.75-33.207-3.89-12.98-12.673 9.226-2.703-30.55-8.49-8.25-7.685 1.734-5.33-23.05-7.385-8.32.055-3.167-19.852-17.506-9.428-16.48zM21 334.77c19.118-2.65 41.595-.01 55.466 15.578 17.43 13.328-9.452 13.46-4.685 6.803-5.8 17.46-14.33-25.63-11.62-4.13-7.35.4-14.63-22-8.48-3.55-4.37 1.31-20.56-17.52-11.17-4.89-.86-4.48-29.49-6.19-19.5-9.79zm56.36 63.164c13.592-14.627 26.18-24.22 46.22-27.53 17.845-5.68 10.978 9.558-2.03 6.783-13.07-1.852 8.136 3.533-7.16 4.194-14.035.43-4.424-1.93-2.702 3.03-11.965 5.57-18.387-.48-11.462 5.93-5.65 1.37-20.887 13.6-22.866 7.61zm64.417-15.53c9.187-12.637 23.437-18.583 38.74-9.174 9.292 1.66 19.305 19.815 4.074 8.386-7.21-5.558-7.24-7.98-10.37-2.228-5.3-2.753-12.47-10.338-5.03-.877-7.62 3.21-15.05-8.06-11.7.82-1.35-.84-25.67 9.68-15.7 3.08zm-75.113-72.41c14.408 9.26 16.79 29.736 23.25 42.753-10.89 9.875-6.986-25.594-10.028-6.175-8.974-6.204.87-28.51-7.32-9.39-8.764-5.69 1.89-31.292-5.562-10.47-8.304-1.964-6.448-12.174-.34-16.72zm14.644-107.586c-1.593 20.934-2.857 38.547-9.107 58.144-7.99 19.587.28-17.02-1.75-20.53 2.98-5.015 9.06-15.15.24-6.31 4.57-8.328 2.44-31.27 10.63-31.304zM61.793 59.63c6.97 20.2-1.775 13.63 0 0zM32.87 90.23c9.704-.845 9.626 9.263 0 0zm-15.33 68.405c14.86-3.345 17.45 4.73 0 0zm4.355 124.51c4.754-1.996 13.722 3.758 3.752 1.377l-3.752-1.378zm9.884-36.332c16.86-.717 10.95 5.95 0 0zm-4.24-8.25c3.77-2.876 13.34 2.677 3.96 1.16l-3.96-1.16zm39.86-21.59c4.37 1.845 4.31 12.908.96 4.012l-.96-4.013zm-3.29 6.99c8.21 11.776 2.37 18.128 0 0zm-3.82 10.06c7.86 8.228 7.51 18.414 1.17 3.832-.51-1.23-.76-2.568-1.18-3.83zM33.53 124.41c13.257-8.59 11.703 23.116.492 7.53l-1.164-3.722.67-3.808zm-6.812 78.328c13.26-8.59 11.704 23.117.493 7.53l-1.16-3.722.67-3.808zm-.432 117.522c9.14-12.885 19.426 17.147 3.243 6.813l-2.46-3.027-.79-3.786zm14.63 63.592c-7.713-16.85 26.84-3.183 0 0zm16.05-265.645c15.23 1.768 8.2 8.35 0 0zm-3.88-38.06c11.233 18.176 1.26 13.69 0 0zM38.16 110.56c14.2.94 10.237 10.48 0 0zm-3.402 65.51c14.422-5.342 17.406 4.802 0 0zm-5.355 122.048c14.005-.908 16.21 6.24 0 0zm33.624 40.407c4.332-2.067 13.974 4.112 4.04 1.532l-4.04-1.532zM55.09 330.3c11.968-3.442 12.414 5.203.666.173l-.666-.173zm-30.82 38.93c-.85-8.597 9.21-9.965 0 0zm-5.014-1.516c-1.12-6.81 7.322-7.15 0 0zm11.88-16.21c9.235-8.356 13.437-.787.674-.138l-.673.138zm9.454 6.525c11.1-10.33 16.714-2.94 0 0zm8.948 3.75c10.17-8.83 15.325-3.16 0 0zm12.843 5.48c5.45-7.67 14.07-1.53 0 0zm34.48 33.34c2.54-11.54 13.11-12.33 0 0zm56.21-14.03c8.73-12.2 10.61-2.99 0 0zm-50.12 11.93c2.48-10.3 15.62-15.48 3.56-3.53-1.22 1.13-2.37 2.34-3.55 3.52zm57.02-10.65c8.85-10.51 12.89-5.44 0 0zm-46.14 3.96c6.14-14.3 15.54-13.25 0 0zm56.62-3.71c9.01-12.59 10.76-3.19 0 0zm-127-118.98c14.51.3 10.64 6.17.3.16l-.29-.17zm17.57-134.38c11.48 1.17 13.89 12.98 0 0zm-5.48-68.5c6.67 9.68 2.22 22.12.22 4.29l-.22-4.29zm-20.02 34.27c9.52-.82 10.58 8.67 0 0zm-10.21 66.74c19.07-2.58 15.31 4.45 0 0zm-1.08 124.96c14.02-1.4 14.25 4.19 0 0zm10.78-34.77c19.46 1.9 14.86 7.55 0 0zm22.84-131.68c13.89 1.24 13.93 11.26 0 0zm-43.5 223.08c14.42 1.77 23.63 16.74 39.3 18.33-4.74 2.6-36.72-13.32-31.1-11.94 7.2 9.89-14.84-2.67-4.87 5.92-3.42 5.97-20.49 5.96-9.48-1.75-9.42-10.99 10.94-.27 6.17-10.57zm163.55 49.81c9.24-.6 6.98-12.16 0 0zm.6 2.99c.78-6.49-5 1.05 0 0zm-55.59-48.02c9.14-12.89 19.43 17.14 3.25 6.81l-2.46-3.03-.79-3.79z" clip-rule="evenodd" fill="#f3d400" fill-rule="evenodd"/>
  <path d="M61.443 211.934c1.126-19.365 31.957-31.855 17.18-53.91-4.75-9.806-25.148-25.802-28.89-22.577 13.82 15.22 14.113 34.906-3.95 46.684-13.147 15.24-4.97 43.39 11.18 49.65-2.036-9.18 5.03-12.06 4.48-19.84z" clip-rule="evenodd" fill="#912c17" fill-rule="evenodd"/>
  <path d="M44.876 214.295c-12.508-16.867 5.73-33.66 15.16-46.795 6.656-8.58 7.2-29.874 16.506-9.59 13.566 21.118-11.037 36.27-20.807 52.166-7.04 5.855 2.703 27.976-6.957 12.16l-2.066-3.897-1.836-4.05z" clip-rule="evenodd" fill="#d92819" fill-rule="evenodd"/>
  <path d="M79.07 163.493c3.38 24.856-29.87 38.134-28.273 61.19-4.005-21.33 20.25-30.906 26.072-49.368 1.59-3.696 2.97-7.722 2.2-11.822z" clip-rule="evenodd" fill="#f9f200" fill-rule="evenodd"/>
  <path d="M77.383 159.737c3.86 25.406-26.62 37.283-29.362 60.897-.71-19.843 19.32-28.08 25.61-44.976 2.23-4.955 4.64-10.34 3.76-15.92zm-37.593 44.78c4.044-18.093 31.125-47.19 28.657-54.157-.888 22.447-26.457 34.196-27.827 56.724l-.83-2.567z" clip-rule="evenodd" fill="#f9f200" fill-rule="evenodd"/>
  <path d="M41.134 208.293c3.04-19.013 30.65-48.717 29.086-55.885-2.07 20.395-28.298 40.962-29.086 55.885z" clip-rule="evenodd" fill="#f9f200" fill-rule="evenodd"/>
  <path d="M39.713 318.237c3.584-22.696 23.28-46.785 35.896-60.07 10.07 21.733 3.84 44.055-13.23 60.558-6.95 7.89-8.53 22.78-15.99 7.753-2.5-2.498-5.15-4.995-6.69-8.24z" clip-rule="evenodd" fill="#912c17" fill-rule="evenodd"/>
  <path d="M41.444 318.32c3.966-20.62 19.938-42.345 33.288-54.116 10.782 17.316 1.826 34.566-10.02 47.867-7.777 12.16-11.87 25.4-23.268 6.25z" clip-rule="evenodd" fill="#d92819" fill-rule="evenodd"/>
  <path d="M79.442 279.815c-.776 17.167-25.74 42.912-26.746 47.487 6.737-17.036 23.198-28.982 26.746-47.487z" clip-rule="evenodd" fill="#f9f200" fill-rule="evenodd"/>
  <path d="M78.62 277.328c-.815 17.34-25.917 43.225-26.977 47.982 6.66-17.277 23.457-29.267 26.976-47.982zm-36.68 42.567c2.1-19.802 23.815-45.366 31.43-53.035-11.01 16.054-25.754 30.474-29.874 50.22l-1.557 2.815z" clip-rule="evenodd" fill="#f9f200" fill-rule="evenodd"/>
  <path d="M43.553 321.42c1.61-18.9 23.723-45.136 30.07-51-11.123 16.05-25.923 30.796-29.32 50.76l-.748.24z" clip-rule="evenodd" fill="#f9f200" fill-rule="evenodd"/>
  <path d="M53.13 369.672c22.586-.614 43.067-30.11 65.536-12.195 10.3 5.46 19.26 13.825 1.585 12.34-19.82-.56-36.19 25.188-55.72 12.8-3.22-4.976-10.21-6.718-11.4-12.945z" clip-rule="evenodd" fill="#912c17" fill-rule="evenodd"/>
  <path d="M55.414 371.043c22.266-3.528 45.608-30.282 67.17-9.598 8.924 7.65-19.463 3.51-22.664 12.217-14.33 13.906-33.123 12.802-44.506-2.62z" clip-rule="evenodd" fill="#d92819" fill-rule="evenodd"/>
  <path d="M55.748 372.316c17.57-2.47 38.753-21.388 52.826-17.47-20.227-.695-33.563 16.183-52.826 17.47z" clip-rule="evenodd" fill="#f9f200" fill-rule="evenodd"/>
  <path d="M57.065 373.948c17.287-3.73 45.494-22.61 55.174-17.84-19.63-.076-35.35 14.497-53.77 18.42l-1.41-.58zm67.812-10.71c-17.013-.062-45.017 21.192-51.176 19.905 17.17-5.8 32.53-21.033 51.18-19.905z" clip-rule="evenodd" fill="#f9f200" fill-rule="evenodd"/>
  <path d="M123.028 361.816c-16.92-.035-44.848 20.96-50.902 19.9 17.056-5.854 32.317-21.075 50.902-19.9z" clip-rule="evenodd" fill="#f9f200" fill-rule="evenodd"/>
  <path d="M160.842 356.345c15.608.31 16.734 13.566 1.067 9.973-9.41 3.902-22.84 8.712-23.91 20.304 25.65 4.843-11.81 23.39-18.34 9.3 12.29-14.073 20.15-37.323 41.16-39.577z" clip-rule="evenodd" fill="#d92819" fill-rule="evenodd"/>
  <path d="M162.437 356.504c-20.75 4.872-28.595 27.387-42.073 40.99 10.862-12.51 19.174-35.69 38.624-40.475l3.45-.52z" clip-rule="evenodd" fill="#f9f200" fill-rule="evenodd"/>
  <path d="M165.683 357.802c-21.35 3.836-29.395 27.044-43.102 39.924 13.32-13.806 20.46-39.134 43.11-39.924zm-18.35 34.594c-4.33 7.756-11.876 9.684 0 0zm28.607-30.212c-2.42 3.915-11.455 6.13-3.4 1.517l3.4-1.51zm-2.153-.78c-4.073 5.068-11.432 4.388 0 0zm-28.083 29.952c-15.967 19.855-.622-4.245 0 0z" clip-rule="evenodd" fill="#f9f200" fill-rule="evenodd"/>
  <path d="M71.737 89.573c11.125-18.575 27.612 19.76 8.314 11.897-2.99-3.77-3.25-9.98-8.31-11.897z" clip-rule="evenodd" fill="#d92819" fill-rule="evenodd"/>
  <path d="M73.577 89.004c7.227 4.354 17.388 22.267 5.717 7.996-1.32-2.976-2.465-6.555-5.717-7.996z" clip-rule="evenodd" fill="#f9f200" fill-rule="evenodd"/>
  <path d="M75.047 88.27c6.913 4.63 17.623 21.76 5.723 8.006-1.342-2.97-2.47-6.556-5.723-8.008z" clip-rule="evenodd" fill="#f9f200" fill-rule="evenodd"/>
  <path d="M97.233 63.032c19.57 1.65 31.452 31.584 37.094 41.447-21.823 18.17-29.68-18.28-42.27-26.84-14.76-3.31 1.657-9.05 5.176-14.62z" clip-rule="evenodd" fill="#d92819" fill-rule="evenodd"/>
  <path d="M86.02 73.402c17.902.393 28.845 38.145 36.292 35.596-17.985-4.797-16.645-33.707-36.29-35.596z" clip-rule="evenodd" fill="#f9f200" fill-rule="evenodd"/>
  <path d="M87.374 72.1c17.9.394 28.844 38.147 36.29 35.597-18.072-4.89-16.558-33.614-36.29-35.596zm8.304-7.69c19.835-1.987 30.44 37.782 37.968 36.34-17.25-6.89-16.753-35.99-37.968-36.34z" clip-rule="evenodd" fill="#f9f200" fill-rule="evenodd"/>
  <path d="M94.45 65.514c19.764-2.117 30.276 37.507 37.592 36.16-16.95-7.034-16.502-35.906-37.592-36.16z" clip-rule="evenodd" fill="#f9f200" fill-rule="evenodd"/>
  <path d="M176.216 228c5.767 3.412-5.61 3.19 0 0z" clip-rule="evenodd" fill="#912c17" fill-rule="evenodd"/>
  <path d="M147.764 94.416c7.22-4.793 22.747-23.96 23.19-4.463-5.74 8.28-29.642 29.3-23.19 4.463z" clip-rule="evenodd" fill="#9c7d23" fill-rule="evenodd"/>
  <path d="M149.768 95.31c4.277-6.164 23.68-19.074 18.607-5.268-5.234 4.195-23.234 27.552-18.607 5.268z" clip-rule="evenodd" fill="#f3d400" fill-rule="evenodd"/>
</svg>
